<svg width="177" height="32" viewBox="0 0 177 32" fill="none" xmlns="http://www.w3.org/2000/svg">
<g clip-path="url(#clip0_4_15)">
<path d="M0 15.7538C0 10.2395 0 7.48228 1.40305 5.37609C2.6372 3.52342 4.60647 2.01715 7.02863 1.07317C9.78223 0 13.387 0 20.5964 0H156.404C163.613 0 167.218 0 169.971 1.07317C172.393 2.01715 174.363 3.52342 175.597 5.37609C177 7.48228 177 10.2395 177 15.7538V16.2462C177 21.7605 177 24.5177 175.597 26.6239C174.363 28.4766 172.393 29.9828 169.971 30.9268C167.218 32 163.613 32 156.404 32H20.5964C13.387 32 9.78223 32 7.02863 30.9268C4.60647 29.9828 2.6372 28.4766 1.40305 26.6239C0 24.5177 0 21.7605 0 16.2462V15.7538Z" fill="white"/>
<path d="M41.8886 12.6235H40.7564C40.6895 12.2564 40.5723 11.9338 40.4049 11.6558C40.2405 11.378 40.0397 11.1446 39.8023 10.9559C39.5679 10.7637 39.3078 10.6196 39.0217 10.5235C38.7355 10.4275 38.4373 10.3794 38.1269 10.3794C37.5608 10.3794 37.048 10.5407 36.5884 10.8632C36.132 11.1858 35.7683 11.661 35.4974 12.2889C35.2296 12.9169 35.0956 13.6873 35.0956 14.6C35.0956 15.5127 35.2296 16.2831 35.4974 16.911C35.7683 17.539 36.132 18.0142 36.5884 18.3368C37.048 18.6593 37.5608 18.8206 38.1269 18.8206C38.4373 18.8206 38.7355 18.7726 39.0217 18.6765C39.3078 18.5804 39.5679 18.438 39.8023 18.2492C40.0397 18.0571 40.2405 17.8221 40.4049 17.5441C40.5723 17.2628 40.6895 16.9402 40.7564 16.5765H41.8886C41.8034 17.1152 41.6481 17.5973 41.4229 18.0228C41.1977 18.4483 40.9177 18.8104 40.5829 19.1088C40.2481 19.4039 39.8723 19.6287 39.4553 19.7831C39.0414 19.9375 38.5986 20.0147 38.1269 20.0147C37.3295 20.0147 36.6204 19.7951 35.9996 19.3559C35.3787 18.9167 34.8902 18.2922 34.5341 17.4824C34.178 16.6726 34 15.7118 34 14.6C34 13.4882 34.178 12.5275 34.5341 11.7177C34.8902 10.9078 35.3787 10.2834 35.9996 9.84408C36.6204 9.4049 37.3295 9.18532 38.1269 9.18532C38.5986 9.18532 39.0414 9.26255 39.4553 9.41691C39.8723 9.57128 40.2481 9.7978 40.5829 10.0963C40.9177 10.3914 41.1977 10.7517 41.4229 11.1772C41.6481 11.5993 41.8034 12.0814 41.8886 12.6235ZM46.4205 20.0353C45.7875 20.0353 45.2321 19.8654 44.7543 19.5258C44.2795 19.1861 43.9082 18.7108 43.6404 18.1C43.3757 17.4892 43.2433 16.7755 43.2433 15.9588C43.2433 15.1353 43.3757 14.4165 43.6404 13.8022C43.9082 13.188 44.2795 12.711 44.7543 12.3713C45.2321 12.0317 45.7875 11.8618 46.4205 11.8618C47.0536 11.8618 47.6075 12.0317 48.0823 12.3713C48.56 12.711 48.9314 13.188 49.1961 13.8022C49.4639 14.4165 49.5978 15.1353 49.5978 15.9588C49.5978 16.7755 49.4639 17.4892 49.1961 18.1C48.9314 18.7108 48.56 19.1861 48.0823 19.5258C47.6075 19.8654 47.0536 20.0353 46.4205 20.0353ZM46.4205 18.9441C46.9014 18.9441 47.297 18.8052 47.6075 18.5272C47.9179 18.2492 48.1476 17.8839 48.2968 17.4309C48.4459 16.978 48.5205 16.4873 48.5205 15.9588C48.5205 15.4304 48.4459 14.938 48.2968 14.4816C48.1476 14.0252 47.9179 13.6563 47.6075 13.3751C47.297 13.0937 46.9014 12.953 46.4205 12.953C45.9397 12.953 45.5441 13.0937 45.2336 13.3751C44.9232 13.6563 44.6934 14.0252 44.5443 14.4816C44.3952 14.938 44.3206 15.4304 44.3206 15.9588C44.3206 16.4873 44.3952 16.978 44.5443 17.4309C44.6934 17.8839 44.9232 18.2492 45.2336 18.5272C45.5441 18.8052 45.9397 18.9441 46.4205 18.9441ZM52.3198 15.1147V19.8706H51.2424V11.9647H52.2833V13.2H52.3746C52.5389 12.7985 52.7885 12.476 53.1232 12.2324C53.458 11.9853 53.8902 11.8618 54.4198 11.8618C54.8945 11.8618 55.3099 11.9716 55.666 12.1912C56.0221 12.4074 56.299 12.7368 56.4968 13.1794C56.6947 13.6187 56.7936 14.1745 56.7936 14.847V19.8706H55.7162V14.9295C55.7162 14.3084 55.5732 13.8245 55.2871 13.478C55.001 13.1279 54.6085 12.953 54.1093 12.953C53.7654 12.953 53.458 13.037 53.1871 13.2052C52.9194 13.3733 52.7078 13.6187 52.5526 13.9412C52.3974 14.2638 52.3198 14.6549 52.3198 15.1147ZM61.8118 11.9647V12.9942H58.1779V11.9647H61.8118ZM59.237 10.0706H60.3144V17.6059C60.3144 17.949 60.3586 18.2064 60.4468 18.3779C60.5381 18.5461 60.6538 18.6593 60.7938 18.7177C60.9368 18.7726 61.0875 18.8 61.2457 18.8C61.3644 18.8 61.4618 18.7932 61.5378 18.7794C61.614 18.7623 61.6748 18.7486 61.7205 18.7382L61.9396 19.8294C61.8666 19.8604 61.7646 19.8912 61.6337 19.9221C61.5029 19.9564 61.337 19.9735 61.1361 19.9735C60.8318 19.9735 60.5336 19.8998 60.2414 19.7523C59.9522 19.6046 59.7118 19.3799 59.5201 19.078C59.3314 18.776 59.237 18.3951 59.237 17.9353V10.0706ZM63.4324 19.8706V11.9647H64.5097V19.8706H63.4324ZM63.9802 10.6471C63.7702 10.6471 63.5891 10.5664 63.4369 10.4051C63.2878 10.2439 63.2133 10.05 63.2133 9.82358C63.2133 9.59706 63.2878 9.40314 63.4369 9.24195C63.5891 9.08065 63.7702 9 63.9802 9C64.1902 9 64.3698 9.08065 64.5189 9.24195C64.6711 9.40314 64.7472 9.59706 64.7472 9.82358C64.7472 10.05 64.6711 10.2439 64.5189 10.4051C64.3698 10.5664 64.1902 10.6471 63.9802 10.6471ZM67.5604 15.1147V19.8706H66.483V11.9647H67.5238V13.2H67.6152C67.7795 12.7985 68.0291 12.476 68.3638 12.2324C68.6986 11.9853 69.1308 11.8618 69.6603 11.8618C70.1351 11.8618 70.5505 11.9716 70.9066 12.1912C71.2627 12.4074 71.5397 12.7368 71.7374 13.1794C71.9352 13.6187 72.0342 14.1745 72.0342 14.847V19.8706H70.9569V14.9295C70.9569 14.3084 70.8138 13.8245 70.5277 13.478C70.2416 13.1279 69.849 12.953 69.3499 12.953C69.006 12.953 68.6986 13.037 68.4277 13.2052C68.1599 13.3733 67.9484 13.6187 67.7932 13.9412C67.638 14.2638 67.5604 14.6549 67.5604 15.1147ZM78.4219 16.6382V11.9647H79.4993V19.8706H78.4219V18.5324H78.3488C78.1845 18.9339 77.9288 19.2753 77.5819 19.5566C77.2349 19.8346 76.7968 19.9735 76.2672 19.9735C75.8289 19.9735 75.4393 19.8654 75.0985 19.6493C74.7576 19.4297 74.4899 19.1002 74.295 18.6611C74.1003 18.2184 74.0029 17.6608 74.0029 16.9882V11.9647H75.0803V16.9059C75.0803 17.4824 75.2233 17.9422 75.5094 18.2854C75.7984 18.6285 76.1667 18.8 76.6141 18.8C76.882 18.8 77.1543 18.7228 77.4313 18.5684C77.7112 18.4139 77.9456 18.1772 78.1343 17.8581C78.3261 17.539 78.4219 17.1324 78.4219 16.6382ZM84.4126 20.0353C83.7368 20.0353 83.1537 19.8672 82.6643 19.5309C82.1767 19.1912 81.8011 18.7177 81.5367 18.1103C81.275 17.4996 81.1437 16.7893 81.1437 15.9794C81.1437 15.1696 81.275 14.4559 81.5367 13.8382C81.8011 13.2172 82.1694 12.7334 82.6413 12.3868C83.1161 12.0367 83.6698 11.8618 84.3033 11.8618C84.6679 11.8618 85.0287 11.9304 85.385 12.0677C85.7413 12.2049 86.0654 12.428 86.3574 12.7368C86.6494 13.0422 86.8817 13.4471 87.0553 13.9515C87.2288 14.4559 87.3161 15.077 87.3161 15.8147V16.3294H81.9104V15.2794H86.2206C86.2206 14.8334 86.1407 14.4353 85.9828 14.0853C85.8276 13.7353 85.6054 13.4591 85.3162 13.2566C85.0306 13.0542 84.6927 12.953 84.3033 12.953C83.8736 12.953 83.5026 13.0731 83.1886 13.3133C82.8782 13.55 82.6395 13.8589 82.4724 14.2397C82.3053 14.6206 82.2208 15.0289 82.2208 15.4647V16.1648C82.2208 16.7618 82.3126 17.2679 82.4953 17.6831C82.6808 18.0949 82.9379 18.4089 83.2666 18.625C83.5954 18.8378 83.9774 18.9441 84.4126 18.9441C84.6954 18.9441 84.9507 18.8995 85.1793 18.8104C85.4107 18.7177 85.61 18.5804 85.7771 18.3985C85.9451 18.2132 86.0737 17.9834 86.1655 17.7088L87.2059 18.0382C87.0966 18.4363 86.913 18.7863 86.654 19.0882C86.3951 19.3868 86.0755 19.6201 85.6954 19.7883C85.3152 19.9529 84.8873 20.0353 84.4126 20.0353ZM94.1588 19.8706L92.022 11.9647H93.1542L94.6702 18.0176H94.7437L96.2404 11.9647H97.391L98.8703 17.997H98.9428L100.459 11.9647H101.591L99.4543 19.8706H98.3955L96.8612 13.797H96.7519L95.2184 19.8706H94.1588ZM103.015 19.8706V11.9647H104.092V19.8706H103.015ZM103.563 10.6471C103.353 10.6471 103.172 10.5664 103.02 10.4051C102.871 10.2439 102.796 10.05 102.796 9.82358C102.796 9.59706 102.871 9.40314 103.02 9.24195C103.172 9.08065 103.353 9 103.563 9C103.773 9 103.953 9.08065 104.101 9.24195C104.254 9.40314 104.33 9.59706 104.33 9.82358C104.33 10.05 104.254 10.2439 104.101 10.4051C103.953 10.5664 103.773 10.6471 103.563 10.6471ZM109.115 11.9647V12.9942H105.482V11.9647H109.115ZM106.54 10.0706H107.618V17.6059C107.618 17.949 107.662 18.2064 107.751 18.3779C107.841 18.5461 107.957 18.6593 108.098 18.7177C108.24 18.7726 108.391 18.8 108.549 18.8C108.668 18.8 108.765 18.7932 108.841 18.7794C108.918 18.7623 108.978 18.7486 109.024 18.7382L109.244 19.8294C109.17 19.8604 109.068 19.8912 108.937 19.9221C108.807 19.9564 108.64 19.9735 108.44 19.9735C108.135 19.9735 107.837 19.8998 107.545 19.7523C107.256 19.6046 107.015 19.3799 106.824 19.078C106.635 18.776 106.54 18.3951 106.54 17.9353V10.0706ZM111.964 15.1147V19.8706H110.886V9.32943H111.964V13.2H112.055C112.22 12.7917 112.466 12.4674 112.794 12.2272C113.127 11.9836 113.568 11.8618 114.119 11.8618C114.597 11.8618 115.015 11.9699 115.374 12.186C115.733 12.3988 116.012 12.7264 116.209 13.1691C116.41 13.6083 116.511 14.1677 116.511 14.847V19.8706H115.433V14.9295C115.433 14.3014 115.289 13.816 115 13.4728C114.714 13.1263 114.317 12.953 113.808 12.953C113.456 12.953 113.139 13.037 112.859 13.2052C112.581 13.3733 112.363 13.6187 112.201 13.9412C112.043 14.2638 111.964 14.6549 111.964 15.1147ZM124.928 23C124.407 23 123.96 22.9245 123.586 22.7736C123.211 22.6261 122.9 22.4304 122.65 22.1868C122.403 21.9466 122.207 21.6892 122.061 21.4148L122.919 20.7353C123.016 20.8794 123.139 21.0441 123.289 21.2294C123.438 21.4182 123.642 21.5811 123.9 21.7184C124.162 21.8591 124.505 21.9294 124.928 21.9294C125.494 21.9294 125.961 21.775 126.329 21.4662C126.697 21.1574 126.882 20.6736 126.882 20.0147V18.4089H126.79C126.711 18.553 126.598 18.7314 126.452 18.9441C126.309 19.1535 126.102 19.3404 125.832 19.5051C125.563 19.6664 125.202 19.7471 124.745 19.7471C124.179 19.7471 123.671 19.596 123.22 19.2942C122.773 18.9922 122.418 18.553 122.157 17.9765C121.898 17.4 121.768 16.7 121.768 15.8764C121.768 15.0666 121.895 14.3615 122.148 13.761C122.4 13.1571 122.752 12.6904 123.202 12.361C123.653 12.0282 124.173 11.8618 124.764 11.8618C125.22 11.8618 125.582 11.9476 125.85 12.1191C126.121 12.2873 126.327 12.4794 126.471 12.6956C126.617 12.9083 126.73 13.0833 126.809 13.2206H126.918V11.9647H127.959V20.0971C127.959 20.7765 127.822 21.3289 127.548 21.7544C127.277 22.1834 126.912 22.4974 126.452 22.6963C125.996 22.8989 125.488 23 124.928 23ZM124.891 18.6559C125.324 18.6559 125.688 18.5444 125.987 18.3214C126.285 18.0983 126.512 17.7774 126.667 17.3589C126.822 16.9402 126.899 16.4392 126.899 15.8559C126.899 15.2863 126.824 14.7836 126.672 14.3478C126.519 13.9121 126.294 13.5706 125.996 13.3235C125.697 13.0765 125.329 12.953 124.891 12.953C124.435 12.953 124.054 13.0833 123.75 13.3441C123.449 13.6049 123.222 13.9549 123.069 14.3941C122.921 14.8334 122.846 15.3206 122.846 15.8559C122.846 16.405 122.923 16.8904 123.074 17.3125C123.229 17.7312 123.458 18.0606 123.759 18.3008C124.063 18.5376 124.44 18.6559 124.891 18.6559ZM132.78 20.0353C132.146 20.0353 131.592 19.8654 131.113 19.5258C130.639 19.1861 130.268 18.7108 129.999 18.1C129.735 17.4892 129.603 16.7755 129.603 15.9588C129.603 15.1353 129.735 14.4165 129.999 13.8022C130.268 13.188 130.639 12.711 131.113 12.3713C131.592 12.0317 132.146 11.8618 132.78 11.8618C133.413 11.8618 133.966 12.0317 134.441 12.3713C134.919 12.711 135.29 13.188 135.556 13.8022C135.823 14.4165 135.957 15.1353 135.957 15.9588C135.957 16.7755 135.823 17.4892 135.556 18.1C135.29 18.7108 134.919 19.1861 134.441 19.5258C133.966 19.8654 133.413 20.0353 132.78 20.0353ZM132.78 18.9441C133.261 18.9441 133.656 18.8052 133.966 18.5272C134.277 18.2492 134.507 17.8839 134.656 17.4309C134.805 16.978 134.88 16.4873 134.88 15.9588C134.88 15.4304 134.805 14.938 134.656 14.4816C134.507 14.0252 134.277 13.6563 133.966 13.3751C133.656 13.0937 133.261 12.953 132.78 12.953C132.299 12.953 131.903 13.0937 131.593 13.3751C131.282 13.6563 131.053 14.0252 130.904 14.4816C130.754 14.938 130.68 15.4304 130.68 15.9588C130.68 16.4873 130.754 16.978 130.904 17.4309C131.053 17.8839 131.282 18.2492 131.593 18.5272C131.903 18.8052 132.299 18.9441 132.78 18.9441ZM140.45 20.0353C139.817 20.0353 139.262 19.8654 138.784 19.5258C138.309 19.1861 137.938 18.7108 137.67 18.1C137.405 17.4892 137.273 16.7755 137.273 15.9588C137.273 15.1353 137.405 14.4165 137.67 13.8022C137.938 13.188 138.309 12.711 138.784 12.3713C139.262 12.0317 139.817 11.8618 140.45 11.8618C141.083 11.8618 141.637 12.0317 142.112 12.3713C142.589 12.711 142.961 13.188 143.226 13.8022C143.494 14.4165 143.628 15.1353 143.628 15.9588C143.628 16.7755 143.494 17.4892 143.226 18.1C142.961 18.7108 142.589 19.1861 142.112 19.5258C141.637 19.8654 141.083 20.0353 140.45 20.0353ZM140.45 18.9441C140.931 18.9441 141.327 18.8052 141.637 18.5272C141.948 18.2492 142.177 17.8839 142.327 17.4309C142.476 16.978 142.55 16.4873 142.55 15.9588C142.55 15.4304 142.476 14.938 142.327 14.4816C142.177 14.0252 141.948 13.6563 141.637 13.3751C141.327 13.0937 140.931 12.953 140.45 12.953C139.97 12.953 139.574 13.0937 139.264 13.3751C138.953 13.6563 138.723 14.0252 138.574 14.4816C138.425 14.938 138.35 15.4304 138.35 15.9588C138.35 16.4873 138.425 16.978 138.574 17.4309C138.723 17.8839 138.953 18.2492 139.264 18.5272C139.574 18.8052 139.97 18.9441 140.45 18.9441ZM148.102 23C147.582 23 147.135 22.9245 146.76 22.7736C146.386 22.6261 146.074 22.4304 145.824 22.1868C145.578 21.9466 145.382 21.6892 145.236 21.4148L146.093 20.7353C146.192 20.8794 146.315 21.0441 146.463 21.2294C146.613 21.4182 146.817 21.5811 147.075 21.7184C147.337 21.8591 147.679 21.9294 148.102 21.9294C148.668 21.9294 149.135 21.775 149.504 21.4662C149.872 21.1574 150.056 20.6736 150.056 20.0147V18.4089H149.965C149.886 18.553 149.774 18.7314 149.627 18.9441C149.484 19.1535 149.277 19.3404 149.006 19.5051C148.739 19.6664 148.376 19.7471 147.92 19.7471C147.354 19.7471 146.845 19.596 146.395 19.2942C145.947 18.9922 145.593 18.553 145.331 17.9765C145.072 17.4 144.944 16.7 144.944 15.8764C144.944 15.0666 145.07 14.3615 145.322 13.761C145.575 13.1571 145.926 12.6904 146.377 12.361C146.827 12.0282 147.348 11.8618 147.938 11.8618C148.394 11.8618 148.757 11.9476 149.024 12.1191C149.295 12.2873 149.503 12.4794 149.645 12.6956C149.791 12.9083 149.904 13.0833 149.983 13.2206H150.093V11.9647H151.134V20.0971C151.134 20.7765 150.997 21.3289 150.723 21.7544C150.452 22.1834 150.087 22.4974 149.627 22.6963C149.17 22.8989 148.663 23 148.102 23ZM148.066 18.6559C148.498 18.6559 148.864 18.5444 149.161 18.3214C149.46 18.0983 149.686 17.7774 149.842 17.3589C149.997 16.9402 150.075 16.4392 150.075 15.8559C150.075 15.2863 149.999 14.7836 149.846 14.3478C149.694 13.9121 149.469 13.5706 149.17 13.3235C148.873 13.0765 148.504 12.953 148.066 12.953C147.609 12.953 147.229 13.0833 146.924 13.3441C146.623 13.6049 146.396 13.9549 146.245 14.3941C146.095 14.8334 146.021 15.3206 146.021 15.8559C146.021 16.405 146.097 16.8904 146.249 17.3125C146.405 17.7312 146.632 18.0606 146.934 18.3008C147.238 18.5376 147.616 18.6559 148.066 18.6559ZM154.183 9.32943V19.8706H153.106V9.32943H154.183ZM159.097 20.0353C158.421 20.0353 157.838 19.8672 157.348 19.5309C156.861 19.1912 156.485 18.7177 156.221 18.1103C155.959 17.4996 155.828 16.7893 155.828 15.9794C155.828 15.1696 155.959 14.4559 156.221 13.8382C156.485 13.2172 156.853 12.7334 157.325 12.3868C157.8 12.0367 158.354 11.8618 158.986 11.8618C159.352 11.8618 159.713 11.9304 160.069 12.0677C160.425 12.2049 160.749 12.428 161.041 12.7368C161.333 13.0422 161.566 13.4471 161.739 13.9515C161.913 14.4559 162 15.077 162 15.8147V16.3294H156.594V15.2794H160.905C160.905 14.8334 160.825 14.4353 160.667 14.0853C160.512 13.7353 160.289 13.4591 160 13.2566C159.715 13.0542 159.377 12.953 158.986 12.953C158.558 12.953 158.187 13.0731 157.873 13.3133C157.562 13.55 157.323 13.8589 157.156 14.2397C156.989 14.6206 156.905 15.0289 156.905 15.4647V16.1648C156.905 16.7618 156.997 17.2679 157.179 17.6831C157.365 18.0949 157.622 18.4089 157.951 18.625C158.279 18.8378 158.661 18.9441 159.097 18.9441C159.379 18.9441 159.635 18.8995 159.863 18.8104C160.095 18.7177 160.294 18.5804 160.461 18.3985C160.629 18.2132 160.758 17.9834 160.849 17.7088L161.89 18.0382C161.781 18.4363 161.597 18.7863 161.338 19.0882C161.079 19.3868 160.759 19.6201 160.379 19.7883C159.999 19.9529 159.571 20.0353 159.097 20.0353Z" fill="#1C1C1C"/>
<mask id="mask0_4_15" style="mask-type:luminance" maskUnits="userSpaceOnUse" x="10" y="7" width="17" height="17">
<path d="M26.55 7.0722H10.4591V23.7368H26.55V7.0722Z" fill="white"/>
</mask>
<g mask="url(#mask0_4_15)">
<path d="M26.2282 15.5939C26.2282 15.0031 26.177 14.435 26.0819 13.8895H18.5045V17.1126H22.8344C22.6479 18.1542 22.0811 19.0366 21.229 19.6275V21.7182H23.8292C25.3505 20.2676 26.2282 18.1314 26.2282 15.5939Z" fill="#4285F4"/>
<path d="M18.5046 23.7368C20.6768 23.7368 22.498 22.9907 23.8291 21.7182L21.229 19.6275C20.5086 20.1275 19.587 20.4228 18.5046 20.4228C16.409 20.4228 14.6354 18.9571 14.0027 16.9877H11.3148V19.1465C12.6387 21.8697 15.3595 23.7368 18.5046 23.7368Z" fill="#34A853"/>
<path d="M14.0027 16.9877C13.8418 16.4877 13.7504 15.9537 13.7504 15.4045C13.7504 14.8553 13.8418 14.3213 14.0027 13.8214V11.6626H11.3148C10.77 12.7874 10.4591 14.06 10.4591 15.4045C10.4591 16.749 10.77 18.0216 11.3148 19.1465L14.0027 16.9877Z" fill="#FBBC04"/>
<path d="M18.5046 10.3862C19.6857 10.3862 20.7463 10.8066 21.5801 11.6322L23.8877 9.24236C22.4944 7.89785 20.6731 7.0722 18.5046 7.0722C15.3595 7.0722 12.6387 8.93939 11.3148 11.6626L14.0027 13.8214C14.6354 11.852 16.409 10.3862 18.5046 10.3862Z" fill="#E94235"/>
</g>
<path d="M20.2863 0H156.714C160.342 0 163.038 0.000244075 165.174 0.135734C167.305 0.270925 168.843 0.5392 170.16 1.06002C172.517 1.99243 174.434 3.48024 175.635 5.31021C176.306 6.33236 176.651 7.52615 176.825 9.1808C177 10.8392 177 12.9326 177 15.749V16.251C177 19.0674 177 21.1608 176.825 22.8192C176.651 24.4739 176.306 25.6676 175.635 26.6898C174.434 28.5198 172.517 30.0076 170.16 30.94C168.843 31.4608 167.305 31.7291 165.174 31.8643C163.038 31.9997 160.342 32 156.714 32H20.2863C16.6584 32 13.9619 31.9997 11.8258 31.8643C9.69443 31.7291 8.15671 31.4608 6.84008 30.94C4.48289 30.0076 2.56645 28.5198 1.36541 26.6898C0.694543 25.6676 0.348979 24.4739 0.174839 22.8192C0.000314393 21.1608 0 19.0674 0 16.251V15.749C0 12.9326 0.000314393 10.8392 0.174839 9.1808C0.348979 7.52615 0.694543 6.33236 1.36541 5.31021C2.56645 3.48024 4.48289 1.99243 6.84008 1.06002C8.15671 0.5392 9.69443 0.270925 11.8258 0.135734C13.9619 0.000244075 16.6584 0 20.2863 0Z" stroke="#1C1C1C" stroke-opacity="0.1"/>
</g>
<defs>
<clipPath id="clip0_4_15">
<rect width="177" height="32" fill="white"/>
</clipPath>
</defs>
</svg>
