<svg width="20" height="20" viewBox="0 0 20 20" fill="none" xmlns="http://www.w3.org/2000/svg">
<path d="M10.204 3.86667C12.1201 3.86667 13.4126 4.67778 14.1496 5.35556L17.0294 2.6C15.2607 0.98889 12.9591 0 10.204 0C6.2131 0 2.76638 2.24445 1.08838 5.51112L4.3877 8.02223C5.21536 5.61112 7.50561 3.86667 10.204 3.86667V3.86667Z" fill="#F25022"/>
<path d="M20 10.2222C20 9.39996 19.932 8.79996 19.7846 8.17773H10.2041V11.8888H15.8277C15.7143 12.8111 15.1021 14.2 13.7415 15.1333L16.9615 17.5777C18.8889 15.8333 20 13.2666 20 10.2222V10.2222Z" fill="#4285F4"/>
<path d="M4.39909 11.9774C4.18367 11.3552 4.05896 10.6885 4.05896 9.99964C4.05896 9.31075 4.18367 8.64408 4.38776 8.02186L1.08844 5.51074C0.396825 6.8663 0 8.38852 0 9.99964C0 11.6107 0.396825 13.133 1.08844 14.4885L4.39909 11.9774V11.9774Z" fill="#FBBC05"/>
<path d="M10.204 19.9998C12.9591 19.9998 15.2721 19.1109 16.9614 17.5775L13.7415 15.1331C12.8798 15.722 11.7233 16.1331 10.204 16.1331C7.50563 16.1331 5.21538 14.3887 4.39905 11.9775L1.09973 14.4887C2.77774 17.7553 6.21311 19.9998 10.204 19.9998V19.9998Z" fill="#34A853"/>
</svg>
