<svg width="400" height="474" viewBox="0 0 400 474" fill="none" xmlns="http://www.w3.org/2000/svg">
<g clip-path="url(#clip0_0_219)">
<g filter="url(#filter0_d_0_219)">
<rect width="400" height="474" rx="28" fill="white"/>
</g>
<g filter="url(#filter1_d_0_219)">
<g clip-path="url(#clip1_0_219)">
<rect x="55" y="364" width="290" height="55" rx="27.5" fill="#1B69FD"/>
<rect x="55" y="364" width="290" height="55" rx="27.5" fill="#02BAFF" fill-opacity="0.866667"/>
<path d="M154.193 395.562C154.193 396.33 154.007 396.984 153.635 397.524C153.263 398.052 152.729 398.46 152.033 398.748C151.349 399.036 150.539 399.18 149.603 399.18C149.123 399.18 148.661 399.156 148.217 399.108C147.785 399.06 147.389 398.994 147.029 398.91C146.669 398.814 146.351 398.7 146.075 398.568V397.02C146.507 397.212 147.041 397.386 147.677 397.542C148.325 397.698 148.991 397.776 149.675 397.776C150.311 397.776 150.845 397.692 151.277 397.524C151.709 397.356 152.033 397.116 152.249 396.804C152.465 396.492 152.573 396.126 152.573 395.706C152.573 395.286 152.483 394.932 152.303 394.644C152.123 394.356 151.811 394.092 151.367 393.852C150.935 393.6 150.329 393.336 149.549 393.06C148.997 392.856 148.511 392.64 148.091 392.412C147.683 392.172 147.341 391.902 147.065 391.602C146.789 391.302 146.579 390.96 146.435 390.576C146.303 390.192 146.237 389.748 146.237 389.244C146.237 388.56 146.411 387.978 146.759 387.498C147.107 387.006 147.587 386.628 148.199 386.364C148.823 386.1 149.537 385.968 150.341 385.968C151.049 385.968 151.697 386.034 152.285 386.166C152.873 386.298 153.407 386.472 153.887 386.688L153.383 388.074C152.939 387.882 152.453 387.72 151.925 387.588C151.409 387.456 150.869 387.39 150.305 387.39C149.765 387.39 149.315 387.468 148.955 387.624C148.595 387.78 148.325 388.002 148.145 388.29C147.965 388.566 147.875 388.89 147.875 389.262C147.875 389.694 147.965 390.054 148.145 390.342C148.325 390.63 148.619 390.888 149.027 391.116C149.435 391.344 149.987 391.59 150.683 391.854C151.439 392.13 152.075 392.43 152.591 392.754C153.119 393.066 153.515 393.444 153.779 393.888C154.055 394.332 154.193 394.89 154.193 395.562ZM160.292 389.172C161.12 389.172 161.828 389.352 162.416 389.712C163.016 390.072 163.472 390.582 163.784 391.242C164.108 391.89 164.27 392.652 164.27 393.528V394.482H157.664C157.688 395.574 157.964 396.408 158.492 396.984C159.032 397.548 159.782 397.83 160.742 397.83C161.354 397.83 161.894 397.776 162.362 397.668C162.842 397.548 163.334 397.38 163.838 397.164V398.55C163.346 398.766 162.86 398.922 162.38 399.018C161.9 399.126 161.33 399.18 160.67 399.18C159.758 399.18 158.948 398.994 158.24 398.622C157.544 398.25 156.998 397.698 156.602 396.966C156.218 396.222 156.026 395.316 156.026 394.248C156.026 393.192 156.2 392.286 156.548 391.53C156.908 390.774 157.406 390.192 158.042 389.784C158.69 389.376 159.44 389.172 160.292 389.172ZM160.274 390.468C159.518 390.468 158.918 390.714 158.474 391.206C158.042 391.686 157.784 392.358 157.7 393.222H162.614C162.614 392.67 162.53 392.19 162.362 391.782C162.194 391.374 161.936 391.056 161.588 390.828C161.252 390.588 160.814 390.468 160.274 390.468ZM170.38 389.19C171.556 389.19 172.426 389.448 172.99 389.964C173.554 390.48 173.836 391.302 173.836 392.43V399H172.684L172.378 397.632H172.306C172.03 397.98 171.742 398.274 171.442 398.514C171.154 398.742 170.818 398.91 170.434 399.018C170.062 399.126 169.606 399.18 169.066 399.18C168.49 399.18 167.968 399.078 167.5 398.874C167.044 398.67 166.684 398.358 166.42 397.938C166.156 397.506 166.024 396.966 166.024 396.318C166.024 395.358 166.402 394.62 167.158 394.104C167.914 393.576 169.078 393.288 170.65 393.24L172.288 393.186V392.61C172.288 391.806 172.114 391.248 171.766 390.936C171.418 390.624 170.926 390.468 170.29 390.468C169.786 390.468 169.306 390.546 168.85 390.702C168.394 390.846 167.968 391.014 167.572 391.206L167.086 390.018C167.506 389.79 168.004 389.598 168.58 389.442C169.156 389.274 169.756 389.19 170.38 389.19ZM170.848 394.338C169.648 394.386 168.814 394.578 168.346 394.914C167.89 395.25 167.662 395.724 167.662 396.336C167.662 396.876 167.824 397.272 168.148 397.524C168.484 397.776 168.91 397.902 169.426 397.902C170.242 397.902 170.92 397.68 171.46 397.236C172 396.78 172.27 396.084 172.27 395.148V394.284L170.848 394.338ZM181.316 389.172C181.496 389.172 181.688 389.184 181.892 389.208C182.108 389.22 182.294 389.244 182.45 389.28L182.252 390.738C182.096 390.702 181.922 390.672 181.73 390.648C181.55 390.624 181.376 390.612 181.208 390.612C180.836 390.612 180.482 390.69 180.146 390.846C179.81 391.002 179.51 391.224 179.246 391.512C178.982 391.788 178.772 392.124 178.616 392.52C178.472 392.916 178.4 393.36 178.4 393.852V399H176.816V389.352H178.112L178.292 391.116H178.364C178.568 390.756 178.814 390.432 179.102 390.144C179.39 389.844 179.72 389.61 180.092 389.442C180.464 389.262 180.872 389.172 181.316 389.172ZM187.77 399.18C186.918 399.18 186.156 399.006 185.484 398.658C184.824 398.31 184.302 397.77 183.918 397.038C183.546 396.306 183.36 395.37 183.36 394.23C183.36 393.042 183.558 392.076 183.954 391.332C184.35 390.588 184.884 390.042 185.556 389.694C186.24 389.346 187.014 389.172 187.878 389.172C188.37 389.172 188.844 389.226 189.3 389.334C189.756 389.43 190.128 389.55 190.416 389.694L189.93 391.008C189.642 390.9 189.306 390.798 188.922 390.702C188.538 390.606 188.178 390.558 187.842 390.558C187.194 390.558 186.66 390.696 186.24 390.972C185.82 391.248 185.508 391.656 185.304 392.196C185.1 392.736 184.998 393.408 184.998 394.212C184.998 394.98 185.1 395.634 185.304 396.174C185.508 396.714 185.814 397.122 186.222 397.398C186.63 397.674 187.14 397.812 187.752 397.812C188.28 397.812 188.742 397.758 189.138 397.65C189.546 397.542 189.918 397.41 190.254 397.254V398.658C189.93 398.826 189.57 398.952 189.174 399.036C188.79 399.132 188.322 399.18 187.77 399.18ZM194.133 389.334C194.133 389.562 194.121 389.796 194.097 390.036C194.085 390.276 194.067 390.492 194.043 390.684H194.151C194.355 390.348 194.613 390.072 194.925 389.856C195.237 389.64 195.585 389.478 195.969 389.37C196.353 389.25 196.749 389.19 197.157 389.19C197.937 389.19 198.585 389.316 199.101 389.568C199.629 389.808 200.025 390.186 200.289 390.702C200.553 391.218 200.685 391.89 200.685 392.718V399H199.119V392.826C199.119 392.046 198.945 391.464 198.597 391.08C198.249 390.696 197.703 390.504 196.959 390.504C196.239 390.504 195.675 390.642 195.267 390.918C194.859 391.182 194.565 391.578 194.385 392.106C194.217 392.622 194.133 393.258 194.133 394.014V399H192.549V385.32H194.133V389.334ZM212.005 389.19C213.181 389.19 214.051 389.448 214.615 389.964C215.179 390.48 215.461 391.302 215.461 392.43V399H214.309L214.003 397.632H213.931C213.655 397.98 213.367 398.274 213.067 398.514C212.779 398.742 212.443 398.91 212.059 399.018C211.687 399.126 211.231 399.18 210.691 399.18C210.115 399.18 209.593 399.078 209.125 398.874C208.669 398.67 208.309 398.358 208.045 397.938C207.781 397.506 207.649 396.966 207.649 396.318C207.649 395.358 208.027 394.62 208.783 394.104C209.539 393.576 210.703 393.288 212.275 393.24L213.913 393.186V392.61C213.913 391.806 213.739 391.248 213.391 390.936C213.043 390.624 212.551 390.468 211.915 390.468C211.411 390.468 210.931 390.546 210.475 390.702C210.019 390.846 209.593 391.014 209.197 391.206L208.711 390.018C209.131 389.79 209.629 389.598 210.205 389.442C210.781 389.274 211.381 389.19 212.005 389.19ZM212.473 394.338C211.273 394.386 210.439 394.578 209.971 394.914C209.515 395.25 209.287 395.724 209.287 396.336C209.287 396.876 209.449 397.272 209.773 397.524C210.109 397.776 210.535 397.902 211.051 397.902C211.867 397.902 212.545 397.68 213.085 397.236C213.625 396.78 213.895 396.084 213.895 395.148V394.284L212.473 394.338ZM221.861 389.172C222.497 389.172 223.067 389.292 223.571 389.532C224.087 389.772 224.525 390.138 224.885 390.63H224.975L225.191 389.352H226.451V399.162C226.451 400.074 226.295 400.836 225.983 401.448C225.671 402.072 225.197 402.54 224.561 402.852C223.925 403.164 223.115 403.32 222.131 403.32C221.435 403.32 220.793 403.266 220.205 403.158C219.629 403.062 219.113 402.912 218.657 402.708V401.25C218.969 401.406 219.311 401.538 219.683 401.646C220.055 401.766 220.457 401.856 220.889 401.916C221.321 401.976 221.765 402.006 222.221 402.006C223.049 402.006 223.697 401.76 224.165 401.268C224.645 400.788 224.885 400.128 224.885 399.288V398.91C224.885 398.766 224.891 398.562 224.903 398.298C224.915 398.022 224.927 397.83 224.939 397.722H224.867C224.531 398.214 224.111 398.58 223.607 398.82C223.115 399.06 222.539 399.18 221.879 399.18C220.631 399.18 219.653 398.742 218.945 397.866C218.249 396.99 217.901 395.766 217.901 394.194C217.901 393.162 218.057 392.274 218.369 391.53C218.693 390.774 219.149 390.192 219.737 389.784C220.325 389.376 221.033 389.172 221.861 389.172ZM222.077 390.504C221.537 390.504 221.075 390.648 220.691 390.936C220.319 391.224 220.031 391.644 219.827 392.196C219.635 392.748 219.539 393.42 219.539 394.212C219.539 395.4 219.755 396.312 220.187 396.948C220.631 397.572 221.273 397.884 222.113 397.884C222.605 397.884 223.025 397.824 223.373 397.704C223.721 397.572 224.009 397.374 224.237 397.11C224.465 396.834 224.633 396.486 224.741 396.066C224.849 395.646 224.903 395.148 224.903 394.572V394.194C224.903 393.318 224.801 392.61 224.597 392.07C224.405 391.53 224.099 391.134 223.679 390.882C223.259 390.63 222.725 390.504 222.077 390.504ZM233.169 389.19C234.345 389.19 235.215 389.448 235.779 389.964C236.343 390.48 236.625 391.302 236.625 392.43V399H235.473L235.167 397.632H235.095C234.819 397.98 234.531 398.274 234.231 398.514C233.943 398.742 233.607 398.91 233.223 399.018C232.851 399.126 232.395 399.18 231.855 399.18C231.279 399.18 230.757 399.078 230.289 398.874C229.833 398.67 229.473 398.358 229.209 397.938C228.945 397.506 228.813 396.966 228.813 396.318C228.813 395.358 229.191 394.62 229.947 394.104C230.703 393.576 231.867 393.288 233.439 393.24L235.077 393.186V392.61C235.077 391.806 234.903 391.248 234.555 390.936C234.207 390.624 233.715 390.468 233.079 390.468C232.575 390.468 232.095 390.546 231.639 390.702C231.183 390.846 230.757 391.014 230.361 391.206L229.875 390.018C230.295 389.79 230.793 389.598 231.369 389.442C231.945 389.274 232.545 389.19 233.169 389.19ZM233.637 394.338C232.437 394.386 231.603 394.578 231.135 394.914C230.679 395.25 230.451 395.724 230.451 396.336C230.451 396.876 230.613 397.272 230.937 397.524C231.273 397.776 231.699 397.902 232.215 397.902C233.031 397.902 233.709 397.68 234.249 397.236C234.789 396.78 235.059 396.084 235.059 395.148V394.284L233.637 394.338ZM241.189 389.352V399H239.605V389.352H241.189ZM240.415 385.734C240.655 385.734 240.865 385.818 241.045 385.986C241.237 386.142 241.333 386.394 241.333 386.742C241.333 387.078 241.237 387.33 241.045 387.498C240.865 387.666 240.655 387.75 240.415 387.75C240.151 387.75 239.929 387.666 239.749 387.498C239.569 387.33 239.479 387.078 239.479 386.742C239.479 386.394 239.569 386.142 239.749 385.986C239.929 385.818 240.151 385.734 240.415 385.734ZM248.89 389.172C250.042 389.172 250.912 389.454 251.5 390.018C252.088 390.57 252.382 391.47 252.382 392.718V399H250.816V392.826C250.816 392.046 250.642 391.464 250.294 391.08C249.946 390.696 249.4 390.504 248.656 390.504C247.588 390.504 246.85 390.804 246.442 391.404C246.034 392.004 245.83 392.868 245.83 393.996V399H244.246V389.352H245.524L245.758 390.666H245.848C246.064 390.33 246.328 390.054 246.64 389.838C246.964 389.61 247.318 389.442 247.702 389.334C248.086 389.226 248.482 389.172 248.89 389.172Z" fill="white"/>
</g>
</g>
<rect x="75" y="50" width="250" height="200" fill="white"/>
<path fill-rule="evenodd" clip-rule="evenodd" d="M282 115C285.866 115 289 118.134 289 122C289 125.866 285.866 129 282 129H242C245.866 129 249 132.134 249 136C249 139.866 245.866 143 242 143H264C267.866 143 271 146.134 271 150C271 153.866 267.866 157 264 157H253.826C248.952 157 245 160.134 245 164C245 166.577 247 168.911 251 171C254.866 171 258 174.134 258 178C258 181.866 254.866 185 251 185H168C164.134 185 161 181.866 161 178C161 174.134 164.134 171 168 171H129C125.134 171 122 167.866 122 164C122 160.134 125.134 157 129 157H169C172.866 157 176 153.866 176 150C176 146.134 172.866 143 169 143H144C140.134 143 137 139.866 137 136C137 132.134 140.134 129 144 129H184C180.134 129 177 125.866 177 122C177 118.134 180.134 115 184 115H282ZM282 143C285.866 143 289 146.134 289 150C289 153.866 285.866 157 282 157C278.134 157 275 153.866 275 150C275 146.134 278.134 143 282 143Z" fill="#F3F7FF"/>
<path d="M195.5 183C214.002 183 229 168.002 229 149.5C229 130.998 214.002 116 195.5 116C176.998 116 162 130.998 162 149.5C162 168.002 176.998 183 195.5 183Z" fill="#F3F7FF" stroke="#02BAFF" stroke-width="2.5"/>
<path fill-rule="evenodd" clip-rule="evenodd" d="M190.132 175.494C191.891 175.819 193.68 175.987 195.5 176C210.136 176 222 164.136 222 149.5C222 134.864 210.136 123 195.5 123C191.74 123 188.164 123.783 184.924 125.195C179.294 127.648 174.682 132 171.896 137.442C170.045 141.059 169 145.157 169 149.5C169 153.44 169.86 157.179 171.402 160.54C172.503 162.94 173.952 165.146 175.684 167.096" fill="white"/>
<path d="M190.132 175.494C191.891 175.819 193.68 175.987 195.5 176C210.136 176 222 164.136 222 149.5C222 134.864 210.136 123 195.5 123C191.74 123 188.164 123.783 184.924 125.195C179.294 127.648 174.682 132 171.896 137.442C170.045 141.059 169 145.157 169 149.5C169 153.44 169.86 157.179 171.402 160.54C172.503 162.94 173.952 165.146 175.684 167.096" stroke="#02BAFF" stroke-width="2.5" stroke-linecap="round"/>
<path d="M178.797 170.075C180.946 171.821 183.372 173.237 186.001 174.247" stroke="#02BAFF" stroke-width="2.5" stroke-linecap="round"/>
<path d="M223 176L229 182" stroke="#02BAFF" stroke-width="2.5"/>
<path fill-rule="evenodd" clip-rule="evenodd" d="M228.03 181.03C226.138 182.923 226.138 185.992 228.03 187.884L239.116 198.97C241.008 200.862 244.077 200.862 245.97 198.97C247.862 197.077 247.862 194.008 245.97 192.116L234.884 181.03C232.992 179.138 229.923 179.138 228.03 181.03Z" fill="#E8F0FE" stroke="#02BAFF" stroke-width="2.5"/>
<path d="M233 183L244 194" stroke="white" stroke-width="2.5" stroke-linecap="round"/>
<path fill-rule="evenodd" clip-rule="evenodd" d="M189 138C189 149.598 198.402 159 210 159C212.278 159 214.472 158.637 216.526 157.966C213.173 166.287 205.023 172.161 195.5 172.161C182.985 172.161 172.839 162.015 172.839 149.5C172.839 138.16 181.17 128.765 192.045 127.101C190.113 130.279 189 134.01 189 138Z" fill="#E8F0FE"/>
<path d="M196 131C194.727 131 193.482 131.125 192.279 131.364M188.645 132.476C181.804 135.351 177 142.114 177 150" stroke="#75A4FE" stroke-width="2.5" stroke-linecap="round"/>
<path d="M249.176 149.777H241M255.5 142H238.324H255.5ZM262.5 142H260.279H262.5Z" stroke="#75A4FE" stroke-width="2.5" stroke-linecap="round" stroke-linejoin="round"/>
<path d="M159.176 171.777H151M154.5 163H137.324H154.5ZM131.5 163H127.279H131.5Z" stroke="#75A4FE" stroke-width="2.5" stroke-linecap="round" stroke-linejoin="round"/>
<path d="M77.2616 274.74L80.9816 267.72H82.9216L78.1616 276.46V282H76.3616V276.54L71.6016 267.72H73.5616L77.2616 274.74ZM92.9536 276.62C92.9536 277.513 92.8336 278.307 92.5936 279C92.3669 279.68 92.0336 280.26 91.5936 280.74C91.1669 281.22 90.6403 281.587 90.0136 281.84C89.4003 282.08 88.7136 282.2 87.9536 282.2C87.2469 282.2 86.5936 282.08 85.9936 281.84C85.3936 281.587 84.8736 281.22 84.4336 280.74C83.9936 280.26 83.6469 279.68 83.3936 279C83.1536 278.307 83.0336 277.513 83.0336 276.62C83.0336 275.433 83.2336 274.433 83.6336 273.62C84.0336 272.793 84.6069 272.167 85.3536 271.74C86.1003 271.3 86.9869 271.08 88.0136 271.08C88.9869 271.08 89.8403 271.3 90.5736 271.74C91.3203 272.167 91.9003 272.793 92.3136 273.62C92.7403 274.433 92.9536 275.433 92.9536 276.62ZM84.8536 276.62C84.8536 277.46 84.9603 278.193 85.1736 278.82C85.4003 279.433 85.7469 279.907 86.2136 280.24C86.6803 280.573 87.2736 280.74 87.9936 280.74C88.7136 280.74 89.3069 280.573 89.7736 280.24C90.2403 279.907 90.5803 279.433 90.7936 278.82C91.0203 278.193 91.1336 277.46 91.1336 276.62C91.1336 275.767 91.0203 275.04 90.7936 274.44C90.5669 273.84 90.2203 273.38 89.7536 273.06C89.3003 272.727 88.7069 272.56 87.9736 272.56C86.8803 272.56 86.0869 272.92 85.5936 273.64C85.1003 274.36 84.8536 275.353 84.8536 276.62ZM104.703 271.28V282H103.263L103.003 280.58H102.923C102.696 280.953 102.403 281.26 102.043 281.5C101.683 281.74 101.29 281.913 100.863 282.02C100.436 282.14 99.9896 282.2 99.523 282.2C98.6696 282.2 97.9496 282.067 97.363 281.8C96.7896 281.52 96.3563 281.093 96.063 280.52C95.7696 279.947 95.623 279.207 95.623 278.3V271.28H97.403V278.18C97.403 279.033 97.5963 279.673 97.983 280.1C98.3696 280.527 98.9696 280.74 99.783 280.74C100.583 280.74 101.21 280.593 101.663 280.3C102.13 279.993 102.456 279.553 102.643 278.98C102.843 278.393 102.943 277.687 102.943 276.86V271.28H104.703ZM106.646 272.62C106.78 272.113 106.906 271.573 107.026 271C107.16 270.413 107.28 269.84 107.386 269.28C107.493 268.707 107.58 268.187 107.646 267.72H109.526L109.666 267.94C109.493 268.633 109.24 269.413 108.906 270.28C108.586 271.133 108.266 271.913 107.946 272.62H106.646ZM116.602 271.08C116.802 271.08 117.016 271.093 117.242 271.12C117.482 271.133 117.689 271.16 117.862 271.2L117.642 272.82C117.469 272.78 117.276 272.747 117.062 272.72C116.862 272.693 116.669 272.68 116.482 272.68C116.069 272.68 115.676 272.767 115.302 272.94C114.929 273.113 114.596 273.36 114.302 273.68C114.009 273.987 113.776 274.36 113.602 274.8C113.442 275.24 113.362 275.733 113.362 276.28V282H111.602V271.28H113.042L113.242 273.24H113.322C113.549 272.84 113.822 272.48 114.142 272.16C114.462 271.827 114.829 271.567 115.242 271.38C115.656 271.18 116.109 271.08 116.602 271.08ZM123.613 271.08C124.533 271.08 125.32 271.28 125.973 271.68C126.64 272.08 127.147 272.647 127.493 273.38C127.853 274.1 128.033 274.947 128.033 275.92V276.98H120.693C120.72 278.193 121.027 279.12 121.613 279.76C122.213 280.387 123.047 280.7 124.113 280.7C124.793 280.7 125.393 280.64 125.913 280.52C126.447 280.387 126.993 280.2 127.553 279.96V281.5C127.007 281.74 126.467 281.913 125.933 282.02C125.4 282.14 124.767 282.2 124.033 282.2C123.02 282.2 122.12 281.993 121.333 281.58C120.56 281.167 119.953 280.553 119.513 279.74C119.087 278.913 118.873 277.907 118.873 276.72C118.873 275.547 119.067 274.54 119.453 273.7C119.853 272.86 120.407 272.213 121.113 271.76C121.833 271.307 122.667 271.08 123.613 271.08ZM123.593 272.52C122.753 272.52 122.087 272.793 121.593 273.34C121.113 273.873 120.827 274.62 120.733 275.58H126.193C126.193 274.967 126.1 274.433 125.913 273.98C125.727 273.527 125.44 273.173 125.053 272.92C124.68 272.653 124.193 272.52 123.593 272.52ZM141.118 271.08C142.398 271.08 143.364 271.393 144.018 272.02C144.671 272.633 144.998 273.633 144.998 275.02V282H143.258V275.14C143.258 274.273 143.064 273.627 142.678 273.2C142.291 272.773 141.684 272.56 140.858 272.56C139.671 272.56 138.851 272.893 138.398 273.56C137.944 274.227 137.718 275.187 137.718 276.44V282H135.958V271.28H137.378L137.638 272.74H137.738C137.978 272.367 138.271 272.06 138.618 271.82C138.978 271.567 139.371 271.38 139.798 271.26C140.224 271.14 140.664 271.08 141.118 271.08ZM157.641 276.62C157.641 277.513 157.521 278.307 157.281 279C157.054 279.68 156.721 280.26 156.281 280.74C155.854 281.22 155.328 281.587 154.701 281.84C154.088 282.08 153.401 282.2 152.641 282.2C151.934 282.2 151.281 282.08 150.681 281.84C150.081 281.587 149.561 281.22 149.121 280.74C148.681 280.26 148.334 279.68 148.081 279C147.841 278.307 147.721 277.513 147.721 276.62C147.721 275.433 147.921 274.433 148.321 273.62C148.721 272.793 149.294 272.167 150.041 271.74C150.788 271.3 151.674 271.08 152.701 271.08C153.674 271.08 154.528 271.3 155.261 271.74C156.008 272.167 156.588 272.793 157.001 273.62C157.428 274.433 157.641 275.433 157.641 276.62ZM149.541 276.62C149.541 277.46 149.648 278.193 149.861 278.82C150.088 279.433 150.434 279.907 150.901 280.24C151.368 280.573 151.961 280.74 152.681 280.74C153.401 280.74 153.994 280.573 154.461 280.24C154.928 279.907 155.268 279.433 155.481 278.82C155.708 278.193 155.821 277.46 155.821 276.62C155.821 275.767 155.708 275.04 155.481 274.44C155.254 273.84 154.908 273.38 154.441 273.06C153.988 272.727 153.394 272.56 152.661 272.56C151.568 272.56 150.774 272.92 150.281 273.64C149.788 274.36 149.541 275.353 149.541 276.62ZM164.01 280.76C164.277 280.76 164.55 280.74 164.83 280.7C165.11 280.647 165.337 280.593 165.51 280.54V281.88C165.324 281.973 165.057 282.047 164.71 282.1C164.364 282.167 164.03 282.2 163.71 282.2C163.15 282.2 162.63 282.107 162.15 281.92C161.684 281.72 161.304 281.38 161.01 280.9C160.717 280.42 160.57 279.747 160.57 278.88V272.64H159.05V271.8L160.59 271.1L161.29 268.82H162.33V271.28H165.43V272.64H162.33V278.84C162.33 279.493 162.484 279.98 162.79 280.3C163.11 280.607 163.517 280.76 164.01 280.76ZM174.612 271.28V282H172.852V271.28H174.612ZM173.752 267.26C174.019 267.26 174.252 267.353 174.452 267.54C174.666 267.713 174.772 267.993 174.772 268.38C174.772 268.753 174.666 269.033 174.452 269.22C174.252 269.407 174.019 269.5 173.752 269.5C173.459 269.5 173.212 269.407 173.012 269.22C172.812 269.033 172.712 268.753 172.712 268.38C172.712 267.993 172.812 267.713 173.012 267.54C173.212 267.353 173.459 267.26 173.752 267.26ZM183.169 271.08C184.449 271.08 185.415 271.393 186.069 272.02C186.722 272.633 187.049 273.633 187.049 275.02V282H185.309V275.14C185.309 274.273 185.115 273.627 184.729 273.2C184.342 272.773 183.735 272.56 182.909 272.56C181.722 272.56 180.902 272.893 180.449 273.56C179.995 274.227 179.769 275.187 179.769 276.44V282H178.009V271.28H179.429L179.689 272.74H179.789C180.029 272.367 180.322 272.06 180.669 271.82C181.029 271.567 181.422 271.38 181.849 271.26C182.275 271.14 182.715 271.08 183.169 271.08ZM199.627 271.1C200.934 271.1 201.901 271.387 202.527 271.96C203.154 272.533 203.467 273.447 203.467 274.7V282H202.187L201.847 280.48H201.767C201.461 280.867 201.141 281.193 200.807 281.46C200.487 281.713 200.114 281.9 199.687 282.02C199.274 282.14 198.767 282.2 198.167 282.2C197.527 282.2 196.947 282.087 196.427 281.86C195.921 281.633 195.521 281.287 195.227 280.82C194.934 280.34 194.787 279.74 194.787 279.02C194.787 277.953 195.207 277.133 196.047 276.56C196.887 275.973 198.181 275.653 199.927 275.6L201.747 275.54V274.9C201.747 274.007 201.554 273.387 201.167 273.04C200.781 272.693 200.234 272.52 199.527 272.52C198.967 272.52 198.434 272.607 197.927 272.78C197.421 272.94 196.947 273.127 196.507 273.34L195.967 272.02C196.434 271.767 196.987 271.553 197.627 271.38C198.267 271.193 198.934 271.1 199.627 271.1ZM200.147 276.82C198.814 276.873 197.887 277.087 197.367 277.46C196.861 277.833 196.607 278.36 196.607 279.04C196.607 279.64 196.787 280.08 197.147 280.36C197.521 280.64 197.994 280.78 198.567 280.78C199.474 280.78 200.227 280.533 200.827 280.04C201.427 279.533 201.727 278.76 201.727 277.72V276.76L200.147 276.82ZM211.938 271.08C213.218 271.08 214.185 271.393 214.838 272.02C215.491 272.633 215.818 273.633 215.818 275.02V282H214.078V275.14C214.078 274.273 213.885 273.627 213.498 273.2C213.111 272.773 212.505 272.56 211.678 272.56C210.491 272.56 209.671 272.893 209.218 273.56C208.765 274.227 208.538 275.187 208.538 276.44V282H206.778V271.28H208.198L208.458 272.74H208.558C208.798 272.367 209.091 272.06 209.438 271.82C209.798 271.567 210.191 271.38 210.618 271.26C211.045 271.14 211.485 271.08 211.938 271.08ZM217.461 271.28H219.341L221.661 277.38C221.795 277.74 221.915 278.087 222.021 278.42C222.141 278.753 222.248 279.08 222.341 279.4C222.435 279.707 222.508 280.007 222.561 280.3H222.641C222.721 279.967 222.848 279.533 223.021 279C223.195 278.453 223.375 277.907 223.561 277.36L225.741 271.28H227.641L223.021 283.48C222.768 284.147 222.468 284.727 222.121 285.22C221.788 285.727 221.375 286.113 220.881 286.38C220.401 286.66 219.815 286.8 219.121 286.8C218.801 286.8 218.521 286.78 218.281 286.74C218.041 286.713 217.835 286.68 217.661 286.64V285.24C217.808 285.267 217.981 285.293 218.181 285.32C218.395 285.347 218.615 285.36 218.841 285.36C219.255 285.36 219.608 285.28 219.901 285.12C220.208 284.973 220.468 284.753 220.681 284.46C220.895 284.18 221.075 283.847 221.221 283.46L221.781 282.04L217.461 271.28ZM236.292 270.5C236.292 270.953 236.279 271.38 236.252 271.78C236.239 272.167 236.219 272.473 236.192 272.7H236.292C236.599 272.247 237.019 271.867 237.552 271.56C238.085 271.253 238.772 271.1 239.612 271.1C240.945 271.1 242.012 271.567 242.812 272.5C243.625 273.42 244.032 274.8 244.032 276.64C244.032 277.867 243.845 278.893 243.472 279.72C243.112 280.547 242.599 281.167 241.932 281.58C241.265 281.993 240.492 282.2 239.612 282.2C238.772 282.2 238.085 282.047 237.552 281.74C237.019 281.433 236.599 281.067 236.292 280.64H236.152L235.792 282H234.532V266.8H236.292V270.5ZM239.312 272.56C238.552 272.56 237.952 272.707 237.512 273C237.072 273.28 236.759 273.72 236.572 274.32C236.385 274.907 236.292 275.66 236.292 276.58V276.66C236.292 277.98 236.505 278.993 236.932 279.7C237.372 280.393 238.179 280.74 239.352 280.74C240.312 280.74 241.025 280.387 241.492 279.68C241.972 278.973 242.212 277.953 242.212 276.62C242.212 275.273 241.972 274.26 241.492 273.58C241.025 272.9 240.299 272.56 239.312 272.56ZM256.157 276.62C256.157 277.513 256.037 278.307 255.797 279C255.57 279.68 255.237 280.26 254.797 280.74C254.37 281.22 253.843 281.587 253.217 281.84C252.603 282.08 251.917 282.2 251.157 282.2C250.45 282.2 249.797 282.08 249.197 281.84C248.597 281.587 248.077 281.22 247.637 280.74C247.197 280.26 246.85 279.68 246.597 279C246.357 278.307 246.237 277.513 246.237 276.62C246.237 275.433 246.437 274.433 246.837 273.62C247.237 272.793 247.81 272.167 248.557 271.74C249.303 271.3 250.19 271.08 251.217 271.08C252.19 271.08 253.043 271.3 253.777 271.74C254.523 272.167 255.103 272.793 255.517 273.62C255.943 274.433 256.157 275.433 256.157 276.62ZM248.057 276.62C248.057 277.46 248.163 278.193 248.377 278.82C248.603 279.433 248.95 279.907 249.417 280.24C249.883 280.573 250.477 280.74 251.197 280.74C251.917 280.74 252.51 280.573 252.977 280.24C253.443 279.907 253.783 279.433 253.997 278.82C254.223 278.193 254.337 277.46 254.337 276.62C254.337 275.767 254.223 275.04 253.997 274.44C253.77 273.84 253.423 273.38 252.957 273.06C252.503 272.727 251.91 272.56 251.177 272.56C250.083 272.56 249.29 272.92 248.797 273.64C248.303 274.36 248.057 275.353 248.057 276.62ZM268.266 276.62C268.266 277.513 268.146 278.307 267.906 279C267.679 279.68 267.346 280.26 266.906 280.74C266.479 281.22 265.953 281.587 265.326 281.84C264.713 282.08 264.026 282.2 263.266 282.2C262.559 282.2 261.906 282.08 261.306 281.84C260.706 281.587 260.186 281.22 259.746 280.74C259.306 280.26 258.959 279.68 258.706 279C258.466 278.307 258.346 277.513 258.346 276.62C258.346 275.433 258.546 274.433 258.946 273.62C259.346 272.793 259.919 272.167 260.666 271.74C261.413 271.3 262.299 271.08 263.326 271.08C264.299 271.08 265.153 271.3 265.886 271.74C266.633 272.167 267.213 272.793 267.626 273.62C268.053 274.433 268.266 275.433 268.266 276.62ZM260.166 276.62C260.166 277.46 260.273 278.193 260.486 278.82C260.713 279.433 261.059 279.907 261.526 280.24C261.993 280.573 262.586 280.74 263.306 280.74C264.026 280.74 264.619 280.573 265.086 280.24C265.553 279.907 265.893 279.433 266.106 278.82C266.333 278.193 266.446 277.46 266.446 276.62C266.446 275.767 266.333 275.04 266.106 274.44C265.879 273.84 265.533 273.38 265.066 273.06C264.613 272.727 264.019 272.56 263.286 272.56C262.193 272.56 261.399 272.92 260.906 273.64C260.413 274.36 260.166 275.353 260.166 276.62ZM274.635 280.76C274.902 280.76 275.175 280.74 275.455 280.7C275.735 280.647 275.962 280.593 276.135 280.54V281.88C275.949 281.973 275.682 282.047 275.335 282.1C274.989 282.167 274.655 282.2 274.335 282.2C273.775 282.2 273.255 282.107 272.775 281.92C272.309 281.72 271.929 281.38 271.635 280.9C271.342 280.42 271.195 279.747 271.195 278.88V272.64H269.675V271.8L271.215 271.1L271.915 268.82H272.955V271.28H276.055V272.64H272.955V278.84C272.955 279.493 273.109 279.98 273.415 280.3C273.735 280.607 274.142 280.76 274.635 280.76ZM282.582 282.2C281.635 282.2 280.789 282.007 280.042 281.62C279.309 281.233 278.729 280.633 278.302 279.82C277.889 279.007 277.682 277.967 277.682 276.7C277.682 275.38 277.902 274.307 278.342 273.48C278.782 272.653 279.375 272.047 280.122 271.66C280.882 271.273 281.742 271.08 282.702 271.08C283.249 271.08 283.775 271.14 284.282 271.26C284.789 271.367 285.202 271.5 285.522 271.66L284.982 273.12C284.662 273 284.289 272.887 283.862 272.78C283.435 272.673 283.035 272.62 282.662 272.62C281.942 272.62 281.349 272.773 280.882 273.08C280.415 273.387 280.069 273.84 279.842 274.44C279.615 275.04 279.502 275.787 279.502 276.68C279.502 277.533 279.615 278.26 279.842 278.86C280.069 279.46 280.409 279.913 280.862 280.22C281.315 280.527 281.882 280.68 282.562 280.68C283.149 280.68 283.662 280.62 284.102 280.5C284.555 280.38 284.969 280.233 285.342 280.06V281.62C284.982 281.807 284.582 281.947 284.142 282.04C283.715 282.147 283.195 282.2 282.582 282.2ZM291.951 271.1C293.258 271.1 294.225 271.387 294.851 271.96C295.478 272.533 295.791 273.447 295.791 274.7V282H294.511L294.171 280.48H294.091C293.785 280.867 293.465 281.193 293.131 281.46C292.811 281.713 292.438 281.9 292.011 282.02C291.598 282.14 291.091 282.2 290.491 282.2C289.851 282.2 289.271 282.087 288.751 281.86C288.245 281.633 287.845 281.287 287.551 280.82C287.258 280.34 287.111 279.74 287.111 279.02C287.111 277.953 287.531 277.133 288.371 276.56C289.211 275.973 290.505 275.653 292.251 275.6L294.071 275.54V274.9C294.071 274.007 293.878 273.387 293.491 273.04C293.105 272.693 292.558 272.52 291.851 272.52C291.291 272.52 290.758 272.607 290.251 272.78C289.745 272.94 289.271 273.127 288.831 273.34L288.291 272.02C288.758 271.767 289.311 271.553 289.951 271.38C290.591 271.193 291.258 271.1 291.951 271.1ZM292.471 276.82C291.138 276.873 290.211 277.087 289.691 277.46C289.185 277.833 288.931 278.36 288.931 279.04C288.931 279.64 289.111 280.08 289.471 280.36C289.845 280.64 290.318 280.78 290.891 280.78C291.798 280.78 292.551 280.533 293.151 280.04C293.751 279.533 294.051 278.76 294.051 277.72V276.76L292.471 276.82ZM310.862 271.08C312.076 271.08 312.982 271.393 313.582 272.02C314.182 272.633 314.482 273.633 314.482 275.02V282H312.742V275.1C312.742 274.26 312.562 273.627 312.202 273.2C311.856 272.773 311.309 272.56 310.562 272.56C309.522 272.56 308.776 272.86 308.322 273.46C307.882 274.06 307.662 274.933 307.662 276.08V282H305.922V275.1C305.922 274.54 305.842 274.073 305.682 273.7C305.522 273.313 305.282 273.027 304.962 272.84C304.642 272.653 304.229 272.56 303.722 272.56C303.002 272.56 302.436 272.713 302.022 273.02C301.609 273.313 301.309 273.747 301.122 274.32C300.949 274.893 300.862 275.6 300.862 276.44V282H299.102V271.28H300.522L300.782 272.74H300.882C301.109 272.367 301.382 272.06 301.702 271.82C302.036 271.567 302.402 271.38 302.802 271.26C303.202 271.14 303.616 271.08 304.042 271.08C304.869 271.08 305.556 271.227 306.102 271.52C306.662 271.813 307.069 272.267 307.322 272.88H307.422C307.782 272.267 308.269 271.813 308.882 271.52C309.509 271.227 310.169 271.08 310.862 271.08ZM322.894 271.08C324.214 271.08 325.274 271.54 326.074 272.46C326.887 273.38 327.294 274.767 327.294 276.62C327.294 277.833 327.107 278.86 326.734 279.7C326.374 280.527 325.86 281.153 325.194 281.58C324.54 281.993 323.767 282.2 322.874 282.2C322.327 282.2 321.84 282.127 321.414 281.98C320.987 281.833 320.62 281.647 320.314 281.42C320.02 281.18 319.767 280.92 319.554 280.64H319.434C319.46 280.867 319.487 281.153 319.514 281.5C319.54 281.847 319.554 282.147 319.554 282.4V286.8H317.794V271.28H319.234L319.474 272.74H319.554C319.767 272.433 320.02 272.153 320.314 271.9C320.62 271.647 320.98 271.447 321.394 271.3C321.82 271.153 322.32 271.08 322.894 271.08ZM322.574 272.56C321.854 272.56 321.274 272.7 320.834 272.98C320.394 273.247 320.074 273.653 319.874 274.2C319.674 274.747 319.567 275.44 319.554 276.28V276.62C319.554 277.5 319.647 278.247 319.834 278.86C320.02 279.473 320.334 279.94 320.774 280.26C321.227 280.58 321.84 280.74 322.614 280.74C323.267 280.74 323.8 280.56 324.214 280.2C324.64 279.84 324.954 279.353 325.154 278.74C325.367 278.113 325.474 277.4 325.474 276.6C325.474 275.373 325.234 274.393 324.754 273.66C324.287 272.927 323.56 272.56 322.574 272.56Z" fill="#4A4A4A"/>
</g>
<defs>
<filter id="filter0_d_0_219" x="-23" y="-12" width="446" height="520" filterUnits="userSpaceOnUse" color-interpolation-filters="sRGB">
<feFlood flood-opacity="0" result="BackgroundImageFix"/>
<feColorMatrix in="SourceAlpha" type="matrix" values="0 0 0 0 0 0 0 0 0 0 0 0 0 0 0 0 0 0 127 0" result="hardAlpha"/>
<feOffset dy="11"/>
<feGaussianBlur stdDeviation="11.5"/>
<feColorMatrix type="matrix" values="0 0 0 0 0 0 0 0 0 0 0 0 0 0 0 0 0 0 0.1819 0"/>
<feBlend mode="normal" in2="BackgroundImageFix" result="effect1_dropShadow_0_219"/>
<feBlend mode="normal" in="SourceGraphic" in2="effect1_dropShadow_0_219" result="shape"/>
</filter>
<filter id="filter1_d_0_219" x="43" y="358" width="314" height="79" filterUnits="userSpaceOnUse" color-interpolation-filters="sRGB">
<feFlood flood-opacity="0" result="BackgroundImageFix"/>
<feColorMatrix in="SourceAlpha" type="matrix" values="0 0 0 0 0 0 0 0 0 0 0 0 0 0 0 0 0 0 127 0" result="hardAlpha"/>
<feOffset dy="6"/>
<feGaussianBlur stdDeviation="6"/>
<feColorMatrix type="matrix" values="0 0 0 0 0.105882 0 0 0 0 0.411765 0 0 0 0 0.992157 0 0 0 0.391772 0"/>
<feBlend mode="normal" in2="BackgroundImageFix" result="effect1_dropShadow_0_219"/>
<feBlend mode="normal" in="SourceGraphic" in2="effect1_dropShadow_0_219" result="shape"/>
</filter>
<clipPath id="clip0_0_219">
<rect width="400" height="474" fill="white"/>
</clipPath>
<clipPath id="clip1_0_219">
<rect x="55" y="364" width="290" height="55" rx="27.5" fill="white"/>
</clipPath>
</defs>
</svg>
