<svg width="220" height="52" viewBox="0 0 220 52" fill="none" xmlns="http://www.w3.org/2000/svg">
<path d="M0 25.6C0 16.6392 0 12.1587 1.7439 8.73615C3.27787 5.72556 5.72556 3.27787 8.73615 1.7439C12.1587 0 16.6392 0 25.6 0H194.4C203.361 0 207.841 0 211.264 1.7439C214.274 3.27787 216.722 5.72556 218.256 8.73615C220 12.1587 220 16.6392 220 25.6V26.4C220 35.3608 220 39.8413 218.256 43.2638C216.722 46.2744 214.274 48.7221 211.264 50.2561C207.841 52 203.361 52 194.4 52H25.6C16.6392 52 12.1587 52 8.73615 50.2561C5.72556 48.7221 3.27787 46.2744 1.7439 43.2638C0 39.8413 0 35.3608 0 26.4V25.6Z" fill="white"/>
<path d="M25.6 0.5H194.4C198.889 0.5 202.225 0.500389 204.868 0.716326C207.505 0.931787 209.408 1.35935 211.037 2.1894C213.953 3.67544 216.325 6.04663 217.811 8.96315C218.641 10.5922 219.068 12.4948 219.284 15.1319C219.5 17.7749 219.5 21.1113 219.5 25.6V26.4C219.5 30.8887 219.5 34.2251 219.284 36.8681C219.068 39.5052 218.641 41.4078 217.811 43.0369C216.325 45.9534 213.953 48.3246 211.037 49.8106C209.408 50.6406 207.505 51.0682 204.868 51.2837C202.225 51.4996 198.889 51.5 194.4 51.5H25.6C21.1113 51.5 17.7749 51.4996 15.1319 51.2837C12.4948 51.0682 10.5922 50.6406 8.96315 49.8106C6.04663 48.3246 3.67544 45.9534 2.1894 43.0369C1.35935 41.4078 0.931787 39.5052 0.716326 36.8681C0.500389 34.2251 0.5 30.8887 0.5 26.4V25.6C0.5 21.1113 0.500389 17.7749 0.716326 15.1319C0.931787 12.4948 1.35935 10.5922 2.1894 8.96315C3.67544 6.04663 6.04663 3.67544 8.96315 2.1894C10.5922 1.35935 12.4948 0.931787 15.1319 0.716326C17.7749 0.500389 21.1113 0.5 25.6 0.5Z" stroke="#1C1C1C" stroke-opacity="0.1"/>
<path d="M32.1631 21.0933C33.696 21.0933 34.73 21.7422 35.3196 22.2844L37.6234 20.08C36.2085 18.7911 34.3672 18 32.1631 18C28.9704 18 26.213 19.7956 24.8706 22.4089L27.5101 24.4178C28.1722 22.4889 30.0044 21.0933 32.1631 21.0933V21.0933Z" fill="#F25022"/>
<path d="M39.9998 26.1775C39.9998 25.5198 39.9454 25.0398 39.8275 24.542H32.1631V27.5109H36.662C36.5713 28.2487 36.0815 29.3598 34.993 30.1064L37.569 32.062C39.1109 30.6664 39.9998 28.6131 39.9998 26.1775V26.1775Z" fill="#4285F4"/>
<path d="M27.5193 27.5825C27.3469 27.0847 27.2472 26.5514 27.2472 26.0003C27.2472 25.4492 27.3469 24.9158 27.5102 24.4181L24.8707 22.4092C24.3175 23.4936 24 24.7114 24 26.0003C24 27.2892 24.3175 28.507 24.8707 29.5914L27.5193 27.5825V27.5825Z" fill="#FBBC05"/>
<path d="M32.1633 33.9998C34.3674 33.9998 36.2178 33.2887 37.5692 32.062L34.9933 30.1065C34.3039 30.5776 33.3787 30.9065 32.1633 30.9065C30.0046 30.9065 28.1724 29.5109 27.5193 27.582L24.8799 29.5909C26.2223 32.2043 28.9706 33.9998 32.1633 33.9998V33.9998Z" fill="#34A853"/>
<path d="M57.4545 24H56.2215C56.1486 23.6454 56.021 23.3338 55.8387 23.0653C55.6597 22.7969 55.441 22.5715 55.1824 22.3892C54.9272 22.2036 54.6439 22.0644 54.3323 21.9716C54.0207 21.8788 53.6959 21.8324 53.3579 21.8324C52.7414 21.8324 52.1829 21.9882 51.6824 22.2997C51.1853 22.6113 50.7892 23.0703 50.4942 23.6768C50.2026 24.2834 50.0567 25.0275 50.0567 25.9091C50.0567 26.7907 50.2026 27.5348 50.4942 28.1413C50.7892 28.7479 51.1853 29.2069 51.6824 29.5185C52.1829 29.83 52.7414 29.9858 53.3579 29.9858C53.6959 29.9858 54.0207 29.9394 54.3323 29.8466C54.6439 29.7538 54.9272 29.6162 55.1824 29.4339C55.441 29.2483 55.6597 29.0213 55.8387 28.7528C56.021 28.4811 56.1486 28.1695 56.2215 27.8182H57.4545C57.3617 28.3385 57.1926 28.8042 56.9474 29.2152C56.7021 29.6262 56.3972 29.9759 56.0326 30.2642C55.668 30.5492 55.2587 30.7663 54.8046 30.9155C54.3538 31.0646 53.8716 31.1392 53.3579 31.1392C52.4895 31.1392 51.7172 30.9271 51.0411 30.5028C50.365 30.0786 49.833 29.4754 49.4452 28.6932C49.0574 27.911 48.8635 26.983 48.8635 25.9091C48.8635 24.8352 49.0574 23.9072 49.4452 23.125C49.833 22.3428 50.365 21.7396 51.0411 21.3153C51.7172 20.8911 52.4895 20.679 53.3579 20.679C53.8716 20.679 54.3538 20.7536 54.8046 20.9027C55.2587 21.0518 55.668 21.2706 56.0326 21.5589C56.3972 21.844 56.7021 22.192 56.9474 22.603C57.1926 23.0107 57.3617 23.4763 57.4545 24ZM62.39 31.1591C61.7006 31.1591 61.0957 30.995 60.5754 30.6669C60.0583 30.3388 59.654 29.8797 59.3623 29.2898C59.074 28.6998 58.9298 28.0104 58.9298 27.2216C58.9298 26.4261 59.074 25.7318 59.3623 25.1385C59.654 24.5452 60.0583 24.0845 60.5754 23.7564C61.0957 23.4283 61.7006 23.2642 62.39 23.2642C63.0794 23.2642 63.6826 23.4283 64.1997 23.7564C64.72 24.0845 65.1244 24.5452 65.4127 25.1385C65.7044 25.7318 65.8502 26.4261 65.8502 27.2216C65.8502 28.0104 65.7044 28.6998 65.4127 29.2898C65.1244 29.8797 64.72 30.3388 64.1997 30.6669C63.6826 30.995 63.0794 31.1591 62.39 31.1591ZM62.39 30.1051C62.9137 30.1051 63.3445 29.9709 63.6826 29.7024C64.0207 29.4339 64.2709 29.081 64.4333 28.6435C64.5957 28.206 64.6769 27.732 64.6769 27.2216C64.6769 26.7112 64.5957 26.2356 64.4333 25.7947C64.2709 25.3539 64.0207 24.9976 63.6826 24.7259C63.3445 24.4541 62.9137 24.3182 62.39 24.3182C61.8663 24.3182 61.4355 24.4541 61.0974 24.7259C60.7593 24.9976 60.5091 25.3539 60.3467 25.7947C60.1843 26.2356 60.1031 26.7112 60.1031 27.2216C60.1031 27.732 60.1843 28.206 60.3467 28.6435C60.5091 29.081 60.7593 29.4339 61.0974 29.7024C61.4355 29.9709 61.8663 30.1051 62.39 30.1051ZM68.8145 26.4062V31H67.6412V23.3636H68.7748V24.5568H68.8742C69.0532 24.169 69.325 23.8575 69.6895 23.6222C70.0541 23.3835 70.5248 23.2642 71.1015 23.2642C71.6185 23.2642 72.0709 23.3703 72.4587 23.5824C72.8465 23.7912 73.1481 24.1094 73.3635 24.5369C73.579 24.9612 73.6867 25.4981 73.6867 26.1477V31H72.5134V26.2273C72.5134 25.6274 72.3576 25.16 72.0461 24.8253C71.7345 24.4872 71.307 24.3182 70.7634 24.3182C70.3889 24.3182 70.0541 24.3994 69.7591 24.5618C69.4675 24.7242 69.2371 24.9612 69.0681 25.2727C68.8991 25.5843 68.8145 25.9621 68.8145 26.4062ZM79.1517 23.3636V24.358H75.1943V23.3636H79.1517ZM76.3477 21.5341H77.521V28.8125C77.521 29.1439 77.5691 29.3925 77.6652 29.5582C77.7646 29.7206 77.8906 29.83 78.0431 29.8864C78.1988 29.9394 78.3629 29.9659 78.5352 29.9659C78.6645 29.9659 78.7706 29.9593 78.8534 29.946C78.9363 29.9295 79.0026 29.9162 79.0523 29.9062L79.2909 30.9602C79.2114 30.9901 79.1003 31.0199 78.9578 31.0497C78.8153 31.0829 78.6347 31.0994 78.4159 31.0994C78.0845 31.0994 77.7597 31.0282 77.4415 30.8857C77.1266 30.7431 76.8648 30.526 76.656 30.2344C76.4505 29.9427 76.3477 29.5748 76.3477 29.1307V21.5341ZM80.9166 31V23.3636H82.0899V31H80.9166ZM81.5132 22.0909C81.2845 22.0909 81.0873 22.013 80.9216 21.8572C80.7592 21.7015 80.678 21.5142 80.678 21.2955C80.678 21.0767 80.7592 20.8894 80.9216 20.7337C81.0873 20.5779 81.2845 20.5 81.5132 20.5C81.7419 20.5 81.9375 20.5779 82.0999 20.7337C82.2656 20.8894 82.3485 21.0767 82.3485 21.2955C82.3485 21.5142 82.2656 21.7015 82.0999 21.8572C81.9375 22.013 81.7419 22.0909 81.5132 22.0909ZM85.4122 26.4062V31H84.2389V23.3636H85.3724V24.5568H85.4719C85.6508 24.169 85.9226 23.8575 86.2872 23.6222C86.6518 23.3835 87.1224 23.2642 87.6991 23.2642C88.2162 23.2642 88.6686 23.3703 89.0564 23.5824C89.4442 23.7912 89.7458 24.1094 89.9612 24.5369C90.1766 24.9612 90.2844 25.4981 90.2844 26.1477V31H89.1111V26.2273C89.1111 25.6274 88.9553 25.16 88.6437 24.8253C88.3322 24.4872 87.9046 24.3182 87.3611 24.3182C86.9865 24.3182 86.6518 24.3994 86.3568 24.5618C86.0651 24.7242 85.8348 24.9612 85.6657 25.2727C85.4967 25.5843 85.4122 25.9621 85.4122 26.4062ZM97.2409 27.8778V23.3636H98.4142V31H97.2409V29.7074H97.1613C96.9823 30.0952 96.7039 30.425 96.3261 30.6967C95.9482 30.9652 95.471 31.0994 94.8943 31.0994C94.417 31.0994 93.9927 30.995 93.6215 30.7862C93.2503 30.5741 92.9587 30.2559 92.7465 29.8317C92.5344 29.4041 92.4284 28.8655 92.4284 28.2159V23.3636H93.6017V28.1364C93.6017 28.6932 93.7574 29.1373 94.069 29.4688C94.3838 29.8002 94.7849 29.9659 95.2721 29.9659C95.5638 29.9659 95.8604 29.8913 96.162 29.7422C96.4669 29.593 96.7222 29.3643 96.9276 29.0561C97.1365 28.7479 97.2409 28.3551 97.2409 27.8778ZM103.765 31.1591C103.029 31.1591 102.394 30.9967 101.861 30.6719C101.33 30.3438 100.921 29.8864 100.633 29.2997C100.348 28.7098 100.205 28.0237 100.205 27.2415C100.205 26.4593 100.348 25.7699 100.633 25.1733C100.921 24.5734 101.322 24.1061 101.836 23.7713C102.353 23.4332 102.956 23.2642 103.646 23.2642C104.043 23.2642 104.436 23.3305 104.824 23.4631C105.212 23.5956 105.565 23.8111 105.883 24.1094C106.201 24.4044 106.454 24.7955 106.643 25.2827C106.832 25.7699 106.927 26.3698 106.927 27.0824V27.5795H101.04V26.5653H105.734C105.734 26.1345 105.647 25.75 105.475 25.4119C105.306 25.0739 105.064 24.8071 104.749 24.6115C104.438 24.416 104.07 24.3182 103.646 24.3182C103.178 24.3182 102.774 24.4342 102.432 24.6662C102.094 24.8949 101.834 25.1932 101.652 25.5611C101.47 25.929 101.378 26.3234 101.378 26.7443V27.4205C101.378 27.9972 101.478 28.486 101.677 28.8871C101.879 29.2848 102.159 29.5881 102.517 29.7969C102.875 30.0024 103.291 30.1051 103.765 30.1051C104.073 30.1051 104.351 30.062 104.6 29.9759C104.852 29.8864 105.069 29.7538 105.251 29.5781C105.434 29.3991 105.574 29.1771 105.674 28.9119L106.807 29.2301C106.688 29.6146 106.488 29.9527 106.206 30.2443C105.924 30.5327 105.576 30.758 105.162 30.9205C104.748 31.0795 104.282 31.1591 103.765 31.1591ZM114.379 31L112.052 23.3636H113.285L114.936 29.2102H115.016L116.646 23.3636H117.899L119.51 29.1903H119.589L121.24 23.3636H122.473L120.146 31H118.993L117.322 25.1335H117.203L115.533 31H114.379ZM124.024 31V23.3636H125.197V31H124.024ZM124.621 22.0909C124.392 22.0909 124.195 22.013 124.029 21.8572C123.867 21.7015 123.785 21.5142 123.785 21.2955C123.785 21.0767 123.867 20.8894 124.029 20.7337C124.195 20.5779 124.392 20.5 124.621 20.5C124.849 20.5 125.045 20.5779 125.207 20.7337C125.373 20.8894 125.456 21.0767 125.456 21.2955C125.456 21.5142 125.373 21.7015 125.207 21.8572C125.045 22.013 124.849 22.0909 124.621 22.0909ZM130.667 23.3636V24.358H126.71V23.3636H130.667ZM127.863 21.5341H129.037V28.8125C129.037 29.1439 129.085 29.3925 129.181 29.5582C129.28 29.7206 129.406 29.83 129.559 29.8864C129.714 29.9394 129.879 29.9659 130.051 29.9659C130.18 29.9659 130.286 29.9593 130.369 29.946C130.452 29.9295 130.518 29.9162 130.568 29.9062L130.807 30.9602C130.727 30.9901 130.616 31.0199 130.473 31.0497C130.331 31.0829 130.15 31.0994 129.932 31.0994C129.6 31.0994 129.275 31.0282 128.957 30.8857C128.642 30.7431 128.38 30.526 128.172 30.2344C127.966 29.9427 127.863 29.5748 127.863 29.1307V21.5341ZM133.77 26.4062V31H132.596V20.8182H133.77V24.5568H133.869C134.048 24.1624 134.316 23.8492 134.674 23.6172C135.036 23.3819 135.516 23.2642 136.116 23.2642C136.637 23.2642 137.092 23.3686 137.483 23.5774C137.874 23.7829 138.178 24.0994 138.393 24.527C138.612 24.9512 138.721 25.4915 138.721 26.1477V31H137.548V26.2273C137.548 25.6207 137.391 25.1518 137.076 24.8203C136.764 24.4856 136.332 24.3182 135.778 24.3182C135.394 24.3182 135.049 24.3994 134.744 24.5618C134.442 24.7242 134.204 24.9612 134.028 25.2727C133.856 25.5843 133.77 25.9621 133.77 26.4062ZM147.888 34.0227C147.321 34.0227 146.834 33.9498 146.426 33.804C146.018 33.6615 145.679 33.4725 145.407 33.2372C145.138 33.0052 144.925 32.7566 144.766 32.4915L145.7 31.8352C145.806 31.9744 145.94 32.1335 146.103 32.3125C146.265 32.4948 146.487 32.6522 146.769 32.7848C147.054 32.9207 147.427 32.9886 147.888 32.9886C148.504 32.9886 149.013 32.8395 149.414 32.5412C149.815 32.2429 150.016 31.7756 150.016 31.1392V29.5881H149.916C149.83 29.7273 149.707 29.8996 149.548 30.1051C149.392 30.3073 149.167 30.4879 148.872 30.647C148.58 30.8028 148.186 30.8807 147.689 30.8807C147.072 30.8807 146.519 30.7348 146.028 30.4432C145.541 30.1515 145.155 29.7273 144.87 29.1705C144.588 28.6136 144.447 27.9375 144.447 27.142C144.447 26.3598 144.585 25.6787 144.86 25.0987C145.135 24.5154 145.518 24.0646 146.008 23.7464C146.499 23.425 147.066 23.2642 147.709 23.2642C148.206 23.2642 148.6 23.3471 148.892 23.5128C149.187 23.6752 149.412 23.8608 149.568 24.0696C149.727 24.2751 149.85 24.4441 149.936 24.5767H150.055V23.3636H151.189V31.2188C151.189 31.875 151.04 32.4086 150.741 32.8196C150.446 33.2339 150.049 33.5372 149.548 33.7294C149.051 33.925 148.498 34.0227 147.888 34.0227ZM147.848 29.8267C148.319 29.8267 148.716 29.719 149.041 29.5036C149.366 29.2881 149.613 28.9782 149.782 28.5739C149.951 28.1695 150.035 27.6856 150.035 27.1222C150.035 26.572 149.953 26.0864 149.787 25.6655C149.621 25.2446 149.376 24.9148 149.051 24.6761C148.726 24.4375 148.325 24.3182 147.848 24.3182C147.351 24.3182 146.936 24.4441 146.605 24.696C146.277 24.9479 146.03 25.286 145.864 25.7102C145.702 26.1345 145.621 26.6051 145.621 27.1222C145.621 27.6525 145.704 28.1214 145.869 28.5291C146.038 28.9335 146.287 29.2517 146.615 29.4837C146.946 29.7124 147.357 29.8267 147.848 29.8267ZM156.439 31.1591C155.749 31.1591 155.145 30.995 154.624 30.6669C154.107 30.3388 153.703 29.8797 153.411 29.2898C153.123 28.6998 152.979 28.0104 152.979 27.2216C152.979 26.4261 153.123 25.7318 153.411 25.1385C153.703 24.5452 154.107 24.0845 154.624 23.7564C155.145 23.4283 155.749 23.2642 156.439 23.2642C157.128 23.2642 157.731 23.4283 158.248 23.7564C158.769 24.0845 159.173 24.5452 159.462 25.1385C159.753 25.7318 159.899 26.4261 159.899 27.2216C159.899 28.0104 159.753 28.6998 159.462 29.2898C159.173 29.8797 158.769 30.3388 158.248 30.6669C157.731 30.995 157.128 31.1591 156.439 31.1591ZM156.439 30.1051C156.963 30.1051 157.393 29.9709 157.731 29.7024C158.07 29.4339 158.32 29.081 158.482 28.6435C158.645 28.206 158.726 27.732 158.726 27.2216C158.726 26.7112 158.645 26.2356 158.482 25.7947C158.32 25.3539 158.07 24.9976 157.731 24.7259C157.393 24.4541 156.963 24.3182 156.439 24.3182C155.915 24.3182 155.484 24.4541 155.146 24.7259C154.808 24.9976 154.558 25.3539 154.396 25.7947C154.233 26.2356 154.152 26.7112 154.152 27.2216C154.152 27.732 154.233 28.206 154.396 28.6435C154.558 29.081 154.808 29.4339 155.146 29.7024C155.484 29.9709 155.915 30.1051 156.439 30.1051ZM164.792 31.1591C164.103 31.1591 163.498 30.995 162.978 30.6669C162.461 30.3388 162.056 29.8797 161.765 29.2898C161.476 28.6998 161.332 28.0104 161.332 27.2216C161.332 26.4261 161.476 25.7318 161.765 25.1385C162.056 24.5452 162.461 24.0845 162.978 23.7564C163.498 23.4283 164.103 23.2642 164.792 23.2642C165.482 23.2642 166.085 23.4283 166.602 23.7564C167.122 24.0845 167.527 24.5452 167.815 25.1385C168.107 25.7318 168.253 26.4261 168.253 27.2216C168.253 28.0104 168.107 28.6998 167.815 29.2898C167.527 29.8797 167.122 30.3388 166.602 30.6669C166.085 30.995 165.482 31.1591 164.792 31.1591ZM164.792 30.1051C165.316 30.1051 165.747 29.9709 166.085 29.7024C166.423 29.4339 166.673 29.081 166.836 28.6435C166.998 28.206 167.079 27.732 167.079 27.2216C167.079 26.7112 166.998 26.2356 166.836 25.7947C166.673 25.3539 166.423 24.9976 166.085 24.7259C165.747 24.4541 165.316 24.3182 164.792 24.3182C164.269 24.3182 163.838 24.4541 163.5 24.7259C163.162 24.9976 162.911 25.3539 162.749 25.7947C162.587 26.2356 162.505 26.7112 162.505 27.2216C162.505 27.732 162.587 28.206 162.749 28.6435C162.911 29.081 163.162 29.4339 163.5 29.7024C163.838 29.9709 164.269 30.1051 164.792 30.1051ZM173.126 34.0227C172.559 34.0227 172.072 33.9498 171.664 33.804C171.257 33.6615 170.917 33.4725 170.645 33.2372C170.377 33.0052 170.163 32.7566 170.004 32.4915L170.938 31.8352C171.045 31.9744 171.179 32.1335 171.341 32.3125C171.504 32.4948 171.726 32.6522 172.007 32.7848C172.292 32.9207 172.665 32.9886 173.126 32.9886C173.742 32.9886 174.251 32.8395 174.652 32.5412C175.053 32.2429 175.254 31.7756 175.254 31.1392V29.5881H175.154C175.068 29.7273 174.946 29.8996 174.786 30.1051C174.631 30.3073 174.405 30.4879 174.11 30.647C173.819 30.8028 173.424 30.8807 172.927 30.8807C172.311 30.8807 171.757 30.7348 171.267 30.4432C170.779 30.1515 170.393 29.7273 170.108 29.1705C169.826 28.6136 169.686 27.9375 169.686 27.142C169.686 26.3598 169.823 25.6787 170.098 25.0987C170.373 24.5154 170.756 24.0646 171.247 23.7464C171.737 23.425 172.304 23.2642 172.947 23.2642C173.444 23.2642 173.839 23.3471 174.13 23.5128C174.425 23.6752 174.651 23.8608 174.806 24.0696C174.965 24.2751 175.088 24.4441 175.174 24.5767H175.294V23.3636H176.427V31.2188C176.427 31.875 176.278 32.4086 175.98 32.8196C175.685 33.2339 175.287 33.5372 174.786 33.7294C174.289 33.925 173.736 34.0227 173.126 34.0227ZM173.086 29.8267C173.557 29.8267 173.955 29.719 174.279 29.5036C174.604 29.2881 174.851 28.9782 175.02 28.5739C175.189 28.1695 175.274 27.6856 175.274 27.1222C175.274 26.572 175.191 26.0864 175.025 25.6655C174.859 25.2446 174.614 24.9148 174.289 24.6761C173.965 24.4375 173.563 24.3182 173.086 24.3182C172.589 24.3182 172.175 24.4441 171.843 24.696C171.515 24.9479 171.268 25.286 171.103 25.7102C170.94 26.1345 170.859 26.6051 170.859 27.1222C170.859 27.6525 170.942 28.1214 171.108 28.5291C171.277 28.9335 171.525 29.2517 171.853 29.4837C172.185 29.7124 172.596 29.8267 173.086 29.8267ZM179.748 20.8182V31H178.575V20.8182H179.748ZM185.099 31.1591C184.363 31.1591 183.728 30.9967 183.195 30.6719C182.664 30.3438 182.255 29.8864 181.967 29.2997C181.682 28.7098 181.539 28.0237 181.539 27.2415C181.539 26.4593 181.682 25.7699 181.967 25.1733C182.255 24.5734 182.656 24.1061 183.17 23.7713C183.687 23.4332 184.29 23.2642 184.979 23.2642C185.377 23.2642 185.77 23.3305 186.158 23.4631C186.546 23.5956 186.899 23.8111 187.217 24.1094C187.535 24.4044 187.788 24.7955 187.977 25.2827C188.166 25.7699 188.261 26.3698 188.261 27.0824V27.5795H182.374V26.5653H187.068C187.068 26.1345 186.981 25.75 186.809 25.4119C186.64 25.0739 186.398 24.8071 186.083 24.6115C185.772 24.416 185.404 24.3182 184.979 24.3182C184.512 24.3182 184.108 24.4342 183.766 24.6662C183.428 24.8949 183.168 25.1932 182.986 25.5611C182.804 25.929 182.712 26.3234 182.712 26.7443V27.4205C182.712 27.9972 182.812 28.486 183.011 28.8871C183.213 29.2848 183.493 29.5881 183.851 29.7969C184.209 30.0024 184.625 30.1051 185.099 30.1051C185.407 30.1051 185.685 30.062 185.934 29.9759C186.186 29.8864 186.403 29.7538 186.585 29.5781C186.768 29.3991 186.908 29.1771 187.008 28.9119L188.141 29.2301C188.022 29.6146 187.822 29.9527 187.54 30.2443C187.258 30.5327 186.91 30.758 186.496 30.9205C186.082 31.0795 185.616 31.1591 185.099 31.1591Z" fill="#1C1C1C"/>
</svg>
