<svg width="28" height="28" viewBox="0 0 28 28" fill="none" xmlns="http://www.w3.org/2000/svg">
<rect width="28" height="28" rx="8" fill="white"/>
<rect x="0.5" y="0.5" width="27" height="27" rx="7.5" stroke="black" stroke-opacity="0.15"/>
<path d="M11.8047 11.1381C12.0651 10.8777 12.0651 10.4556 11.8047 10.1953C11.5444 9.93491 11.1223 9.93491 10.8619 10.1953L7.52861 13.5286C7.26826 13.7889 7.26826 14.2111 7.52861 14.4714L10.8619 17.8047C11.1223 18.0651 11.5444 18.0651 11.8047 17.8047C12.0651 17.5444 12.0651 17.1223 11.8047 16.8619L8.94282 14L11.8047 11.1381Z" fill="black"/>
<path d="M17.1381 10.1953C16.8777 9.93491 16.4556 9.93491 16.1953 10.1953C15.9349 10.4556 15.9349 10.8777 16.1953 11.1381L19.0572 14L16.1953 16.8619C15.9349 17.1223 15.9349 17.5444 16.1953 17.8047C16.4556 18.0651 16.8777 18.0651 17.1381 17.8047L20.4714 14.4714C20.7318 14.2111 20.7318 13.7889 20.4714 13.5286L17.1381 10.1953Z" fill="black"/>
</svg>
