<svg width="58" height="99" viewBox="0 0 58 99" fill="none" xmlns="http://www.w3.org/2000/svg">
<g clip-path="url(#clip0_89_641)">
<g clip-path="url(#clip1_89_641)">
<g clip-path="url(#clip2_89_641)">
<path d="M3.79793 57.6161L4.46428 58.4167L4.13111 57.3759C4.04781 56.8956 3.46476 57.456 3.79793 57.6161ZM4.54757 57.1357C4.79745 57.536 5.04733 57.9363 5.04733 58.3366C5.04733 58.897 5.54709 59.1372 5.96356 59.2973C5.3805 58.6568 5.04733 56.8956 4.54757 57.1357ZM36.5321 23.191C37.9481 23.191 39.2808 23.0308 40.7801 23.3511C44.445 24.2317 47.5268 25.993 49.6092 28.4748L55.4397 37.4414C55.6896 39.683 56.1893 42.1648 56.106 44.8868C56.6891 44.8868 56.6058 44.0862 57.2721 43.9261C56.6058 45.5273 56.2726 47.5287 56.106 49.8504C55.6896 48.5695 56.106 46.6481 56.1893 45.6073C55.6063 46.488 55.2731 45.8475 55.2731 45.4472C55.3564 44.8067 55.0232 44.8868 54.7733 44.6466C53.8571 43.846 53.2741 42.9654 52.6077 41.6044C53.0242 40.5636 53.1075 39.0425 51.7748 38.2419C51.3583 38.0018 50.8586 37.6015 50.6087 36.961C50.2755 36.0804 49.6925 35.0396 49.859 33.6786C49.9423 33.2783 48.6096 34.5593 47.86 33.9988C44.6116 31.8373 41.3631 29.3555 37.4484 27.2739C35.366 27.2739 33.8668 26.5534 33.1171 25.6728C32.4508 24.8722 32.9505 23.8314 33.95 23.7514C34.5331 23.7514 35.1994 23.5912 35.6992 23.9115C35.7825 23.5912 36.1157 23.191 36.5321 23.191ZM28.2861 21.3496L28.4527 21.4297C29.2856 21.5898 29.7021 22.7106 30.6183 22.3103C30.6183 22.8707 30.7016 23.4311 30.535 23.8314C30.2851 24.4719 29.5355 24.4719 28.9525 24.4719C23.3718 24.1517 20.1234 26.3933 16.7084 28.3147C15.7921 28.8751 14.7926 29.2754 14.043 29.9959C10.4614 33.1983 6.54661 36.1604 5.63038 42.0847L4.88074 48.6495C4.79745 49.3701 3.96452 50.0906 4.13111 50.9712L4.71416 54.8941C4.13111 54.3337 3.79793 55.0542 3.96452 55.3745C4.04781 55.6146 4.38099 56.4152 4.88074 55.6947C5.54709 56.8956 6.21344 59.2173 7.12966 60.258C9.96163 63.4604 13.6265 66.3425 16.6251 69.2246C17.3747 69.0644 17.9578 69.0644 18.1244 68.5841C18.3742 69.0644 17.8745 69.5448 17.458 69.6249C18.7907 70.4254 20.29 71.146 22.289 71.3061C24.8711 71.4662 27.2866 71.8665 29.5355 72.4269C30.7016 72.1067 31.8677 71.9465 33.1171 71.8665C33.5336 71.8665 33.7835 71.226 34.2832 71.0659L34.3665 70.2653C34.8663 70.9858 34.783 70.0252 34.4498 69.5448C35.0329 70.0252 35.1994 70.4254 35.4493 70.7457C35.4493 70.5055 36.1157 69.6249 36.1157 70.6656L36.2823 69.6249C36.5321 69.4647 36.6154 70.5055 36.8653 69.785C37.1152 69.0644 37.6149 69.6249 38.1147 69.3847C37.9481 69.7049 38.0314 70.3454 38.6145 69.9451L39.2808 69.3847C39.6973 70.3454 40.3636 69.9451 40.6968 69.785C44.3617 67.5433 48.0266 64.9014 51.5249 62.2595L51.4416 63.3002L51.8581 62.0193C52.2745 62.4196 52.6077 62.0994 52.7743 61.8592C53.2741 61.0586 53.9404 60.258 55.0232 59.5375C53.6905 62.98 52.1079 65.702 50.1089 67.9436L49.276 68.9043C49.276 69.4647 49.1094 70.1853 48.4431 70.2653C48.1099 70.3454 47.4435 70.1052 46.9438 70.5856C46.6939 70.9058 47.5268 71.5463 46.8605 71.0659C46.2774 70.6656 45.6944 71.0659 45.028 71.226C44.5283 71.3861 45.3612 71.8665 45.5278 72.1867C45.6944 72.507 45.861 72.8272 45.7777 73.2275L44.8615 72.2668C43.7786 72.8272 43.1123 73.868 42.1961 74.6685C41.7796 74.9888 41.9462 75.5492 41.9462 76.0295C41.3631 76.0295 40.6968 75.8694 40.3636 76.1896C40.1137 76.5099 40.197 76.9902 40.197 77.4706C39.3641 77.3905 39.2808 76.1897 38.5312 76.4298C37.7815 76.5899 36.9486 76.67 36.2823 77.0703C36.782 78.031 35.4493 77.4706 35.6159 77.6307C34.3665 76.9102 33.2837 76.3498 31.951 76.8301C29.119 75.9495 25.6207 76.3498 23.0386 76.67C23.0386 76.2697 23.1219 75.8694 22.9554 75.7894C22.7888 76.1896 22.289 76.0295 22.3723 76.0295C20.7897 74.9888 19.2072 74.3483 17.5413 73.4677C16.042 73.6278 14.626 72.9073 14.2096 72.507C13.0435 71.4662 11.7108 72.0266 10.628 71.7864C8.29576 71.226 7.46283 68.9043 7.21295 67.3032C7.04637 66.5026 6.38002 66.1823 6.13014 66.2624C5.04733 62.8999 3.38147 59.8577 2.04878 56.7354C1.71561 55.9349 1.7989 55.1343 1.7989 54.2536C2.21537 54.4137 2.63183 54.3337 2.54854 53.7733C2.13207 51.1314 1.13255 49.1299 0.0497437 47.2085C0.632796 44.4865 0.716088 41.2842 2.04878 38.8824C3.21488 36.7208 5.3805 35.6 6.87978 33.7587C7.37954 33.1182 7.37954 32.2376 7.8793 31.6771C9.54516 30.076 11.211 28.3948 13.0435 26.9537C13.8764 26.3132 14.8759 26.9537 16.1253 26.7135C16.5418 25.2725 18.2076 23.9915 19.7902 24.3918C20.4566 24.5519 21.7893 22.8707 22.2057 22.7106C22.8721 22.4704 22.5389 23.3511 22.5389 23.9115C24.1215 22.7106 26.2871 22.0701 28.2861 21.3496Z" fill="#02BAFF"/>
<g clip-path="url(#clip3_89_641)">
<g clip-path="url(#clip4_89_641)">
<g clip-path="url(#clip5_89_641)">
<g clip-path="url(#clip6_89_641)">
<g clip-path="url(#clip7_89_641)">
<g clip-path="url(#clip8_89_641)">
<g clip-path="url(#clip9_89_641)">
<path fill-rule="evenodd" clip-rule="evenodd" d="M33.3611 44.0026C33.6043 44.0659 33.8924 43.9688 33.993 44.0026C33.899 43.9914 34.0647 43.9265 34.0718 43.8887C34.0652 44.0388 34.1325 43.8765 34.1905 43.9647C34.1992 43.8212 34.2815 43.7484 34.3878 43.6989C34.5767 43.1072 34.1227 42.5378 33.6374 42.4841C33.5847 42.4841 33.532 42.4841 33.4794 42.4841C32.6719 42.632 32.5957 43.8033 33.3611 44.0026ZM33.4399 43.0915C33.4794 43.0915 33.5189 43.0915 33.5584 43.0915C33.6053 43.2412 33.5796 43.2404 33.6374 43.3952C33.5167 43.3679 33.4934 43.4341 33.4004 43.4332C33.3207 43.3454 33.3601 43.142 33.4399 43.0915Z" fill="#02BAFF"/>
<path fill-rule="evenodd" clip-rule="evenodd" d="M30.7149 50.4563C30.7165 50.5085 30.6963 50.5395 30.6754 50.5702C30.5773 50.6196 30.5115 50.4589 30.4779 50.5702C30.1405 50.9397 30.223 51.6673 30.7939 51.9368C32.3386 52.2334 32.0948 50.0962 30.7149 50.4563ZM31.1097 51.4054C31.0636 51.2853 31.1342 51.2387 31.0703 51.1017C31.1228 51.0474 31.294 51.0474 31.3468 51.1017C31.3236 51.2747 31.3626 51.3954 31.1097 51.4054Z" fill="#02BAFF"/>
<path fill-rule="evenodd" clip-rule="evenodd" d="M33.2819 45.7868C33.1208 45.8114 33.0453 45.8873 32.8475 45.9387C32.5794 45.8166 32.3941 45.5203 32.1913 45.3329C32.1996 45.3449 32.2098 45.355 32.2155 45.3693C31.8843 45.2305 31.7176 45.0948 31.5441 44.7619C31.3377 44.6584 30.7382 44.6211 31.0307 44.5341C30.782 44.4574 30.5465 44.3394 30.1618 44.3063C30.1622 44.2562 30.231 44.2717 30.2407 44.2304C30.0299 44.1527 29.6712 44.0554 29.6481 44.0406C29.6058 44.0132 29.4446 44.0537 29.3322 44.0406C29.2194 44.0275 29.1103 43.9398 28.9767 43.9267C28.2444 43.855 27.2822 43.9471 26.8044 44.1924C26.8087 44.1208 26.9349 44.166 26.9229 44.0785C26.602 44.0637 26.497 44.274 26.2515 44.2304C25.5356 43.5044 24.387 43.1301 23.4078 43.585C23.3268 43.6227 23.367 43.6761 23.3288 43.6989C23.2457 43.7486 23.1259 43.7345 23.0523 43.7748C22.5205 44.0664 22.2729 44.7799 22.1044 45.2554C22.1044 45.4958 22.1044 45.7362 22.1044 45.9766C22.2414 46.4668 22.4905 46.8398 22.8154 47.2294C22.4675 47.9179 22.1969 48.7806 22.1834 49.659C22.1517 51.7451 23.2946 53.4107 24.4742 54.2903C24.7189 54.4729 24.4893 54.6994 24.5927 55.2394C24.6213 55.389 24.7533 55.6631 24.8296 55.7709C25.5608 56.8044 27.323 56.8053 27.9498 55.5051C29.9182 55.585 31.4036 54.8865 32.4918 53.8346C33.6558 52.7098 34.3723 51.105 34.1507 49.0135C35.9101 48.4932 35.4043 45.463 33.2819 45.7868ZM22.697 45.597C22.7114 45.2065 23.0031 44.9941 23.1315 44.648C23.1777 44.6541 23.1647 44.7173 23.171 44.7619C23.1646 44.6641 23.4264 44.6318 23.2895 44.5341C23.3856 44.5206 23.4071 44.6062 23.4475 44.3822C23.7141 44.3824 23.9277 44.2495 24.1189 44.0785C24.2081 44.0997 24.071 44.1379 24.1584 44.1924C25.1139 44.0014 25.6974 44.6454 25.9752 45.2554C26.0019 45.7977 25.8277 46.4418 25.4617 46.8877C25.001 47.1052 24.6093 47.258 24.1189 47.1914C23.3255 47.0839 22.6686 46.3703 22.697 45.597ZM25.6197 55.7329C25.6726 55.61 25.3735 55.2263 25.1853 55.0875C25.1917 55.0431 25.2574 55.0556 25.3038 55.0497C24.9024 53.6232 27.3699 53.4291 27.5155 54.7081C27.623 55.6514 26.5768 56.4651 25.6197 55.7329ZM32.2945 53.4931C31.959 53.4359 31.7966 53.8387 31.5441 54.0246C31.5579 53.9748 31.6136 53.9648 31.6229 53.9107C31.4388 54.0752 31.1663 54.1549 31.0702 54.4042C30.9433 54.4275 31.016 54.2676 30.912 54.3663C30.0594 54.8329 29.0842 54.9627 28.1868 55.1635C28.1963 55.0967 28.2548 55.0769 28.3448 55.0875C28.3346 55.0088 28.1713 55.0773 28.1473 55.0118C28.2674 54.2717 27.7489 53.8288 27.3969 53.4174C26.565 52.9248 25.2136 53.1516 24.8296 53.9109C23.7017 53.1333 23.1542 52.0302 22.7364 50.5702C22.6872 49.6689 22.802 48.2966 23.2498 47.5332C25.2185 48.4472 27.2504 46.6204 26.37 44.6861C28.7909 43.9 31.3473 44.9181 32.4524 46.2046C31.3226 47.0937 31.9429 49.3948 33.7952 49.0897C34.1225 51.1374 33.0387 52.458 32.2945 53.4931ZM32.887 48.3303C32.8337 48.2227 32.9062 48.1098 32.6897 48.1025C32.6432 47.8207 32.4711 47.6547 32.4922 47.3812C32.5588 46.5135 33.5765 46.1366 34.467 46.6979C34.605 47.0613 34.793 47.2474 34.7434 47.609C34.6208 48.5008 33.471 48.913 32.887 48.3303Z" fill="#02BAFF"/>
<path fill-rule="evenodd" clip-rule="evenodd" d="M32.097 45.2554C32.1291 45.2778 32.1606 45.3039 32.1913 45.3321C32.1685 45.2986 32.139 45.2709 32.097 45.2554Z" fill="#02BAFF"/>
<path fill-rule="evenodd" clip-rule="evenodd" d="M24.7113 44.9896C24.8171 45.0872 24.6055 45.0439 24.7113 45.1415C25.1066 45.2463 24.961 45.9292 25.3827 45.9007C26.0226 45.3471 25.105 44.3666 24.2374 44.572C24.2374 44.648 24.2374 44.7239 24.2374 44.7998C24.4281 44.8511 24.6593 45.0249 24.7113 44.9896Z" fill="#02BAFF"/>
<path fill-rule="evenodd" clip-rule="evenodd" d="M33.282 46.9257C33.3728 46.9888 33.214 47.0285 33.2031 47.0396C33.2392 47.1333 33.3279 47.3639 33.6771 47.3433C33.7488 47.5578 33.894 47.8438 34.2299 47.685C34.4207 47.1855 33.735 46.6562 33.282 46.9257Z" fill="#02BAFF"/>
<path fill-rule="evenodd" clip-rule="evenodd" d="M27.5155 47.7228C27.4092 47.7776 27.252 47.9261 27.1206 47.8367C27.1263 47.9561 27.0192 47.9672 26.9231 47.9886C26.9264 47.9296 26.8082 47.9623 26.8836 47.9886C26.9354 48.0144 26.84 48.1148 26.8441 48.1404C26.7462 48.017 26.7965 48.1724 26.6071 48.1025C26.5312 48.1972 26.6673 48.2584 26.5676 48.3302C26.5632 48.2839 26.5558 48.2404 26.4886 48.2543C26.5742 48.4348 26.3515 48.3043 26.4491 48.52C26.134 48.4455 26.1302 49.1124 25.9752 49.1274C26.0119 49.2511 25.9801 49.3247 26.0542 49.4691C26.0036 49.467 25.9994 49.4204 25.9357 49.4311C25.8878 49.9821 26.0303 50.84 26.4886 51.1394C26.8767 51.7577 27.9401 52.1324 28.7794 51.9366C29.1949 51.8398 29.4503 51.5787 29.7668 51.4053C29.8166 51.2 29.9531 51.0782 30.1222 50.9876C31.0887 49.1776 29.6178 47.2828 27.5155 47.7228ZM27.5155 51.1016C27.4566 51.0972 27.3381 51.0518 27.239 50.9876C27.268 50.92 27.3108 50.9822 27.3575 50.9876C27.0516 50.7619 26.9167 50.3962 26.6466 50.0385C26.654 49.9955 26.6863 50.0175 26.6861 50.0385C26.8192 50.0577 26.7119 49.7318 26.6861 49.6589C26.8024 48.8867 27.3972 48.4085 28.029 48.2543C28.7205 48.2915 29.176 48.4663 29.5298 48.7478C30.7083 50.0673 28.8548 52.2114 27.5155 51.1016Z" fill="#02BAFF"/>
<path fill-rule="evenodd" clip-rule="evenodd" d="M28.1079 48.71C28.0579 48.778 27.9533 48.9887 27.9895 49.0137C28.1121 48.9562 28.1297 49.1125 28.1869 49.2035C29.0598 49.1196 28.6861 50.0412 29.3323 50.0386C29.6096 49.3695 28.9997 48.629 28.1079 48.71Z" fill="#02BAFF"/>
<path fill-rule="evenodd" clip-rule="evenodd" d="M26.1332 54.2526C26.07 54.388 26.0766 54.4166 25.9752 54.4422C26.0053 54.8035 26.6284 54.6999 26.6466 55.1255C27.4204 55.1902 26.825 54.0423 26.1332 54.2526Z" fill="#02BAFF"/>
</g>
</g>
</g>
</g>
</g>
</g>
</g>
</g>
</g>
</g>
<defs>
<clipPath id="clip0_89_641">
<rect width="57.3217" height="99" fill="white"/>
</clipPath>
<clipPath id="clip1_89_641">
<rect width="57.2222" height="99" fill="white" transform="translate(0.0496826)"/>
</clipPath>
<clipPath id="clip2_89_641">
<rect width="57.2222" height="99" fill="white" transform="translate(0.0496826)"/>
</clipPath>
<clipPath id="clip3_89_641">
<rect width="13.1127" height="14.0318" fill="white" transform="translate(22.1044 42.4841)"/>
</clipPath>
<clipPath id="clip4_89_641">
<rect width="13.1127" height="14.0318" fill="white" transform="translate(22.1044 42.4841)"/>
</clipPath>
<clipPath id="clip5_89_641">
<rect width="13.1127" height="14.0318" fill="white" transform="translate(22.1044 42.4841)"/>
</clipPath>
<clipPath id="clip6_89_641">
<rect width="13.1127" height="14.0318" fill="white" transform="translate(22.1044 42.4841)"/>
</clipPath>
<clipPath id="clip7_89_641">
<rect width="13.1127" height="14.0318" fill="white" transform="translate(22.1044 42.4841)"/>
</clipPath>
<clipPath id="clip8_89_641">
<rect width="13.1127" height="14.0318" fill="white" transform="translate(22.1044 42.4841)"/>
</clipPath>
<clipPath id="clip9_89_641">
<rect width="13.1127" height="14.0318" fill="white" transform="translate(22.1044 42.4841)"/>
</clipPath>
</defs>
</svg>
