<svg width="226" height="226" viewBox="0 0 226 226" fill="none" xmlns="http://www.w3.org/2000/svg">
<g clip-path="url(#clip0_1_2)">
<g clip-path="url(#clip1_1_2)">
<g clip-path="url(#clip2_1_2)">
<path d="M14.8034 142.643L17.4352 145.568L16.1193 141.766C15.7903 140.012 13.4876 142.059 14.8034 142.643ZM17.7641 140.889C18.751 142.351 19.7379 143.813 19.7379 145.275C19.7379 147.322 21.7117 148.199 23.3565 148.784C21.0538 146.445 19.7379 140.012 17.7641 140.889ZM144.087 16.9052C149.68 16.9052 154.943 16.3204 160.864 17.49C175.339 20.7066 187.511 27.1397 195.735 36.2046L218.763 68.955C219.749 77.1426 221.723 86.2075 221.394 96.1495C223.697 96.1495 223.368 93.2254 226 92.6406C223.368 98.4889 222.052 105.799 221.394 114.279C219.749 109.601 221.394 102.583 221.723 98.7813C219.42 101.998 218.105 99.6585 218.105 98.1964C218.434 95.8571 217.118 96.1495 216.131 95.2723C212.512 92.3482 210.209 89.1316 207.578 84.1606C209.223 80.3592 209.551 74.8033 204.288 71.8791C202.643 71.0019 200.669 69.5398 199.683 67.2005C198.367 63.9839 196.064 60.1826 196.722 55.2115C197.051 53.7494 191.787 58.4281 188.827 56.3812C175.997 48.486 163.167 39.4211 147.706 31.8184C139.482 31.8184 133.56 29.1866 130.6 25.9701C127.968 23.0459 129.942 19.2445 133.889 18.9521C136.192 18.9521 138.824 18.3673 140.798 19.5369C141.126 18.3673 142.442 16.9052 144.087 16.9052ZM111.52 10.1797L112.177 10.4721C115.467 11.0569 117.112 15.1507 120.731 13.6887C120.731 15.7356 121.06 17.7825 120.402 19.2445C119.415 21.5839 116.454 21.5839 114.151 21.5839C92.1105 20.4142 79.2808 28.6018 65.7932 35.6197C62.1746 37.6666 58.227 39.1287 55.2663 41.7604C41.1207 53.457 25.6593 64.2764 22.0407 85.915L19.08 109.893C18.751 112.525 15.4614 115.156 16.1193 118.373L18.4221 132.701C16.1193 130.654 14.8034 133.286 15.4614 134.456C15.7903 135.333 17.1062 138.257 19.08 135.626C21.7117 140.012 24.3434 148.492 27.9621 152.293C39.1469 163.99 53.6214 174.517 65.4642 185.044C68.4249 184.459 70.7277 184.459 71.3856 182.704C72.3725 184.459 70.3987 186.213 68.7539 186.506C74.0174 189.43 79.9388 192.061 87.8339 192.646C98.0319 193.231 107.572 194.693 116.454 196.74C121.06 195.57 125.665 194.986 130.6 194.693C132.244 194.693 133.231 192.354 135.205 191.769L135.534 188.845C137.508 191.477 137.179 187.968 135.863 186.213C138.166 187.968 138.824 189.43 139.811 190.599C139.811 189.722 142.442 186.506 142.442 190.307L143.1 186.506C144.087 185.921 144.416 189.722 145.403 187.09C146.39 184.459 148.364 186.506 150.338 185.628C149.68 186.798 150.009 189.137 152.311 187.675L154.943 185.628C156.588 189.137 159.22 187.675 160.536 187.09C175.01 178.903 189.485 169.253 203.301 159.603L202.972 163.405L204.617 158.726C206.262 160.188 207.578 159.019 208.236 158.141C210.209 155.217 212.841 152.293 217.118 149.661C211.854 162.235 205.604 172.177 197.709 180.365L194.419 183.874C194.419 185.921 193.761 188.553 191.129 188.845C189.813 189.137 187.182 188.26 185.208 190.015C184.221 191.184 187.511 193.524 184.879 191.769C182.576 190.307 180.273 191.769 177.642 192.354C175.668 192.939 178.958 194.693 179.616 195.863C180.273 197.033 180.931 198.202 180.602 199.664L176.984 196.155C172.707 198.202 170.076 202.004 166.457 204.928C164.812 206.097 165.47 208.144 165.47 209.899C163.167 209.899 160.536 209.314 159.22 210.484C158.233 211.653 158.562 213.408 158.562 215.162C155.272 214.87 154.943 210.484 151.982 211.361C149.022 211.946 145.732 212.238 143.1 213.7C145.074 217.209 139.811 215.162 140.469 215.747C135.534 213.115 131.258 211.068 125.994 212.823C114.809 209.606 100.993 211.068 90.7946 212.238C90.7946 210.776 91.1236 209.314 90.4657 209.022C89.8077 210.484 87.8339 209.899 88.1629 209.899C81.9126 206.097 75.6622 203.758 69.0829 200.542C63.1615 201.126 57.569 198.495 55.9242 197.033C51.3187 193.231 46.0552 195.278 41.7787 194.401C32.5676 192.354 29.2779 183.874 28.291 178.026C27.6331 175.101 25.0014 173.932 24.0145 174.224C19.7379 161.943 13.1586 150.831 7.89513 139.427C6.57926 136.503 6.90823 133.579 6.90823 130.362C8.55306 130.947 10.1979 130.654 9.86893 128.608C8.2241 118.958 4.2765 111.648 -6.10352e-05 104.63C2.3027 94.6875 2.63167 82.9909 7.89513 74.2185C12.5007 66.3233 21.0538 62.2295 26.9752 55.5039C28.949 53.1646 28.949 49.9481 30.9228 47.9012C37.5021 42.0529 44.0814 35.9122 51.3187 30.6487C54.6083 28.3094 58.5559 30.6487 63.4904 29.7715C65.1353 24.508 71.7146 19.8294 77.965 21.2914C80.5967 21.8763 85.8601 15.7356 87.505 15.1507C90.1367 14.2735 88.8208 17.49 88.8208 19.5369C95.0712 15.1507 103.624 12.8114 111.52 10.1797Z" fill="#02BAFF"/>
<g clip-path="url(#clip3_1_2)">
<g clip-path="url(#clip4_1_2)">
<g clip-path="url(#clip5_1_2)">
<g clip-path="url(#clip6_1_2)">
<path fill-rule="evenodd" clip-rule="evenodd" d="M126.907 97.9214C127.622 98.0936 128.47 97.8294 128.766 97.9214C128.489 97.8909 128.977 97.7144 128.998 97.6116C128.978 98.02 129.176 97.5785 129.347 97.8182C129.373 97.4278 129.615 97.2299 129.927 97.0952C130.483 95.4852 129.147 93.9359 127.72 93.79C127.565 93.79 127.41 93.79 127.255 93.79C124.879 94.1924 124.655 97.3792 126.907 97.9214ZM127.139 95.4426C127.255 95.4426 127.371 95.4426 127.487 95.4426C127.625 95.8497 127.55 95.8476 127.72 96.2689C127.365 96.1944 127.296 96.3748 127.022 96.3722C126.788 96.1333 126.904 95.5799 127.139 95.4426Z" fill="#02BAFF"/>
<path fill-rule="evenodd" clip-rule="evenodd" d="M119.122 115.48C119.126 115.622 119.067 115.707 119.005 115.79C118.717 115.924 118.523 115.487 118.424 115.79C117.432 116.796 117.674 118.775 119.354 119.508C123.899 120.315 123.181 114.5 119.122 115.48ZM120.283 118.062C120.148 117.736 120.355 117.609 120.167 117.236C120.322 117.089 120.825 117.089 120.981 117.236C120.912 117.707 121.027 118.035 120.283 118.062Z" fill="#02BAFF"/>
<path fill-rule="evenodd" clip-rule="evenodd" d="M126.674 102.776C126.2 102.843 125.978 103.049 125.396 103.189C124.607 102.857 124.062 102.051 123.465 101.541C123.49 101.573 123.52 101.601 123.537 101.64C122.562 101.262 122.072 100.893 121.561 99.9871C120.954 99.7057 119.19 99.6041 120.051 99.3674C119.319 99.1587 118.626 98.8376 117.494 98.7477C117.496 98.6113 117.698 98.6534 117.727 98.5411C117.107 98.3298 116.051 98.0651 115.983 98.0247C115.859 97.9502 115.385 98.0604 115.054 98.0247C114.722 97.989 114.401 97.7505 114.008 97.7148C111.854 97.5199 109.023 97.7703 107.617 98.4378C107.63 98.2429 108.001 98.366 107.966 98.128C107.022 98.0875 106.713 98.6599 105.991 98.5411C103.885 96.5658 100.505 95.5476 97.6245 96.7853C97.3863 96.8877 97.5044 97.0331 97.3921 97.0951C97.1476 97.2302 96.7952 97.1919 96.5787 97.3017C95.014 98.0948 94.2858 100.036 93.79 101.33C93.79 101.984 93.79 102.638 93.79 103.292C94.1929 104.626 94.9259 105.641 95.8816 106.701C94.8581 108.574 94.0621 110.921 94.0224 113.311C93.929 118.987 97.2914 123.518 100.762 125.912C101.482 126.408 100.806 127.025 101.11 128.494C101.195 128.901 101.583 129.647 101.808 129.94C103.959 132.752 109.143 132.754 110.987 129.217C116.778 129.434 121.148 127.534 124.35 124.672C127.774 121.612 129.882 117.245 129.23 111.555C134.406 110.139 132.918 101.895 126.674 102.776ZM95.5335 102.259C95.5756 101.197 96.434 100.619 96.8116 99.6772C96.9477 99.694 96.9094 99.8657 96.9278 99.9871C96.9089 99.7211 97.6792 99.6334 97.2764 99.3674C97.5591 99.3308 97.6226 99.5636 97.7412 98.9543C98.5255 98.9547 99.1539 98.5932 99.7165 98.128C99.9789 98.1856 99.5756 98.2894 99.8327 98.4378C102.644 97.918 104.36 99.6704 105.178 101.33C105.256 102.805 104.744 104.558 103.667 105.771C102.312 106.363 101.159 106.779 99.7165 106.597C97.3824 106.305 95.4497 104.363 95.5335 102.259ZM104.132 129.837C104.287 129.502 103.408 128.458 102.854 128.081C102.873 127.96 103.066 127.994 103.202 127.978C102.022 124.096 109.281 123.568 109.709 127.048C110.026 129.615 106.948 131.829 104.132 129.837ZM123.769 123.743C122.782 123.587 122.304 124.683 121.561 125.189C121.602 125.053 121.766 125.026 121.793 124.879C121.251 125.326 120.45 125.543 120.167 126.222C119.794 126.285 120.008 125.85 119.702 126.118C117.193 127.388 114.324 127.741 111.684 128.287C111.712 128.106 111.884 128.052 112.149 128.081C112.119 127.866 111.639 128.053 111.568 127.875C111.921 125.861 110.396 124.656 109.36 123.537C106.913 122.196 102.937 122.814 101.808 124.879C98.4892 122.764 96.8784 119.762 95.6492 115.79C95.5044 113.338 95.8423 109.604 97.1597 107.527C102.952 110.014 108.929 105.044 106.339 99.781C113.462 97.6421 120.982 100.412 124.233 103.912C120.91 106.331 122.734 112.592 128.184 111.762C129.147 117.333 125.958 120.926 123.769 123.743ZM125.512 109.696C125.355 109.403 125.569 109.096 124.931 109.076C124.795 108.309 124.289 107.858 124.351 107.114C124.547 104.753 127.541 103.727 130.16 105.255C130.567 106.243 131.119 106.75 130.974 107.733C130.613 110.16 127.23 111.281 125.512 109.696Z" fill="#02BAFF"/>
<path fill-rule="evenodd" clip-rule="evenodd" d="M123.188 101.33C123.282 101.391 123.375 101.463 123.465 101.541C123.398 101.449 123.311 101.372 123.188 101.33Z" fill="#02BAFF"/>
<path fill-rule="evenodd" clip-rule="evenodd" d="M101.459 100.607C101.771 100.872 101.148 100.754 101.459 101.02C102.622 101.305 102.194 103.163 103.435 103.086C105.317 101.579 102.617 98.9116 100.065 99.4707C100.065 99.6772 100.065 99.8838 100.065 100.09C100.626 100.23 101.306 100.703 101.459 100.607Z" fill="#02BAFF"/>
<path fill-rule="evenodd" clip-rule="evenodd" d="M126.674 105.874C126.941 106.046 126.474 106.154 126.442 106.184C126.548 106.439 126.809 107.066 127.836 107.011C128.047 107.594 128.474 108.372 129.463 107.94C130.024 106.581 128.007 105.141 126.674 105.874Z" fill="#02BAFF"/>
<path fill-rule="evenodd" clip-rule="evenodd" d="M109.709 108.043C109.397 108.192 108.934 108.596 108.547 108.353C108.564 108.678 108.249 108.708 107.966 108.766C107.976 108.606 107.628 108.695 107.85 108.766C108.003 108.836 107.722 109.11 107.734 109.179C107.446 108.844 107.594 109.266 107.037 109.076C106.814 109.334 107.214 109.501 106.921 109.696C106.908 109.57 106.886 109.451 106.688 109.489C106.94 109.98 106.285 109.625 106.572 110.212C105.645 110.01 105.634 111.824 105.178 111.865C105.286 112.201 105.192 112.402 105.41 112.794C105.261 112.789 105.249 112.662 105.061 112.691C104.921 114.19 105.34 116.524 106.688 117.339C107.83 119.021 110.958 120.041 113.428 119.508C114.65 119.245 115.401 118.534 116.332 118.062C116.479 117.504 116.881 117.172 117.378 116.926C120.222 112.001 115.894 106.846 109.709 108.043ZM109.709 117.236C109.536 117.224 109.187 117.101 108.896 116.926C108.981 116.742 109.107 116.911 109.245 116.926C108.344 116.312 107.947 115.317 107.153 114.344C107.175 114.227 107.27 114.287 107.269 114.344C107.661 114.396 107.345 113.509 107.269 113.311C107.611 111.21 109.361 109.909 111.22 109.489C113.254 109.59 114.594 110.066 115.635 110.832C119.102 114.422 113.649 120.256 109.709 117.236Z" fill="#02BAFF"/>
<path fill-rule="evenodd" clip-rule="evenodd" d="M111.452 110.729C111.305 110.914 110.997 111.487 111.104 111.555C111.464 111.399 111.516 111.824 111.685 112.072C114.253 111.843 113.153 114.351 115.054 114.344C115.87 112.523 114.076 110.508 111.452 110.729Z" fill="#02BAFF"/>
<path fill-rule="evenodd" clip-rule="evenodd" d="M105.642 125.809C105.457 126.177 105.476 126.255 105.178 126.325C105.266 127.308 107.099 127.026 107.153 128.184C109.429 128.36 107.678 125.237 105.642 125.809Z" fill="#02BAFF"/>
</g>
</g>
</g>
</g>
</g>
</g>
</g>
<defs>
<clipPath id="clip0_1_2">
<rect width="226" height="226" fill="white"/>
</clipPath>
<clipPath id="clip1_1_2">
<rect width="226" height="226" fill="white"/>
</clipPath>
<clipPath id="clip2_1_2">
<rect width="226" height="226" fill="white"/>
</clipPath>
<clipPath id="clip3_1_2">
<rect width="135.6" height="69.8326" fill="white" transform="translate(45.2 78.0837)"/>
</clipPath>
<clipPath id="clip4_1_2">
<rect width="135.6" height="69.8326" fill="white" transform="translate(45.2 78.0837)"/>
</clipPath>
<clipPath id="clip5_1_2">
<rect width="38.5773" height="38.1771" fill="white" transform="translate(93.79 93.79)"/>
</clipPath>
<clipPath id="clip6_1_2">
<rect width="38.5773" height="38.1771" fill="white" transform="translate(93.79 93.79)"/>
</clipPath>
</defs>
</svg>
