<svg width="1363" height="297" viewBox="0 0 1363 297" fill="none" xmlns="http://www.w3.org/2000/svg">
<path d="M0 15C0 6.71573 6.71573 0 15 0H37V297H15C6.71573 297 0 290.284 0 282V15Z" fill="#02BAFF"/>
<path d="M37 0H1066V297H37V0Z" fill="#F0F0F0"/>
<path d="M116.115 49.4062V75H110.842L100.559 57.8438V75H95.2852V49.4062H100.559L110.859 66.5801V49.4062H116.115ZM130.652 70.7109V62.2383C130.652 61.6289 130.553 61.1074 130.354 60.6738C130.154 60.2285 129.844 59.8828 129.422 59.6367C129.012 59.3906 128.479 59.2676 127.822 59.2676C127.26 59.2676 126.773 59.3672 126.363 59.5664C125.953 59.7539 125.637 60.0293 125.414 60.3926C125.191 60.7441 125.08 61.1602 125.08 61.6406H120.018C120.018 60.832 120.205 60.0645 120.58 59.3379C120.955 58.6113 121.5 57.9727 122.215 57.4219C122.93 56.8594 123.779 56.4199 124.764 56.1035C125.76 55.7871 126.873 55.6289 128.104 55.6289C129.58 55.6289 130.893 55.875 132.041 56.3672C133.189 56.8594 134.092 57.5977 134.748 58.582C135.416 59.5664 135.75 60.7969 135.75 62.2734V70.4121C135.75 71.4551 135.814 72.3105 135.943 72.9785C136.072 73.6348 136.26 74.209 136.506 74.7012V75H131.391C131.145 74.4844 130.957 73.8398 130.828 73.0664C130.711 72.2812 130.652 71.4961 130.652 70.7109ZM131.32 63.416L131.355 66.2812H128.525C127.857 66.2812 127.277 66.3574 126.785 66.5098C126.293 66.6621 125.889 66.8789 125.572 67.1602C125.256 67.4297 125.021 67.7461 124.869 68.1094C124.729 68.4727 124.658 68.8711 124.658 69.3047C124.658 69.7383 124.758 70.1309 124.957 70.4824C125.156 70.8223 125.443 71.0918 125.818 71.291C126.193 71.4785 126.633 71.5723 127.137 71.5723C127.898 71.5723 128.561 71.4199 129.123 71.1152C129.686 70.8105 130.119 70.4355 130.424 69.9902C130.74 69.5449 130.904 69.123 130.916 68.7246L132.252 70.8691C132.064 71.3496 131.807 71.8477 131.479 72.3633C131.162 72.8789 130.758 73.3652 130.266 73.8223C129.773 74.2676 129.182 74.6367 128.49 74.9297C127.799 75.2109 126.979 75.3516 126.029 75.3516C124.822 75.3516 123.727 75.1113 122.742 74.6309C121.77 74.1387 120.996 73.4648 120.422 72.6094C119.859 71.7422 119.578 70.7578 119.578 69.6562C119.578 68.6602 119.766 67.7754 120.141 67.002C120.516 66.2285 121.066 65.5781 121.793 65.0508C122.531 64.5117 123.451 64.1074 124.553 63.8379C125.654 63.5566 126.932 63.416 128.385 63.416H131.32ZM150.885 70.8516V48H155.982V75H151.395L150.885 70.8516ZM138.861 65.7188V65.3496C138.861 63.8965 139.025 62.5781 139.354 61.3945C139.682 60.1992 140.162 59.1738 140.795 58.3184C141.428 57.4629 142.207 56.8008 143.133 56.332C144.059 55.8633 145.113 55.6289 146.297 55.6289C147.41 55.6289 148.383 55.8633 149.215 56.332C150.059 56.8008 150.773 57.4688 151.359 58.3359C151.957 59.1914 152.438 60.2051 152.801 61.377C153.164 62.5371 153.428 63.8086 153.592 65.1914V66C153.428 67.3242 153.164 68.5547 152.801 69.6914C152.438 70.8281 151.957 71.8242 151.359 72.6797C150.773 73.5234 150.059 74.1797 149.215 74.6484C148.371 75.1172 147.387 75.3516 146.262 75.3516C145.078 75.3516 144.023 75.1113 143.098 74.6309C142.184 74.1504 141.41 73.4766 140.777 72.6094C140.156 71.7422 139.682 70.7227 139.354 69.5508C139.025 68.3789 138.861 67.1016 138.861 65.7188ZM143.924 65.3496V65.7188C143.924 66.5039 143.982 67.2363 144.1 67.916C144.229 68.5957 144.434 69.1992 144.715 69.7266C145.008 70.2422 145.383 70.6465 145.84 70.9395C146.309 71.2207 146.877 71.3613 147.545 71.3613C148.412 71.3613 149.127 71.168 149.689 70.7812C150.252 70.3828 150.68 69.8379 150.973 69.1465C151.277 68.4551 151.453 67.6582 151.5 66.7559V64.4531C151.465 63.7148 151.359 63.0527 151.184 62.4668C151.02 61.8691 150.773 61.3594 150.445 60.9375C150.129 60.5156 149.73 60.1875 149.25 59.9531C148.781 59.7188 148.225 59.6016 147.58 59.6016C146.924 59.6016 146.361 59.7539 145.893 60.0586C145.424 60.3516 145.043 60.7559 144.75 61.2715C144.469 61.7871 144.258 62.3965 144.117 63.0996C143.988 63.791 143.924 64.541 143.924 65.3496ZM165.281 55.9805V75H160.201V55.9805H165.281ZM159.885 51.0234C159.885 50.2852 160.143 49.6758 160.658 49.1953C161.174 48.7148 161.865 48.4746 162.732 48.4746C163.588 48.4746 164.273 48.7148 164.789 49.1953C165.316 49.6758 165.58 50.2852 165.58 51.0234C165.58 51.7617 165.316 52.3711 164.789 52.8516C164.273 53.332 163.588 53.5723 162.732 53.5723C161.865 53.5723 161.174 53.332 160.658 52.8516C160.143 52.3711 159.885 51.7617 159.885 51.0234ZM174.527 59.918V75H169.447V55.9805H174.211L174.527 59.918ZM173.824 64.8223H172.418C172.418 63.498 172.576 62.2793 172.893 61.166C173.221 60.041 173.695 59.0684 174.316 58.248C174.949 57.416 175.729 56.7715 176.654 56.3145C177.58 55.8574 178.652 55.6289 179.871 55.6289C180.715 55.6289 181.488 55.7578 182.191 56.0156C182.895 56.2617 183.498 56.6543 184.002 57.1934C184.518 57.7207 184.916 58.4121 185.197 59.2676C185.479 60.1113 185.619 61.125 185.619 62.3086V75H180.557V62.8711C180.557 62.0039 180.439 61.3359 180.205 60.8672C179.971 60.3984 179.637 60.0703 179.203 59.8828C178.781 59.6953 178.271 59.6016 177.674 59.6016C177.018 59.6016 176.443 59.7363 175.951 60.0059C175.471 60.2754 175.072 60.6504 174.756 61.1309C174.439 61.5996 174.205 62.1504 174.053 62.7832C173.9 63.416 173.824 64.0957 173.824 64.8223ZM185.145 64.2422L183.334 64.4707C183.334 63.2285 183.486 62.0742 183.791 61.0078C184.107 59.9414 184.57 59.0039 185.18 58.1953C185.801 57.3867 186.568 56.7598 187.482 56.3145C188.396 55.8574 189.451 55.6289 190.646 55.6289C191.561 55.6289 192.393 55.7637 193.143 56.0332C193.893 56.291 194.531 56.707 195.059 57.2812C195.598 57.8438 196.008 58.582 196.289 59.4961C196.582 60.4102 196.729 61.5293 196.729 62.8535V75H191.648V62.8535C191.648 61.9746 191.531 61.3066 191.297 60.8496C191.074 60.3809 190.746 60.0586 190.312 59.8828C189.891 59.6953 189.387 59.6016 188.801 59.6016C188.191 59.6016 187.658 59.7246 187.201 59.9707C186.744 60.2051 186.363 60.5332 186.059 60.9551C185.754 61.377 185.525 61.8691 185.373 62.4316C185.221 62.9824 185.145 63.5859 185.145 64.2422ZM209.93 49.4062H219.475C221.432 49.4062 223.113 49.6992 224.52 50.2852C225.938 50.8711 227.027 51.7383 227.789 52.8867C228.551 54.0352 228.932 55.4473 228.932 57.123C228.932 58.4941 228.697 59.6719 228.229 60.6562C227.771 61.6289 227.121 62.4434 226.277 63.0996C225.445 63.7441 224.467 64.2598 223.342 64.6465L221.672 65.5254H213.375L213.34 61.4121H219.51C220.436 61.4121 221.203 61.248 221.812 60.9199C222.422 60.5918 222.879 60.1348 223.184 59.5488C223.5 58.9629 223.658 58.2832 223.658 57.5098C223.658 56.6895 223.506 55.9805 223.201 55.3828C222.896 54.7852 222.434 54.3281 221.812 54.0117C221.191 53.6953 220.412 53.5371 219.475 53.5371H215.203V75H209.93V49.4062ZM224.238 75L218.402 63.5918L223.975 63.5566L229.881 74.7539V75H224.238ZM238.02 55.9805V75H232.939V55.9805H238.02ZM232.623 51.0234C232.623 50.2852 232.881 49.6758 233.396 49.1953C233.912 48.7148 234.604 48.4746 235.471 48.4746C236.326 48.4746 237.012 48.7148 237.527 49.1953C238.055 49.6758 238.318 50.2852 238.318 51.0234C238.318 51.7617 238.055 52.3711 237.527 52.8516C237.012 53.332 236.326 53.5723 235.471 53.5723C234.604 53.5723 233.912 53.332 233.396 52.8516C232.881 52.3711 232.623 51.7617 232.623 51.0234ZM248.654 75H243.557V54.293C243.557 52.8516 243.838 51.6387 244.4 50.6543C244.975 49.6582 245.777 48.9082 246.809 48.4043C247.852 47.8887 249.088 47.6309 250.518 47.6309C250.986 47.6309 251.438 47.666 251.871 47.7363C252.305 47.7949 252.727 47.8711 253.137 47.9648L253.084 51.7793C252.861 51.7207 252.627 51.6797 252.381 51.6562C252.135 51.6328 251.848 51.6211 251.52 51.6211C250.91 51.6211 250.389 51.7266 249.955 51.9375C249.533 52.1367 249.211 52.4355 248.988 52.834C248.766 53.2324 248.654 53.7188 248.654 54.293V75ZM252.451 55.9805V59.5664H240.727V55.9805H252.451ZM265.371 70.7109V62.2383C265.371 61.6289 265.271 61.1074 265.072 60.6738C264.873 60.2285 264.562 59.8828 264.141 59.6367C263.73 59.3906 263.197 59.2676 262.541 59.2676C261.979 59.2676 261.492 59.3672 261.082 59.5664C260.672 59.7539 260.355 60.0293 260.133 60.3926C259.91 60.7441 259.799 61.1602 259.799 61.6406H254.736C254.736 60.832 254.924 60.0645 255.299 59.3379C255.674 58.6113 256.219 57.9727 256.934 57.4219C257.648 56.8594 258.498 56.4199 259.482 56.1035C260.479 55.7871 261.592 55.6289 262.822 55.6289C264.299 55.6289 265.611 55.875 266.76 56.3672C267.908 56.8594 268.811 57.5977 269.467 58.582C270.135 59.5664 270.469 60.7969 270.469 62.2734V70.4121C270.469 71.4551 270.533 72.3105 270.662 72.9785C270.791 73.6348 270.979 74.209 271.225 74.7012V75H266.109C265.863 74.4844 265.676 73.8398 265.547 73.0664C265.43 72.2812 265.371 71.4961 265.371 70.7109ZM266.039 63.416L266.074 66.2812H263.244C262.576 66.2812 261.996 66.3574 261.504 66.5098C261.012 66.6621 260.607 66.8789 260.291 67.1602C259.975 67.4297 259.74 67.7461 259.588 68.1094C259.447 68.4727 259.377 68.8711 259.377 69.3047C259.377 69.7383 259.477 70.1309 259.676 70.4824C259.875 70.8223 260.162 71.0918 260.537 71.291C260.912 71.4785 261.352 71.5723 261.855 71.5723C262.617 71.5723 263.279 71.4199 263.842 71.1152C264.404 70.8105 264.838 70.4355 265.143 69.9902C265.459 69.5449 265.623 69.123 265.635 68.7246L266.971 70.8691C266.783 71.3496 266.525 71.8477 266.197 72.3633C265.881 72.8789 265.477 73.3652 264.984 73.8223C264.492 74.2676 263.9 74.6367 263.209 74.9297C262.518 75.2109 261.697 75.3516 260.748 75.3516C259.541 75.3516 258.445 75.1113 257.461 74.6309C256.488 74.1387 255.715 73.4648 255.141 72.6094C254.578 71.7422 254.297 70.7578 254.297 69.6562C254.297 68.6602 254.484 67.7754 254.859 67.002C255.234 66.2285 255.785 65.5781 256.512 65.0508C257.25 64.5117 258.17 64.1074 259.271 63.8379C260.373 63.5566 261.65 63.416 263.104 63.416H266.039ZM279.715 55.9805V75H274.635V55.9805H279.715ZM274.318 51.0234C274.318 50.2852 274.576 49.6758 275.092 49.1953C275.607 48.7148 276.299 48.4746 277.166 48.4746C278.021 48.4746 278.707 48.7148 279.223 49.1953C279.75 49.6758 280.014 50.2852 280.014 51.0234C280.014 51.7617 279.75 52.3711 279.223 52.8516C278.707 53.332 278.021 53.5723 277.166 53.5723C276.299 53.5723 275.607 53.332 275.092 52.8516C274.576 52.3711 274.318 51.7617 274.318 51.0234ZM289.242 55.9805V75H284.162V55.9805H289.242ZM283.846 51.0234C283.846 50.2852 284.104 49.6758 284.619 49.1953C285.135 48.7148 285.826 48.4746 286.693 48.4746C287.549 48.4746 288.234 48.7148 288.75 49.1953C289.277 49.6758 289.541 50.2852 289.541 51.0234C289.541 51.7617 289.277 52.3711 288.75 52.8516C288.234 53.332 287.549 53.5723 286.693 53.5723C285.826 53.5723 285.135 53.332 284.619 52.8516C284.104 52.3711 283.846 51.7617 283.846 51.0234Z" fill="#888888"/>
<path d="M118.676 126.52H128.246C128.118 129.29 127.371 131.733 126.004 133.848C124.637 135.962 122.741 137.612 120.316 138.797C117.91 139.964 115.066 140.547 111.785 140.547C109.124 140.547 106.745 140.1 104.648 139.207C102.57 138.314 100.802 137.029 99.3438 135.352C97.9036 133.674 96.8008 131.642 96.0352 129.254C95.2878 126.866 94.9141 124.177 94.9141 121.188V119.027C94.9141 116.038 95.306 113.349 96.0898 110.961C96.8919 108.555 98.0221 106.513 99.4805 104.836C100.957 103.141 102.725 101.846 104.785 100.953C106.845 100.06 109.133 99.6133 111.648 99.6133C115.112 99.6133 118.038 100.233 120.426 101.473C122.814 102.712 124.664 104.417 125.977 106.586C127.289 108.737 128.064 111.189 128.301 113.941H118.73C118.694 112.447 118.439 111.198 117.965 110.195C117.491 109.174 116.743 108.409 115.723 107.898C114.702 107.388 113.344 107.133 111.648 107.133C110.464 107.133 109.434 107.352 108.559 107.789C107.684 108.227 106.954 108.919 106.371 109.867C105.788 110.815 105.35 112.046 105.059 113.559C104.785 115.053 104.648 116.858 104.648 118.973V121.188C104.648 123.302 104.776 125.107 105.031 126.602C105.286 128.096 105.697 129.318 106.262 130.266C106.827 131.214 107.556 131.915 108.449 132.371C109.361 132.809 110.473 133.027 111.785 133.027C113.243 133.027 114.474 132.799 115.477 132.344C116.479 131.87 117.254 131.159 117.801 130.211C118.348 129.245 118.639 128.014 118.676 126.52ZM147.715 132.562V120.367C147.715 119.529 147.596 118.809 147.359 118.207C147.122 117.605 146.749 117.141 146.238 116.812C145.728 116.466 145.044 116.293 144.188 116.293C143.495 116.293 142.902 116.411 142.41 116.648C141.918 116.885 141.544 117.241 141.289 117.715C141.034 118.189 140.906 118.79 140.906 119.52H131.691C131.691 118.152 131.992 116.885 132.594 115.719C133.214 114.534 134.089 113.504 135.219 112.629C136.367 111.754 137.734 111.079 139.32 110.605C140.924 110.113 142.711 109.867 144.68 109.867C147.031 109.867 149.128 110.259 150.969 111.043C152.828 111.827 154.296 113.003 155.371 114.57C156.447 116.12 156.984 118.07 156.984 120.422V132.535C156.984 134.467 157.094 135.935 157.312 136.938C157.531 137.922 157.841 138.788 158.242 139.535V140H149C148.562 139.089 148.234 137.977 148.016 136.664C147.815 135.333 147.715 133.966 147.715 132.562ZM148.836 121.926L148.891 126.848H144.816C143.96 126.848 143.23 126.966 142.629 127.203C142.046 127.44 141.572 127.768 141.207 128.188C140.861 128.589 140.605 129.044 140.441 129.555C140.296 130.065 140.223 130.603 140.223 131.168C140.223 131.715 140.35 132.207 140.605 132.645C140.879 133.064 141.243 133.392 141.699 133.629C142.155 133.866 142.665 133.984 143.23 133.984C144.251 133.984 145.117 133.793 145.828 133.41C146.557 133.009 147.113 132.526 147.496 131.961C147.879 131.396 148.07 130.867 148.07 130.375L150.094 134.148C149.729 134.878 149.31 135.616 148.836 136.363C148.38 137.111 147.806 137.803 147.113 138.441C146.439 139.061 145.609 139.572 144.625 139.973C143.641 140.355 142.447 140.547 141.043 140.547C139.22 140.547 137.543 140.173 136.012 139.426C134.499 138.678 133.286 137.639 132.375 136.309C131.464 134.96 131.008 133.41 131.008 131.66C131.008 130.129 131.281 128.762 131.828 127.559C132.393 126.355 133.241 125.335 134.371 124.496C135.501 123.658 136.941 123.02 138.691 122.582C140.441 122.145 142.501 121.926 144.871 121.926H148.836ZM171.395 116.676V140H162.18V110.414H170.82L171.395 116.676ZM170.273 124.195L168.168 124.25C168.168 122.172 168.414 120.258 168.906 118.508C169.398 116.758 170.128 115.236 171.094 113.941C172.06 112.647 173.245 111.645 174.648 110.934C176.07 110.223 177.711 109.867 179.57 109.867C180.865 109.867 182.04 110.068 183.098 110.469C184.155 110.852 185.066 111.462 185.832 112.301C186.598 113.121 187.181 114.197 187.582 115.527C188.001 116.84 188.211 118.417 188.211 120.258V140H178.996V121.434C178.996 120.176 178.85 119.228 178.559 118.59C178.285 117.952 177.884 117.523 177.355 117.305C176.827 117.086 176.18 116.977 175.414 116.977C174.612 116.977 173.892 117.159 173.254 117.523C172.616 117.888 172.069 118.398 171.613 119.055C171.176 119.693 170.839 120.449 170.602 121.324C170.383 122.199 170.273 123.156 170.273 124.195ZM187.172 124.195L184.602 124.25C184.602 122.172 184.829 120.258 185.285 118.508C185.759 116.758 186.461 115.236 187.391 113.941C188.339 112.647 189.514 111.645 190.918 110.934C192.322 110.223 193.953 109.867 195.812 109.867C197.161 109.867 198.401 110.068 199.531 110.469C200.661 110.87 201.637 111.517 202.457 112.41C203.277 113.303 203.915 114.488 204.371 115.965C204.827 117.423 205.055 119.228 205.055 121.379V140H195.812V121.379C195.812 120.158 195.667 119.237 195.375 118.617C195.102 117.979 194.701 117.551 194.172 117.332C193.643 117.095 193.014 116.977 192.285 116.977C191.41 116.977 190.654 117.159 190.016 117.523C189.378 117.888 188.84 118.398 188.402 119.055C187.983 119.693 187.673 120.449 187.473 121.324C187.272 122.199 187.172 123.156 187.172 124.195ZM219.629 116.102V151.375H210.414V110.414H219L219.629 116.102ZM237.785 124.852V125.426C237.785 127.577 237.539 129.573 237.047 131.414C236.555 133.255 235.826 134.859 234.859 136.227C233.893 137.594 232.69 138.66 231.25 139.426C229.828 140.173 228.178 140.547 226.301 140.547C224.533 140.547 223.01 140.155 221.734 139.371C220.458 138.587 219.392 137.503 218.535 136.117C217.678 134.732 216.986 133.146 216.457 131.359C215.928 129.573 215.509 127.686 215.199 125.699V124.961C215.509 122.828 215.928 120.85 216.457 119.027C216.986 117.186 217.678 115.582 218.535 114.215C219.392 112.848 220.449 111.781 221.707 111.016C222.983 110.25 224.505 109.867 226.273 109.867C228.151 109.867 229.801 110.223 231.223 110.934C232.663 111.645 233.866 112.665 234.832 113.996C235.816 115.309 236.555 116.885 237.047 118.727C237.539 120.568 237.785 122.609 237.785 124.852ZM228.57 125.426V124.852C228.57 123.703 228.488 122.655 228.324 121.707C228.16 120.741 227.896 119.902 227.531 119.191C227.185 118.48 226.72 117.934 226.137 117.551C225.553 117.168 224.833 116.977 223.977 116.977C222.992 116.977 222.163 117.132 221.488 117.441C220.832 117.733 220.303 118.189 219.902 118.809C219.52 119.41 219.246 120.167 219.082 121.078C218.936 121.971 218.872 123.02 218.891 124.223V126.465C218.854 127.85 218.991 129.072 219.301 130.129C219.611 131.168 220.148 131.979 220.914 132.562C221.68 133.146 222.719 133.438 224.031 133.438C224.906 133.438 225.635 133.237 226.219 132.836C226.802 132.417 227.267 131.842 227.613 131.113C227.96 130.366 228.206 129.509 228.352 128.543C228.497 127.577 228.57 126.538 228.57 125.426ZM257.391 130.621L265.676 100.188H276.422L262.996 140H256.051L257.391 130.621ZM249.871 100.188L258.156 130.621L259.551 140H252.523L239.18 100.188H249.871ZM292.035 140.547C289.629 140.547 287.478 140.173 285.582 139.426C283.686 138.66 282.082 137.612 280.77 136.281C279.475 134.951 278.482 133.419 277.789 131.688C277.115 129.956 276.777 128.124 276.777 126.191V125.152C276.777 122.983 277.078 120.978 277.68 119.137C278.281 117.277 279.174 115.655 280.359 114.27C281.544 112.884 283.03 111.809 284.816 111.043C286.603 110.259 288.681 109.867 291.051 109.867C293.147 109.867 295.025 110.204 296.684 110.879C298.342 111.553 299.746 112.52 300.895 113.777C302.061 115.035 302.945 116.557 303.547 118.344C304.167 120.13 304.477 122.135 304.477 124.359V128.105H280.305V122.336H295.48V121.625C295.499 120.641 295.326 119.802 294.961 119.109C294.615 118.417 294.104 117.888 293.43 117.523C292.755 117.159 291.935 116.977 290.969 116.977C289.966 116.977 289.137 117.195 288.48 117.633C287.842 118.07 287.341 118.672 286.977 119.438C286.63 120.185 286.384 121.051 286.238 122.035C286.092 123.02 286.02 124.059 286.02 125.152V126.191C286.02 127.285 286.165 128.279 286.457 129.172C286.767 130.065 287.204 130.831 287.77 131.469C288.353 132.089 289.046 132.572 289.848 132.918C290.668 133.264 291.598 133.438 292.637 133.438C293.895 133.438 295.134 133.201 296.355 132.727C297.577 132.253 298.625 131.469 299.5 130.375L303.684 135.352C303.082 136.208 302.225 137.038 301.113 137.84C300.02 138.642 298.707 139.298 297.176 139.809C295.645 140.301 293.931 140.547 292.035 140.547ZM317.52 117.742V140H308.305V110.414H316.918L317.52 117.742ZM326.27 110.195L326.105 118.754C325.741 118.717 325.249 118.672 324.629 118.617C324.009 118.562 323.49 118.535 323.07 118.535C321.995 118.535 321.065 118.663 320.281 118.918C319.516 119.155 318.878 119.52 318.367 120.012C317.875 120.486 317.51 121.087 317.273 121.816C317.055 122.546 316.954 123.393 316.973 124.359L315.305 123.266C315.305 121.279 315.496 119.474 315.879 117.852C316.28 116.211 316.845 114.798 317.574 113.613C318.303 112.41 319.188 111.49 320.227 110.852C321.266 110.195 322.432 109.867 323.727 109.867C324.182 109.867 324.629 109.895 325.066 109.949C325.522 110.004 325.923 110.086 326.27 110.195ZM344.945 131.688C344.945 131.177 344.772 130.74 344.426 130.375C344.098 129.992 343.514 129.646 342.676 129.336C341.837 129.008 340.661 128.68 339.148 128.352C337.708 128.042 336.35 127.632 335.074 127.121C333.816 126.611 332.714 125.991 331.766 125.262C330.818 124.533 330.07 123.667 329.523 122.664C328.995 121.661 328.73 120.513 328.73 119.219C328.73 117.961 328.995 116.776 329.523 115.664C330.07 114.534 330.863 113.54 331.902 112.684C332.96 111.809 334.245 111.125 335.758 110.633C337.271 110.122 338.993 109.867 340.926 109.867C343.587 109.867 345.884 110.277 347.816 111.098C349.749 111.9 351.234 113.03 352.273 114.488C353.331 115.928 353.859 117.596 353.859 119.492H344.645C344.645 118.745 344.517 118.107 344.262 117.578C344.025 117.049 343.633 116.648 343.086 116.375C342.539 116.083 341.81 115.938 340.898 115.938C340.26 115.938 339.677 116.056 339.148 116.293C338.638 116.53 338.228 116.858 337.918 117.277C337.608 117.697 337.453 118.189 337.453 118.754C337.453 119.155 337.544 119.52 337.727 119.848C337.927 120.158 338.228 120.449 338.629 120.723C339.03 120.978 339.54 121.215 340.16 121.434C340.78 121.634 341.527 121.816 342.402 121.98C344.389 122.345 346.249 122.865 347.98 123.539C349.712 124.214 351.116 125.171 352.191 126.41C353.285 127.65 353.832 129.318 353.832 131.414C353.832 132.727 353.531 133.939 352.93 135.051C352.328 136.145 351.462 137.111 350.332 137.949C349.202 138.77 347.844 139.408 346.258 139.863C344.672 140.319 342.885 140.547 340.898 140.547C338.073 140.547 335.685 140.046 333.734 139.043C331.784 138.022 330.307 136.746 329.305 135.215C328.32 133.665 327.828 132.098 327.828 130.512H336.414C336.451 131.423 336.669 132.171 337.07 132.754C337.49 133.337 338.046 133.766 338.738 134.039C339.431 134.312 340.233 134.449 341.145 134.449C341.983 134.449 342.676 134.331 343.223 134.094C343.788 133.857 344.216 133.538 344.508 133.137C344.799 132.717 344.945 132.234 344.945 131.688ZM372.48 140.547C370.074 140.547 367.923 140.173 366.027 139.426C364.132 138.66 362.527 137.612 361.215 136.281C359.921 134.951 358.927 133.419 358.234 131.688C357.56 129.956 357.223 128.124 357.223 126.191V125.152C357.223 122.983 357.523 120.978 358.125 119.137C358.727 117.277 359.62 115.655 360.805 114.27C361.99 112.884 363.475 111.809 365.262 111.043C367.048 110.259 369.126 109.867 371.496 109.867C373.592 109.867 375.47 110.204 377.129 110.879C378.788 111.553 380.191 112.52 381.34 113.777C382.507 115.035 383.391 116.557 383.992 118.344C384.612 120.13 384.922 122.135 384.922 124.359V128.105H360.75V122.336H375.926V121.625C375.944 120.641 375.771 119.802 375.406 119.109C375.06 118.417 374.549 117.888 373.875 117.523C373.201 117.159 372.38 116.977 371.414 116.977C370.411 116.977 369.582 117.195 368.926 117.633C368.288 118.07 367.786 118.672 367.422 119.438C367.076 120.185 366.829 121.051 366.684 122.035C366.538 123.02 366.465 124.059 366.465 125.152V126.191C366.465 127.285 366.611 128.279 366.902 129.172C367.212 130.065 367.65 130.831 368.215 131.469C368.798 132.089 369.491 132.572 370.293 132.918C371.113 133.264 372.043 133.438 373.082 133.438C374.34 133.438 375.579 133.201 376.801 132.727C378.022 132.253 379.07 131.469 379.945 130.375L384.129 135.352C383.527 136.208 382.671 137.038 381.559 137.84C380.465 138.642 379.152 139.298 377.621 139.809C376.09 140.301 374.376 140.547 372.48 140.547Z" fill="black"/>
<rect x="93" y="178" width="917" height="77" rx="10" fill="#D3D3D3"/>
<rect x="111" y="196" width="148" height="41" rx="3" fill="#424242"/>
<rect x="111" y="196" width="148" height="41" rx="3" stroke="#424242" stroke-width="4"/>
<path d="M134.234 210.203H139.271C140.255 210.203 141.11 210.35 141.837 210.643C142.563 210.936 143.123 211.369 143.516 211.943C143.914 212.518 144.113 213.227 144.113 214.07C144.113 214.803 143.999 215.415 143.771 215.907C143.542 216.399 143.223 216.807 142.812 217.129C142.408 217.445 141.937 217.706 141.397 217.911L140.387 218.482H136.159L136.142 216.101H139.271C139.663 216.101 139.988 216.03 140.246 215.89C140.504 215.749 140.697 215.55 140.826 215.292C140.961 215.028 141.028 214.715 141.028 214.352C141.028 213.982 140.961 213.666 140.826 213.402C140.691 213.139 140.492 212.937 140.229 212.796C139.971 212.655 139.651 212.585 139.271 212.585H137.319V223H134.234V210.203ZM141.239 223L138.409 217.34L141.679 217.322L144.544 222.868V223H141.239ZM150.441 223.176C149.668 223.176 148.977 223.056 148.367 222.815C147.758 222.569 147.242 222.232 146.82 221.805C146.404 221.377 146.085 220.885 145.862 220.328C145.646 219.771 145.537 219.183 145.537 218.562V218.228C145.537 217.53 145.634 216.886 145.827 216.294C146.021 215.696 146.308 215.175 146.688 214.729C147.069 214.284 147.547 213.938 148.121 213.692C148.695 213.44 149.363 213.314 150.125 213.314C150.799 213.314 151.402 213.423 151.936 213.64C152.469 213.856 152.92 214.167 153.289 214.571C153.664 214.976 153.948 215.465 154.142 216.039C154.341 216.613 154.44 217.258 154.44 217.973V219.177H146.671V217.322H151.549V217.094C151.555 216.777 151.499 216.508 151.382 216.285C151.271 216.062 151.106 215.893 150.89 215.775C150.673 215.658 150.409 215.6 150.099 215.6C149.776 215.6 149.51 215.67 149.299 215.811C149.094 215.951 148.933 216.145 148.815 216.391C148.704 216.631 148.625 216.909 148.578 217.226C148.531 217.542 148.508 217.876 148.508 218.228V218.562C148.508 218.913 148.555 219.232 148.648 219.52C148.748 219.807 148.889 220.053 149.07 220.258C149.258 220.457 149.48 220.612 149.738 220.724C150.002 220.835 150.301 220.891 150.635 220.891C151.039 220.891 151.438 220.814 151.83 220.662C152.223 220.51 152.56 220.258 152.841 219.906L154.186 221.506C153.992 221.781 153.717 222.048 153.359 222.306C153.008 222.563 152.586 222.774 152.094 222.938C151.602 223.097 151.051 223.176 150.441 223.176ZM160.584 220.609V216.689C160.584 216.42 160.546 216.188 160.47 215.995C160.394 215.802 160.273 215.652 160.109 215.547C159.945 215.436 159.726 215.38 159.45 215.38C159.228 215.38 159.037 215.418 158.879 215.494C158.721 215.57 158.601 215.685 158.519 215.837C158.437 215.989 158.396 216.183 158.396 216.417H155.434C155.434 215.978 155.53 215.57 155.724 215.195C155.923 214.814 156.204 214.483 156.567 214.202C156.937 213.921 157.376 213.704 157.886 213.552C158.401 213.394 158.976 213.314 159.608 213.314C160.364 213.314 161.038 213.44 161.63 213.692C162.228 213.944 162.699 214.322 163.045 214.826C163.391 215.324 163.563 215.951 163.563 216.707V220.601C163.563 221.222 163.599 221.693 163.669 222.016C163.739 222.332 163.839 222.61 163.968 222.851V223H160.997C160.856 222.707 160.751 222.35 160.681 221.928C160.616 221.5 160.584 221.061 160.584 220.609ZM160.944 217.19L160.962 218.772H159.652C159.377 218.772 159.143 218.811 158.949 218.887C158.762 218.963 158.609 219.068 158.492 219.203C158.381 219.332 158.299 219.479 158.246 219.643C158.199 219.807 158.176 219.979 158.176 220.161C158.176 220.337 158.217 220.495 158.299 220.636C158.387 220.771 158.504 220.876 158.65 220.952C158.797 221.028 158.961 221.066 159.143 221.066C159.471 221.066 159.749 221.005 159.978 220.882C160.212 220.753 160.391 220.598 160.514 220.416C160.637 220.234 160.698 220.064 160.698 219.906L161.349 221.119C161.231 221.354 161.097 221.591 160.944 221.831C160.798 222.071 160.613 222.294 160.391 222.499C160.174 222.698 159.907 222.862 159.591 222.991C159.274 223.114 158.891 223.176 158.439 223.176C157.854 223.176 157.314 223.056 156.822 222.815C156.336 222.575 155.946 222.241 155.653 221.813C155.36 221.38 155.214 220.882 155.214 220.319C155.214 219.827 155.302 219.388 155.478 219.001C155.659 218.614 155.932 218.286 156.295 218.017C156.658 217.747 157.121 217.542 157.684 217.401C158.246 217.261 158.908 217.19 159.67 217.19H160.944ZM169.224 220.891C169.499 220.891 169.733 220.841 169.927 220.741C170.126 220.636 170.275 220.489 170.375 220.302C170.48 220.108 170.53 219.877 170.524 219.607H173.311C173.316 220.322 173.141 220.949 172.783 221.488C172.432 222.021 171.951 222.438 171.342 222.736C170.738 223.029 170.056 223.176 169.294 223.176C168.55 223.176 167.899 223.056 167.343 222.815C166.786 222.569 166.32 222.229 165.945 221.796C165.576 221.356 165.298 220.844 165.11 220.258C164.929 219.672 164.838 219.036 164.838 218.351V218.148C164.838 217.463 164.929 216.827 165.11 216.241C165.298 215.649 165.576 215.137 165.945 214.703C166.32 214.264 166.783 213.924 167.334 213.684C167.891 213.438 168.538 213.314 169.276 213.314C170.067 213.314 170.765 213.464 171.368 213.763C171.978 214.062 172.455 214.495 172.801 215.063C173.146 215.632 173.316 216.32 173.311 217.129H170.524C170.53 216.842 170.486 216.584 170.393 216.355C170.299 216.127 170.152 215.945 169.953 215.811C169.76 215.67 169.511 215.6 169.206 215.6C168.901 215.6 168.655 215.667 168.468 215.802C168.28 215.937 168.137 216.124 168.037 216.364C167.943 216.599 167.879 216.868 167.844 217.173C167.814 217.478 167.8 217.803 167.8 218.148V218.351C167.8 218.702 167.814 219.033 167.844 219.344C167.879 219.648 167.946 219.918 168.046 220.152C168.146 220.381 168.289 220.562 168.477 220.697C168.664 220.826 168.913 220.891 169.224 220.891ZM179.586 213.49V215.547H173.855V213.49H179.586ZM175.06 211.126H178.021V219.897C178.021 220.149 178.051 220.346 178.109 220.486C178.168 220.621 178.268 220.718 178.408 220.776C178.555 220.829 178.748 220.855 178.988 220.855C179.158 220.855 179.299 220.853 179.41 220.847C179.521 220.835 179.627 220.82 179.727 220.803V222.921C179.475 223.003 179.211 223.064 178.936 223.105C178.66 223.152 178.367 223.176 178.057 223.176C177.424 223.176 176.882 223.076 176.431 222.877C175.985 222.678 175.646 222.364 175.411 221.937C175.177 221.509 175.06 220.952 175.06 220.267V211.126ZM196.074 210.203V223H192.998L188.472 215.037V223H185.387V210.203H188.472L192.998 218.166V210.203H196.074ZM202.824 220.609V216.689C202.824 216.42 202.786 216.188 202.71 215.995C202.634 215.802 202.514 215.652 202.35 215.547C202.186 215.436 201.966 215.38 201.69 215.38C201.468 215.38 201.277 215.418 201.119 215.494C200.961 215.57 200.841 215.685 200.759 215.837C200.677 215.989 200.636 216.183 200.636 216.417H197.674C197.674 215.978 197.771 215.57 197.964 215.195C198.163 214.814 198.444 214.483 198.808 214.202C199.177 213.921 199.616 213.704 200.126 213.552C200.642 213.394 201.216 213.314 201.849 213.314C202.604 213.314 203.278 213.44 203.87 213.692C204.468 213.944 204.939 214.322 205.285 214.826C205.631 215.324 205.804 215.951 205.804 216.707V220.601C205.804 221.222 205.839 221.693 205.909 222.016C205.979 222.332 206.079 222.61 206.208 222.851V223H203.237C203.097 222.707 202.991 222.35 202.921 221.928C202.856 221.5 202.824 221.061 202.824 220.609ZM203.185 217.19L203.202 218.772H201.893C201.617 218.772 201.383 218.811 201.189 218.887C201.002 218.963 200.85 219.068 200.732 219.203C200.621 219.332 200.539 219.479 200.486 219.643C200.439 219.807 200.416 219.979 200.416 220.161C200.416 220.337 200.457 220.495 200.539 220.636C200.627 220.771 200.744 220.876 200.891 220.952C201.037 221.028 201.201 221.066 201.383 221.066C201.711 221.066 201.989 221.005 202.218 220.882C202.452 220.753 202.631 220.598 202.754 220.416C202.877 220.234 202.938 220.064 202.938 219.906L203.589 221.119C203.472 221.354 203.337 221.591 203.185 221.831C203.038 222.071 202.854 222.294 202.631 222.499C202.414 222.698 202.147 222.862 201.831 222.991C201.515 223.114 201.131 223.176 200.68 223.176C200.094 223.176 199.555 223.056 199.062 222.815C198.576 222.575 198.187 222.241 197.894 221.813C197.601 221.38 197.454 220.882 197.454 220.319C197.454 219.827 197.542 219.388 197.718 219.001C197.899 218.614 198.172 218.286 198.535 218.017C198.898 217.747 199.361 217.542 199.924 217.401C200.486 217.261 201.148 217.19 201.91 217.19H203.185ZM212.457 213.49V215.547H206.727V213.49H212.457ZM207.931 211.126H210.893V219.897C210.893 220.149 210.922 220.346 210.98 220.486C211.039 220.621 211.139 220.718 211.279 220.776C211.426 220.829 211.619 220.855 211.859 220.855C212.029 220.855 212.17 220.853 212.281 220.847C212.393 220.835 212.498 220.82 212.598 220.803V222.921C212.346 223.003 212.082 223.064 211.807 223.105C211.531 223.152 211.238 223.176 210.928 223.176C210.295 223.176 209.753 223.076 209.302 222.877C208.856 222.678 208.517 222.364 208.282 221.937C208.048 221.509 207.931 220.952 207.931 220.267V211.126ZM216.764 213.49V223H213.793V213.49H216.764ZM213.617 211.038C213.617 210.616 213.77 210.271 214.074 210.001C214.379 209.731 214.774 209.597 215.261 209.597C215.747 209.597 216.143 209.731 216.447 210.001C216.752 210.271 216.904 210.616 216.904 211.038C216.904 211.46 216.752 211.806 216.447 212.075C216.143 212.345 215.747 212.479 215.261 212.479C214.774 212.479 214.379 212.345 214.074 212.075C213.77 211.806 213.617 211.46 213.617 211.038ZM222.02 220.97L223.892 213.49H227.012L223.9 223H222.055L222.02 220.97ZM220.912 213.49L222.758 220.97L222.74 223H220.886L217.783 213.49H220.912ZM232.373 223.176C231.6 223.176 230.908 223.056 230.299 222.815C229.689 222.569 229.174 222.232 228.752 221.805C228.336 221.377 228.017 220.885 227.794 220.328C227.577 219.771 227.469 219.183 227.469 218.562V218.228C227.469 217.53 227.565 216.886 227.759 216.294C227.952 215.696 228.239 215.175 228.62 214.729C229.001 214.284 229.479 213.938 230.053 213.692C230.627 213.44 231.295 213.314 232.057 213.314C232.73 213.314 233.334 213.423 233.867 213.64C234.4 213.856 234.852 214.167 235.221 214.571C235.596 214.976 235.88 215.465 236.073 216.039C236.272 216.613 236.372 217.258 236.372 217.973V219.177H228.603V217.322H233.48V217.094C233.486 216.777 233.431 216.508 233.313 216.285C233.202 216.062 233.038 215.893 232.821 215.775C232.604 215.658 232.341 215.6 232.03 215.6C231.708 215.6 231.441 215.67 231.23 215.811C231.025 215.951 230.864 216.145 230.747 216.391C230.636 216.631 230.557 216.909 230.51 217.226C230.463 217.542 230.439 217.876 230.439 218.228V218.562C230.439 218.913 230.486 219.232 230.58 219.52C230.68 219.807 230.82 220.053 231.002 220.258C231.189 220.457 231.412 220.612 231.67 220.724C231.934 220.835 232.232 220.891 232.566 220.891C232.971 220.891 233.369 220.814 233.762 220.662C234.154 220.51 234.491 220.258 234.772 219.906L236.117 221.506C235.924 221.781 235.648 222.048 235.291 222.306C234.939 222.563 234.518 222.774 234.025 222.938C233.533 223.097 232.982 223.176 232.373 223.176Z" fill="white"/>
<rect x="279" y="196" width="130" height="41" rx="3" fill="#424242"/>
<rect x="279" y="196" width="130" height="41" rx="3" stroke="#424242" stroke-width="4"/>
<path d="M310.883 220.627V223H304.062V220.627H310.883ZM305.161 210.203V223H302.076V210.203H305.161ZM310.004 215.283V217.577H304.062V215.283H310.004ZM310.909 210.203V212.585H304.062V210.203H310.909ZM314.521 213.49L315.857 216.109L317.237 213.49H320.313L317.817 218.122L320.445 223H317.343L315.857 220.188L314.381 223H311.278L313.906 218.122L311.419 213.49H314.521ZM324.277 215.318V226.656H321.315V213.49H324.075L324.277 215.318ZM330.113 218.131V218.315C330.113 219.007 330.034 219.648 329.876 220.24C329.718 220.832 329.483 221.348 329.173 221.787C328.862 222.227 328.476 222.569 328.013 222.815C327.556 223.056 327.025 223.176 326.422 223.176C325.854 223.176 325.364 223.05 324.954 222.798C324.544 222.546 324.201 222.197 323.926 221.752C323.65 221.307 323.428 220.797 323.258 220.223C323.088 219.648 322.953 219.042 322.854 218.403V218.166C322.953 217.48 323.088 216.845 323.258 216.259C323.428 215.667 323.65 215.151 323.926 214.712C324.201 214.272 324.541 213.93 324.945 213.684C325.355 213.438 325.845 213.314 326.413 213.314C327.017 213.314 327.547 213.429 328.004 213.657C328.467 213.886 328.854 214.214 329.164 214.642C329.48 215.063 329.718 215.57 329.876 216.162C330.034 216.754 330.113 217.41 330.113 218.131ZM327.151 218.315V218.131C327.151 217.762 327.125 217.425 327.072 217.12C327.02 216.81 326.935 216.54 326.817 216.312C326.706 216.083 326.557 215.907 326.369 215.784C326.182 215.661 325.95 215.6 325.675 215.6C325.358 215.6 325.092 215.649 324.875 215.749C324.664 215.843 324.494 215.989 324.365 216.188C324.242 216.382 324.154 216.625 324.102 216.918C324.055 217.205 324.034 217.542 324.04 217.929V218.649C324.028 219.095 324.072 219.487 324.172 219.827C324.271 220.161 324.444 220.422 324.69 220.609C324.937 220.797 325.271 220.891 325.692 220.891C325.974 220.891 326.208 220.826 326.396 220.697C326.583 220.562 326.732 220.378 326.844 220.144C326.955 219.903 327.034 219.628 327.081 219.317C327.128 219.007 327.151 218.673 327.151 218.315ZM334.42 215.846V223H331.458V213.49H334.227L334.42 215.846ZM337.232 213.42L337.18 216.171C337.062 216.159 336.904 216.145 336.705 216.127C336.506 216.109 336.339 216.101 336.204 216.101C335.858 216.101 335.56 216.142 335.308 216.224C335.062 216.3 334.856 216.417 334.692 216.575C334.534 216.728 334.417 216.921 334.341 217.155C334.271 217.39 334.238 217.662 334.244 217.973L333.708 217.621C333.708 216.982 333.77 216.402 333.893 215.881C334.021 215.354 334.203 214.899 334.438 214.519C334.672 214.132 334.956 213.836 335.29 213.631C335.624 213.42 335.999 213.314 336.415 213.314C336.562 213.314 336.705 213.323 336.846 213.341C336.992 213.358 337.121 213.385 337.232 213.42ZM342.682 223.176C341.908 223.176 341.217 223.056 340.607 222.815C339.998 222.569 339.482 222.232 339.061 221.805C338.645 221.377 338.325 220.885 338.103 220.328C337.886 219.771 337.777 219.183 337.777 218.562V218.228C337.777 217.53 337.874 216.886 338.067 216.294C338.261 215.696 338.548 215.175 338.929 214.729C339.31 214.284 339.787 213.938 340.361 213.692C340.936 213.44 341.604 213.314 342.365 213.314C343.039 213.314 343.643 213.423 344.176 213.64C344.709 213.856 345.16 214.167 345.529 214.571C345.904 214.976 346.188 215.465 346.382 216.039C346.581 216.613 346.681 217.258 346.681 217.973V219.177H338.911V217.322H343.789V217.094C343.795 216.777 343.739 216.508 343.622 216.285C343.511 216.062 343.347 215.893 343.13 215.775C342.913 215.658 342.649 215.6 342.339 215.6C342.017 215.6 341.75 215.67 341.539 215.811C341.334 215.951 341.173 216.145 341.056 216.391C340.944 216.631 340.865 216.909 340.818 217.226C340.771 217.542 340.748 217.876 340.748 218.228V218.562C340.748 218.913 340.795 219.232 340.889 219.52C340.988 219.807 341.129 220.053 341.311 220.258C341.498 220.457 341.721 220.612 341.979 220.724C342.242 220.835 342.541 220.891 342.875 220.891C343.279 220.891 343.678 220.814 344.07 220.662C344.463 220.51 344.8 220.258 345.081 219.906L346.426 221.506C346.232 221.781 345.957 222.048 345.6 222.306C345.248 222.563 344.826 222.774 344.334 222.938C343.842 223.097 343.291 223.176 342.682 223.176ZM352.868 220.328C352.868 220.164 352.812 220.023 352.701 219.906C352.596 219.783 352.408 219.672 352.139 219.572C351.869 219.467 351.491 219.361 351.005 219.256C350.542 219.156 350.105 219.024 349.695 218.86C349.291 218.696 348.937 218.497 348.632 218.263C348.327 218.028 348.087 217.75 347.911 217.428C347.741 217.105 347.656 216.736 347.656 216.32C347.656 215.916 347.741 215.535 347.911 215.178C348.087 214.814 348.342 214.495 348.676 214.22C349.016 213.938 349.429 213.719 349.915 213.561C350.401 213.396 350.955 213.314 351.576 213.314C352.432 213.314 353.17 213.446 353.791 213.71C354.412 213.968 354.89 214.331 355.224 214.8C355.563 215.263 355.733 215.799 355.733 216.408H352.771C352.771 216.168 352.73 215.963 352.648 215.793C352.572 215.623 352.446 215.494 352.271 215.406C352.095 215.312 351.86 215.266 351.567 215.266C351.362 215.266 351.175 215.304 351.005 215.38C350.841 215.456 350.709 215.562 350.609 215.696C350.51 215.831 350.46 215.989 350.46 216.171C350.46 216.3 350.489 216.417 350.548 216.522C350.612 216.622 350.709 216.716 350.838 216.804C350.967 216.886 351.131 216.962 351.33 217.032C351.529 217.097 351.77 217.155 352.051 217.208C352.689 217.325 353.287 217.492 353.844 217.709C354.4 217.926 354.852 218.233 355.197 218.632C355.549 219.03 355.725 219.566 355.725 220.24C355.725 220.662 355.628 221.052 355.435 221.409C355.241 221.761 354.963 222.071 354.6 222.341C354.236 222.604 353.8 222.81 353.29 222.956C352.78 223.103 352.206 223.176 351.567 223.176C350.659 223.176 349.892 223.015 349.265 222.692C348.638 222.364 348.163 221.954 347.841 221.462C347.524 220.964 347.366 220.46 347.366 219.95H350.126C350.138 220.243 350.208 220.483 350.337 220.671C350.472 220.858 350.65 220.996 350.873 221.084C351.096 221.172 351.354 221.216 351.646 221.216C351.916 221.216 352.139 221.178 352.314 221.102C352.496 221.025 352.634 220.923 352.728 220.794C352.821 220.659 352.868 220.504 352.868 220.328ZM362.097 220.328C362.097 220.164 362.041 220.023 361.93 219.906C361.824 219.783 361.637 219.672 361.367 219.572C361.098 219.467 360.72 219.361 360.233 219.256C359.771 219.156 359.334 219.024 358.924 218.86C358.52 218.696 358.165 218.497 357.86 218.263C357.556 218.028 357.315 217.75 357.14 217.428C356.97 217.105 356.885 216.736 356.885 216.32C356.885 215.916 356.97 215.535 357.14 215.178C357.315 214.814 357.57 214.495 357.904 214.22C358.244 213.938 358.657 213.719 359.144 213.561C359.63 213.396 360.184 213.314 360.805 213.314C361.66 213.314 362.398 213.446 363.02 213.71C363.641 213.968 364.118 214.331 364.452 214.8C364.792 215.263 364.962 215.799 364.962 216.408H362C362 216.168 361.959 215.963 361.877 215.793C361.801 215.623 361.675 215.494 361.499 215.406C361.323 215.312 361.089 215.266 360.796 215.266C360.591 215.266 360.403 215.304 360.233 215.38C360.069 215.456 359.938 215.562 359.838 215.696C359.738 215.831 359.688 215.989 359.688 216.171C359.688 216.3 359.718 216.417 359.776 216.522C359.841 216.622 359.938 216.716 360.066 216.804C360.195 216.886 360.359 216.962 360.559 217.032C360.758 217.097 360.998 217.155 361.279 217.208C361.918 217.325 362.516 217.492 363.072 217.709C363.629 217.926 364.08 218.233 364.426 218.632C364.777 219.03 364.953 219.566 364.953 220.24C364.953 220.662 364.856 221.052 364.663 221.409C364.47 221.761 364.191 222.071 363.828 222.341C363.465 222.604 363.028 222.81 362.519 222.956C362.009 223.103 361.435 223.176 360.796 223.176C359.888 223.176 359.12 223.015 358.493 222.692C357.866 222.364 357.392 221.954 357.069 221.462C356.753 220.964 356.595 220.46 356.595 219.95H359.354C359.366 220.243 359.437 220.483 359.565 220.671C359.7 220.858 359.879 220.996 360.102 221.084C360.324 221.172 360.582 221.216 360.875 221.216C361.145 221.216 361.367 221.178 361.543 221.102C361.725 221.025 361.862 220.923 361.956 220.794C362.05 220.659 362.097 220.504 362.097 220.328ZM371.571 218.983V210.203H374.647V218.983C374.647 219.839 374.451 220.58 374.059 221.207C373.672 221.834 373.145 222.32 372.477 222.666C371.814 223.006 371.07 223.176 370.244 223.176C369.389 223.176 368.627 223.032 367.959 222.745C367.297 222.458 366.775 222.016 366.395 221.418C366.02 220.82 365.832 220.059 365.832 219.133H368.926C368.926 219.566 368.976 219.906 369.075 220.152C369.175 220.393 369.321 220.562 369.515 220.662C369.714 220.756 369.957 220.803 370.244 220.803C370.525 220.803 370.763 220.732 370.956 220.592C371.155 220.445 371.308 220.237 371.413 219.968C371.519 219.692 371.571 219.364 371.571 218.983ZM383.199 219.599C383.199 219.399 383.17 219.221 383.111 219.062C383.053 218.898 382.944 218.746 382.786 218.605C382.628 218.465 382.399 218.324 382.101 218.184C381.808 218.037 381.421 217.885 380.94 217.727C380.378 217.539 379.836 217.328 379.314 217.094C378.793 216.854 378.327 216.575 377.917 216.259C377.507 215.937 377.182 215.562 376.941 215.134C376.701 214.7 376.581 214.196 376.581 213.622C376.581 213.071 376.704 212.576 376.95 212.137C377.196 211.691 377.539 211.313 377.979 211.003C378.424 210.687 378.945 210.446 379.543 210.282C380.141 210.112 380.794 210.027 381.503 210.027C382.44 210.027 383.267 210.191 383.981 210.52C384.702 210.842 385.265 211.302 385.669 211.899C386.079 212.491 386.284 213.191 386.284 214H383.217C383.217 213.678 383.149 213.394 383.015 213.147C382.886 212.901 382.689 212.708 382.426 212.567C382.162 212.427 381.831 212.356 381.433 212.356C381.046 212.356 380.721 212.415 380.457 212.532C380.193 212.649 379.994 212.808 379.859 213.007C379.725 213.2 379.657 213.414 379.657 213.648C379.657 213.842 379.71 214.018 379.815 214.176C379.927 214.328 380.082 214.472 380.281 214.606C380.486 214.741 380.732 214.87 381.02 214.993C381.312 215.116 381.641 215.236 382.004 215.354C382.684 215.57 383.287 215.813 383.814 216.083C384.348 216.347 384.796 216.648 385.159 216.988C385.528 217.322 385.807 217.703 385.994 218.131C386.188 218.559 386.284 219.042 386.284 219.581C386.284 220.155 386.173 220.665 385.95 221.11C385.728 221.556 385.408 221.934 384.992 222.244C384.576 222.549 384.078 222.78 383.498 222.938C382.918 223.097 382.271 223.176 381.556 223.176C380.899 223.176 380.252 223.094 379.613 222.93C378.98 222.76 378.406 222.502 377.891 222.156C377.375 221.805 376.962 221.356 376.651 220.812C376.347 220.261 376.194 219.607 376.194 218.852H379.288C379.288 219.227 379.338 219.543 379.438 219.801C379.537 220.059 379.684 220.267 379.877 220.425C380.07 220.577 380.308 220.688 380.589 220.759C380.87 220.823 381.192 220.855 381.556 220.855C381.948 220.855 382.265 220.8 382.505 220.688C382.745 220.571 382.921 220.419 383.032 220.231C383.144 220.038 383.199 219.827 383.199 219.599Z" fill="white"/>
<rect x="429" y="196" width="109" height="41" rx="3" fill="#424242"/>
<rect x="429" y="196" width="109" height="41" rx="3" stroke="#424242" stroke-width="4"/>
<path d="M463.118 210.203V223H460.042L455.516 215.037V223H452.431V210.203H455.516L460.042 218.166V210.203H463.118ZM464.56 218.342V218.157C464.56 217.46 464.659 216.818 464.858 216.232C465.058 215.641 465.351 215.128 465.737 214.694C466.124 214.261 466.602 213.924 467.17 213.684C467.738 213.438 468.395 213.314 469.139 213.314C469.889 213.314 470.548 213.438 471.116 213.684C471.69 213.924 472.171 214.261 472.558 214.694C472.944 215.128 473.237 215.641 473.437 216.232C473.636 216.818 473.735 217.46 473.735 218.157V218.342C473.735 219.033 473.636 219.675 473.437 220.267C473.237 220.853 472.944 221.365 472.558 221.805C472.171 222.238 471.693 222.575 471.125 222.815C470.557 223.056 469.9 223.176 469.156 223.176C468.412 223.176 467.753 223.056 467.179 222.815C466.604 222.575 466.124 222.238 465.737 221.805C465.351 221.365 465.058 220.853 464.858 220.267C464.659 219.675 464.56 219.033 464.56 218.342ZM467.521 218.157V218.342C467.521 218.699 467.548 219.033 467.601 219.344C467.653 219.654 467.741 219.927 467.864 220.161C467.987 220.39 468.154 220.568 468.365 220.697C468.576 220.826 468.84 220.891 469.156 220.891C469.467 220.891 469.725 220.826 469.93 220.697C470.141 220.568 470.308 220.39 470.431 220.161C470.554 219.927 470.642 219.654 470.694 219.344C470.747 219.033 470.773 218.699 470.773 218.342V218.157C470.773 217.812 470.747 217.486 470.694 217.182C470.642 216.871 470.554 216.599 470.431 216.364C470.308 216.124 470.141 215.937 469.93 215.802C469.719 215.667 469.455 215.6 469.139 215.6C468.828 215.6 468.567 215.667 468.356 215.802C468.151 215.937 467.987 216.124 467.864 216.364C467.741 216.599 467.653 216.871 467.601 217.182C467.548 217.486 467.521 217.812 467.521 218.157ZM480.521 220.82V209.5H483.5V223H480.828L480.521 220.82ZM474.685 218.359V218.175C474.685 217.454 474.764 216.798 474.922 216.206C475.08 215.608 475.314 215.096 475.625 214.668C475.936 214.234 476.322 213.9 476.785 213.666C477.248 213.432 477.781 213.314 478.385 213.314C478.924 213.314 479.396 213.44 479.8 213.692C480.204 213.938 480.55 214.284 480.837 214.729C481.124 215.175 481.358 215.696 481.54 216.294C481.722 216.886 481.859 217.524 481.953 218.21V218.43C481.859 219.074 481.722 219.684 481.54 220.258C481.358 220.826 481.124 221.33 480.837 221.77C480.55 222.209 480.201 222.555 479.791 222.807C479.387 223.053 478.912 223.176 478.367 223.176C477.764 223.176 477.23 223.056 476.768 222.815C476.311 222.575 475.927 222.238 475.616 221.805C475.312 221.371 475.08 220.861 474.922 220.275C474.764 219.689 474.685 219.051 474.685 218.359ZM477.646 218.175V218.359C477.646 218.717 477.67 219.048 477.717 219.353C477.764 219.657 477.843 219.927 477.954 220.161C478.071 220.39 478.224 220.568 478.411 220.697C478.604 220.826 478.842 220.891 479.123 220.891C479.504 220.891 479.817 220.8 480.063 220.618C480.315 220.437 480.5 220.179 480.617 219.845C480.74 219.511 480.793 219.118 480.775 218.667V217.973C480.787 217.586 480.761 217.246 480.696 216.953C480.632 216.654 480.529 216.405 480.389 216.206C480.254 216.007 480.081 215.857 479.87 215.758C479.665 215.652 479.422 215.6 479.141 215.6C478.865 215.6 478.631 215.664 478.438 215.793C478.25 215.922 478.098 216.104 477.98 216.338C477.863 216.566 477.778 216.839 477.726 217.155C477.673 217.466 477.646 217.806 477.646 218.175ZM489.784 223.176C489.011 223.176 488.319 223.056 487.71 222.815C487.101 222.569 486.585 222.232 486.163 221.805C485.747 221.377 485.428 220.885 485.205 220.328C484.988 219.771 484.88 219.183 484.88 218.562V218.228C484.88 217.53 484.977 216.886 485.17 216.294C485.363 215.696 485.65 215.175 486.031 214.729C486.412 214.284 486.89 213.938 487.464 213.692C488.038 213.44 488.706 213.314 489.468 213.314C490.142 213.314 490.745 213.423 491.278 213.64C491.812 213.856 492.263 214.167 492.632 214.571C493.007 214.976 493.291 215.465 493.484 216.039C493.684 216.613 493.783 217.258 493.783 217.973V219.177H486.014V217.322H490.892V217.094C490.897 216.777 490.842 216.508 490.725 216.285C490.613 216.062 490.449 215.893 490.232 215.775C490.016 215.658 489.752 215.6 489.441 215.6C489.119 215.6 488.853 215.67 488.642 215.811C488.437 215.951 488.275 216.145 488.158 216.391C488.047 216.631 487.968 216.909 487.921 217.226C487.874 217.542 487.851 217.876 487.851 218.228V218.562C487.851 218.913 487.897 219.232 487.991 219.52C488.091 219.807 488.231 220.053 488.413 220.258C488.601 220.457 488.823 220.612 489.081 220.724C489.345 220.835 489.644 220.891 489.978 220.891C490.382 220.891 490.78 220.814 491.173 220.662C491.565 220.51 491.902 220.258 492.184 219.906L493.528 221.506C493.335 221.781 493.06 222.048 492.702 222.306C492.351 222.563 491.929 222.774 491.437 222.938C490.944 223.097 490.394 223.176 489.784 223.176ZM500.217 218.983V210.203H503.293V218.983C503.293 219.839 503.097 220.58 502.704 221.207C502.317 221.834 501.79 222.32 501.122 222.666C500.46 223.006 499.716 223.176 498.89 223.176C498.034 223.176 497.272 223.032 496.604 222.745C495.942 222.458 495.421 222.016 495.04 221.418C494.665 220.82 494.478 220.059 494.478 219.133H497.571C497.571 219.566 497.621 219.906 497.721 220.152C497.82 220.393 497.967 220.562 498.16 220.662C498.359 220.756 498.603 220.803 498.89 220.803C499.171 220.803 499.408 220.732 499.602 220.592C499.801 220.445 499.953 220.237 500.059 219.968C500.164 219.692 500.217 219.364 500.217 218.983ZM511.845 219.599C511.845 219.399 511.815 219.221 511.757 219.062C511.698 218.898 511.59 218.746 511.432 218.605C511.273 218.465 511.045 218.324 510.746 218.184C510.453 218.037 510.066 217.885 509.586 217.727C509.023 217.539 508.481 217.328 507.96 217.094C507.438 216.854 506.973 216.575 506.562 216.259C506.152 215.937 505.827 215.562 505.587 215.134C505.347 214.7 505.227 214.196 505.227 213.622C505.227 213.071 505.35 212.576 505.596 212.137C505.842 211.691 506.185 211.313 506.624 211.003C507.069 210.687 507.591 210.446 508.188 210.282C508.786 210.112 509.439 210.027 510.148 210.027C511.086 210.027 511.912 210.191 512.627 210.52C513.348 210.842 513.91 211.302 514.314 211.899C514.725 212.491 514.93 213.191 514.93 214H511.862C511.862 213.678 511.795 213.394 511.66 213.147C511.531 212.901 511.335 212.708 511.071 212.567C510.808 212.427 510.477 212.356 510.078 212.356C509.691 212.356 509.366 212.415 509.103 212.532C508.839 212.649 508.64 212.808 508.505 213.007C508.37 213.2 508.303 213.414 508.303 213.648C508.303 213.842 508.355 214.018 508.461 214.176C508.572 214.328 508.728 214.472 508.927 214.606C509.132 214.741 509.378 214.87 509.665 214.993C509.958 215.116 510.286 215.236 510.649 215.354C511.329 215.57 511.933 215.813 512.46 216.083C512.993 216.347 513.441 216.648 513.805 216.988C514.174 217.322 514.452 217.703 514.64 218.131C514.833 218.559 514.93 219.042 514.93 219.581C514.93 220.155 514.818 220.665 514.596 221.11C514.373 221.556 514.054 221.934 513.638 222.244C513.222 222.549 512.724 222.78 512.144 222.938C511.563 223.097 510.916 223.176 510.201 223.176C509.545 223.176 508.897 223.094 508.259 222.93C507.626 222.76 507.052 222.502 506.536 222.156C506.021 221.805 505.607 221.356 505.297 220.812C504.992 220.261 504.84 219.607 504.84 218.852H507.934C507.934 219.227 507.983 219.543 508.083 219.801C508.183 220.059 508.329 220.267 508.522 220.425C508.716 220.577 508.953 220.688 509.234 220.759C509.516 220.823 509.838 220.855 510.201 220.855C510.594 220.855 510.91 220.8 511.15 220.688C511.391 220.571 511.566 220.419 511.678 220.231C511.789 220.038 511.845 219.827 511.845 219.599Z" fill="white"/>
<rect x="558" y="196" width="154" height="41" rx="3" fill="#424242"/>
<rect x="558" y="196" width="154" height="41" rx="3" stroke="#424242" stroke-width="4"/>
<path d="M582.644 210.203H585.157L588.014 219.106L590.87 210.203H593.384L589.033 223H586.994L582.644 210.203ZM581.114 210.203H583.716L584.199 220.012V223H581.114V210.203ZM592.312 210.203H594.922V223H591.828V220.012L592.312 210.203ZM601.698 220.609V216.689C601.698 216.42 601.66 216.188 601.584 215.995C601.508 215.802 601.388 215.652 601.224 215.547C601.06 215.436 600.84 215.38 600.564 215.38C600.342 215.38 600.151 215.418 599.993 215.494C599.835 215.57 599.715 215.685 599.633 215.837C599.551 215.989 599.51 216.183 599.51 216.417H596.548C596.548 215.978 596.645 215.57 596.838 215.195C597.037 214.814 597.318 214.483 597.682 214.202C598.051 213.921 598.49 213.704 599 213.552C599.516 213.394 600.09 213.314 600.723 213.314C601.479 213.314 602.152 213.44 602.744 213.692C603.342 213.944 603.813 214.322 604.159 214.826C604.505 215.324 604.678 215.951 604.678 216.707V220.601C604.678 221.222 604.713 221.693 604.783 222.016C604.854 222.332 604.953 222.61 605.082 222.851V223H602.111C601.971 222.707 601.865 222.35 601.795 221.928C601.73 221.5 601.698 221.061 601.698 220.609ZM602.059 217.19L602.076 218.772H600.767C600.491 218.772 600.257 218.811 600.063 218.887C599.876 218.963 599.724 219.068 599.606 219.203C599.495 219.332 599.413 219.479 599.36 219.643C599.313 219.807 599.29 219.979 599.29 220.161C599.29 220.337 599.331 220.495 599.413 220.636C599.501 220.771 599.618 220.876 599.765 220.952C599.911 221.028 600.075 221.066 600.257 221.066C600.585 221.066 600.863 221.005 601.092 220.882C601.326 220.753 601.505 220.598 601.628 220.416C601.751 220.234 601.812 220.064 601.812 219.906L602.463 221.119C602.346 221.354 602.211 221.591 602.059 221.831C601.912 222.071 601.728 222.294 601.505 222.499C601.288 222.698 601.021 222.862 600.705 222.991C600.389 223.114 600.005 223.176 599.554 223.176C598.968 223.176 598.429 223.056 597.937 222.815C597.45 222.575 597.061 222.241 596.768 221.813C596.475 221.38 596.328 220.882 596.328 220.319C596.328 219.827 596.416 219.388 596.592 219.001C596.773 218.614 597.046 218.286 597.409 218.017C597.772 217.747 598.235 217.542 598.798 217.401C599.36 217.261 600.022 217.19 600.784 217.19H602.059ZM609.31 215.318V226.656H606.348V213.49H609.107L609.31 215.318ZM615.146 218.131V218.315C615.146 219.007 615.066 219.648 614.908 220.24C614.75 220.832 614.516 221.348 614.205 221.787C613.895 222.227 613.508 222.569 613.045 222.815C612.588 223.056 612.058 223.176 611.454 223.176C610.886 223.176 610.396 223.05 609.986 222.798C609.576 222.546 609.233 222.197 608.958 221.752C608.683 221.307 608.46 220.797 608.29 220.223C608.12 219.648 607.985 219.042 607.886 218.403V218.166C607.985 217.48 608.12 216.845 608.29 216.259C608.46 215.667 608.683 215.151 608.958 214.712C609.233 214.272 609.573 213.93 609.978 213.684C610.388 213.438 610.877 213.314 611.445 213.314C612.049 213.314 612.579 213.429 613.036 213.657C613.499 213.886 613.886 214.214 614.196 214.642C614.513 215.063 614.75 215.57 614.908 216.162C615.066 216.754 615.146 217.41 615.146 218.131ZM612.184 218.315V218.131C612.184 217.762 612.157 217.425 612.104 217.12C612.052 216.81 611.967 216.54 611.85 216.312C611.738 216.083 611.589 215.907 611.401 215.784C611.214 215.661 610.982 215.6 610.707 215.6C610.391 215.6 610.124 215.649 609.907 215.749C609.696 215.843 609.526 215.989 609.397 216.188C609.274 216.382 609.187 216.625 609.134 216.918C609.087 217.205 609.066 217.542 609.072 217.929V218.649C609.061 219.095 609.104 219.487 609.204 219.827C609.304 220.161 609.477 220.422 609.723 220.609C609.969 220.797 610.303 220.891 610.725 220.891C611.006 220.891 611.24 220.826 611.428 220.697C611.615 220.562 611.765 220.378 611.876 220.144C611.987 219.903 612.066 219.628 612.113 219.317C612.16 219.007 612.184 218.673 612.184 218.315ZM626.308 217.56H623.012L622.994 215.538H625.666C626.146 215.538 626.53 215.485 626.817 215.38C627.104 215.269 627.312 215.107 627.441 214.896C627.576 214.686 627.644 214.422 627.644 214.105C627.644 213.742 627.576 213.449 627.441 213.227C627.307 213.004 627.093 212.843 626.8 212.743C626.513 212.638 626.141 212.585 625.684 212.585H624.172V223H621.087V210.203H625.684C626.475 210.203 627.181 210.276 627.802 210.423C628.423 210.563 628.95 210.78 629.384 211.073C629.823 211.366 630.157 211.735 630.386 212.181C630.614 212.62 630.729 213.139 630.729 213.736C630.729 214.258 630.617 214.747 630.395 215.204C630.172 215.661 629.8 216.033 629.278 216.32C628.763 216.602 628.057 216.748 627.16 216.76L626.308 217.56ZM626.185 223H622.265L623.319 220.627H626.185C626.606 220.627 626.943 220.562 627.195 220.434C627.453 220.299 627.638 220.123 627.749 219.906C627.866 219.684 627.925 219.438 627.925 219.168C627.925 218.84 627.869 218.556 627.758 218.315C627.652 218.075 627.482 217.891 627.248 217.762C627.014 217.627 626.7 217.56 626.308 217.56H623.715L623.732 215.538H626.835L627.556 216.347C628.411 216.312 629.088 216.432 629.586 216.707C630.09 216.982 630.45 217.346 630.667 217.797C630.884 218.248 630.992 218.72 630.992 219.212C630.992 220.05 630.811 220.75 630.447 221.312C630.09 221.875 629.554 222.297 628.839 222.578C628.124 222.859 627.239 223 626.185 223ZM632.196 218.342V218.157C632.196 217.46 632.296 216.818 632.495 216.232C632.694 215.641 632.987 215.128 633.374 214.694C633.761 214.261 634.238 213.924 634.807 213.684C635.375 213.438 636.031 213.314 636.775 213.314C637.525 213.314 638.185 213.438 638.753 213.684C639.327 213.924 639.808 214.261 640.194 214.694C640.581 215.128 640.874 215.641 641.073 216.232C641.272 216.818 641.372 217.46 641.372 218.157V218.342C641.372 219.033 641.272 219.675 641.073 220.267C640.874 220.853 640.581 221.365 640.194 221.805C639.808 222.238 639.33 222.575 638.762 222.815C638.193 223.056 637.537 223.176 636.793 223.176C636.049 223.176 635.39 223.056 634.815 222.815C634.241 222.575 633.761 222.238 633.374 221.805C632.987 221.365 632.694 220.853 632.495 220.267C632.296 219.675 632.196 219.033 632.196 218.342ZM635.158 218.157V218.342C635.158 218.699 635.185 219.033 635.237 219.344C635.29 219.654 635.378 219.927 635.501 220.161C635.624 220.39 635.791 220.568 636.002 220.697C636.213 220.826 636.477 220.891 636.793 220.891C637.104 220.891 637.361 220.826 637.566 220.697C637.777 220.568 637.944 220.39 638.067 220.161C638.19 219.927 638.278 219.654 638.331 219.344C638.384 219.033 638.41 218.699 638.41 218.342V218.157C638.41 217.812 638.384 217.486 638.331 217.182C638.278 216.871 638.19 216.599 638.067 216.364C637.944 216.124 637.777 215.937 637.566 215.802C637.355 215.667 637.092 215.6 636.775 215.6C636.465 215.6 636.204 215.667 635.993 215.802C635.788 215.937 635.624 216.124 635.501 216.364C635.378 216.599 635.29 216.871 635.237 217.182C635.185 217.486 635.158 217.812 635.158 218.157ZM645.011 213.49L646.347 216.109L647.727 213.49H650.803L648.307 218.122L650.935 223H647.832L646.347 220.188L644.87 223H641.768L644.396 218.122L641.908 213.49H645.011ZM662.993 219.599C662.993 219.399 662.964 219.221 662.905 219.062C662.847 218.898 662.738 218.746 662.58 218.605C662.422 218.465 662.193 218.324 661.895 218.184C661.602 218.037 661.215 217.885 660.734 217.727C660.172 217.539 659.63 217.328 659.108 217.094C658.587 216.854 658.121 216.575 657.711 216.259C657.301 215.937 656.976 215.562 656.735 215.134C656.495 214.7 656.375 214.196 656.375 213.622C656.375 213.071 656.498 212.576 656.744 212.137C656.99 211.691 657.333 211.313 657.772 211.003C658.218 210.687 658.739 210.446 659.337 210.282C659.935 210.112 660.588 210.027 661.297 210.027C662.234 210.027 663.061 210.191 663.775 210.52C664.496 210.842 665.059 211.302 665.463 211.899C665.873 212.491 666.078 213.191 666.078 214H663.011C663.011 213.678 662.943 213.394 662.809 213.147C662.68 212.901 662.483 212.708 662.22 212.567C661.956 212.427 661.625 212.356 661.227 212.356C660.84 212.356 660.515 212.415 660.251 212.532C659.987 212.649 659.788 212.808 659.653 213.007C659.519 213.2 659.451 213.414 659.451 213.648C659.451 213.842 659.504 214.018 659.609 214.176C659.721 214.328 659.876 214.472 660.075 214.606C660.28 214.741 660.526 214.87 660.813 214.993C661.106 215.116 661.435 215.236 661.798 215.354C662.478 215.57 663.081 215.813 663.608 216.083C664.142 216.347 664.59 216.648 664.953 216.988C665.322 217.322 665.601 217.703 665.788 218.131C665.981 218.559 666.078 219.042 666.078 219.581C666.078 220.155 665.967 220.665 665.744 221.11C665.521 221.556 665.202 221.934 664.786 222.244C664.37 222.549 663.872 222.78 663.292 222.938C662.712 223.097 662.064 223.176 661.35 223.176C660.693 223.176 660.046 223.094 659.407 222.93C658.774 222.76 658.2 222.502 657.685 222.156C657.169 221.805 656.756 221.356 656.445 220.812C656.141 220.261 655.988 219.607 655.988 218.852H659.082C659.082 219.227 659.132 219.543 659.231 219.801C659.331 220.059 659.478 220.267 659.671 220.425C659.864 220.577 660.102 220.688 660.383 220.759C660.664 220.823 660.986 220.855 661.35 220.855C661.742 220.855 662.059 220.8 662.299 220.688C662.539 220.571 662.715 220.419 662.826 220.231C662.938 220.038 662.993 219.827 662.993 219.599ZM671.826 223H668.987L669.005 220.627H671.826C672.412 220.627 672.907 220.486 673.312 220.205C673.722 219.924 674.032 219.505 674.243 218.948C674.46 218.386 674.568 217.694 674.568 216.874V216.32C674.568 215.705 674.507 215.166 674.384 214.703C674.267 214.234 674.091 213.845 673.856 213.534C673.622 213.218 673.329 212.98 672.978 212.822C672.632 212.664 672.233 212.585 671.782 212.585H668.935V210.203H671.782C672.649 210.203 673.443 210.353 674.164 210.651C674.891 210.944 675.518 211.366 676.045 211.917C676.578 212.462 676.988 213.109 677.275 213.859C677.568 214.604 677.715 215.43 677.715 216.338V216.874C677.715 217.776 677.568 218.603 677.275 219.353C676.988 220.103 676.581 220.75 676.054 221.295C675.526 221.84 674.902 222.262 674.182 222.561C673.467 222.854 672.682 223 671.826 223ZM670.754 210.203V223H667.669V210.203H670.754ZM682.408 210.203V223H679.323V210.203H682.408ZM690.046 210.203L685.089 216.689L682.188 219.862L681.626 217.032L683.48 214.22L686.24 210.203H690.046ZM686.398 223L683.094 217.234L685.493 215.468L690.046 223H686.398Z" fill="white"/>
<rect x="732" y="196" width="131" height="41" rx="3" fill="#424242"/>
<rect x="732" y="196" width="131" height="41" rx="3" stroke="#424242" stroke-width="4"/>
<path d="M761.359 210.203V223H758.274V210.203H761.359ZM765.209 210.203V212.585H754.513V210.203H765.209ZM768.575 221.884L771.036 213.49H774.218L770.395 224.415C770.312 224.655 770.204 224.913 770.069 225.188C769.935 225.47 769.75 225.736 769.516 225.988C769.281 226.24 768.979 226.445 768.61 226.604C768.247 226.762 767.796 226.841 767.257 226.841C766.97 226.841 766.759 226.826 766.624 226.797C766.495 226.773 766.296 226.729 766.026 226.665V224.547C766.103 224.547 766.167 224.547 766.22 224.547C766.278 224.547 766.343 224.547 766.413 224.547C766.729 224.547 766.981 224.515 767.169 224.45C767.362 224.386 767.509 224.292 767.608 224.169C767.714 224.046 767.796 223.896 767.854 223.721L768.575 221.884ZM767.951 213.49L769.823 220.144L770.148 223.281H768.162L764.778 213.49H767.951ZM777.979 215.318V226.656H775.018V213.49H777.777L777.979 215.318ZM783.815 218.131V218.315C783.815 219.007 783.736 219.648 783.578 220.24C783.42 220.832 783.186 221.348 782.875 221.787C782.564 222.227 782.178 222.569 781.715 222.815C781.258 223.056 780.728 223.176 780.124 223.176C779.556 223.176 779.066 223.05 778.656 222.798C778.246 222.546 777.903 222.197 777.628 221.752C777.353 221.307 777.13 220.797 776.96 220.223C776.79 219.648 776.655 219.042 776.556 218.403V218.166C776.655 217.48 776.79 216.845 776.96 216.259C777.13 215.667 777.353 215.151 777.628 214.712C777.903 214.272 778.243 213.93 778.647 213.684C779.058 213.438 779.547 213.314 780.115 213.314C780.719 213.314 781.249 213.429 781.706 213.657C782.169 213.886 782.556 214.214 782.866 214.642C783.183 215.063 783.42 215.57 783.578 216.162C783.736 216.754 783.815 217.41 783.815 218.131ZM780.854 218.315V218.131C780.854 217.762 780.827 217.425 780.774 217.12C780.722 216.81 780.637 216.54 780.52 216.312C780.408 216.083 780.259 215.907 780.071 215.784C779.884 215.661 779.652 215.6 779.377 215.6C779.061 215.6 778.794 215.649 778.577 215.749C778.366 215.843 778.196 215.989 778.067 216.188C777.944 216.382 777.856 216.625 777.804 216.918C777.757 217.205 777.736 217.542 777.742 217.929V218.649C777.73 219.095 777.774 219.487 777.874 219.827C777.974 220.161 778.146 220.422 778.393 220.609C778.639 220.797 778.973 220.891 779.395 220.891C779.676 220.891 779.91 220.826 780.098 220.697C780.285 220.562 780.435 220.378 780.546 220.144C780.657 219.903 780.736 219.628 780.783 219.317C780.83 219.007 780.854 218.673 780.854 218.315ZM789.739 223.176C788.966 223.176 788.274 223.056 787.665 222.815C787.056 222.569 786.54 222.232 786.118 221.805C785.702 221.377 785.383 220.885 785.16 220.328C784.943 219.771 784.835 219.183 784.835 218.562V218.228C784.835 217.53 784.932 216.886 785.125 216.294C785.318 215.696 785.605 215.175 785.986 214.729C786.367 214.284 786.845 213.938 787.419 213.692C787.993 213.44 788.661 213.314 789.423 213.314C790.097 213.314 790.7 213.423 791.233 213.64C791.767 213.856 792.218 214.167 792.587 214.571C792.962 214.976 793.246 215.465 793.439 216.039C793.639 216.613 793.738 217.258 793.738 217.973V219.177H785.969V217.322H790.847V217.094C790.853 216.777 790.797 216.508 790.68 216.285C790.568 216.062 790.404 215.893 790.188 215.775C789.971 215.658 789.707 215.6 789.396 215.6C789.074 215.6 788.808 215.67 788.597 215.811C788.392 215.951 788.23 216.145 788.113 216.391C788.002 216.631 787.923 216.909 787.876 217.226C787.829 217.542 787.806 217.876 787.806 218.228V218.562C787.806 218.913 787.853 219.232 787.946 219.52C788.046 219.807 788.187 220.053 788.368 220.258C788.556 220.457 788.778 220.612 789.036 220.724C789.3 220.835 789.599 220.891 789.933 220.891C790.337 220.891 790.735 220.814 791.128 220.662C791.521 220.51 791.857 220.258 792.139 219.906L793.483 221.506C793.29 221.781 793.015 222.048 792.657 222.306C792.306 222.563 791.884 222.774 791.392 222.938C790.899 223.097 790.349 223.176 789.739 223.176ZM799.926 220.328C799.926 220.164 799.87 220.023 799.759 219.906C799.653 219.783 799.466 219.672 799.196 219.572C798.927 219.467 798.549 219.361 798.062 219.256C797.6 219.156 797.163 219.024 796.753 218.86C796.349 218.696 795.994 218.497 795.689 218.263C795.385 218.028 795.145 217.75 794.969 217.428C794.799 217.105 794.714 216.736 794.714 216.32C794.714 215.916 794.799 215.535 794.969 215.178C795.145 214.814 795.399 214.495 795.733 214.22C796.073 213.938 796.486 213.719 796.973 213.561C797.459 213.396 798.013 213.314 798.634 213.314C799.489 213.314 800.228 213.446 800.849 213.71C801.47 213.968 801.947 214.331 802.281 214.8C802.621 215.263 802.791 215.799 802.791 216.408H799.829C799.829 216.168 799.788 215.963 799.706 215.793C799.63 215.623 799.504 215.494 799.328 215.406C799.152 215.312 798.918 215.266 798.625 215.266C798.42 215.266 798.232 215.304 798.062 215.38C797.898 215.456 797.767 215.562 797.667 215.696C797.567 215.831 797.518 215.989 797.518 216.171C797.518 216.3 797.547 216.417 797.605 216.522C797.67 216.622 797.767 216.716 797.896 216.804C798.024 216.886 798.188 216.962 798.388 217.032C798.587 217.097 798.827 217.155 799.108 217.208C799.747 217.325 800.345 217.492 800.901 217.709C801.458 217.926 801.909 218.233 802.255 218.632C802.606 219.03 802.782 219.566 802.782 220.24C802.782 220.662 802.686 221.052 802.492 221.409C802.299 221.761 802.021 222.071 801.657 222.341C801.294 222.604 800.857 222.81 800.348 222.956C799.838 223.103 799.264 223.176 798.625 223.176C797.717 223.176 796.949 223.015 796.322 222.692C795.695 222.364 795.221 221.954 794.898 221.462C794.582 220.964 794.424 220.46 794.424 219.95H797.184C797.195 220.243 797.266 220.483 797.395 220.671C797.529 220.858 797.708 220.996 797.931 221.084C798.153 221.172 798.411 221.216 798.704 221.216C798.974 221.216 799.196 221.178 799.372 221.102C799.554 221.025 799.691 220.923 799.785 220.794C799.879 220.659 799.926 220.504 799.926 220.328ZM808.188 220.891C808.463 220.891 808.697 220.841 808.891 220.741C809.09 220.636 809.239 220.489 809.339 220.302C809.444 220.108 809.494 219.877 809.488 219.607H812.274C812.28 220.322 812.104 220.949 811.747 221.488C811.396 222.021 810.915 222.438 810.306 222.736C809.702 223.029 809.02 223.176 808.258 223.176C807.514 223.176 806.863 223.056 806.307 222.815C805.75 222.569 805.284 222.229 804.909 221.796C804.54 221.356 804.262 220.844 804.074 220.258C803.893 219.672 803.802 219.036 803.802 218.351V218.148C803.802 217.463 803.893 216.827 804.074 216.241C804.262 215.649 804.54 215.137 804.909 214.703C805.284 214.264 805.747 213.924 806.298 213.684C806.854 213.438 807.502 213.314 808.24 213.314C809.031 213.314 809.729 213.464 810.332 213.763C810.941 214.062 811.419 214.495 811.765 215.063C812.11 215.632 812.28 216.32 812.274 217.129H809.488C809.494 216.842 809.45 216.584 809.356 216.355C809.263 216.127 809.116 215.945 808.917 215.811C808.724 215.67 808.475 215.6 808.17 215.6C807.865 215.6 807.619 215.667 807.432 215.802C807.244 215.937 807.101 216.124 807.001 216.364C806.907 216.599 806.843 216.868 806.808 217.173C806.778 217.478 806.764 217.803 806.764 218.148V218.351C806.764 218.702 806.778 219.033 806.808 219.344C806.843 219.648 806.91 219.918 807.01 220.152C807.109 220.381 807.253 220.562 807.44 220.697C807.628 220.826 807.877 220.891 808.188 220.891ZM816.528 215.846V223H813.566V213.49H816.335L816.528 215.846ZM819.341 213.42L819.288 216.171C819.171 216.159 819.013 216.145 818.813 216.127C818.614 216.109 818.447 216.101 818.312 216.101C817.967 216.101 817.668 216.142 817.416 216.224C817.17 216.3 816.965 216.417 816.801 216.575C816.643 216.728 816.525 216.921 816.449 217.155C816.379 217.39 816.347 217.662 816.353 217.973L815.816 217.621C815.816 216.982 815.878 216.402 816.001 215.881C816.13 215.354 816.312 214.899 816.546 214.519C816.78 214.132 817.064 213.836 817.398 213.631C817.732 213.42 818.107 213.314 818.523 213.314C818.67 213.314 818.813 213.323 818.954 213.341C819.101 213.358 819.229 213.385 819.341 213.42ZM823.489 213.49V223H820.519V213.49H823.489ZM820.343 211.038C820.343 210.616 820.495 210.271 820.8 210.001C821.104 209.731 821.5 209.597 821.986 209.597C822.473 209.597 822.868 209.731 823.173 210.001C823.478 210.271 823.63 210.616 823.63 211.038C823.63 211.46 823.478 211.806 823.173 212.075C822.868 212.345 822.473 212.479 821.986 212.479C821.5 212.479 821.104 212.345 820.8 212.075C820.495 211.806 820.343 211.46 820.343 211.038ZM828.306 215.318V226.656H825.344V213.49H828.104L828.306 215.318ZM834.142 218.131V218.315C834.142 219.007 834.062 219.648 833.904 220.24C833.746 220.832 833.512 221.348 833.201 221.787C832.891 222.227 832.504 222.569 832.041 222.815C831.584 223.056 831.054 223.176 830.45 223.176C829.882 223.176 829.393 223.05 828.982 222.798C828.572 222.546 828.229 222.197 827.954 221.752C827.679 221.307 827.456 220.797 827.286 220.223C827.116 219.648 826.981 219.042 826.882 218.403V218.166C826.981 217.48 827.116 216.845 827.286 216.259C827.456 215.667 827.679 215.151 827.954 214.712C828.229 214.272 828.569 213.93 828.974 213.684C829.384 213.438 829.873 213.314 830.441 213.314C831.045 213.314 831.575 213.429 832.032 213.657C832.495 213.886 832.882 214.214 833.192 214.642C833.509 215.063 833.746 215.57 833.904 216.162C834.062 216.754 834.142 217.41 834.142 218.131ZM831.18 218.315V218.131C831.18 217.762 831.153 217.425 831.101 217.12C831.048 216.81 830.963 216.54 830.846 216.312C830.734 216.083 830.585 215.907 830.397 215.784C830.21 215.661 829.979 215.6 829.703 215.6C829.387 215.6 829.12 215.649 828.903 215.749C828.692 215.843 828.522 215.989 828.394 216.188C828.271 216.382 828.183 216.625 828.13 216.918C828.083 217.205 828.062 217.542 828.068 217.929V218.649C828.057 219.095 828.101 219.487 828.2 219.827C828.3 220.161 828.473 220.422 828.719 220.609C828.965 220.797 829.299 220.891 829.721 220.891C830.002 220.891 830.236 220.826 830.424 220.697C830.611 220.562 830.761 220.378 830.872 220.144C830.983 219.903 831.062 219.628 831.109 219.317C831.156 219.007 831.18 218.673 831.18 218.315ZM840.47 213.49V215.547H834.739V213.49H840.47ZM835.943 211.126H838.905V219.897C838.905 220.149 838.935 220.346 838.993 220.486C839.052 220.621 839.151 220.718 839.292 220.776C839.438 220.829 839.632 220.855 839.872 220.855C840.042 220.855 840.183 220.853 840.294 220.847C840.405 220.835 840.511 220.82 840.61 220.803V222.921C840.358 223.003 840.095 223.064 839.819 223.105C839.544 223.152 839.251 223.176 838.94 223.176C838.308 223.176 837.766 223.076 837.314 222.877C836.869 222.678 836.529 222.364 836.295 221.937C836.061 221.509 835.943 220.952 835.943 220.267V211.126Z" fill="white"/>
<path d="M1066 0H1348C1356.28 0 1363 6.71573 1363 15V282C1363 290.284 1356.28 297 1348 297H1066V0Z" fill="white"/>
<g clip-path="url(#clip0_3_61)">
<mask id="mask0_3_61" style="mask-type:luminance" maskUnits="userSpaceOnUse" x="1101" y="35" width="227" height="227">
<path d="M1327.5 35.5H1101.5V261.5H1327.5V35.5Z" fill="white"/>
</mask>
<g mask="url(#mask0_3_61)">
<mask id="mask1_3_61" style="mask-type:luminance" maskUnits="userSpaceOnUse" x="1101" y="35" width="227" height="227">
<path d="M1327.5 35.5H1101.5V261.5H1327.5V35.5Z" fill="white"/>
</mask>
<g mask="url(#mask1_3_61)">
<mask id="mask2_3_61" style="mask-type:luminance" maskUnits="userSpaceOnUse" x="1101" y="35" width="227" height="227">
<path d="M1327.5 35.5H1101.5V261.5H1327.5V35.5Z" fill="white"/>
</mask>
<g mask="url(#mask2_3_61)">
<path d="M1116.3 178.143L1118.94 181.068L1117.62 177.266C1117.29 175.512 1114.99 177.559 1116.3 178.143ZM1119.26 176.389C1120.25 177.851 1121.24 179.313 1121.24 180.775C1121.24 182.822 1123.21 183.699 1124.86 184.284C1122.55 181.945 1121.24 175.512 1119.26 176.389ZM1245.59 52.4052C1251.18 52.4052 1256.44 51.8204 1262.36 52.99C1276.84 56.2066 1289.01 62.6397 1297.24 71.7046L1320.26 104.455C1321.25 112.643 1323.22 121.707 1322.89 131.649C1325.2 131.649 1324.87 128.725 1327.5 128.141C1324.87 133.989 1323.55 141.299 1322.89 149.779C1321.25 145.101 1322.89 138.083 1323.22 134.281C1320.92 137.498 1319.6 135.158 1319.6 133.696C1319.93 131.357 1318.62 131.649 1317.63 130.772C1314.01 127.848 1311.71 124.632 1309.08 119.661C1310.72 115.859 1311.05 110.303 1305.79 107.379C1304.14 106.502 1302.17 105.04 1301.18 102.7C1299.87 99.4839 1297.56 95.6826 1298.22 90.7115C1298.55 89.2494 1293.29 93.9281 1290.33 91.8812C1277.5 83.986 1264.67 74.9211 1249.21 67.3184C1240.98 67.3184 1235.06 64.6866 1232.1 61.4701C1229.47 58.5459 1231.44 54.7445 1235.39 54.4521C1237.69 54.4521 1240.32 53.8673 1242.3 55.0369C1242.63 53.8673 1243.94 52.4052 1245.59 52.4052ZM1213.02 45.6797L1213.68 45.9721C1216.97 46.5569 1218.61 50.6507 1222.23 49.1887C1222.23 51.2356 1222.56 53.2825 1221.9 54.7445C1220.92 57.0839 1217.95 57.0839 1215.65 57.0839C1193.61 55.9142 1180.78 64.1018 1167.29 71.1197C1163.67 73.1666 1159.73 74.6287 1156.77 77.2604C1142.62 88.957 1127.16 99.7764 1123.54 121.415L1120.58 145.393C1120.25 148.025 1116.96 150.656 1117.62 153.873L1119.92 168.201C1117.62 166.154 1116.3 168.786 1116.96 169.956C1117.29 170.833 1118.61 173.757 1120.58 171.126C1123.21 175.512 1125.84 183.992 1129.46 187.793C1140.65 199.49 1155.12 210.017 1166.96 220.544C1169.92 219.959 1172.23 219.959 1172.89 218.204C1173.87 219.959 1171.9 221.713 1170.25 222.006C1175.52 224.93 1181.44 227.561 1189.33 228.146C1199.53 228.731 1209.07 230.193 1217.95 232.24C1222.56 231.07 1227.17 230.486 1232.1 230.193C1233.74 230.193 1234.73 227.854 1236.71 227.269L1237.03 224.345C1239.01 226.977 1238.68 223.468 1237.36 221.713C1239.67 223.468 1240.32 224.93 1241.31 226.099C1241.31 225.222 1243.94 222.006 1243.94 225.807L1244.6 222.006C1245.59 221.421 1245.92 225.222 1246.9 222.59C1247.89 219.959 1249.86 222.006 1251.84 221.128C1251.18 222.298 1251.51 224.637 1253.81 223.175L1256.44 221.128C1258.09 224.637 1260.72 223.175 1262.04 222.59C1276.51 214.403 1290.98 204.753 1304.8 195.103L1304.47 198.905L1306.12 194.226C1307.76 195.688 1309.08 194.519 1309.74 193.641C1311.71 190.717 1314.34 187.793 1318.62 185.161C1313.35 197.735 1307.1 207.677 1299.21 215.865L1295.92 219.374C1295.92 221.421 1295.26 224.053 1292.63 224.345C1291.31 224.637 1288.68 223.76 1286.71 225.515C1285.72 226.684 1289.01 229.024 1286.38 227.269C1284.08 225.807 1281.77 227.269 1279.14 227.854C1277.17 228.439 1280.46 230.193 1281.12 231.363C1281.77 232.533 1282.43 233.702 1282.1 235.164L1278.48 231.655C1274.21 233.702 1271.58 237.504 1267.96 240.428C1266.31 241.597 1266.97 243.644 1266.97 245.399C1264.67 245.399 1262.04 244.814 1260.72 245.984C1259.73 247.153 1260.06 248.908 1260.06 250.662C1256.77 250.37 1256.44 245.984 1253.48 246.861C1250.52 247.446 1247.23 247.738 1244.6 249.2C1246.57 252.709 1241.31 250.662 1241.97 251.247C1237.03 248.615 1232.76 246.568 1227.49 248.323C1216.31 245.106 1202.49 246.568 1192.29 247.738C1192.29 246.276 1192.62 244.814 1191.97 244.522C1191.31 245.984 1189.33 245.399 1189.66 245.399C1183.41 241.597 1177.16 239.258 1170.58 236.042C1164.66 236.626 1159.07 233.995 1157.42 232.533C1152.82 228.731 1147.56 230.778 1143.28 229.901C1134.07 227.854 1130.78 219.374 1129.79 213.526C1129.13 210.601 1126.5 209.432 1125.51 209.724C1121.24 197.443 1114.66 186.331 1109.4 174.927C1108.08 172.003 1108.41 169.079 1108.41 165.862C1110.05 166.447 1111.7 166.154 1111.37 164.108C1109.72 154.458 1105.78 147.148 1101.5 140.13C1103.8 130.187 1104.13 118.491 1109.4 109.718C1114 101.823 1122.55 97.7295 1128.48 91.0039C1130.45 88.6646 1130.45 85.4481 1132.42 83.4012C1139 77.5529 1145.58 71.4122 1152.82 66.1487C1156.11 63.8094 1160.06 66.1487 1164.99 65.2715C1166.64 60.008 1173.21 55.3294 1179.46 56.7914C1182.1 57.3763 1187.36 51.2356 1189 50.6507C1191.64 49.7735 1190.32 52.99 1190.32 55.0369C1196.57 50.6507 1205.12 48.3114 1213.02 45.6797Z" fill="#02BAFF"/>
<mask id="mask3_3_61" style="mask-type:luminance" maskUnits="userSpaceOnUse" x="1146" y="113" width="137" height="71">
<path d="M1282.3 113.584H1146.7V183.416H1282.3V113.584Z" fill="white"/>
</mask>
<g mask="url(#mask3_3_61)">
<mask id="mask4_3_61" style="mask-type:luminance" maskUnits="userSpaceOnUse" x="1146" y="113" width="137" height="71">
<path d="M1282.3 113.584H1146.7V183.416H1282.3V113.584Z" fill="white"/>
</mask>
<g mask="url(#mask4_3_61)">
<mask id="mask5_3_61" style="mask-type:luminance" maskUnits="userSpaceOnUse" x="1195" y="129" width="39" height="39">
<path d="M1233.87 129.29H1195.29V167.467H1233.87V129.29Z" fill="white"/>
</mask>
<g mask="url(#mask5_3_61)">
<mask id="mask6_3_61" style="mask-type:luminance" maskUnits="userSpaceOnUse" x="1195" y="129" width="39" height="39">
<path d="M1233.87 129.29H1195.29V167.467H1233.87V129.29Z" fill="white"/>
</mask>
<g mask="url(#mask6_3_61)">
<path fill-rule="evenodd" clip-rule="evenodd" d="M1228.41 133.421C1229.12 133.594 1229.97 133.329 1230.27 133.421C1229.99 133.391 1230.48 133.214 1230.5 133.112C1230.48 133.52 1230.68 133.078 1230.85 133.318C1230.87 132.928 1231.12 132.73 1231.43 132.595C1231.98 130.985 1230.65 129.436 1229.22 129.29C1229.07 129.29 1228.91 129.29 1228.76 129.29C1226.38 129.692 1226.16 132.879 1228.41 133.421ZM1228.64 130.943C1228.76 130.943 1228.87 130.943 1228.99 130.943C1229.13 131.35 1229.05 131.348 1229.22 131.769C1228.87 131.694 1228.8 131.875 1228.52 131.872C1228.29 131.633 1228.4 131.08 1228.64 130.943Z" fill="#02BAFF"/>
<path fill-rule="evenodd" clip-rule="evenodd" d="M1220.62 150.98C1220.63 151.122 1220.57 151.207 1220.51 151.29C1220.22 151.424 1220.02 150.987 1219.92 151.29C1218.93 152.296 1219.17 154.275 1220.85 155.008C1225.4 155.815 1224.68 150 1220.62 150.98ZM1221.78 153.562C1221.65 153.236 1221.86 153.109 1221.67 152.736C1221.82 152.589 1222.33 152.589 1222.48 152.736C1222.41 153.207 1222.53 153.535 1221.78 153.562Z" fill="#02BAFF"/>
<path fill-rule="evenodd" clip-rule="evenodd" d="M1228.17 138.276C1227.7 138.343 1227.48 138.549 1226.9 138.689C1226.11 138.357 1225.56 137.551 1224.97 137.041C1224.99 137.073 1225.02 137.101 1225.04 137.14C1224.06 136.762 1223.57 136.393 1223.06 135.487C1222.45 135.206 1220.69 135.104 1221.55 134.867C1220.82 134.659 1220.13 134.338 1218.99 134.248C1219 134.111 1219.2 134.153 1219.23 134.041C1218.61 133.83 1217.55 133.565 1217.48 133.525C1217.36 133.45 1216.89 133.56 1216.55 133.525C1216.22 133.489 1215.9 133.25 1215.51 133.215C1213.35 133.02 1210.52 133.27 1209.12 133.938C1209.13 133.743 1209.5 133.866 1209.47 133.628C1208.52 133.587 1208.21 134.16 1207.49 134.041C1205.39 132.066 1202.01 131.048 1199.12 132.285C1198.89 132.388 1199 132.533 1198.89 132.595C1198.65 132.73 1198.3 132.692 1198.08 132.802C1196.51 133.595 1195.79 135.536 1195.29 136.83C1195.29 137.484 1195.29 138.138 1195.29 138.792C1195.69 140.126 1196.43 141.141 1197.38 142.201C1196.36 144.074 1195.56 146.421 1195.52 148.811C1195.43 154.487 1198.79 159.018 1202.26 161.412C1202.98 161.908 1202.31 162.525 1202.61 163.994C1202.7 164.401 1203.08 165.147 1203.31 165.44C1205.46 168.252 1210.64 168.254 1212.49 164.717C1218.28 164.934 1222.65 163.034 1225.85 160.172C1229.27 157.112 1231.38 152.745 1230.73 147.055C1235.91 145.639 1234.42 137.395 1228.17 138.276ZM1197.03 137.759C1197.08 136.697 1197.93 136.119 1198.31 135.177C1198.45 135.194 1198.41 135.366 1198.43 135.487C1198.41 135.221 1199.18 135.133 1198.78 134.867C1199.06 134.831 1199.12 135.064 1199.24 134.454C1200.03 134.455 1200.65 134.093 1201.22 133.628C1201.48 133.686 1201.08 133.789 1201.33 133.938C1204.14 133.418 1205.86 135.17 1206.68 136.83C1206.76 138.305 1206.24 140.058 1205.17 141.271C1203.81 141.863 1202.66 142.279 1201.22 142.097C1198.88 141.805 1196.95 139.863 1197.03 137.759ZM1205.63 165.337C1205.79 165.002 1204.91 163.958 1204.35 163.581C1204.37 163.46 1204.57 163.494 1204.7 163.478C1203.52 159.596 1210.78 159.068 1211.21 162.548C1211.53 165.115 1208.45 167.329 1205.63 165.337ZM1225.27 159.243C1224.28 159.087 1223.8 160.183 1223.06 160.689C1223.1 160.553 1223.27 160.526 1223.29 160.379C1222.75 160.826 1221.95 161.043 1221.67 161.722C1221.29 161.785 1221.51 161.35 1221.2 161.618C1218.69 162.888 1215.82 163.241 1213.18 163.787C1213.21 163.606 1213.38 163.552 1213.65 163.581C1213.62 163.366 1213.14 163.553 1213.07 163.375C1213.42 161.361 1211.9 160.156 1210.86 159.037C1208.41 157.696 1204.44 158.314 1203.31 160.379C1199.99 158.264 1198.38 155.262 1197.15 151.29C1197 148.838 1197.34 145.104 1198.66 143.027C1204.45 145.514 1210.43 140.544 1207.84 135.281C1214.96 133.142 1222.48 135.912 1225.73 139.412C1222.41 141.831 1224.23 148.092 1229.68 147.262C1230.65 152.833 1227.46 156.426 1225.27 159.243ZM1227.01 145.196C1226.86 144.903 1227.07 144.596 1226.43 144.576C1226.3 143.809 1225.79 143.358 1225.85 142.614C1226.05 140.253 1229.04 139.227 1231.66 140.755C1232.07 141.743 1232.62 142.25 1232.47 143.233C1232.11 145.66 1228.73 146.781 1227.01 145.196Z" fill="#02BAFF"/>
<path fill-rule="evenodd" clip-rule="evenodd" d="M1224.69 136.83C1224.78 136.891 1224.88 136.963 1224.97 137.041C1224.9 136.949 1224.81 136.872 1224.69 136.83Z" fill="#02BAFF"/>
<path fill-rule="evenodd" clip-rule="evenodd" d="M1202.96 136.107C1203.27 136.372 1202.65 136.254 1202.96 136.52C1204.12 136.805 1203.69 138.663 1204.94 138.586C1206.82 137.079 1204.12 134.412 1201.57 134.971C1201.57 135.177 1201.57 135.384 1201.57 135.59C1202.13 135.73 1202.81 136.203 1202.96 136.107Z" fill="#02BAFF"/>
<path fill-rule="evenodd" clip-rule="evenodd" d="M1228.17 141.374C1228.44 141.546 1227.97 141.654 1227.94 141.684C1228.05 141.939 1228.31 142.566 1229.34 142.511C1229.55 143.094 1229.97 143.872 1230.96 143.44C1231.52 142.081 1229.51 140.641 1228.17 141.374Z" fill="#02BAFF"/>
<path fill-rule="evenodd" clip-rule="evenodd" d="M1211.21 143.543C1210.9 143.692 1210.43 144.096 1210.05 143.853C1210.06 144.178 1209.75 144.208 1209.47 144.266C1209.48 144.106 1209.13 144.195 1209.35 144.266C1209.5 144.336 1209.22 144.61 1209.23 144.679C1208.95 144.344 1209.09 144.766 1208.54 144.576C1208.31 144.834 1208.71 145.001 1208.42 145.196C1208.41 145.07 1208.39 144.951 1208.19 144.989C1208.44 145.48 1207.79 145.125 1208.07 145.712C1207.15 145.51 1207.13 147.324 1206.68 147.365C1206.79 147.701 1206.69 147.902 1206.91 148.294C1206.76 148.289 1206.75 148.162 1206.56 148.191C1206.42 149.69 1206.84 152.024 1208.19 152.839C1209.33 154.521 1212.46 155.541 1214.93 155.008C1216.15 154.745 1216.9 154.034 1217.83 153.562C1217.98 153.004 1218.38 152.672 1218.88 152.426C1221.72 147.501 1217.39 142.346 1211.21 143.543ZM1211.21 152.736C1211.04 152.724 1210.69 152.601 1210.4 152.426C1210.48 152.242 1210.61 152.411 1210.75 152.426C1209.84 151.812 1209.45 150.817 1208.65 149.844C1208.68 149.727 1208.77 149.787 1208.77 149.844C1209.16 149.896 1208.85 149.009 1208.77 148.811C1209.11 146.71 1210.86 145.409 1212.72 144.989C1214.75 145.09 1216.09 145.566 1217.14 146.332C1220.6 149.922 1215.15 155.756 1211.21 152.736Z" fill="#02BAFF"/>
<path fill-rule="evenodd" clip-rule="evenodd" d="M1212.95 146.229C1212.81 146.414 1212.5 146.987 1212.6 147.055C1212.96 146.899 1213.02 147.324 1213.19 147.572C1215.75 147.343 1214.65 149.851 1216.55 149.844C1217.37 148.023 1215.58 146.008 1212.95 146.229Z" fill="#02BAFF"/>
<path fill-rule="evenodd" clip-rule="evenodd" d="M1207.14 161.309C1206.96 161.677 1206.98 161.755 1206.68 161.825C1206.77 162.808 1208.6 162.526 1208.65 163.684C1210.93 163.86 1209.18 160.737 1207.14 161.309Z" fill="#02BAFF"/>
</g>
</g>
</g>
</g>
</g>
</g>
</g>
</g>
<defs>
<clipPath id="clip0_3_61">
<rect width="226" height="226" fill="white" transform="translate(1101.5 35.5)"/>
</clipPath>
</defs>
</svg>
