<svg width="1363" height="163" viewBox="0 0 1363 163" fill="none" xmlns="http://www.w3.org/2000/svg">
<path d="M0 15C0 6.71573 6.71573 0 15 0H37V163H15C6.71573 163 0 156.284 0 148V15Z" fill="#424242"/>
<rect width="1097" height="163" transform="translate(37)" fill="#F0F0F0"/>
<path d="M104.414 55.3398H107.918C107.848 56.4883 107.531 57.5078 106.969 58.3984C106.414 59.2891 105.637 59.9844 104.637 60.4844C103.645 60.9844 102.449 61.2344 101.051 61.2344C99.957 61.2344 98.9766 61.0469 98.1094 60.6719C97.2422 60.2891 96.5 59.7422 95.8828 59.0312C95.2734 58.3203 94.8086 57.4609 94.4883 56.4531C94.168 55.4453 94.0078 54.3164 94.0078 53.0664V51.8828C94.0078 50.6328 94.1719 49.5039 94.5 48.4961C94.8359 47.4805 95.3125 46.6172 95.9297 45.9062C96.5547 45.1953 97.3008 44.6484 98.168 44.2656C99.0352 43.8828 100.004 43.6914 101.074 43.6914C102.496 43.6914 103.695 43.9492 104.672 44.4648C105.656 44.9805 106.418 45.6914 106.957 46.5977C107.504 47.5039 107.832 48.5352 107.941 49.6914H104.426C104.387 49.0039 104.25 48.4219 104.016 47.9453C103.781 47.4609 103.426 47.0977 102.949 46.8555C102.48 46.6055 101.855 46.4805 101.074 46.4805C100.488 46.4805 99.9766 46.5898 99.5391 46.8086C99.1016 47.0273 98.7344 47.3594 98.4375 47.8047C98.1406 48.25 97.918 48.8125 97.7695 49.4922C97.6289 50.1641 97.5586 50.9531 97.5586 51.8594V53.0664C97.5586 53.9492 97.625 54.7266 97.7578 55.3984C97.8906 56.0625 98.0938 56.625 98.3672 57.0859C98.6484 57.5391 99.0078 57.8828 99.4453 58.1172C99.8906 58.3438 100.426 58.457 101.051 58.457C101.785 58.457 102.391 58.3398 102.867 58.1055C103.344 57.8711 103.707 57.5234 103.957 57.0625C104.215 56.6016 104.367 56.0273 104.414 55.3398ZM116.859 58.1406V52.4922C116.859 52.0859 116.793 51.7383 116.66 51.4492C116.527 51.1523 116.32 50.9219 116.039 50.7578C115.766 50.5938 115.41 50.5117 114.973 50.5117C114.598 50.5117 114.273 50.5781 114 50.7109C113.727 50.8359 113.516 51.0195 113.367 51.2617C113.219 51.4961 113.145 51.7734 113.145 52.0938H109.77C109.77 51.5547 109.895 51.043 110.145 50.5586C110.395 50.0742 110.758 49.6484 111.234 49.2812C111.711 48.9062 112.277 48.6133 112.934 48.4023C113.598 48.1914 114.34 48.0859 115.16 48.0859C116.145 48.0859 117.02 48.25 117.785 48.5781C118.551 48.9062 119.152 49.3984 119.59 50.0547C120.035 50.7109 120.258 51.5312 120.258 52.5156V57.9414C120.258 58.6367 120.301 59.207 120.387 59.6523C120.473 60.0898 120.598 60.4727 120.762 60.8008V61H117.352C117.188 60.6562 117.062 60.2266 116.977 59.7109C116.898 59.1875 116.859 58.6641 116.859 58.1406ZM117.305 53.2773L117.328 55.1875H115.441C114.996 55.1875 114.609 55.2383 114.281 55.3398C113.953 55.4414 113.684 55.5859 113.473 55.7734C113.262 55.9531 113.105 56.1641 113.004 56.4062C112.91 56.6484 112.863 56.9141 112.863 57.2031C112.863 57.4922 112.93 57.7539 113.062 57.9883C113.195 58.2148 113.387 58.3945 113.637 58.5273C113.887 58.6523 114.18 58.7148 114.516 58.7148C115.023 58.7148 115.465 58.6133 115.84 58.4102C116.215 58.207 116.504 57.957 116.707 57.6602C116.918 57.3633 117.027 57.082 117.035 56.8164L117.926 58.2461C117.801 58.5664 117.629 58.8984 117.41 59.2422C117.199 59.5859 116.93 59.9102 116.602 60.2148C116.273 60.5117 115.879 60.7578 115.418 60.9531C114.957 61.1406 114.41 61.2344 113.777 61.2344C112.973 61.2344 112.242 61.0742 111.586 60.7539C110.938 60.4258 110.422 59.9766 110.039 59.4062C109.664 58.8281 109.477 58.1719 109.477 57.4375C109.477 56.7734 109.602 56.1836 109.852 55.668C110.102 55.1523 110.469 54.7188 110.953 54.3672C111.445 54.0078 112.059 53.7383 112.793 53.5586C113.527 53.3711 114.379 53.2773 115.348 53.2773H117.305ZM126.234 50.9453V61H122.848V48.3203H126.023L126.234 50.9453ZM125.766 54.2148H124.828C124.828 53.332 124.934 52.5195 125.145 51.7773C125.363 51.0273 125.68 50.3789 126.094 49.832C126.516 49.2773 127.035 48.8477 127.652 48.543C128.27 48.2383 128.984 48.0859 129.797 48.0859C130.359 48.0859 130.875 48.1719 131.344 48.3438C131.812 48.5078 132.215 48.7695 132.551 49.1289C132.895 49.4805 133.16 49.9414 133.348 50.5117C133.535 51.0742 133.629 51.75 133.629 52.5391V61H130.254V52.9141C130.254 52.3359 130.176 51.8906 130.02 51.5781C129.863 51.2656 129.641 51.0469 129.352 50.9219C129.07 50.7969 128.73 50.7344 128.332 50.7344C127.895 50.7344 127.512 50.8242 127.184 51.0039C126.863 51.1836 126.598 51.4336 126.387 51.7539C126.176 52.0664 126.02 52.4336 125.918 52.8555C125.816 53.2773 125.766 53.7305 125.766 54.2148ZM133.312 53.8281L132.105 53.9805C132.105 53.1523 132.207 52.3828 132.41 51.6719C132.621 50.9609 132.93 50.3359 133.336 49.7969C133.75 49.2578 134.262 48.8398 134.871 48.543C135.48 48.2383 136.184 48.0859 136.98 48.0859C137.59 48.0859 138.145 48.1758 138.645 48.3555C139.145 48.5273 139.57 48.8047 139.922 49.1875C140.281 49.5625 140.555 50.0547 140.742 50.6641C140.938 51.2734 141.035 52.0195 141.035 52.9023V61H137.648V52.9023C137.648 52.3164 137.57 51.8711 137.414 51.5664C137.266 51.2539 137.047 51.0391 136.758 50.9219C136.477 50.7969 136.141 50.7344 135.75 50.7344C135.344 50.7344 134.988 50.8164 134.684 50.9805C134.379 51.1367 134.125 51.3555 133.922 51.6367C133.719 51.918 133.566 52.2461 133.465 52.6211C133.363 52.9883 133.312 53.3906 133.312 53.8281ZM147.023 50.7578V65.875H143.648V48.3203H146.777L147.023 50.7578ZM155.051 54.5195V54.7656C155.051 55.6875 154.941 56.543 154.723 57.332C154.512 58.1211 154.199 58.8086 153.785 59.3945C153.371 59.9727 152.855 60.4258 152.238 60.7539C151.629 61.0742 150.926 61.2344 150.129 61.2344C149.355 61.2344 148.684 61.0781 148.113 60.7656C147.543 60.4531 147.062 60.0156 146.672 59.4531C146.289 58.8828 145.98 58.2227 145.746 57.4727C145.512 56.7227 145.332 55.918 145.207 55.0586V54.4141C145.332 53.4922 145.512 52.6484 145.746 51.8828C145.98 51.1094 146.289 50.4414 146.672 49.8789C147.062 49.3086 147.539 48.8672 148.102 48.5547C148.672 48.2422 149.34 48.0859 150.105 48.0859C150.91 48.0859 151.617 48.2383 152.227 48.543C152.844 48.8477 153.359 49.2852 153.773 49.8555C154.195 50.4258 154.512 51.1055 154.723 51.8945C154.941 52.6836 155.051 53.5586 155.051 54.5195ZM151.664 54.7656V54.5195C151.664 53.9805 151.617 53.4844 151.523 53.0312C151.438 52.5703 151.297 52.168 151.102 51.8242C150.914 51.4805 150.664 51.2148 150.352 51.0273C150.047 50.832 149.676 50.7344 149.238 50.7344C148.777 50.7344 148.383 50.8086 148.055 50.957C147.734 51.1055 147.473 51.3203 147.27 51.6016C147.066 51.8828 146.914 52.2188 146.812 52.6094C146.711 53 146.648 53.4414 146.625 53.9336V55.5625C146.664 56.1406 146.773 56.6602 146.953 57.1211C147.133 57.5742 147.41 57.9336 147.785 58.1992C148.16 58.4648 148.652 58.5977 149.262 58.5977C149.707 58.5977 150.082 58.5 150.387 58.3047C150.691 58.1016 150.938 57.8242 151.125 57.4727C151.32 57.1211 151.457 56.7148 151.535 56.2539C151.621 55.793 151.664 55.2969 151.664 54.7656ZM163.512 57.4375L167.531 43.9375H171.445L165.504 61H162.926L163.512 57.4375ZM159.809 43.9375L163.816 57.4375L164.426 61H161.824L155.918 43.9375H159.809ZM178.148 61.2344C177.164 61.2344 176.281 61.0781 175.5 60.7656C174.719 60.4453 174.055 60.0039 173.508 59.4414C172.969 58.8789 172.555 58.2266 172.266 57.4844C171.977 56.7344 171.832 55.9375 171.832 55.0938V54.625C171.832 53.6641 171.969 52.7852 172.242 51.9883C172.516 51.1914 172.906 50.5 173.414 49.9141C173.93 49.3281 174.555 48.8789 175.289 48.5664C176.023 48.2461 176.852 48.0859 177.773 48.0859C178.672 48.0859 179.469 48.2344 180.164 48.5312C180.859 48.8281 181.441 49.25 181.91 49.7969C182.387 50.3438 182.746 51 182.988 51.7656C183.23 52.5234 183.352 53.3672 183.352 54.2969V55.7031H173.273V53.4531H180.035V53.1953C180.035 52.7266 179.949 52.3086 179.777 51.9414C179.613 51.5664 179.363 51.2695 179.027 51.0508C178.691 50.832 178.262 50.7227 177.738 50.7227C177.293 50.7227 176.91 50.8203 176.59 51.0156C176.27 51.2109 176.008 51.4844 175.805 51.8359C175.609 52.1875 175.461 52.6016 175.359 53.0781C175.266 53.5469 175.219 54.0625 175.219 54.625V55.0938C175.219 55.6016 175.289 56.0703 175.43 56.5C175.578 56.9297 175.785 57.3008 176.051 57.6133C176.324 57.9258 176.652 58.168 177.035 58.3398C177.426 58.5117 177.867 58.5977 178.359 58.5977C178.969 58.5977 179.535 58.4805 180.059 58.2461C180.59 58.0039 181.047 57.6406 181.43 57.1562L183.07 58.9375C182.805 59.3203 182.441 59.6875 181.98 60.0391C181.527 60.3906 180.98 60.6797 180.34 60.9062C179.699 61.125 178.969 61.2344 178.148 61.2344ZM188.648 51.0859V61H185.273V48.3203H188.449L188.648 51.0859ZM192.469 48.2383L192.41 51.3672C192.246 51.3438 192.047 51.3242 191.812 51.3086C191.586 51.2852 191.379 51.2734 191.191 51.2734C190.715 51.2734 190.301 51.3359 189.949 51.4609C189.605 51.5781 189.316 51.7539 189.082 51.9883C188.855 52.2227 188.684 52.5078 188.566 52.8438C188.457 53.1797 188.395 53.5625 188.379 53.9922L187.699 53.7812C187.699 52.9609 187.781 52.207 187.945 51.5195C188.109 50.8242 188.348 50.2188 188.66 49.7031C188.98 49.1875 189.371 48.7891 189.832 48.5078C190.293 48.2266 190.82 48.0859 191.414 48.0859C191.602 48.0859 191.793 48.1016 191.988 48.1328C192.184 48.1562 192.344 48.1914 192.469 48.2383ZM200.918 57.4961C200.918 57.2539 200.848 57.0352 200.707 56.8398C200.566 56.6445 200.305 56.4648 199.922 56.3008C199.547 56.1289 199.004 55.9727 198.293 55.832C197.652 55.6914 197.055 55.5156 196.5 55.3047C195.953 55.0859 195.477 54.8242 195.07 54.5195C194.672 54.2148 194.359 53.8555 194.133 53.4414C193.906 53.0195 193.793 52.5391 193.793 52C193.793 51.4688 193.906 50.9688 194.133 50.5C194.367 50.0312 194.699 49.6172 195.129 49.2578C195.566 48.8906 196.098 48.6055 196.723 48.4023C197.355 48.1914 198.066 48.0859 198.855 48.0859C199.957 48.0859 200.902 48.2617 201.691 48.6133C202.488 48.9648 203.098 49.4492 203.52 50.0664C203.949 50.6758 204.164 51.3711 204.164 52.1523H200.789C200.789 51.8242 200.719 51.5312 200.578 51.2734C200.445 51.0078 200.234 50.8008 199.945 50.6523C199.664 50.4961 199.297 50.418 198.844 50.418C198.469 50.418 198.145 50.4844 197.871 50.6172C197.598 50.7422 197.387 50.9141 197.238 51.1328C197.098 51.3438 197.027 51.5781 197.027 51.8359C197.027 52.0312 197.066 52.207 197.145 52.3633C197.23 52.5117 197.367 52.6484 197.555 52.7734C197.742 52.8984 197.984 53.0156 198.281 53.125C198.586 53.2266 198.961 53.3203 199.406 53.4062C200.32 53.5938 201.137 53.8398 201.855 54.1445C202.574 54.4414 203.145 54.8477 203.566 55.3633C203.988 55.8711 204.199 56.5391 204.199 57.3672C204.199 57.9297 204.074 58.4453 203.824 58.9141C203.574 59.3828 203.215 59.793 202.746 60.1445C202.277 60.4883 201.715 60.7578 201.059 60.9531C200.41 61.1406 199.68 61.2344 198.867 61.2344C197.688 61.2344 196.688 61.0234 195.867 60.6016C195.055 60.1797 194.438 59.6445 194.016 58.9961C193.602 58.3398 193.395 57.668 193.395 56.9805H196.594C196.609 57.4414 196.727 57.8125 196.945 58.0938C197.172 58.375 197.457 58.5781 197.801 58.7031C198.152 58.8281 198.531 58.8906 198.938 58.8906C199.375 58.8906 199.738 58.832 200.027 58.7148C200.316 58.5898 200.535 58.4258 200.684 58.2227C200.84 58.0117 200.918 57.7695 200.918 57.4961ZM212.227 61.2344C211.242 61.2344 210.359 61.0781 209.578 60.7656C208.797 60.4453 208.133 60.0039 207.586 59.4414C207.047 58.8789 206.633 58.2266 206.344 57.4844C206.055 56.7344 205.91 55.9375 205.91 55.0938V54.625C205.91 53.6641 206.047 52.7852 206.32 51.9883C206.594 51.1914 206.984 50.5 207.492 49.9141C208.008 49.3281 208.633 48.8789 209.367 48.5664C210.102 48.2461 210.93 48.0859 211.852 48.0859C212.75 48.0859 213.547 48.2344 214.242 48.5312C214.938 48.8281 215.52 49.25 215.988 49.7969C216.465 50.3438 216.824 51 217.066 51.7656C217.309 52.5234 217.43 53.3672 217.43 54.2969V55.7031H207.352V53.4531H214.113V53.1953C214.113 52.7266 214.027 52.3086 213.855 51.9414C213.691 51.5664 213.441 51.2695 213.105 51.0508C212.77 50.832 212.34 50.7227 211.816 50.7227C211.371 50.7227 210.988 50.8203 210.668 51.0156C210.348 51.2109 210.086 51.4844 209.883 51.8359C209.688 52.1875 209.539 52.6016 209.438 53.0781C209.344 53.5469 209.297 54.0625 209.297 54.625V55.0938C209.297 55.6016 209.367 56.0703 209.508 56.5C209.656 56.9297 209.863 57.3008 210.129 57.6133C210.402 57.9258 210.73 58.168 211.113 58.3398C211.504 58.5117 211.945 58.5977 212.438 58.5977C213.047 58.5977 213.613 58.4805 214.137 58.2461C214.668 58.0039 215.125 57.6406 215.508 57.1562L217.148 58.9375C216.883 59.3203 216.52 59.6875 216.059 60.0391C215.605 60.3906 215.059 60.6797 214.418 60.9062C213.777 61.125 213.047 61.2344 212.227 61.2344Z" fill="#888888"/>
<path d="M104.344 84.875V119H96.1406V84.875H104.344ZM117.727 99.0078V119H109.828V93.6406H117.234L117.727 99.0078ZM116.766 105.453L114.961 105.5C114.961 103.719 115.172 102.078 115.594 100.578C116.016 99.0781 116.641 97.7734 117.469 96.6641C118.297 95.5547 119.312 94.6953 120.516 94.0859C121.734 93.4766 123.141 93.1719 124.734 93.1719C125.844 93.1719 126.852 93.3438 127.758 93.6875C128.664 94.0156 129.445 94.5391 130.102 95.2578C130.758 95.9609 131.258 96.8828 131.602 98.0234C131.961 99.1484 132.141 100.5 132.141 102.078V119H124.242V103.086C124.242 102.008 124.117 101.195 123.867 100.648C123.633 100.102 123.289 99.7344 122.836 99.5469C122.383 99.3594 121.828 99.2656 121.172 99.2656C120.484 99.2656 119.867 99.4219 119.32 99.7344C118.773 100.047 118.305 100.484 117.914 101.047C117.539 101.594 117.25 102.242 117.047 102.992C116.859 103.742 116.766 104.562 116.766 105.453ZM131.25 105.453L129.047 105.5C129.047 103.719 129.242 102.078 129.633 100.578C130.039 99.0781 130.641 97.7734 131.438 96.6641C132.25 95.5547 133.258 94.6953 134.461 94.0859C135.664 93.4766 137.062 93.1719 138.656 93.1719C139.812 93.1719 140.875 93.3438 141.844 93.6875C142.812 94.0312 143.648 94.5859 144.352 95.3516C145.055 96.1172 145.602 97.1328 145.992 98.3984C146.383 99.6484 146.578 101.195 146.578 103.039V119H138.656V103.039C138.656 101.992 138.531 101.203 138.281 100.672C138.047 100.125 137.703 99.7578 137.25 99.5703C136.797 99.3672 136.258 99.2656 135.633 99.2656C134.883 99.2656 134.234 99.4219 133.688 99.7344C133.141 100.047 132.68 100.484 132.305 101.047C131.945 101.594 131.68 102.242 131.508 102.992C131.336 103.742 131.25 104.562 131.25 105.453ZM159.07 98.5156V128.75H151.172V93.6406H158.531L159.07 98.5156ZM174.633 106.016V106.508C174.633 108.352 174.422 110.062 174 111.641C173.578 113.219 172.953 114.594 172.125 115.766C171.297 116.938 170.266 117.852 169.031 118.508C167.812 119.148 166.398 119.469 164.789 119.469C163.273 119.469 161.969 119.133 160.875 118.461C159.781 117.789 158.867 116.859 158.133 115.672C157.398 114.484 156.805 113.125 156.352 111.594C155.898 110.062 155.539 108.445 155.273 106.742V106.109C155.539 104.281 155.898 102.586 156.352 101.023C156.805 99.4453 157.398 98.0703 158.133 96.8984C158.867 95.7266 159.773 94.8125 160.852 94.1562C161.945 93.5 163.25 93.1719 164.766 93.1719C166.375 93.1719 167.789 93.4766 169.008 94.0859C170.242 94.6953 171.273 95.5703 172.102 96.7109C172.945 97.8359 173.578 99.1875 174 100.766C174.422 102.344 174.633 104.094 174.633 106.016ZM166.734 106.508V106.016C166.734 105.031 166.664 104.133 166.523 103.32C166.383 102.492 166.156 101.773 165.844 101.164C165.547 100.555 165.148 100.086 164.648 99.7578C164.148 99.4297 163.531 99.2656 162.797 99.2656C161.953 99.2656 161.242 99.3984 160.664 99.6641C160.102 99.9141 159.648 100.305 159.305 100.836C158.977 101.352 158.742 102 158.602 102.781C158.477 103.547 158.422 104.445 158.438 105.477V107.398C158.406 108.586 158.523 109.633 158.789 110.539C159.055 111.43 159.516 112.125 160.172 112.625C160.828 113.125 161.719 113.375 162.844 113.375C163.594 113.375 164.219 113.203 164.719 112.859C165.219 112.5 165.617 112.008 165.914 111.383C166.211 110.742 166.422 110.008 166.547 109.18C166.672 108.352 166.734 107.461 166.734 106.508ZM186.492 83V119H178.57V83H186.492ZM203.648 119.469C201.586 119.469 199.742 119.148 198.117 118.508C196.492 117.852 195.117 116.953 193.992 115.812C192.883 114.672 192.031 113.359 191.438 111.875C190.859 110.391 190.57 108.82 190.57 107.164V106.273C190.57 104.414 190.828 102.695 191.344 101.117C191.859 99.5234 192.625 98.1328 193.641 96.9453C194.656 95.7578 195.93 94.8359 197.461 94.1797C198.992 93.5078 200.773 93.1719 202.805 93.1719C204.602 93.1719 206.211 93.4609 207.633 94.0391C209.055 94.6172 210.258 95.4453 211.242 96.5234C212.242 97.6016 213 98.9062 213.516 100.438C214.047 101.969 214.312 103.688 214.312 105.594V108.805H193.594V103.859H206.602V103.25C206.617 102.406 206.469 101.688 206.156 101.094C205.859 100.5 205.422 100.047 204.844 99.7344C204.266 99.4219 203.562 99.2656 202.734 99.2656C201.875 99.2656 201.164 99.4531 200.602 99.8281C200.055 100.203 199.625 100.719 199.312 101.375C199.016 102.016 198.805 102.758 198.68 103.602C198.555 104.445 198.492 105.336 198.492 106.273V107.164C198.492 108.102 198.617 108.953 198.867 109.719C199.133 110.484 199.508 111.141 199.992 111.688C200.492 112.219 201.086 112.633 201.773 112.93C202.477 113.227 203.273 113.375 204.164 113.375C205.242 113.375 206.305 113.172 207.352 112.766C208.398 112.359 209.297 111.688 210.047 110.75L213.633 115.016C213.117 115.75 212.383 116.461 211.43 117.148C210.492 117.836 209.367 118.398 208.055 118.836C206.742 119.258 205.273 119.469 203.648 119.469ZM225.492 99.0078V119H217.594V93.6406H225L225.492 99.0078ZM224.531 105.453L222.727 105.5C222.727 103.719 222.938 102.078 223.359 100.578C223.781 99.0781 224.406 97.7734 225.234 96.6641C226.062 95.5547 227.078 94.6953 228.281 94.0859C229.5 93.4766 230.906 93.1719 232.5 93.1719C233.609 93.1719 234.617 93.3438 235.523 93.6875C236.43 94.0156 237.211 94.5391 237.867 95.2578C238.523 95.9609 239.023 96.8828 239.367 98.0234C239.727 99.1484 239.906 100.5 239.906 102.078V119H232.008V103.086C232.008 102.008 231.883 101.195 231.633 100.648C231.398 100.102 231.055 99.7344 230.602 99.5469C230.148 99.3594 229.594 99.2656 228.938 99.2656C228.25 99.2656 227.633 99.4219 227.086 99.7344C226.539 100.047 226.07 100.484 225.68 101.047C225.305 101.594 225.016 102.242 224.812 102.992C224.625 103.742 224.531 104.562 224.531 105.453ZM239.016 105.453L236.812 105.5C236.812 103.719 237.008 102.078 237.398 100.578C237.805 99.0781 238.406 97.7734 239.203 96.6641C240.016 95.5547 241.023 94.6953 242.227 94.0859C243.43 93.4766 244.828 93.1719 246.422 93.1719C247.578 93.1719 248.641 93.3438 249.609 93.6875C250.578 94.0312 251.414 94.5859 252.117 95.3516C252.82 96.1172 253.367 97.1328 253.758 98.3984C254.148 99.6484 254.344 101.195 254.344 103.039V119H246.422V103.039C246.422 101.992 246.297 101.203 246.047 100.672C245.812 100.125 245.469 99.7578 245.016 99.5703C244.562 99.3672 244.023 99.2656 243.398 99.2656C242.648 99.2656 242 99.4219 241.453 99.7344C240.906 100.047 240.445 100.484 240.07 101.047C239.711 101.594 239.445 102.242 239.273 102.992C239.102 103.742 239.016 104.562 239.016 105.453ZM271.148 119.469C269.086 119.469 267.242 119.148 265.617 118.508C263.992 117.852 262.617 116.953 261.492 115.812C260.383 114.672 259.531 113.359 258.938 111.875C258.359 110.391 258.07 108.82 258.07 107.164V106.273C258.07 104.414 258.328 102.695 258.844 101.117C259.359 99.5234 260.125 98.1328 261.141 96.9453C262.156 95.7578 263.43 94.8359 264.961 94.1797C266.492 93.5078 268.273 93.1719 270.305 93.1719C272.102 93.1719 273.711 93.4609 275.133 94.0391C276.555 94.6172 277.758 95.4453 278.742 96.5234C279.742 97.6016 280.5 98.9062 281.016 100.438C281.547 101.969 281.812 103.688 281.812 105.594V108.805H261.094V103.859H274.102V103.25C274.117 102.406 273.969 101.688 273.656 101.094C273.359 100.5 272.922 100.047 272.344 99.7344C271.766 99.4219 271.062 99.2656 270.234 99.2656C269.375 99.2656 268.664 99.4531 268.102 99.8281C267.555 100.203 267.125 100.719 266.812 101.375C266.516 102.016 266.305 102.758 266.18 103.602C266.055 104.445 265.992 105.336 265.992 106.273V107.164C265.992 108.102 266.117 108.953 266.367 109.719C266.633 110.484 267.008 111.141 267.492 111.688C267.992 112.219 268.586 112.633 269.273 112.93C269.977 113.227 270.773 113.375 271.664 113.375C272.742 113.375 273.805 113.172 274.852 112.766C275.898 112.359 276.797 111.688 277.547 110.75L281.133 115.016C280.617 115.75 279.883 116.461 278.93 117.148C277.992 117.836 276.867 118.398 275.555 118.836C274.242 119.258 272.773 119.469 271.148 119.469ZM292.781 99.0547V119H284.883V93.6406H292.289L292.781 99.0547ZM291.844 105.453L289.992 105.5C289.992 103.562 290.227 101.836 290.695 100.32C291.164 98.7891 291.828 97.4922 292.688 96.4297C293.547 95.3672 294.57 94.5625 295.758 94.0156C296.961 93.4531 298.297 93.1719 299.766 93.1719C300.938 93.1719 302.008 93.3438 302.977 93.6875C303.961 94.0312 304.805 94.5859 305.508 95.3516C306.227 96.1172 306.773 97.1328 307.148 98.3984C307.539 99.6484 307.734 101.195 307.734 103.039V119H299.789V103.016C299.789 102 299.648 101.227 299.367 100.695C299.086 100.148 298.68 99.7734 298.148 99.5703C297.617 99.3672 296.969 99.2656 296.203 99.2656C295.391 99.2656 294.703 99.4219 294.141 99.7344C293.578 100.047 293.125 100.484 292.781 101.047C292.453 101.594 292.211 102.242 292.055 102.992C291.914 103.742 291.844 104.562 291.844 105.453ZM325.477 93.6406V99.125H310.195V93.6406H325.477ZM313.406 87.3359H321.305V110.727C321.305 111.398 321.383 111.922 321.539 112.297C321.695 112.656 321.961 112.914 322.336 113.07C322.727 113.211 323.242 113.281 323.883 113.281C324.336 113.281 324.711 113.273 325.008 113.258C325.305 113.227 325.586 113.188 325.852 113.141V118.789C325.18 119.008 324.477 119.172 323.742 119.281C323.008 119.406 322.227 119.469 321.398 119.469C319.711 119.469 318.266 119.203 317.062 118.672C315.875 118.141 314.969 117.305 314.344 116.164C313.719 115.023 313.406 113.539 313.406 111.711V87.3359ZM341.789 112.625V102.172C341.789 101.453 341.688 100.836 341.484 100.32C341.281 99.8047 340.961 99.4062 340.523 99.125C340.086 98.8281 339.5 98.6797 338.766 98.6797C338.172 98.6797 337.664 98.7812 337.242 98.9844C336.82 99.1875 336.5 99.4922 336.281 99.8984C336.062 100.305 335.953 100.82 335.953 101.445H328.055C328.055 100.273 328.312 99.1875 328.828 98.1875C329.359 97.1719 330.109 96.2891 331.078 95.5391C332.062 94.7891 333.234 94.2109 334.594 93.8047C335.969 93.3828 337.5 93.1719 339.188 93.1719C341.203 93.1719 343 93.5078 344.578 94.1797C346.172 94.8516 347.43 95.8594 348.352 97.2031C349.273 98.5312 349.734 100.203 349.734 102.219V112.602C349.734 114.258 349.828 115.516 350.016 116.375C350.203 117.219 350.469 117.961 350.812 118.602V119H342.891C342.516 118.219 342.234 117.266 342.047 116.141C341.875 115 341.789 113.828 341.789 112.625ZM342.75 103.508L342.797 107.727H339.305C338.57 107.727 337.945 107.828 337.43 108.031C336.93 108.234 336.523 108.516 336.211 108.875C335.914 109.219 335.695 109.609 335.555 110.047C335.43 110.484 335.367 110.945 335.367 111.43C335.367 111.898 335.477 112.32 335.695 112.695C335.93 113.055 336.242 113.336 336.633 113.539C337.023 113.742 337.461 113.844 337.945 113.844C338.82 113.844 339.562 113.68 340.172 113.352C340.797 113.008 341.273 112.594 341.602 112.109C341.93 111.625 342.094 111.172 342.094 110.75L343.828 113.984C343.516 114.609 343.156 115.242 342.75 115.883C342.359 116.523 341.867 117.117 341.273 117.664C340.695 118.195 339.984 118.633 339.141 118.977C338.297 119.305 337.273 119.469 336.07 119.469C334.508 119.469 333.07 119.148 331.758 118.508C330.461 117.867 329.422 116.977 328.641 115.836C327.859 114.68 327.469 113.352 327.469 111.852C327.469 110.539 327.703 109.367 328.172 108.336C328.656 107.305 329.383 106.43 330.352 105.711C331.32 104.992 332.555 104.445 334.055 104.07C335.555 103.695 337.32 103.508 339.352 103.508H342.75ZM367.477 93.6406V99.125H352.195V93.6406H367.477ZM355.406 87.3359H363.305V110.727C363.305 111.398 363.383 111.922 363.539 112.297C363.695 112.656 363.961 112.914 364.336 113.07C364.727 113.211 365.242 113.281 365.883 113.281C366.336 113.281 366.711 113.273 367.008 113.258C367.305 113.227 367.586 113.188 367.852 113.141V118.789C367.18 119.008 366.477 119.172 365.742 119.281C365.008 119.406 364.227 119.469 363.398 119.469C361.711 119.469 360.266 119.203 359.062 118.672C357.875 118.141 356.969 117.305 356.344 116.164C355.719 115.023 355.406 113.539 355.406 111.711V87.3359ZM378.961 93.6406V119H371.039V93.6406H378.961ZM370.57 87.1016C370.57 85.9766 370.977 85.0547 371.789 84.3359C372.602 83.6172 373.656 83.2578 374.953 83.2578C376.25 83.2578 377.305 83.6172 378.117 84.3359C378.93 85.0547 379.336 85.9766 379.336 87.1016C379.336 88.2266 378.93 89.1484 378.117 89.8672C377.305 90.5859 376.25 90.9453 374.953 90.9453C373.656 90.9453 372.602 90.5859 371.789 89.8672C370.977 89.1484 370.57 88.2266 370.57 87.1016ZM382.852 106.578V106.086C382.852 104.227 383.117 102.516 383.648 100.953C384.18 99.375 384.961 98.0078 385.992 96.8516C387.023 95.6953 388.297 94.7969 389.812 94.1562C391.328 93.5 393.078 93.1719 395.062 93.1719C397.062 93.1719 398.82 93.5 400.336 94.1562C401.867 94.7969 403.148 95.6953 404.18 96.8516C405.211 98.0078 405.992 99.375 406.523 100.953C407.055 102.516 407.32 104.227 407.32 106.086V106.578C407.32 108.422 407.055 110.133 406.523 111.711C405.992 113.273 405.211 114.641 404.18 115.812C403.148 116.969 401.875 117.867 400.359 118.508C398.844 119.148 397.094 119.469 395.109 119.469C393.125 119.469 391.367 119.148 389.836 118.508C388.305 117.867 387.023 116.969 385.992 115.812C384.961 114.641 384.18 113.273 383.648 111.711C383.117 110.133 382.852 108.422 382.852 106.578ZM390.75 106.086V106.578C390.75 107.531 390.82 108.422 390.961 109.25C391.102 110.078 391.336 110.805 391.664 111.43C391.992 112.039 392.438 112.516 393 112.859C393.562 113.203 394.266 113.375 395.109 113.375C395.938 113.375 396.625 113.203 397.172 112.859C397.734 112.516 398.18 112.039 398.508 111.43C398.836 110.805 399.07 110.078 399.211 109.25C399.352 108.422 399.422 107.531 399.422 106.578V106.086C399.422 105.164 399.352 104.297 399.211 103.484C399.07 102.656 398.836 101.93 398.508 101.305C398.18 100.664 397.734 100.164 397.172 99.8047C396.609 99.4453 395.906 99.2656 395.062 99.2656C394.234 99.2656 393.539 99.4453 392.977 99.8047C392.43 100.164 391.992 100.664 391.664 101.305C391.336 101.93 391.102 102.656 390.961 103.484C390.82 104.297 390.75 105.164 390.75 106.086ZM418.594 99.0547V119H410.695V93.6406H418.102L418.594 99.0547ZM417.656 105.453L415.805 105.5C415.805 103.562 416.039 101.836 416.508 100.32C416.977 98.7891 417.641 97.4922 418.5 96.4297C419.359 95.3672 420.383 94.5625 421.57 94.0156C422.773 93.4531 424.109 93.1719 425.578 93.1719C426.75 93.1719 427.82 93.3438 428.789 93.6875C429.773 94.0312 430.617 94.5859 431.32 95.3516C432.039 96.1172 432.586 97.1328 432.961 98.3984C433.352 99.6484 433.547 101.195 433.547 103.039V119H425.602V103.016C425.602 102 425.461 101.227 425.18 100.695C424.898 100.148 424.492 99.7734 423.961 99.5703C423.43 99.3672 422.781 99.2656 422.016 99.2656C421.203 99.2656 420.516 99.4219 419.953 99.7344C419.391 100.047 418.938 100.484 418.594 101.047C418.266 101.594 418.023 102.242 417.867 102.992C417.727 103.742 417.656 104.562 417.656 105.453Z" fill="black"/>
<path d="M1134 0H1348C1356.28 0 1363 6.71573 1363 15V148C1363 156.284 1356.28 163 1348 163H1134V0Z" fill="#02BAFF"/>
<path d="M1281 46.5H1216L1213.5 49V114L1216 116.5H1281L1283.5 114V49L1281 46.5ZM1278.5 111.5H1233.5V101.5H1245C1246.5 104.5 1250 106.5 1253.5 106.5C1259 106.5 1263.5 102 1263.5 96.5C1263.5 91 1259 86.5 1253.5 86.5C1248 86.5 1243.5 91 1243.5 96.5H1228.5V111.5H1218.5V51.5H1228.5V63C1225.5 64.5 1223.5 68 1223.5 71.5C1223.5 77 1228 81.5 1233.5 81.5C1239 81.5 1243.5 77 1243.5 71.5H1253.5C1253.5 77 1258 81.5 1263.5 81.5C1269 81.5 1273.5 77 1273.5 71.5C1273.5 66 1269 61.5 1263.5 61.5C1260 61.5 1256.5 63.5 1255 66.5H1242C1240.5 63.5 1237 61.5 1233.5 61.5V51.5H1278.5V111.5ZM1248.5 96.5C1248.5 93.5 1250.5 91.5 1253.5 91.5C1256.5 91.5 1258.5 93.5 1258.5 96.5C1258.5 99.5 1256.5 101.5 1253.5 101.5C1250.5 101.5 1248.5 99.5 1248.5 96.5ZM1233.5 66.5C1236.5 66.5 1238.5 68.5 1238.5 71.5C1238.5 74.5 1236.5 76.5 1233.5 76.5C1230.5 76.5 1228.5 74.5 1228.5 71.5C1228.5 68.5 1230.5 66.5 1233.5 66.5ZM1263.5 66.5C1266.5 66.5 1268.5 68.5 1268.5 71.5C1268.5 74.5 1266.5 76.5 1263.5 76.5C1260.5 76.5 1258.5 74.5 1258.5 71.5C1258.5 68.5 1260.5 66.5 1263.5 66.5Z" fill="white"/>
</svg>
