<svg width="1363" height="297" viewBox="0 0 1363 297" fill="none" xmlns="http://www.w3.org/2000/svg">
<path d="M0 15C0 6.71573 6.71573 0 15 0H37V297H15C6.71573 297 0 290.284 0 282V15Z" fill="#02BAFF"/>
<path d="M37 0H1066V297H37V0Z" fill="#F0F0F0"/>
<path d="M116.115 49.4062V75H110.842L100.559 57.8438V75H95.2852V49.4062H100.559L110.859 66.5801V49.4062H116.115ZM130.652 70.7109V62.2383C130.652 61.6289 130.553 61.1074 130.354 60.6738C130.154 60.2285 129.844 59.8828 129.422 59.6367C129.012 59.3906 128.479 59.2676 127.822 59.2676C127.26 59.2676 126.773 59.3672 126.363 59.5664C125.953 59.7539 125.637 60.0293 125.414 60.3926C125.191 60.7441 125.08 61.1602 125.08 61.6406H120.018C120.018 60.832 120.205 60.0645 120.58 59.3379C120.955 58.6113 121.5 57.9727 122.215 57.4219C122.93 56.8594 123.779 56.4199 124.764 56.1035C125.76 55.7871 126.873 55.6289 128.104 55.6289C129.58 55.6289 130.893 55.875 132.041 56.3672C133.189 56.8594 134.092 57.5977 134.748 58.582C135.416 59.5664 135.75 60.7969 135.75 62.2734V70.4121C135.75 71.4551 135.814 72.3105 135.943 72.9785C136.072 73.6348 136.26 74.209 136.506 74.7012V75H131.391C131.145 74.4844 130.957 73.8398 130.828 73.0664C130.711 72.2812 130.652 71.4961 130.652 70.7109ZM131.32 63.416L131.355 66.2812H128.525C127.857 66.2812 127.277 66.3574 126.785 66.5098C126.293 66.6621 125.889 66.8789 125.572 67.1602C125.256 67.4297 125.021 67.7461 124.869 68.1094C124.729 68.4727 124.658 68.8711 124.658 69.3047C124.658 69.7383 124.758 70.1309 124.957 70.4824C125.156 70.8223 125.443 71.0918 125.818 71.291C126.193 71.4785 126.633 71.5723 127.137 71.5723C127.898 71.5723 128.561 71.4199 129.123 71.1152C129.686 70.8105 130.119 70.4355 130.424 69.9902C130.74 69.5449 130.904 69.123 130.916 68.7246L132.252 70.8691C132.064 71.3496 131.807 71.8477 131.479 72.3633C131.162 72.8789 130.758 73.3652 130.266 73.8223C129.773 74.2676 129.182 74.6367 128.49 74.9297C127.799 75.2109 126.979 75.3516 126.029 75.3516C124.822 75.3516 123.727 75.1113 122.742 74.6309C121.77 74.1387 120.996 73.4648 120.422 72.6094C119.859 71.7422 119.578 70.7578 119.578 69.6562C119.578 68.6602 119.766 67.7754 120.141 67.002C120.516 66.2285 121.066 65.5781 121.793 65.0508C122.531 64.5117 123.451 64.1074 124.553 63.8379C125.654 63.5566 126.932 63.416 128.385 63.416H131.32ZM150.885 70.8516V48H155.982V75H151.395L150.885 70.8516ZM138.861 65.7188V65.3496C138.861 63.8965 139.025 62.5781 139.354 61.3945C139.682 60.1992 140.162 59.1738 140.795 58.3184C141.428 57.4629 142.207 56.8008 143.133 56.332C144.059 55.8633 145.113 55.6289 146.297 55.6289C147.41 55.6289 148.383 55.8633 149.215 56.332C150.059 56.8008 150.773 57.4688 151.359 58.3359C151.957 59.1914 152.438 60.2051 152.801 61.377C153.164 62.5371 153.428 63.8086 153.592 65.1914V66C153.428 67.3242 153.164 68.5547 152.801 69.6914C152.438 70.8281 151.957 71.8242 151.359 72.6797C150.773 73.5234 150.059 74.1797 149.215 74.6484C148.371 75.1172 147.387 75.3516 146.262 75.3516C145.078 75.3516 144.023 75.1113 143.098 74.6309C142.184 74.1504 141.41 73.4766 140.777 72.6094C140.156 71.7422 139.682 70.7227 139.354 69.5508C139.025 68.3789 138.861 67.1016 138.861 65.7188ZM143.924 65.3496V65.7188C143.924 66.5039 143.982 67.2363 144.1 67.916C144.229 68.5957 144.434 69.1992 144.715 69.7266C145.008 70.2422 145.383 70.6465 145.84 70.9395C146.309 71.2207 146.877 71.3613 147.545 71.3613C148.412 71.3613 149.127 71.168 149.689 70.7812C150.252 70.3828 150.68 69.8379 150.973 69.1465C151.277 68.4551 151.453 67.6582 151.5 66.7559V64.4531C151.465 63.7148 151.359 63.0527 151.184 62.4668C151.02 61.8691 150.773 61.3594 150.445 60.9375C150.129 60.5156 149.73 60.1875 149.25 59.9531C148.781 59.7188 148.225 59.6016 147.58 59.6016C146.924 59.6016 146.361 59.7539 145.893 60.0586C145.424 60.3516 145.043 60.7559 144.75 61.2715C144.469 61.7871 144.258 62.3965 144.117 63.0996C143.988 63.791 143.924 64.541 143.924 65.3496ZM165.281 55.9805V75H160.201V55.9805H165.281ZM159.885 51.0234C159.885 50.2852 160.143 49.6758 160.658 49.1953C161.174 48.7148 161.865 48.4746 162.732 48.4746C163.588 48.4746 164.273 48.7148 164.789 49.1953C165.316 49.6758 165.58 50.2852 165.58 51.0234C165.58 51.7617 165.316 52.3711 164.789 52.8516C164.273 53.332 163.588 53.5723 162.732 53.5723C161.865 53.5723 161.174 53.332 160.658 52.8516C160.143 52.3711 159.885 51.7617 159.885 51.0234ZM174.527 59.918V75H169.447V55.9805H174.211L174.527 59.918ZM173.824 64.8223H172.418C172.418 63.498 172.576 62.2793 172.893 61.166C173.221 60.041 173.695 59.0684 174.316 58.248C174.949 57.416 175.729 56.7715 176.654 56.3145C177.58 55.8574 178.652 55.6289 179.871 55.6289C180.715 55.6289 181.488 55.7578 182.191 56.0156C182.895 56.2617 183.498 56.6543 184.002 57.1934C184.518 57.7207 184.916 58.4121 185.197 59.2676C185.479 60.1113 185.619 61.125 185.619 62.3086V75H180.557V62.8711C180.557 62.0039 180.439 61.3359 180.205 60.8672C179.971 60.3984 179.637 60.0703 179.203 59.8828C178.781 59.6953 178.271 59.6016 177.674 59.6016C177.018 59.6016 176.443 59.7363 175.951 60.0059C175.471 60.2754 175.072 60.6504 174.756 61.1309C174.439 61.5996 174.205 62.1504 174.053 62.7832C173.9 63.416 173.824 64.0957 173.824 64.8223ZM185.145 64.2422L183.334 64.4707C183.334 63.2285 183.486 62.0742 183.791 61.0078C184.107 59.9414 184.57 59.0039 185.18 58.1953C185.801 57.3867 186.568 56.7598 187.482 56.3145C188.396 55.8574 189.451 55.6289 190.646 55.6289C191.561 55.6289 192.393 55.7637 193.143 56.0332C193.893 56.291 194.531 56.707 195.059 57.2812C195.598 57.8438 196.008 58.582 196.289 59.4961C196.582 60.4102 196.729 61.5293 196.729 62.8535V75H191.648V62.8535C191.648 61.9746 191.531 61.3066 191.297 60.8496C191.074 60.3809 190.746 60.0586 190.312 59.8828C189.891 59.6953 189.387 59.6016 188.801 59.6016C188.191 59.6016 187.658 59.7246 187.201 59.9707C186.744 60.2051 186.363 60.5332 186.059 60.9551C185.754 61.377 185.525 61.8691 185.373 62.4316C185.221 62.9824 185.145 63.5859 185.145 64.2422ZM209.93 49.4062H219.475C221.432 49.4062 223.113 49.6992 224.52 50.2852C225.938 50.8711 227.027 51.7383 227.789 52.8867C228.551 54.0352 228.932 55.4473 228.932 57.123C228.932 58.4941 228.697 59.6719 228.229 60.6562C227.771 61.6289 227.121 62.4434 226.277 63.0996C225.445 63.7441 224.467 64.2598 223.342 64.6465L221.672 65.5254H213.375L213.34 61.4121H219.51C220.436 61.4121 221.203 61.248 221.812 60.9199C222.422 60.5918 222.879 60.1348 223.184 59.5488C223.5 58.9629 223.658 58.2832 223.658 57.5098C223.658 56.6895 223.506 55.9805 223.201 55.3828C222.896 54.7852 222.434 54.3281 221.812 54.0117C221.191 53.6953 220.412 53.5371 219.475 53.5371H215.203V75H209.93V49.4062ZM224.238 75L218.402 63.5918L223.975 63.5566L229.881 74.7539V75H224.238ZM238.02 55.9805V75H232.939V55.9805H238.02ZM232.623 51.0234C232.623 50.2852 232.881 49.6758 233.396 49.1953C233.912 48.7148 234.604 48.4746 235.471 48.4746C236.326 48.4746 237.012 48.7148 237.527 49.1953C238.055 49.6758 238.318 50.2852 238.318 51.0234C238.318 51.7617 238.055 52.3711 237.527 52.8516C237.012 53.332 236.326 53.5723 235.471 53.5723C234.604 53.5723 233.912 53.332 233.396 52.8516C232.881 52.3711 232.623 51.7617 232.623 51.0234ZM248.654 75H243.557V54.293C243.557 52.8516 243.838 51.6387 244.4 50.6543C244.975 49.6582 245.777 48.9082 246.809 48.4043C247.852 47.8887 249.088 47.6309 250.518 47.6309C250.986 47.6309 251.438 47.666 251.871 47.7363C252.305 47.7949 252.727 47.8711 253.137 47.9648L253.084 51.7793C252.861 51.7207 252.627 51.6797 252.381 51.6562C252.135 51.6328 251.848 51.6211 251.52 51.6211C250.91 51.6211 250.389 51.7266 249.955 51.9375C249.533 52.1367 249.211 52.4355 248.988 52.834C248.766 53.2324 248.654 53.7188 248.654 54.293V75ZM252.451 55.9805V59.5664H240.727V55.9805H252.451ZM265.371 70.7109V62.2383C265.371 61.6289 265.271 61.1074 265.072 60.6738C264.873 60.2285 264.562 59.8828 264.141 59.6367C263.73 59.3906 263.197 59.2676 262.541 59.2676C261.979 59.2676 261.492 59.3672 261.082 59.5664C260.672 59.7539 260.355 60.0293 260.133 60.3926C259.91 60.7441 259.799 61.1602 259.799 61.6406H254.736C254.736 60.832 254.924 60.0645 255.299 59.3379C255.674 58.6113 256.219 57.9727 256.934 57.4219C257.648 56.8594 258.498 56.4199 259.482 56.1035C260.479 55.7871 261.592 55.6289 262.822 55.6289C264.299 55.6289 265.611 55.875 266.76 56.3672C267.908 56.8594 268.811 57.5977 269.467 58.582C270.135 59.5664 270.469 60.7969 270.469 62.2734V70.4121C270.469 71.4551 270.533 72.3105 270.662 72.9785C270.791 73.6348 270.979 74.209 271.225 74.7012V75H266.109C265.863 74.4844 265.676 73.8398 265.547 73.0664C265.43 72.2812 265.371 71.4961 265.371 70.7109ZM266.039 63.416L266.074 66.2812H263.244C262.576 66.2812 261.996 66.3574 261.504 66.5098C261.012 66.6621 260.607 66.8789 260.291 67.1602C259.975 67.4297 259.74 67.7461 259.588 68.1094C259.447 68.4727 259.377 68.8711 259.377 69.3047C259.377 69.7383 259.477 70.1309 259.676 70.4824C259.875 70.8223 260.162 71.0918 260.537 71.291C260.912 71.4785 261.352 71.5723 261.855 71.5723C262.617 71.5723 263.279 71.4199 263.842 71.1152C264.404 70.8105 264.838 70.4355 265.143 69.9902C265.459 69.5449 265.623 69.123 265.635 68.7246L266.971 70.8691C266.783 71.3496 266.525 71.8477 266.197 72.3633C265.881 72.8789 265.477 73.3652 264.984 73.8223C264.492 74.2676 263.9 74.6367 263.209 74.9297C262.518 75.2109 261.697 75.3516 260.748 75.3516C259.541 75.3516 258.445 75.1113 257.461 74.6309C256.488 74.1387 255.715 73.4648 255.141 72.6094C254.578 71.7422 254.297 70.7578 254.297 69.6562C254.297 68.6602 254.484 67.7754 254.859 67.002C255.234 66.2285 255.785 65.5781 256.512 65.0508C257.25 64.5117 258.17 64.1074 259.271 63.8379C260.373 63.5566 261.65 63.416 263.104 63.416H266.039ZM279.715 55.9805V75H274.635V55.9805H279.715ZM274.318 51.0234C274.318 50.2852 274.576 49.6758 275.092 49.1953C275.607 48.7148 276.299 48.4746 277.166 48.4746C278.021 48.4746 278.707 48.7148 279.223 49.1953C279.75 49.6758 280.014 50.2852 280.014 51.0234C280.014 51.7617 279.75 52.3711 279.223 52.8516C278.707 53.332 278.021 53.5723 277.166 53.5723C276.299 53.5723 275.607 53.332 275.092 52.8516C274.576 52.3711 274.318 51.7617 274.318 51.0234ZM289.242 55.9805V75H284.162V55.9805H289.242ZM283.846 51.0234C283.846 50.2852 284.104 49.6758 284.619 49.1953C285.135 48.7148 285.826 48.4746 286.693 48.4746C287.549 48.4746 288.234 48.7148 288.75 49.1953C289.277 49.6758 289.541 50.2852 289.541 51.0234C289.541 51.7617 289.277 52.3711 288.75 52.8516C288.234 53.332 287.549 53.5723 286.693 53.5723C285.826 53.5723 285.135 53.332 284.619 52.8516C284.104 52.3711 283.846 51.7617 283.846 51.0234Z" fill="#888888"/>
<path d="M118.676 126.52H128.246C128.118 129.29 127.371 131.733 126.004 133.848C124.637 135.962 122.741 137.612 120.316 138.797C117.91 139.964 115.066 140.547 111.785 140.547C109.124 140.547 106.745 140.1 104.648 139.207C102.57 138.314 100.802 137.029 99.3438 135.352C97.9036 133.674 96.8008 131.642 96.0352 129.254C95.2878 126.866 94.9141 124.177 94.9141 121.188V119.027C94.9141 116.038 95.306 113.349 96.0898 110.961C96.8919 108.555 98.0221 106.513 99.4805 104.836C100.957 103.141 102.725 101.846 104.785 100.953C106.845 100.06 109.133 99.6133 111.648 99.6133C115.112 99.6133 118.038 100.233 120.426 101.473C122.814 102.712 124.664 104.417 125.977 106.586C127.289 108.737 128.064 111.189 128.301 113.941H118.73C118.694 112.447 118.439 111.198 117.965 110.195C117.491 109.174 116.743 108.409 115.723 107.898C114.702 107.388 113.344 107.133 111.648 107.133C110.464 107.133 109.434 107.352 108.559 107.789C107.684 108.227 106.954 108.919 106.371 109.867C105.788 110.815 105.35 112.046 105.059 113.559C104.785 115.053 104.648 116.858 104.648 118.973V121.188C104.648 123.302 104.776 125.107 105.031 126.602C105.286 128.096 105.697 129.318 106.262 130.266C106.827 131.214 107.556 131.915 108.449 132.371C109.361 132.809 110.473 133.027 111.785 133.027C113.243 133.027 114.474 132.799 115.477 132.344C116.479 131.87 117.254 131.159 117.801 130.211C118.348 129.245 118.639 128.014 118.676 126.52ZM147.715 132.562V120.367C147.715 119.529 147.596 118.809 147.359 118.207C147.122 117.605 146.749 117.141 146.238 116.812C145.728 116.466 145.044 116.293 144.188 116.293C143.495 116.293 142.902 116.411 142.41 116.648C141.918 116.885 141.544 117.241 141.289 117.715C141.034 118.189 140.906 118.79 140.906 119.52H131.691C131.691 118.152 131.992 116.885 132.594 115.719C133.214 114.534 134.089 113.504 135.219 112.629C136.367 111.754 137.734 111.079 139.32 110.605C140.924 110.113 142.711 109.867 144.68 109.867C147.031 109.867 149.128 110.259 150.969 111.043C152.828 111.827 154.296 113.003 155.371 114.57C156.447 116.12 156.984 118.07 156.984 120.422V132.535C156.984 134.467 157.094 135.935 157.312 136.938C157.531 137.922 157.841 138.788 158.242 139.535V140H149C148.562 139.089 148.234 137.977 148.016 136.664C147.815 135.333 147.715 133.966 147.715 132.562ZM148.836 121.926L148.891 126.848H144.816C143.96 126.848 143.23 126.966 142.629 127.203C142.046 127.44 141.572 127.768 141.207 128.188C140.861 128.589 140.605 129.044 140.441 129.555C140.296 130.065 140.223 130.603 140.223 131.168C140.223 131.715 140.35 132.207 140.605 132.645C140.879 133.064 141.243 133.392 141.699 133.629C142.155 133.866 142.665 133.984 143.23 133.984C144.251 133.984 145.117 133.793 145.828 133.41C146.557 133.009 147.113 132.526 147.496 131.961C147.879 131.396 148.07 130.867 148.07 130.375L150.094 134.148C149.729 134.878 149.31 135.616 148.836 136.363C148.38 137.111 147.806 137.803 147.113 138.441C146.439 139.061 145.609 139.572 144.625 139.973C143.641 140.355 142.447 140.547 141.043 140.547C139.22 140.547 137.543 140.173 136.012 139.426C134.499 138.678 133.286 137.639 132.375 136.309C131.464 134.96 131.008 133.41 131.008 131.66C131.008 130.129 131.281 128.762 131.828 127.559C132.393 126.355 133.241 125.335 134.371 124.496C135.501 123.658 136.941 123.02 138.691 122.582C140.441 122.145 142.501 121.926 144.871 121.926H148.836ZM171.395 116.676V140H162.18V110.414H170.82L171.395 116.676ZM170.273 124.195L168.168 124.25C168.168 122.172 168.414 120.258 168.906 118.508C169.398 116.758 170.128 115.236 171.094 113.941C172.06 112.647 173.245 111.645 174.648 110.934C176.07 110.223 177.711 109.867 179.57 109.867C180.865 109.867 182.04 110.068 183.098 110.469C184.155 110.852 185.066 111.462 185.832 112.301C186.598 113.121 187.181 114.197 187.582 115.527C188.001 116.84 188.211 118.417 188.211 120.258V140H178.996V121.434C178.996 120.176 178.85 119.228 178.559 118.59C178.285 117.952 177.884 117.523 177.355 117.305C176.827 117.086 176.18 116.977 175.414 116.977C174.612 116.977 173.892 117.159 173.254 117.523C172.616 117.888 172.069 118.398 171.613 119.055C171.176 119.693 170.839 120.449 170.602 121.324C170.383 122.199 170.273 123.156 170.273 124.195ZM187.172 124.195L184.602 124.25C184.602 122.172 184.829 120.258 185.285 118.508C185.759 116.758 186.461 115.236 187.391 113.941C188.339 112.647 189.514 111.645 190.918 110.934C192.322 110.223 193.953 109.867 195.812 109.867C197.161 109.867 198.401 110.068 199.531 110.469C200.661 110.87 201.637 111.517 202.457 112.41C203.277 113.303 203.915 114.488 204.371 115.965C204.827 117.423 205.055 119.228 205.055 121.379V140H195.812V121.379C195.812 120.158 195.667 119.237 195.375 118.617C195.102 117.979 194.701 117.551 194.172 117.332C193.643 117.095 193.014 116.977 192.285 116.977C191.41 116.977 190.654 117.159 190.016 117.523C189.378 117.888 188.84 118.398 188.402 119.055C187.983 119.693 187.673 120.449 187.473 121.324C187.272 122.199 187.172 123.156 187.172 124.195ZM219.629 116.102V151.375H210.414V110.414H219L219.629 116.102ZM237.785 124.852V125.426C237.785 127.577 237.539 129.573 237.047 131.414C236.555 133.255 235.826 134.859 234.859 136.227C233.893 137.594 232.69 138.66 231.25 139.426C229.828 140.173 228.178 140.547 226.301 140.547C224.533 140.547 223.01 140.155 221.734 139.371C220.458 138.587 219.392 137.503 218.535 136.117C217.678 134.732 216.986 133.146 216.457 131.359C215.928 129.573 215.509 127.686 215.199 125.699V124.961C215.509 122.828 215.928 120.85 216.457 119.027C216.986 117.186 217.678 115.582 218.535 114.215C219.392 112.848 220.449 111.781 221.707 111.016C222.983 110.25 224.505 109.867 226.273 109.867C228.151 109.867 229.801 110.223 231.223 110.934C232.663 111.645 233.866 112.665 234.832 113.996C235.816 115.309 236.555 116.885 237.047 118.727C237.539 120.568 237.785 122.609 237.785 124.852ZM228.57 125.426V124.852C228.57 123.703 228.488 122.655 228.324 121.707C228.16 120.741 227.896 119.902 227.531 119.191C227.185 118.48 226.72 117.934 226.137 117.551C225.553 117.168 224.833 116.977 223.977 116.977C222.992 116.977 222.163 117.132 221.488 117.441C220.832 117.733 220.303 118.189 219.902 118.809C219.52 119.41 219.246 120.167 219.082 121.078C218.936 121.971 218.872 123.02 218.891 124.223V126.465C218.854 127.85 218.991 129.072 219.301 130.129C219.611 131.168 220.148 131.979 220.914 132.562C221.68 133.146 222.719 133.438 224.031 133.438C224.906 133.438 225.635 133.237 226.219 132.836C226.802 132.417 227.267 131.842 227.613 131.113C227.96 130.366 228.206 129.509 228.352 128.543C228.497 127.577 228.57 126.538 228.57 125.426ZM257.391 130.621L265.676 100.188H276.422L262.996 140H256.051L257.391 130.621ZM249.871 100.188L258.156 130.621L259.551 140H252.523L239.18 100.188H249.871ZM292.035 140.547C289.629 140.547 287.478 140.173 285.582 139.426C283.686 138.66 282.082 137.612 280.77 136.281C279.475 134.951 278.482 133.419 277.789 131.688C277.115 129.956 276.777 128.124 276.777 126.191V125.152C276.777 122.983 277.078 120.978 277.68 119.137C278.281 117.277 279.174 115.655 280.359 114.27C281.544 112.884 283.03 111.809 284.816 111.043C286.603 110.259 288.681 109.867 291.051 109.867C293.147 109.867 295.025 110.204 296.684 110.879C298.342 111.553 299.746 112.52 300.895 113.777C302.061 115.035 302.945 116.557 303.547 118.344C304.167 120.13 304.477 122.135 304.477 124.359V128.105H280.305V122.336H295.48V121.625C295.499 120.641 295.326 119.802 294.961 119.109C294.615 118.417 294.104 117.888 293.43 117.523C292.755 117.159 291.935 116.977 290.969 116.977C289.966 116.977 289.137 117.195 288.48 117.633C287.842 118.07 287.341 118.672 286.977 119.438C286.63 120.185 286.384 121.051 286.238 122.035C286.092 123.02 286.02 124.059 286.02 125.152V126.191C286.02 127.285 286.165 128.279 286.457 129.172C286.767 130.065 287.204 130.831 287.77 131.469C288.353 132.089 289.046 132.572 289.848 132.918C290.668 133.264 291.598 133.438 292.637 133.438C293.895 133.438 295.134 133.201 296.355 132.727C297.577 132.253 298.625 131.469 299.5 130.375L303.684 135.352C303.082 136.208 302.225 137.038 301.113 137.84C300.02 138.642 298.707 139.298 297.176 139.809C295.645 140.301 293.931 140.547 292.035 140.547ZM317.52 117.742V140H308.305V110.414H316.918L317.52 117.742ZM326.27 110.195L326.105 118.754C325.741 118.717 325.249 118.672 324.629 118.617C324.009 118.562 323.49 118.535 323.07 118.535C321.995 118.535 321.065 118.663 320.281 118.918C319.516 119.155 318.878 119.52 318.367 120.012C317.875 120.486 317.51 121.087 317.273 121.816C317.055 122.546 316.954 123.393 316.973 124.359L315.305 123.266C315.305 121.279 315.496 119.474 315.879 117.852C316.28 116.211 316.845 114.798 317.574 113.613C318.303 112.41 319.188 111.49 320.227 110.852C321.266 110.195 322.432 109.867 323.727 109.867C324.182 109.867 324.629 109.895 325.066 109.949C325.522 110.004 325.923 110.086 326.27 110.195ZM344.945 131.688C344.945 131.177 344.772 130.74 344.426 130.375C344.098 129.992 343.514 129.646 342.676 129.336C341.837 129.008 340.661 128.68 339.148 128.352C337.708 128.042 336.35 127.632 335.074 127.121C333.816 126.611 332.714 125.991 331.766 125.262C330.818 124.533 330.07 123.667 329.523 122.664C328.995 121.661 328.73 120.513 328.73 119.219C328.73 117.961 328.995 116.776 329.523 115.664C330.07 114.534 330.863 113.54 331.902 112.684C332.96 111.809 334.245 111.125 335.758 110.633C337.271 110.122 338.993 109.867 340.926 109.867C343.587 109.867 345.884 110.277 347.816 111.098C349.749 111.9 351.234 113.03 352.273 114.488C353.331 115.928 353.859 117.596 353.859 119.492H344.645C344.645 118.745 344.517 118.107 344.262 117.578C344.025 117.049 343.633 116.648 343.086 116.375C342.539 116.083 341.81 115.938 340.898 115.938C340.26 115.938 339.677 116.056 339.148 116.293C338.638 116.53 338.228 116.858 337.918 117.277C337.608 117.697 337.453 118.189 337.453 118.754C337.453 119.155 337.544 119.52 337.727 119.848C337.927 120.158 338.228 120.449 338.629 120.723C339.03 120.978 339.54 121.215 340.16 121.434C340.78 121.634 341.527 121.816 342.402 121.98C344.389 122.345 346.249 122.865 347.98 123.539C349.712 124.214 351.116 125.171 352.191 126.41C353.285 127.65 353.832 129.318 353.832 131.414C353.832 132.727 353.531 133.939 352.93 135.051C352.328 136.145 351.462 137.111 350.332 137.949C349.202 138.77 347.844 139.408 346.258 139.863C344.672 140.319 342.885 140.547 340.898 140.547C338.073 140.547 335.685 140.046 333.734 139.043C331.784 138.022 330.307 136.746 329.305 135.215C328.32 133.665 327.828 132.098 327.828 130.512H336.414C336.451 131.423 336.669 132.171 337.07 132.754C337.49 133.337 338.046 133.766 338.738 134.039C339.431 134.312 340.233 134.449 341.145 134.449C341.983 134.449 342.676 134.331 343.223 134.094C343.788 133.857 344.216 133.538 344.508 133.137C344.799 132.717 344.945 132.234 344.945 131.688ZM372.48 140.547C370.074 140.547 367.923 140.173 366.027 139.426C364.132 138.66 362.527 137.612 361.215 136.281C359.921 134.951 358.927 133.419 358.234 131.688C357.56 129.956 357.223 128.124 357.223 126.191V125.152C357.223 122.983 357.523 120.978 358.125 119.137C358.727 117.277 359.62 115.655 360.805 114.27C361.99 112.884 363.475 111.809 365.262 111.043C367.048 110.259 369.126 109.867 371.496 109.867C373.592 109.867 375.47 110.204 377.129 110.879C378.788 111.553 380.191 112.52 381.34 113.777C382.507 115.035 383.391 116.557 383.992 118.344C384.612 120.13 384.922 122.135 384.922 124.359V128.105H360.75V122.336H375.926V121.625C375.944 120.641 375.771 119.802 375.406 119.109C375.06 118.417 374.549 117.888 373.875 117.523C373.201 117.159 372.38 116.977 371.414 116.977C370.411 116.977 369.582 117.195 368.926 117.633C368.288 118.07 367.786 118.672 367.422 119.438C367.076 120.185 366.829 121.051 366.684 122.035C366.538 123.02 366.465 124.059 366.465 125.152V126.191C366.465 127.285 366.611 128.279 366.902 129.172C367.212 130.065 367.65 130.831 368.215 131.469C368.798 132.089 369.491 132.572 370.293 132.918C371.113 133.264 372.043 133.438 373.082 133.438C374.34 133.438 375.579 133.201 376.801 132.727C378.022 132.253 379.07 131.469 379.945 130.375L384.129 135.352C383.527 136.208 382.671 137.038 381.559 137.84C380.465 138.642 379.152 139.298 377.621 139.809C376.09 140.301 374.376 140.547 372.48 140.547Z" fill="black"/>
<rect x="93" y="178" width="917" height="77" rx="10" fill="#D3D3D3"/>
<rect x="111" y="196" width="91" height="41" rx="3" fill="#424242"/>
<rect x="111" y="196" width="91" height="41" rx="3" stroke="#424242" stroke-width="4"/>
<path d="M134.141 210.203H139.177C140.161 210.203 141.017 210.35 141.743 210.643C142.47 210.936 143.029 211.369 143.422 211.943C143.82 212.518 144.02 213.227 144.02 214.07C144.02 214.803 143.905 215.415 143.677 215.907C143.448 216.399 143.129 216.807 142.719 217.129C142.314 217.445 141.843 217.706 141.304 217.911L140.293 218.482H136.065L136.048 216.101H139.177C139.569 216.101 139.895 216.03 140.152 215.89C140.41 215.749 140.604 215.55 140.732 215.292C140.867 215.028 140.935 214.715 140.935 214.352C140.935 213.982 140.867 213.666 140.732 213.402C140.598 213.139 140.398 212.937 140.135 212.796C139.877 212.655 139.558 212.585 139.177 212.585H137.226V223H134.141V210.203ZM141.146 223L138.315 217.34L141.585 217.322L144.45 222.868V223H141.146ZM150.348 223.176C149.574 223.176 148.883 223.056 148.273 222.815C147.664 222.569 147.148 222.232 146.727 221.805C146.311 221.377 145.991 220.885 145.769 220.328C145.552 219.771 145.443 219.183 145.443 218.562V218.228C145.443 217.53 145.54 216.886 145.733 216.294C145.927 215.696 146.214 215.175 146.595 214.729C146.976 214.284 147.453 213.938 148.027 213.692C148.602 213.44 149.27 213.314 150.031 213.314C150.705 213.314 151.309 213.423 151.842 213.64C152.375 213.856 152.826 214.167 153.195 214.571C153.57 214.976 153.854 215.465 154.048 216.039C154.247 216.613 154.347 217.258 154.347 217.973V219.177H146.577V217.322H151.455V217.094C151.461 216.777 151.405 216.508 151.288 216.285C151.177 216.062 151.013 215.893 150.796 215.775C150.579 215.658 150.315 215.6 150.005 215.6C149.683 215.6 149.416 215.67 149.205 215.811C149 215.951 148.839 216.145 148.722 216.391C148.61 216.631 148.531 216.909 148.484 217.226C148.438 217.542 148.414 217.876 148.414 218.228V218.562C148.414 218.913 148.461 219.232 148.555 219.52C148.654 219.807 148.795 220.053 148.977 220.258C149.164 220.457 149.387 220.612 149.645 220.724C149.908 220.835 150.207 220.891 150.541 220.891C150.945 220.891 151.344 220.814 151.736 220.662C152.129 220.51 152.466 220.258 152.747 219.906L154.092 221.506C153.898 221.781 153.623 222.048 153.266 222.306C152.914 222.563 152.492 222.774 152 222.938C151.508 223.097 150.957 223.176 150.348 223.176ZM160.49 220.609V216.689C160.49 216.42 160.452 216.188 160.376 215.995C160.3 215.802 160.18 215.652 160.016 215.547C159.852 215.436 159.632 215.38 159.356 215.38C159.134 215.38 158.943 215.418 158.785 215.494C158.627 215.57 158.507 215.685 158.425 215.837C158.343 215.989 158.302 216.183 158.302 216.417H155.34C155.34 215.978 155.437 215.57 155.63 215.195C155.829 214.814 156.11 214.483 156.474 214.202C156.843 213.921 157.282 213.704 157.792 213.552C158.308 213.394 158.882 213.314 159.515 213.314C160.271 213.314 160.944 213.44 161.536 213.692C162.134 213.944 162.605 214.322 162.951 214.826C163.297 215.324 163.47 215.951 163.47 216.707V220.601C163.47 221.222 163.505 221.693 163.575 222.016C163.646 222.332 163.745 222.61 163.874 222.851V223H160.903C160.763 222.707 160.657 222.35 160.587 221.928C160.522 221.5 160.49 221.061 160.49 220.609ZM160.851 217.19L160.868 218.772H159.559C159.283 218.772 159.049 218.811 158.855 218.887C158.668 218.963 158.516 219.068 158.398 219.203C158.287 219.332 158.205 219.479 158.152 219.643C158.105 219.807 158.082 219.979 158.082 220.161C158.082 220.337 158.123 220.495 158.205 220.636C158.293 220.771 158.41 220.876 158.557 220.952C158.703 221.028 158.867 221.066 159.049 221.066C159.377 221.066 159.655 221.005 159.884 220.882C160.118 220.753 160.297 220.598 160.42 220.416C160.543 220.234 160.604 220.064 160.604 219.906L161.255 221.119C161.138 221.354 161.003 221.591 160.851 221.831C160.704 222.071 160.52 222.294 160.297 222.499C160.08 222.698 159.813 222.862 159.497 222.991C159.181 223.114 158.797 223.176 158.346 223.176C157.76 223.176 157.221 223.056 156.729 222.815C156.242 222.575 155.853 222.241 155.56 221.813C155.267 221.38 155.12 220.882 155.12 220.319C155.12 219.827 155.208 219.388 155.384 219.001C155.565 218.614 155.838 218.286 156.201 218.017C156.564 217.747 157.027 217.542 157.59 217.401C158.152 217.261 158.814 217.19 159.576 217.19H160.851ZM169.13 220.891C169.405 220.891 169.64 220.841 169.833 220.741C170.032 220.636 170.182 220.489 170.281 220.302C170.387 220.108 170.437 219.877 170.431 219.607H173.217C173.223 220.322 173.047 220.949 172.689 221.488C172.338 222.021 171.857 222.438 171.248 222.736C170.645 223.029 169.962 223.176 169.2 223.176C168.456 223.176 167.806 223.056 167.249 222.815C166.692 222.569 166.227 222.229 165.852 221.796C165.482 221.356 165.204 220.844 165.017 220.258C164.835 219.672 164.744 219.036 164.744 218.351V218.148C164.744 217.463 164.835 216.827 165.017 216.241C165.204 215.649 165.482 215.137 165.852 214.703C166.227 214.264 166.689 213.924 167.24 213.684C167.797 213.438 168.444 213.314 169.183 213.314C169.974 213.314 170.671 213.464 171.274 213.763C171.884 214.062 172.361 214.495 172.707 215.063C173.053 215.632 173.223 216.32 173.217 217.129H170.431C170.437 216.842 170.393 216.584 170.299 216.355C170.205 216.127 170.059 215.945 169.859 215.811C169.666 215.67 169.417 215.6 169.112 215.6C168.808 215.6 168.562 215.667 168.374 215.802C168.187 215.937 168.043 216.124 167.943 216.364C167.85 216.599 167.785 216.868 167.75 217.173C167.721 217.478 167.706 217.803 167.706 218.148V218.351C167.706 218.702 167.721 219.033 167.75 219.344C167.785 219.648 167.853 219.918 167.952 220.152C168.052 220.381 168.195 220.562 168.383 220.697C168.57 220.826 168.819 220.891 169.13 220.891ZM179.492 213.49V215.547H173.762V213.49H179.492ZM174.966 211.126H177.928V219.897C177.928 220.149 177.957 220.346 178.016 220.486C178.074 220.621 178.174 220.718 178.314 220.776C178.461 220.829 178.654 220.855 178.895 220.855C179.064 220.855 179.205 220.853 179.316 220.847C179.428 220.835 179.533 220.82 179.633 220.803V222.921C179.381 223.003 179.117 223.064 178.842 223.105C178.566 223.152 178.273 223.176 177.963 223.176C177.33 223.176 176.788 223.076 176.337 222.877C175.892 222.678 175.552 222.364 175.317 221.937C175.083 221.509 174.966 220.952 174.966 220.267V211.126Z" fill="white"/>
<rect x="222" y="196" width="130" height="41" rx="3" fill="#424242"/>
<rect x="222" y="196" width="130" height="41" rx="3" stroke="#424242" stroke-width="4"/>
<path d="M253.883 220.627V223H247.062V220.627H253.883ZM248.161 210.203V223H245.076V210.203H248.161ZM253.004 215.283V217.577H247.062V215.283H253.004ZM253.909 210.203V212.585H247.062V210.203H253.909ZM257.521 213.49L258.857 216.109L260.237 213.49H263.313L260.817 218.122L263.445 223H260.343L258.857 220.188L257.381 223H254.278L256.906 218.122L254.419 213.49H257.521ZM267.277 215.318V226.656H264.315V213.49H267.075L267.277 215.318ZM273.113 218.131V218.315C273.113 219.007 273.034 219.648 272.876 220.24C272.718 220.832 272.483 221.348 272.173 221.787C271.862 222.227 271.476 222.569 271.013 222.815C270.556 223.056 270.025 223.176 269.422 223.176C268.854 223.176 268.364 223.05 267.954 222.798C267.544 222.546 267.201 222.197 266.926 221.752C266.65 221.307 266.428 220.797 266.258 220.223C266.088 219.648 265.953 219.042 265.854 218.403V218.166C265.953 217.48 266.088 216.845 266.258 216.259C266.428 215.667 266.65 215.151 266.926 214.712C267.201 214.272 267.541 213.93 267.945 213.684C268.355 213.438 268.845 213.314 269.413 213.314C270.017 213.314 270.547 213.429 271.004 213.657C271.467 213.886 271.854 214.214 272.164 214.642C272.48 215.063 272.718 215.57 272.876 216.162C273.034 216.754 273.113 217.41 273.113 218.131ZM270.151 218.315V218.131C270.151 217.762 270.125 217.425 270.072 217.12C270.02 216.81 269.935 216.54 269.817 216.312C269.706 216.083 269.557 215.907 269.369 215.784C269.182 215.661 268.95 215.6 268.675 215.6C268.358 215.6 268.092 215.649 267.875 215.749C267.664 215.843 267.494 215.989 267.365 216.188C267.242 216.382 267.154 216.625 267.102 216.918C267.055 217.205 267.034 217.542 267.04 217.929V218.649C267.028 219.095 267.072 219.487 267.172 219.827C267.271 220.161 267.444 220.422 267.69 220.609C267.937 220.797 268.271 220.891 268.692 220.891C268.974 220.891 269.208 220.826 269.396 220.697C269.583 220.562 269.732 220.378 269.844 220.144C269.955 219.903 270.034 219.628 270.081 219.317C270.128 219.007 270.151 218.673 270.151 218.315ZM277.42 215.846V223H274.458V213.49H277.227L277.42 215.846ZM280.232 213.42L280.18 216.171C280.062 216.159 279.904 216.145 279.705 216.127C279.506 216.109 279.339 216.101 279.204 216.101C278.858 216.101 278.56 216.142 278.308 216.224C278.062 216.3 277.856 216.417 277.692 216.575C277.534 216.728 277.417 216.921 277.341 217.155C277.271 217.39 277.238 217.662 277.244 217.973L276.708 217.621C276.708 216.982 276.77 216.402 276.893 215.881C277.021 215.354 277.203 214.899 277.438 214.519C277.672 214.132 277.956 213.836 278.29 213.631C278.624 213.42 278.999 213.314 279.415 213.314C279.562 213.314 279.705 213.323 279.846 213.341C279.992 213.358 280.121 213.385 280.232 213.42ZM285.682 223.176C284.908 223.176 284.217 223.056 283.607 222.815C282.998 222.569 282.482 222.232 282.061 221.805C281.645 221.377 281.325 220.885 281.103 220.328C280.886 219.771 280.777 219.183 280.777 218.562V218.228C280.777 217.53 280.874 216.886 281.067 216.294C281.261 215.696 281.548 215.175 281.929 214.729C282.31 214.284 282.787 213.938 283.361 213.692C283.936 213.44 284.604 213.314 285.365 213.314C286.039 213.314 286.643 213.423 287.176 213.64C287.709 213.856 288.16 214.167 288.529 214.571C288.904 214.976 289.188 215.465 289.382 216.039C289.581 216.613 289.681 217.258 289.681 217.973V219.177H281.911V217.322H286.789V217.094C286.795 216.777 286.739 216.508 286.622 216.285C286.511 216.062 286.347 215.893 286.13 215.775C285.913 215.658 285.649 215.6 285.339 215.6C285.017 215.6 284.75 215.67 284.539 215.811C284.334 215.951 284.173 216.145 284.056 216.391C283.944 216.631 283.865 216.909 283.818 217.226C283.771 217.542 283.748 217.876 283.748 218.228V218.562C283.748 218.913 283.795 219.232 283.889 219.52C283.988 219.807 284.129 220.053 284.311 220.258C284.498 220.457 284.721 220.612 284.979 220.724C285.242 220.835 285.541 220.891 285.875 220.891C286.279 220.891 286.678 220.814 287.07 220.662C287.463 220.51 287.8 220.258 288.081 219.906L289.426 221.506C289.232 221.781 288.957 222.048 288.6 222.306C288.248 222.563 287.826 222.774 287.334 222.938C286.842 223.097 286.291 223.176 285.682 223.176ZM295.868 220.328C295.868 220.164 295.812 220.023 295.701 219.906C295.596 219.783 295.408 219.672 295.139 219.572C294.869 219.467 294.491 219.361 294.005 219.256C293.542 219.156 293.105 219.024 292.695 218.86C292.291 218.696 291.937 218.497 291.632 218.263C291.327 218.028 291.087 217.75 290.911 217.428C290.741 217.105 290.656 216.736 290.656 216.32C290.656 215.916 290.741 215.535 290.911 215.178C291.087 214.814 291.342 214.495 291.676 214.22C292.016 213.938 292.429 213.719 292.915 213.561C293.401 213.396 293.955 213.314 294.576 213.314C295.432 213.314 296.17 213.446 296.791 213.71C297.412 213.968 297.89 214.331 298.224 214.8C298.563 215.263 298.733 215.799 298.733 216.408H295.771C295.771 216.168 295.73 215.963 295.648 215.793C295.572 215.623 295.446 215.494 295.271 215.406C295.095 215.312 294.86 215.266 294.567 215.266C294.362 215.266 294.175 215.304 294.005 215.38C293.841 215.456 293.709 215.562 293.609 215.696C293.51 215.831 293.46 215.989 293.46 216.171C293.46 216.3 293.489 216.417 293.548 216.522C293.612 216.622 293.709 216.716 293.838 216.804C293.967 216.886 294.131 216.962 294.33 217.032C294.529 217.097 294.77 217.155 295.051 217.208C295.689 217.325 296.287 217.492 296.844 217.709C297.4 217.926 297.852 218.233 298.197 218.632C298.549 219.03 298.725 219.566 298.725 220.24C298.725 220.662 298.628 221.052 298.435 221.409C298.241 221.761 297.963 222.071 297.6 222.341C297.236 222.604 296.8 222.81 296.29 222.956C295.78 223.103 295.206 223.176 294.567 223.176C293.659 223.176 292.892 223.015 292.265 222.692C291.638 222.364 291.163 221.954 290.841 221.462C290.524 220.964 290.366 220.46 290.366 219.95H293.126C293.138 220.243 293.208 220.483 293.337 220.671C293.472 220.858 293.65 220.996 293.873 221.084C294.096 221.172 294.354 221.216 294.646 221.216C294.916 221.216 295.139 221.178 295.314 221.102C295.496 221.025 295.634 220.923 295.728 220.794C295.821 220.659 295.868 220.504 295.868 220.328ZM305.097 220.328C305.097 220.164 305.041 220.023 304.93 219.906C304.824 219.783 304.637 219.672 304.367 219.572C304.098 219.467 303.72 219.361 303.233 219.256C302.771 219.156 302.334 219.024 301.924 218.86C301.52 218.696 301.165 218.497 300.86 218.263C300.556 218.028 300.315 217.75 300.14 217.428C299.97 217.105 299.885 216.736 299.885 216.32C299.885 215.916 299.97 215.535 300.14 215.178C300.315 214.814 300.57 214.495 300.904 214.22C301.244 213.938 301.657 213.719 302.144 213.561C302.63 213.396 303.184 213.314 303.805 213.314C304.66 213.314 305.398 213.446 306.02 213.71C306.641 213.968 307.118 214.331 307.452 214.8C307.792 215.263 307.962 215.799 307.962 216.408H305C305 216.168 304.959 215.963 304.877 215.793C304.801 215.623 304.675 215.494 304.499 215.406C304.323 215.312 304.089 215.266 303.796 215.266C303.591 215.266 303.403 215.304 303.233 215.38C303.069 215.456 302.938 215.562 302.838 215.696C302.738 215.831 302.688 215.989 302.688 216.171C302.688 216.3 302.718 216.417 302.776 216.522C302.841 216.622 302.938 216.716 303.066 216.804C303.195 216.886 303.359 216.962 303.559 217.032C303.758 217.097 303.998 217.155 304.279 217.208C304.918 217.325 305.516 217.492 306.072 217.709C306.629 217.926 307.08 218.233 307.426 218.632C307.777 219.03 307.953 219.566 307.953 220.24C307.953 220.662 307.856 221.052 307.663 221.409C307.47 221.761 307.191 222.071 306.828 222.341C306.465 222.604 306.028 222.81 305.519 222.956C305.009 223.103 304.435 223.176 303.796 223.176C302.888 223.176 302.12 223.015 301.493 222.692C300.866 222.364 300.392 221.954 300.069 221.462C299.753 220.964 299.595 220.46 299.595 219.95H302.354C302.366 220.243 302.437 220.483 302.565 220.671C302.7 220.858 302.879 220.996 303.102 221.084C303.324 221.172 303.582 221.216 303.875 221.216C304.145 221.216 304.367 221.178 304.543 221.102C304.725 221.025 304.862 220.923 304.956 220.794C305.05 220.659 305.097 220.504 305.097 220.328ZM314.571 218.983V210.203H317.647V218.983C317.647 219.839 317.451 220.58 317.059 221.207C316.672 221.834 316.145 222.32 315.477 222.666C314.814 223.006 314.07 223.176 313.244 223.176C312.389 223.176 311.627 223.032 310.959 222.745C310.297 222.458 309.775 222.016 309.395 221.418C309.02 220.82 308.832 220.059 308.832 219.133H311.926C311.926 219.566 311.976 219.906 312.075 220.152C312.175 220.393 312.321 220.562 312.515 220.662C312.714 220.756 312.957 220.803 313.244 220.803C313.525 220.803 313.763 220.732 313.956 220.592C314.155 220.445 314.308 220.237 314.413 219.968C314.519 219.692 314.571 219.364 314.571 218.983ZM326.199 219.599C326.199 219.399 326.17 219.221 326.111 219.062C326.053 218.898 325.944 218.746 325.786 218.605C325.628 218.465 325.399 218.324 325.101 218.184C324.808 218.037 324.421 217.885 323.94 217.727C323.378 217.539 322.836 217.328 322.314 217.094C321.793 216.854 321.327 216.575 320.917 216.259C320.507 215.937 320.182 215.562 319.941 215.134C319.701 214.7 319.581 214.196 319.581 213.622C319.581 213.071 319.704 212.576 319.95 212.137C320.196 211.691 320.539 211.313 320.979 211.003C321.424 210.687 321.945 210.446 322.543 210.282C323.141 210.112 323.794 210.027 324.503 210.027C325.44 210.027 326.267 210.191 326.981 210.52C327.702 210.842 328.265 211.302 328.669 211.899C329.079 212.491 329.284 213.191 329.284 214H326.217C326.217 213.678 326.149 213.394 326.015 213.147C325.886 212.901 325.689 212.708 325.426 212.567C325.162 212.427 324.831 212.356 324.433 212.356C324.046 212.356 323.721 212.415 323.457 212.532C323.193 212.649 322.994 212.808 322.859 213.007C322.725 213.2 322.657 213.414 322.657 213.648C322.657 213.842 322.71 214.018 322.815 214.176C322.927 214.328 323.082 214.472 323.281 214.606C323.486 214.741 323.732 214.87 324.02 214.993C324.312 215.116 324.641 215.236 325.004 215.354C325.684 215.57 326.287 215.813 326.814 216.083C327.348 216.347 327.796 216.648 328.159 216.988C328.528 217.322 328.807 217.703 328.994 218.131C329.188 218.559 329.284 219.042 329.284 219.581C329.284 220.155 329.173 220.665 328.95 221.11C328.728 221.556 328.408 221.934 327.992 222.244C327.576 222.549 327.078 222.78 326.498 222.938C325.918 223.097 325.271 223.176 324.556 223.176C323.899 223.176 323.252 223.094 322.613 222.93C321.98 222.76 321.406 222.502 320.891 222.156C320.375 221.805 319.962 221.356 319.651 220.812C319.347 220.261 319.194 219.607 319.194 218.852H322.288C322.288 219.227 322.338 219.543 322.438 219.801C322.537 220.059 322.684 220.267 322.877 220.425C323.07 220.577 323.308 220.688 323.589 220.759C323.87 220.823 324.192 220.855 324.556 220.855C324.948 220.855 325.265 220.8 325.505 220.688C325.745 220.571 325.921 220.419 326.032 220.231C326.144 220.038 326.199 219.827 326.199 219.599Z" fill="white"/>
<rect x="372" y="196" width="109" height="41" rx="3" fill="#424242"/>
<rect x="372" y="196" width="109" height="41" rx="3" stroke="#424242" stroke-width="4"/>
<path d="M406.118 210.203V223H403.042L398.516 215.037V223H395.431V210.203H398.516L403.042 218.166V210.203H406.118ZM407.56 218.342V218.157C407.56 217.46 407.659 216.818 407.858 216.232C408.058 215.641 408.351 215.128 408.737 214.694C409.124 214.261 409.602 213.924 410.17 213.684C410.738 213.438 411.395 213.314 412.139 213.314C412.889 213.314 413.548 213.438 414.116 213.684C414.69 213.924 415.171 214.261 415.558 214.694C415.944 215.128 416.237 215.641 416.437 216.232C416.636 216.818 416.735 217.46 416.735 218.157V218.342C416.735 219.033 416.636 219.675 416.437 220.267C416.237 220.853 415.944 221.365 415.558 221.805C415.171 222.238 414.693 222.575 414.125 222.815C413.557 223.056 412.9 223.176 412.156 223.176C411.412 223.176 410.753 223.056 410.179 222.815C409.604 222.575 409.124 222.238 408.737 221.805C408.351 221.365 408.058 220.853 407.858 220.267C407.659 219.675 407.56 219.033 407.56 218.342ZM410.521 218.157V218.342C410.521 218.699 410.548 219.033 410.601 219.344C410.653 219.654 410.741 219.927 410.864 220.161C410.987 220.39 411.154 220.568 411.365 220.697C411.576 220.826 411.84 220.891 412.156 220.891C412.467 220.891 412.725 220.826 412.93 220.697C413.141 220.568 413.308 220.39 413.431 220.161C413.554 219.927 413.642 219.654 413.694 219.344C413.747 219.033 413.773 218.699 413.773 218.342V218.157C413.773 217.812 413.747 217.486 413.694 217.182C413.642 216.871 413.554 216.599 413.431 216.364C413.308 216.124 413.141 215.937 412.93 215.802C412.719 215.667 412.455 215.6 412.139 215.6C411.828 215.6 411.567 215.667 411.356 215.802C411.151 215.937 410.987 216.124 410.864 216.364C410.741 216.599 410.653 216.871 410.601 217.182C410.548 217.486 410.521 217.812 410.521 218.157ZM423.521 220.82V209.5H426.5V223H423.828L423.521 220.82ZM417.685 218.359V218.175C417.685 217.454 417.764 216.798 417.922 216.206C418.08 215.608 418.314 215.096 418.625 214.668C418.936 214.234 419.322 213.9 419.785 213.666C420.248 213.432 420.781 213.314 421.385 213.314C421.924 213.314 422.396 213.44 422.8 213.692C423.204 213.938 423.55 214.284 423.837 214.729C424.124 215.175 424.358 215.696 424.54 216.294C424.722 216.886 424.859 217.524 424.953 218.21V218.43C424.859 219.074 424.722 219.684 424.54 220.258C424.358 220.826 424.124 221.33 423.837 221.77C423.55 222.209 423.201 222.555 422.791 222.807C422.387 223.053 421.912 223.176 421.367 223.176C420.764 223.176 420.23 223.056 419.768 222.815C419.311 222.575 418.927 222.238 418.616 221.805C418.312 221.371 418.08 220.861 417.922 220.275C417.764 219.689 417.685 219.051 417.685 218.359ZM420.646 218.175V218.359C420.646 218.717 420.67 219.048 420.717 219.353C420.764 219.657 420.843 219.927 420.954 220.161C421.071 220.39 421.224 220.568 421.411 220.697C421.604 220.826 421.842 220.891 422.123 220.891C422.504 220.891 422.817 220.8 423.063 220.618C423.315 220.437 423.5 220.179 423.617 219.845C423.74 219.511 423.793 219.118 423.775 218.667V217.973C423.787 217.586 423.761 217.246 423.696 216.953C423.632 216.654 423.529 216.405 423.389 216.206C423.254 216.007 423.081 215.857 422.87 215.758C422.665 215.652 422.422 215.6 422.141 215.6C421.865 215.6 421.631 215.664 421.438 215.793C421.25 215.922 421.098 216.104 420.98 216.338C420.863 216.566 420.778 216.839 420.726 217.155C420.673 217.466 420.646 217.806 420.646 218.175ZM432.784 223.176C432.011 223.176 431.319 223.056 430.71 222.815C430.101 222.569 429.585 222.232 429.163 221.805C428.747 221.377 428.428 220.885 428.205 220.328C427.988 219.771 427.88 219.183 427.88 218.562V218.228C427.88 217.53 427.977 216.886 428.17 216.294C428.363 215.696 428.65 215.175 429.031 214.729C429.412 214.284 429.89 213.938 430.464 213.692C431.038 213.44 431.706 213.314 432.468 213.314C433.142 213.314 433.745 213.423 434.278 213.64C434.812 213.856 435.263 214.167 435.632 214.571C436.007 214.976 436.291 215.465 436.484 216.039C436.684 216.613 436.783 217.258 436.783 217.973V219.177H429.014V217.322H433.892V217.094C433.897 216.777 433.842 216.508 433.725 216.285C433.613 216.062 433.449 215.893 433.232 215.775C433.016 215.658 432.752 215.6 432.441 215.6C432.119 215.6 431.853 215.67 431.642 215.811C431.437 215.951 431.275 216.145 431.158 216.391C431.047 216.631 430.968 216.909 430.921 217.226C430.874 217.542 430.851 217.876 430.851 218.228V218.562C430.851 218.913 430.897 219.232 430.991 219.52C431.091 219.807 431.231 220.053 431.413 220.258C431.601 220.457 431.823 220.612 432.081 220.724C432.345 220.835 432.644 220.891 432.978 220.891C433.382 220.891 433.78 220.814 434.173 220.662C434.565 220.51 434.902 220.258 435.184 219.906L436.528 221.506C436.335 221.781 436.06 222.048 435.702 222.306C435.351 222.563 434.929 222.774 434.437 222.938C433.944 223.097 433.394 223.176 432.784 223.176ZM443.217 218.983V210.203H446.293V218.983C446.293 219.839 446.097 220.58 445.704 221.207C445.317 221.834 444.79 222.32 444.122 222.666C443.46 223.006 442.716 223.176 441.89 223.176C441.034 223.176 440.272 223.032 439.604 222.745C438.942 222.458 438.421 222.016 438.04 221.418C437.665 220.82 437.478 220.059 437.478 219.133H440.571C440.571 219.566 440.621 219.906 440.721 220.152C440.82 220.393 440.967 220.562 441.16 220.662C441.359 220.756 441.603 220.803 441.89 220.803C442.171 220.803 442.408 220.732 442.602 220.592C442.801 220.445 442.953 220.237 443.059 219.968C443.164 219.692 443.217 219.364 443.217 218.983ZM454.845 219.599C454.845 219.399 454.815 219.221 454.757 219.062C454.698 218.898 454.59 218.746 454.432 218.605C454.273 218.465 454.045 218.324 453.746 218.184C453.453 218.037 453.066 217.885 452.586 217.727C452.023 217.539 451.481 217.328 450.96 217.094C450.438 216.854 449.973 216.575 449.562 216.259C449.152 215.937 448.827 215.562 448.587 215.134C448.347 214.7 448.227 214.196 448.227 213.622C448.227 213.071 448.35 212.576 448.596 212.137C448.842 211.691 449.185 211.313 449.624 211.003C450.069 210.687 450.591 210.446 451.188 210.282C451.786 210.112 452.439 210.027 453.148 210.027C454.086 210.027 454.912 210.191 455.627 210.52C456.348 210.842 456.91 211.302 457.314 211.899C457.725 212.491 457.93 213.191 457.93 214H454.862C454.862 213.678 454.795 213.394 454.66 213.147C454.531 212.901 454.335 212.708 454.071 212.567C453.808 212.427 453.477 212.356 453.078 212.356C452.691 212.356 452.366 212.415 452.103 212.532C451.839 212.649 451.64 212.808 451.505 213.007C451.37 213.2 451.303 213.414 451.303 213.648C451.303 213.842 451.355 214.018 451.461 214.176C451.572 214.328 451.728 214.472 451.927 214.606C452.132 214.741 452.378 214.87 452.665 214.993C452.958 215.116 453.286 215.236 453.649 215.354C454.329 215.57 454.933 215.813 455.46 216.083C455.993 216.347 456.441 216.648 456.805 216.988C457.174 217.322 457.452 217.703 457.64 218.131C457.833 218.559 457.93 219.042 457.93 219.581C457.93 220.155 457.818 220.665 457.596 221.11C457.373 221.556 457.054 221.934 456.638 222.244C456.222 222.549 455.724 222.78 455.144 222.938C454.563 223.097 453.916 223.176 453.201 223.176C452.545 223.176 451.897 223.094 451.259 222.93C450.626 222.76 450.052 222.502 449.536 222.156C449.021 221.805 448.607 221.356 448.297 220.812C447.992 220.261 447.84 219.607 447.84 218.852H450.934C450.934 219.227 450.983 219.543 451.083 219.801C451.183 220.059 451.329 220.267 451.522 220.425C451.716 220.577 451.953 220.688 452.234 220.759C452.516 220.823 452.838 220.855 453.201 220.855C453.594 220.855 453.91 220.8 454.15 220.688C454.391 220.571 454.566 220.419 454.678 220.231C454.789 220.038 454.845 219.827 454.845 219.599Z" fill="white"/>
<rect x="501" y="196" width="124" height="41" rx="3" fill="#424242"/>
<rect x="501" y="196" width="124" height="41" rx="3" stroke="#424242" stroke-width="4"/>
<path d="M525.585 210.203H528.099L530.955 219.106L533.812 210.203H536.325L531.975 223H529.936L525.585 210.203ZM524.056 210.203H526.657L527.141 220.012V223H524.056V210.203ZM535.253 210.203H537.863V223H534.77V220.012L535.253 210.203ZM539.331 218.342V218.157C539.331 217.46 539.431 216.818 539.63 216.232C539.829 215.641 540.122 215.128 540.509 214.694C540.896 214.261 541.373 213.924 541.941 213.684C542.51 213.438 543.166 213.314 543.91 213.314C544.66 213.314 545.319 213.438 545.888 213.684C546.462 213.924 546.942 214.261 547.329 214.694C547.716 215.128 548.009 215.641 548.208 216.232C548.407 216.818 548.507 217.46 548.507 218.157V218.342C548.507 219.033 548.407 219.675 548.208 220.267C548.009 220.853 547.716 221.365 547.329 221.805C546.942 222.238 546.465 222.575 545.896 222.815C545.328 223.056 544.672 223.176 543.928 223.176C543.184 223.176 542.524 223.056 541.95 222.815C541.376 222.575 540.896 222.238 540.509 221.805C540.122 221.365 539.829 220.853 539.63 220.267C539.431 219.675 539.331 219.033 539.331 218.342ZM542.293 218.157V218.342C542.293 218.699 542.319 219.033 542.372 219.344C542.425 219.654 542.513 219.927 542.636 220.161C542.759 220.39 542.926 220.568 543.137 220.697C543.348 220.826 543.611 220.891 543.928 220.891C544.238 220.891 544.496 220.826 544.701 220.697C544.912 220.568 545.079 220.39 545.202 220.161C545.325 219.927 545.413 219.654 545.466 219.344C545.519 219.033 545.545 218.699 545.545 218.342V218.157C545.545 217.812 545.519 217.486 545.466 217.182C545.413 216.871 545.325 216.599 545.202 216.364C545.079 216.124 544.912 215.937 544.701 215.802C544.49 215.667 544.227 215.6 543.91 215.6C543.6 215.6 543.339 215.667 543.128 215.802C542.923 215.937 542.759 216.124 542.636 216.364C542.513 216.599 542.425 216.871 542.372 217.182C542.319 217.486 542.293 217.812 542.293 218.157ZM552.734 215.521V223H549.772V213.49H552.55L552.734 215.521ZM552.383 217.92L551.688 217.938C551.688 217.211 551.776 216.563 551.952 215.995C552.128 215.421 552.377 214.935 552.699 214.536C553.021 214.138 553.405 213.836 553.851 213.631C554.302 213.42 554.803 213.314 555.354 213.314C555.793 213.314 556.194 213.379 556.558 213.508C556.927 213.637 557.243 213.845 557.507 214.132C557.776 214.419 557.981 214.8 558.122 215.274C558.269 215.743 558.342 216.323 558.342 217.015V223H555.362V217.006C555.362 216.625 555.31 216.335 555.204 216.136C555.099 215.931 554.946 215.79 554.747 215.714C554.548 215.638 554.305 215.6 554.018 215.6C553.713 215.6 553.455 215.658 553.244 215.775C553.033 215.893 552.863 216.057 552.734 216.268C552.611 216.473 552.521 216.716 552.462 216.997C552.409 217.278 552.383 217.586 552.383 217.92ZM565.962 213.49H568.651V222.631C568.651 223.51 568.449 224.254 568.045 224.863C567.641 225.479 567.075 225.944 566.349 226.261C565.628 226.583 564.784 226.744 563.817 226.744C563.39 226.744 562.953 226.688 562.508 226.577C562.062 226.472 561.646 226.313 561.26 226.103C560.873 225.892 560.548 225.631 560.284 225.32L561.523 223.58C561.764 223.85 562.065 224.078 562.429 224.266C562.792 224.459 563.22 224.556 563.712 224.556C564.14 224.556 564.497 224.479 564.784 224.327C565.077 224.175 565.3 223.952 565.452 223.659C565.604 223.372 565.681 223.023 565.681 222.613V215.74L565.962 213.49ZM559.643 218.359V218.175C559.643 217.454 559.73 216.798 559.906 216.206C560.088 215.608 560.346 215.096 560.68 214.668C561.02 214.234 561.43 213.9 561.91 213.666C562.391 213.432 562.933 213.314 563.536 213.314C564.187 213.314 564.72 213.44 565.136 213.692C565.558 213.938 565.895 214.284 566.146 214.729C566.404 215.175 566.604 215.696 566.744 216.294C566.891 216.886 567.014 217.524 567.113 218.21V218.43C567.014 219.074 566.876 219.684 566.7 220.258C566.53 220.826 566.308 221.33 566.032 221.77C565.757 222.209 565.411 222.555 564.995 222.807C564.585 223.053 564.093 223.176 563.519 223.176C562.921 223.176 562.382 223.056 561.901 222.815C561.427 222.575 561.02 222.238 560.68 221.805C560.346 221.371 560.088 220.861 559.906 220.275C559.73 219.689 559.643 219.051 559.643 218.359ZM562.604 218.175V218.359C562.604 218.717 562.637 219.048 562.701 219.353C562.771 219.657 562.877 219.927 563.018 220.161C563.158 220.39 563.331 220.568 563.536 220.697C563.747 220.826 563.993 220.891 564.274 220.891C564.702 220.891 565.048 220.8 565.312 220.618C565.575 220.437 565.766 220.179 565.883 219.845C566 219.511 566.05 219.118 566.032 218.667V217.973C566.044 217.586 566.018 217.246 565.953 216.953C565.889 216.654 565.786 216.405 565.646 216.206C565.511 216.007 565.329 215.857 565.101 215.758C564.878 215.652 564.608 215.6 564.292 215.6C564.017 215.6 563.773 215.664 563.562 215.793C563.352 215.922 563.176 216.104 563.035 216.338C562.895 216.566 562.786 216.839 562.71 217.155C562.64 217.466 562.604 217.806 562.604 218.175ZM569.987 218.342V218.157C569.987 217.46 570.087 216.818 570.286 216.232C570.485 215.641 570.778 215.128 571.165 214.694C571.552 214.261 572.029 213.924 572.598 213.684C573.166 213.438 573.822 213.314 574.566 213.314C575.316 213.314 575.976 213.438 576.544 213.684C577.118 213.924 577.599 214.261 577.985 214.694C578.372 215.128 578.665 215.641 578.864 216.232C579.063 216.818 579.163 217.46 579.163 218.157V218.342C579.163 219.033 579.063 219.675 578.864 220.267C578.665 220.853 578.372 221.365 577.985 221.805C577.599 222.238 577.121 222.575 576.553 222.815C575.984 223.056 575.328 223.176 574.584 223.176C573.84 223.176 573.181 223.056 572.606 222.815C572.032 222.575 571.552 222.238 571.165 221.805C570.778 221.365 570.485 220.853 570.286 220.267C570.087 219.675 569.987 219.033 569.987 218.342ZM572.949 218.157V218.342C572.949 218.699 572.976 219.033 573.028 219.344C573.081 219.654 573.169 219.927 573.292 220.161C573.415 220.39 573.582 220.568 573.793 220.697C574.004 220.826 574.268 220.891 574.584 220.891C574.895 220.891 575.152 220.826 575.357 220.697C575.568 220.568 575.735 220.39 575.858 220.161C575.981 219.927 576.069 219.654 576.122 219.344C576.175 219.033 576.201 218.699 576.201 218.342V218.157C576.201 217.812 576.175 217.486 576.122 217.182C576.069 216.871 575.981 216.599 575.858 216.364C575.735 216.124 575.568 215.937 575.357 215.802C575.146 215.667 574.883 215.6 574.566 215.6C574.256 215.6 573.995 215.667 573.784 215.802C573.579 215.937 573.415 216.124 573.292 216.364C573.169 216.599 573.081 216.871 573.028 217.182C572.976 217.486 572.949 217.812 572.949 218.157ZM584.779 223H581.94L581.958 220.627H584.779C585.365 220.627 585.86 220.486 586.265 220.205C586.675 219.924 586.985 219.505 587.196 218.948C587.413 218.386 587.521 217.694 587.521 216.874V216.32C587.521 215.705 587.46 215.166 587.337 214.703C587.22 214.234 587.044 213.845 586.81 213.534C586.575 213.218 586.282 212.98 585.931 212.822C585.585 212.664 585.187 212.585 584.735 212.585H581.888V210.203H584.735C585.603 210.203 586.396 210.353 587.117 210.651C587.844 210.944 588.471 211.366 588.998 211.917C589.531 212.462 589.941 213.109 590.229 213.859C590.521 214.604 590.668 215.43 590.668 216.338V216.874C590.668 217.776 590.521 218.603 590.229 219.353C589.941 220.103 589.534 220.75 589.007 221.295C588.479 221.84 587.855 222.262 587.135 222.561C586.42 222.854 585.635 223 584.779 223ZM583.707 210.203V223H580.622V210.203H583.707ZM597.497 217.56H594.201L594.184 215.538H596.855C597.336 215.538 597.72 215.485 598.007 215.38C598.294 215.269 598.502 215.107 598.631 214.896C598.766 214.686 598.833 214.422 598.833 214.105C598.833 213.742 598.766 213.449 598.631 213.227C598.496 213.004 598.282 212.843 597.989 212.743C597.702 212.638 597.33 212.585 596.873 212.585H595.361V223H592.276V210.203H596.873C597.664 210.203 598.37 210.276 598.991 210.423C599.612 210.563 600.14 210.78 600.573 211.073C601.013 211.366 601.347 211.735 601.575 212.181C601.804 212.62 601.918 213.139 601.918 213.736C601.918 214.258 601.807 214.747 601.584 215.204C601.361 215.661 600.989 216.033 600.468 216.32C599.952 216.602 599.246 216.748 598.35 216.76L597.497 217.56ZM597.374 223H593.454L594.509 220.627H597.374C597.796 220.627 598.133 220.562 598.385 220.434C598.643 220.299 598.827 220.123 598.938 219.906C599.056 219.684 599.114 219.438 599.114 219.168C599.114 218.84 599.059 218.556 598.947 218.315C598.842 218.075 598.672 217.891 598.438 217.762C598.203 217.627 597.89 217.56 597.497 217.56H594.904L594.922 215.538H598.024L598.745 216.347C599.601 216.312 600.277 216.432 600.775 216.707C601.279 216.982 601.64 217.346 601.856 217.797C602.073 218.248 602.182 218.72 602.182 219.212C602.182 220.05 602 220.75 601.637 221.312C601.279 221.875 600.743 222.297 600.028 222.578C599.313 222.859 598.429 223 597.374 223Z" fill="white"/>
<path d="M1066 0H1348C1356.28 0 1363 6.71573 1363 15V282C1363 290.284 1356.28 297 1348 297H1066V0Z" fill="white"/>
</svg>
