<svg width="1363" height="163" viewBox="0 0 1363 163" fill="none" xmlns="http://www.w3.org/2000/svg">
<path d="M0 15C0 6.71573 6.71573 0 15 0H37V163H15C6.71573 163 0 156.284 0 148V15Z" fill="#424242"/>
<rect width="1097" height="163" transform="translate(37)" fill="#F0F0F0"/>
<path d="M101.906 53.9219L94.3945 51.2383V48.0859L104.602 52.375V54.6367L101.906 53.9219ZM94.3945 56.1719L101.918 53.4297L104.602 52.7852V55.0352L94.3945 59.3242V56.1719ZM122.789 55.3398H126.293C126.223 56.4883 125.906 57.5078 125.344 58.3984C124.789 59.2891 124.012 59.9844 123.012 60.4844C122.02 60.9844 120.824 61.2344 119.426 61.2344C118.332 61.2344 117.352 61.0469 116.484 60.6719C115.617 60.2891 114.875 59.7422 114.258 59.0312C113.648 58.3203 113.184 57.4609 112.863 56.4531C112.543 55.4453 112.383 54.3164 112.383 53.0664V51.8828C112.383 50.6328 112.547 49.5039 112.875 48.4961C113.211 47.4805 113.688 46.6172 114.305 45.9062C114.93 45.1953 115.676 44.6484 116.543 44.2656C117.41 43.8828 118.379 43.6914 119.449 43.6914C120.871 43.6914 122.07 43.9492 123.047 44.4648C124.031 44.9805 124.793 45.6914 125.332 46.5977C125.879 47.5039 126.207 48.5352 126.316 49.6914H122.801C122.762 49.0039 122.625 48.4219 122.391 47.9453C122.156 47.4609 121.801 47.0977 121.324 46.8555C120.855 46.6055 120.23 46.4805 119.449 46.4805C118.863 46.4805 118.352 46.5898 117.914 46.8086C117.477 47.0273 117.109 47.3594 116.812 47.8047C116.516 48.25 116.293 48.8125 116.145 49.4922C116.004 50.1641 115.934 50.9531 115.934 51.8594V53.0664C115.934 53.9492 116 54.7266 116.133 55.3984C116.266 56.0625 116.469 56.625 116.742 57.0859C117.023 57.5391 117.383 57.8828 117.82 58.1172C118.266 58.3438 118.801 58.457 119.426 58.457C120.16 58.457 120.766 58.3398 121.242 58.1055C121.719 57.8711 122.082 57.5234 122.332 57.0625C122.59 56.6016 122.742 56.0273 122.789 55.3398ZM135.234 58.1406V52.4922C135.234 52.0859 135.168 51.7383 135.035 51.4492C134.902 51.1523 134.695 50.9219 134.414 50.7578C134.141 50.5938 133.785 50.5117 133.348 50.5117C132.973 50.5117 132.648 50.5781 132.375 50.7109C132.102 50.8359 131.891 51.0195 131.742 51.2617C131.594 51.4961 131.52 51.7734 131.52 52.0938H128.145C128.145 51.5547 128.27 51.043 128.52 50.5586C128.77 50.0742 129.133 49.6484 129.609 49.2812C130.086 48.9062 130.652 48.6133 131.309 48.4023C131.973 48.1914 132.715 48.0859 133.535 48.0859C134.52 48.0859 135.395 48.25 136.16 48.5781C136.926 48.9062 137.527 49.3984 137.965 50.0547C138.41 50.7109 138.633 51.5312 138.633 52.5156V57.9414C138.633 58.6367 138.676 59.207 138.762 59.6523C138.848 60.0898 138.973 60.4727 139.137 60.8008V61H135.727C135.562 60.6562 135.438 60.2266 135.352 59.7109C135.273 59.1875 135.234 58.6641 135.234 58.1406ZM135.68 53.2773L135.703 55.1875H133.816C133.371 55.1875 132.984 55.2383 132.656 55.3398C132.328 55.4414 132.059 55.5859 131.848 55.7734C131.637 55.9531 131.48 56.1641 131.379 56.4062C131.285 56.6484 131.238 56.9141 131.238 57.2031C131.238 57.4922 131.305 57.7539 131.438 57.9883C131.57 58.2148 131.762 58.3945 132.012 58.5273C132.262 58.6523 132.555 58.7148 132.891 58.7148C133.398 58.7148 133.84 58.6133 134.215 58.4102C134.59 58.207 134.879 57.957 135.082 57.6602C135.293 57.3633 135.402 57.082 135.41 56.8164L136.301 58.2461C136.176 58.5664 136.004 58.8984 135.785 59.2422C135.574 59.5859 135.305 59.9102 134.977 60.2148C134.648 60.5117 134.254 60.7578 133.793 60.9531C133.332 61.1406 132.785 61.2344 132.152 61.2344C131.348 61.2344 130.617 61.0742 129.961 60.7539C129.312 60.4258 128.797 59.9766 128.414 59.4062C128.039 58.8281 127.852 58.1719 127.852 57.4375C127.852 56.7734 127.977 56.1836 128.227 55.668C128.477 55.1523 128.844 54.7188 129.328 54.3672C129.82 54.0078 130.434 53.7383 131.168 53.5586C131.902 53.3711 132.754 53.2773 133.723 53.2773H135.68ZM144.609 50.9453V61H141.223V48.3203H144.398L144.609 50.9453ZM144.141 54.2148H143.203C143.203 53.332 143.309 52.5195 143.52 51.7773C143.738 51.0273 144.055 50.3789 144.469 49.832C144.891 49.2773 145.41 48.8477 146.027 48.543C146.645 48.2383 147.359 48.0859 148.172 48.0859C148.734 48.0859 149.25 48.1719 149.719 48.3438C150.188 48.5078 150.59 48.7695 150.926 49.1289C151.27 49.4805 151.535 49.9414 151.723 50.5117C151.91 51.0742 152.004 51.75 152.004 52.5391V61H148.629V52.9141C148.629 52.3359 148.551 51.8906 148.395 51.5781C148.238 51.2656 148.016 51.0469 147.727 50.9219C147.445 50.7969 147.105 50.7344 146.707 50.7344C146.27 50.7344 145.887 50.8242 145.559 51.0039C145.238 51.1836 144.973 51.4336 144.762 51.7539C144.551 52.0664 144.395 52.4336 144.293 52.8555C144.191 53.2773 144.141 53.7305 144.141 54.2148ZM151.688 53.8281L150.48 53.9805C150.48 53.1523 150.582 52.3828 150.785 51.6719C150.996 50.9609 151.305 50.3359 151.711 49.7969C152.125 49.2578 152.637 48.8398 153.246 48.543C153.855 48.2383 154.559 48.0859 155.355 48.0859C155.965 48.0859 156.52 48.1758 157.02 48.3555C157.52 48.5273 157.945 48.8047 158.297 49.1875C158.656 49.5625 158.93 50.0547 159.117 50.6641C159.312 51.2734 159.41 52.0195 159.41 52.9023V61H156.023V52.9023C156.023 52.3164 155.945 51.8711 155.789 51.5664C155.641 51.2539 155.422 51.0391 155.133 50.9219C154.852 50.7969 154.516 50.7344 154.125 50.7344C153.719 50.7344 153.363 50.8164 153.059 50.9805C152.754 51.1367 152.5 51.3555 152.297 51.6367C152.094 51.918 151.941 52.2461 151.84 52.6211C151.738 52.9883 151.688 53.3906 151.688 53.8281ZM165.398 50.7578V65.875H162.023V48.3203H165.152L165.398 50.7578ZM173.426 54.5195V54.7656C173.426 55.6875 173.316 56.543 173.098 57.332C172.887 58.1211 172.574 58.8086 172.16 59.3945C171.746 59.9727 171.23 60.4258 170.613 60.7539C170.004 61.0742 169.301 61.2344 168.504 61.2344C167.73 61.2344 167.059 61.0781 166.488 60.7656C165.918 60.4531 165.438 60.0156 165.047 59.4531C164.664 58.8828 164.355 58.2227 164.121 57.4727C163.887 56.7227 163.707 55.918 163.582 55.0586V54.4141C163.707 53.4922 163.887 52.6484 164.121 51.8828C164.355 51.1094 164.664 50.4414 165.047 49.8789C165.438 49.3086 165.914 48.8672 166.477 48.5547C167.047 48.2422 167.715 48.0859 168.48 48.0859C169.285 48.0859 169.992 48.2383 170.602 48.543C171.219 48.8477 171.734 49.2852 172.148 49.8555C172.57 50.4258 172.887 51.1055 173.098 51.8945C173.316 52.6836 173.426 53.5586 173.426 54.5195ZM170.039 54.7656V54.5195C170.039 53.9805 169.992 53.4844 169.898 53.0312C169.812 52.5703 169.672 52.168 169.477 51.8242C169.289 51.4805 169.039 51.2148 168.727 51.0273C168.422 50.832 168.051 50.7344 167.613 50.7344C167.152 50.7344 166.758 50.8086 166.43 50.957C166.109 51.1055 165.848 51.3203 165.645 51.6016C165.441 51.8828 165.289 52.2188 165.188 52.6094C165.086 53 165.023 53.4414 165 53.9336V55.5625C165.039 56.1406 165.148 56.6602 165.328 57.1211C165.508 57.5742 165.785 57.9336 166.16 58.1992C166.535 58.4648 167.027 58.5977 167.637 58.5977C168.082 58.5977 168.457 58.5 168.762 58.3047C169.066 58.1016 169.312 57.8242 169.5 57.4727C169.695 57.1211 169.832 56.7148 169.91 56.2539C169.996 55.793 170.039 55.2969 170.039 54.7656ZM181.887 57.4375L185.906 43.9375H189.82L183.879 61H181.301L181.887 57.4375ZM178.184 43.9375L182.191 57.4375L182.801 61H180.199L174.293 43.9375H178.184ZM196.523 61.2344C195.539 61.2344 194.656 61.0781 193.875 60.7656C193.094 60.4453 192.43 60.0039 191.883 59.4414C191.344 58.8789 190.93 58.2266 190.641 57.4844C190.352 56.7344 190.207 55.9375 190.207 55.0938V54.625C190.207 53.6641 190.344 52.7852 190.617 51.9883C190.891 51.1914 191.281 50.5 191.789 49.9141C192.305 49.3281 192.93 48.8789 193.664 48.5664C194.398 48.2461 195.227 48.0859 196.148 48.0859C197.047 48.0859 197.844 48.2344 198.539 48.5312C199.234 48.8281 199.816 49.25 200.285 49.7969C200.762 50.3438 201.121 51 201.363 51.7656C201.605 52.5234 201.727 53.3672 201.727 54.2969V55.7031H191.648V53.4531H198.41V53.1953C198.41 52.7266 198.324 52.3086 198.152 51.9414C197.988 51.5664 197.738 51.2695 197.402 51.0508C197.066 50.832 196.637 50.7227 196.113 50.7227C195.668 50.7227 195.285 50.8203 194.965 51.0156C194.645 51.2109 194.383 51.4844 194.18 51.8359C193.984 52.1875 193.836 52.6016 193.734 53.0781C193.641 53.5469 193.594 54.0625 193.594 54.625V55.0938C193.594 55.6016 193.664 56.0703 193.805 56.5C193.953 56.9297 194.16 57.3008 194.426 57.6133C194.699 57.9258 195.027 58.168 195.41 58.3398C195.801 58.5117 196.242 58.5977 196.734 58.5977C197.344 58.5977 197.91 58.4805 198.434 58.2461C198.965 58.0039 199.422 57.6406 199.805 57.1562L201.445 58.9375C201.18 59.3203 200.816 59.6875 200.355 60.0391C199.902 60.3906 199.355 60.6797 198.715 60.9062C198.074 61.125 197.344 61.2344 196.523 61.2344ZM207.023 51.0859V61H203.648V48.3203H206.824L207.023 51.0859ZM210.844 48.2383L210.785 51.3672C210.621 51.3438 210.422 51.3242 210.188 51.3086C209.961 51.2852 209.754 51.2734 209.566 51.2734C209.09 51.2734 208.676 51.3359 208.324 51.4609C207.98 51.5781 207.691 51.7539 207.457 51.9883C207.23 52.2227 207.059 52.5078 206.941 52.8438C206.832 53.1797 206.77 53.5625 206.754 53.9922L206.074 53.7812C206.074 52.9609 206.156 52.207 206.32 51.5195C206.484 50.8242 206.723 50.2188 207.035 49.7031C207.355 49.1875 207.746 48.7891 208.207 48.5078C208.668 48.2266 209.195 48.0859 209.789 48.0859C209.977 48.0859 210.168 48.1016 210.363 48.1328C210.559 48.1562 210.719 48.1914 210.844 48.2383ZM219.293 57.4961C219.293 57.2539 219.223 57.0352 219.082 56.8398C218.941 56.6445 218.68 56.4648 218.297 56.3008C217.922 56.1289 217.379 55.9727 216.668 55.832C216.027 55.6914 215.43 55.5156 214.875 55.3047C214.328 55.0859 213.852 54.8242 213.445 54.5195C213.047 54.2148 212.734 53.8555 212.508 53.4414C212.281 53.0195 212.168 52.5391 212.168 52C212.168 51.4688 212.281 50.9688 212.508 50.5C212.742 50.0312 213.074 49.6172 213.504 49.2578C213.941 48.8906 214.473 48.6055 215.098 48.4023C215.73 48.1914 216.441 48.0859 217.23 48.0859C218.332 48.0859 219.277 48.2617 220.066 48.6133C220.863 48.9648 221.473 49.4492 221.895 50.0664C222.324 50.6758 222.539 51.3711 222.539 52.1523H219.164C219.164 51.8242 219.094 51.5312 218.953 51.2734C218.82 51.0078 218.609 50.8008 218.32 50.6523C218.039 50.4961 217.672 50.418 217.219 50.418C216.844 50.418 216.52 50.4844 216.246 50.6172C215.973 50.7422 215.762 50.9141 215.613 51.1328C215.473 51.3438 215.402 51.5781 215.402 51.8359C215.402 52.0312 215.441 52.207 215.52 52.3633C215.605 52.5117 215.742 52.6484 215.93 52.7734C216.117 52.8984 216.359 53.0156 216.656 53.125C216.961 53.2266 217.336 53.3203 217.781 53.4062C218.695 53.5938 219.512 53.8398 220.23 54.1445C220.949 54.4414 221.52 54.8477 221.941 55.3633C222.363 55.8711 222.574 56.5391 222.574 57.3672C222.574 57.9297 222.449 58.4453 222.199 58.9141C221.949 59.3828 221.59 59.793 221.121 60.1445C220.652 60.4883 220.09 60.7578 219.434 60.9531C218.785 61.1406 218.055 61.2344 217.242 61.2344C216.062 61.2344 215.062 61.0234 214.242 60.6016C213.43 60.1797 212.812 59.6445 212.391 58.9961C211.977 58.3398 211.77 57.668 211.77 56.9805H214.969C214.984 57.4414 215.102 57.8125 215.32 58.0938C215.547 58.375 215.832 58.5781 216.176 58.7031C216.527 58.8281 216.906 58.8906 217.312 58.8906C217.75 58.8906 218.113 58.832 218.402 58.7148C218.691 58.5898 218.91 58.4258 219.059 58.2227C219.215 58.0117 219.293 57.7695 219.293 57.4961ZM230.602 61.2344C229.617 61.2344 228.734 61.0781 227.953 60.7656C227.172 60.4453 226.508 60.0039 225.961 59.4414C225.422 58.8789 225.008 58.2266 224.719 57.4844C224.43 56.7344 224.285 55.9375 224.285 55.0938V54.625C224.285 53.6641 224.422 52.7852 224.695 51.9883C224.969 51.1914 225.359 50.5 225.867 49.9141C226.383 49.3281 227.008 48.8789 227.742 48.5664C228.477 48.2461 229.305 48.0859 230.227 48.0859C231.125 48.0859 231.922 48.2344 232.617 48.5312C233.312 48.8281 233.895 49.25 234.363 49.7969C234.84 50.3438 235.199 51 235.441 51.7656C235.684 52.5234 235.805 53.3672 235.805 54.2969V55.7031H225.727V53.4531H232.488V53.1953C232.488 52.7266 232.402 52.3086 232.23 51.9414C232.066 51.5664 231.816 51.2695 231.48 51.0508C231.145 50.832 230.715 50.7227 230.191 50.7227C229.746 50.7227 229.363 50.8203 229.043 51.0156C228.723 51.2109 228.461 51.4844 228.258 51.8359C228.062 52.1875 227.914 52.6016 227.812 53.0781C227.719 53.5469 227.672 54.0625 227.672 54.625V55.0938C227.672 55.6016 227.742 56.0703 227.883 56.5C228.031 56.9297 228.238 57.3008 228.504 57.6133C228.777 57.9258 229.105 58.168 229.488 58.3398C229.879 58.5117 230.32 58.5977 230.812 58.5977C231.422 58.5977 231.988 58.4805 232.512 58.2461C233.043 58.0039 233.5 57.6406 233.883 57.1562L235.523 58.9375C235.258 59.3203 234.895 59.6875 234.434 60.0391C233.98 60.3906 233.434 60.6797 232.793 60.9062C232.152 61.125 231.422 61.2344 230.602 61.2344Z" fill="#888888"/>
<path d="M112.125 84.875V119H103.898V84.875H112.125ZM122.391 84.875V91.2266H93.8672V84.875H122.391ZM135.68 119.469C133.617 119.469 131.773 119.148 130.148 118.508C128.523 117.852 127.148 116.953 126.023 115.812C124.914 114.672 124.062 113.359 123.469 111.875C122.891 110.391 122.602 108.82 122.602 107.164V106.273C122.602 104.414 122.859 102.695 123.375 101.117C123.891 99.5234 124.656 98.1328 125.672 96.9453C126.688 95.7578 127.961 94.8359 129.492 94.1797C131.023 93.5078 132.805 93.1719 134.836 93.1719C136.633 93.1719 138.242 93.4609 139.664 94.0391C141.086 94.6172 142.289 95.4453 143.273 96.5234C144.273 97.6016 145.031 98.9062 145.547 100.438C146.078 101.969 146.344 103.688 146.344 105.594V108.805H125.625V103.859H138.633V103.25C138.648 102.406 138.5 101.688 138.188 101.094C137.891 100.5 137.453 100.047 136.875 99.7344C136.297 99.4219 135.594 99.2656 134.766 99.2656C133.906 99.2656 133.195 99.4531 132.633 99.8281C132.086 100.203 131.656 100.719 131.344 101.375C131.047 102.016 130.836 102.758 130.711 103.602C130.586 104.445 130.523 105.336 130.523 106.273V107.164C130.523 108.102 130.648 108.953 130.898 109.719C131.164 110.484 131.539 111.141 132.023 111.688C132.523 112.219 133.117 112.633 133.805 112.93C134.508 113.227 135.305 113.375 136.195 113.375C137.273 113.375 138.336 113.172 139.383 112.766C140.43 112.359 141.328 111.688 142.078 110.75L145.664 115.016C145.148 115.75 144.414 116.461 143.461 117.148C142.523 117.836 141.398 118.398 140.086 118.836C138.773 119.258 137.305 119.469 135.68 119.469ZM160.266 113.375C161 113.375 161.625 113.242 162.141 112.977C162.672 112.695 163.07 112.305 163.336 111.805C163.617 111.289 163.75 110.672 163.734 109.953H171.164C171.18 111.859 170.711 113.531 169.758 114.969C168.82 116.391 167.539 117.5 165.914 118.297C164.305 119.078 162.484 119.469 160.453 119.469C158.469 119.469 156.734 119.148 155.25 118.508C153.766 117.852 152.523 116.945 151.523 115.789C150.539 114.617 149.797 113.25 149.297 111.688C148.812 110.125 148.57 108.43 148.57 106.602V106.062C148.57 104.234 148.812 102.539 149.297 100.977C149.797 99.3984 150.539 98.0312 151.523 96.875C152.523 95.7031 153.758 94.7969 155.227 94.1562C156.711 93.5 158.438 93.1719 160.406 93.1719C162.516 93.1719 164.375 93.5703 165.984 94.3672C167.609 95.1641 168.883 96.3203 169.805 97.8359C170.727 99.3516 171.18 101.188 171.164 103.344H163.734C163.75 102.578 163.633 101.891 163.383 101.281C163.133 100.672 162.742 100.188 162.211 99.8281C161.695 99.4531 161.031 99.2656 160.219 99.2656C159.406 99.2656 158.75 99.4453 158.25 99.8047C157.75 100.164 157.367 100.664 157.102 101.305C156.852 101.93 156.68 102.648 156.586 103.461C156.508 104.273 156.469 105.141 156.469 106.062V106.602C156.469 107.539 156.508 108.422 156.586 109.25C156.68 110.062 156.859 110.781 157.125 111.406C157.391 112.016 157.773 112.5 158.273 112.859C158.773 113.203 159.438 113.375 160.266 113.375ZM182.273 83V119H174.375V83H182.273ZM181.336 105.453L179.484 105.5C179.484 103.719 179.703 102.078 180.141 100.578C180.578 99.0781 181.203 97.7734 182.016 96.6641C182.828 95.5547 183.805 94.6953 184.945 94.0859C186.086 93.4766 187.352 93.1719 188.742 93.1719C189.992 93.1719 191.133 93.3516 192.164 93.7109C193.211 94.0703 194.109 94.6484 194.859 95.4453C195.625 96.2422 196.211 97.2812 196.617 98.5625C197.039 99.8438 197.25 101.406 197.25 103.25V119H189.305V103.203C189.305 102.172 189.156 101.375 188.859 100.812C188.578 100.234 188.172 99.8359 187.641 99.6172C187.109 99.3828 186.461 99.2656 185.695 99.2656C184.773 99.2656 184.023 99.4219 183.445 99.7344C182.867 100.047 182.422 100.484 182.109 101.047C181.812 101.594 181.609 102.242 181.5 102.992C181.391 103.742 181.336 104.562 181.336 105.453ZM231.539 109.93C231.539 109.398 231.461 108.922 231.305 108.5C231.148 108.062 230.859 107.656 230.438 107.281C230.016 106.906 229.406 106.531 228.609 106.156C227.828 105.766 226.797 105.359 225.516 104.938C224.016 104.438 222.57 103.875 221.18 103.25C219.789 102.609 218.547 101.867 217.453 101.023C216.359 100.164 215.492 99.1641 214.852 98.0234C214.211 96.8672 213.891 95.5234 213.891 93.9922C213.891 92.5234 214.219 91.2031 214.875 90.0312C215.531 88.8438 216.445 87.8359 217.617 87.0078C218.805 86.1641 220.195 85.5234 221.789 85.0859C223.383 84.6328 225.125 84.4062 227.016 84.4062C229.516 84.4062 231.719 84.8438 233.625 85.7188C235.547 86.5781 237.047 87.8047 238.125 89.3984C239.219 90.9766 239.766 92.8438 239.766 95H231.586C231.586 94.1406 231.406 93.3828 231.047 92.7266C230.703 92.0703 230.18 91.5547 229.477 91.1797C228.773 90.8047 227.891 90.6172 226.828 90.6172C225.797 90.6172 224.93 90.7734 224.227 91.0859C223.523 91.3984 222.992 91.8203 222.633 92.3516C222.273 92.8672 222.094 93.4375 222.094 94.0625C222.094 94.5781 222.234 95.0469 222.516 95.4688C222.812 95.875 223.227 96.2578 223.758 96.6172C224.305 96.9766 224.961 97.3203 225.727 97.6484C226.508 97.9766 227.383 98.2969 228.352 98.6094C230.164 99.1875 231.773 99.8359 233.18 100.555C234.602 101.258 235.797 102.062 236.766 102.969C237.75 103.859 238.492 104.875 238.992 106.016C239.508 107.156 239.766 108.445 239.766 109.883C239.766 111.414 239.469 112.773 238.875 113.961C238.281 115.148 237.43 116.156 236.32 116.984C235.211 117.797 233.883 118.414 232.336 118.836C230.789 119.258 229.062 119.469 227.156 119.469C225.406 119.469 223.68 119.25 221.977 118.812C220.289 118.359 218.758 117.672 217.383 116.75C216.008 115.812 214.906 114.617 214.078 113.164C213.266 111.695 212.859 109.953 212.859 107.938H221.109C221.109 108.938 221.242 109.781 221.508 110.469C221.773 111.156 222.164 111.711 222.68 112.133C223.195 112.539 223.828 112.836 224.578 113.023C225.328 113.195 226.188 113.281 227.156 113.281C228.203 113.281 229.047 113.133 229.688 112.836C230.328 112.523 230.797 112.117 231.094 111.617C231.391 111.102 231.539 110.539 231.539 109.93ZM256.992 93.6406V99.125H241.711V93.6406H256.992ZM244.922 87.3359H252.82V110.727C252.82 111.398 252.898 111.922 253.055 112.297C253.211 112.656 253.477 112.914 253.852 113.07C254.242 113.211 254.758 113.281 255.398 113.281C255.852 113.281 256.227 113.273 256.523 113.258C256.82 113.227 257.102 113.188 257.367 113.141V118.789C256.695 119.008 255.992 119.172 255.258 119.281C254.523 119.406 253.742 119.469 252.914 119.469C251.227 119.469 249.781 119.203 248.578 118.672C247.391 118.141 246.484 117.305 245.859 116.164C245.234 115.023 244.922 113.539 244.922 111.711V87.3359ZM273.305 112.625V102.172C273.305 101.453 273.203 100.836 273 100.32C272.797 99.8047 272.477 99.4062 272.039 99.125C271.602 98.8281 271.016 98.6797 270.281 98.6797C269.688 98.6797 269.18 98.7812 268.758 98.9844C268.336 99.1875 268.016 99.4922 267.797 99.8984C267.578 100.305 267.469 100.82 267.469 101.445H259.57C259.57 100.273 259.828 99.1875 260.344 98.1875C260.875 97.1719 261.625 96.2891 262.594 95.5391C263.578 94.7891 264.75 94.2109 266.109 93.8047C267.484 93.3828 269.016 93.1719 270.703 93.1719C272.719 93.1719 274.516 93.5078 276.094 94.1797C277.688 94.8516 278.945 95.8594 279.867 97.2031C280.789 98.5312 281.25 100.203 281.25 102.219V112.602C281.25 114.258 281.344 115.516 281.531 116.375C281.719 117.219 281.984 117.961 282.328 118.602V119H274.406C274.031 118.219 273.75 117.266 273.562 116.141C273.391 115 273.305 113.828 273.305 112.625ZM274.266 103.508L274.312 107.727H270.82C270.086 107.727 269.461 107.828 268.945 108.031C268.445 108.234 268.039 108.516 267.727 108.875C267.43 109.219 267.211 109.609 267.07 110.047C266.945 110.484 266.883 110.945 266.883 111.43C266.883 111.898 266.992 112.32 267.211 112.695C267.445 113.055 267.758 113.336 268.148 113.539C268.539 113.742 268.977 113.844 269.461 113.844C270.336 113.844 271.078 113.68 271.688 113.352C272.312 113.008 272.789 112.594 273.117 112.109C273.445 111.625 273.609 111.172 273.609 110.75L275.344 113.984C275.031 114.609 274.672 115.242 274.266 115.883C273.875 116.523 273.383 117.117 272.789 117.664C272.211 118.195 271.5 118.633 270.656 118.977C269.812 119.305 268.789 119.469 267.586 119.469C266.023 119.469 264.586 119.148 263.273 118.508C261.977 117.867 260.938 116.977 260.156 115.836C259.375 114.68 258.984 113.352 258.984 111.852C258.984 110.539 259.219 109.367 259.688 108.336C260.172 107.305 260.898 106.43 261.867 105.711C262.836 104.992 264.07 104.445 265.57 104.07C267.07 103.695 268.836 103.508 270.867 103.508H274.266ZM296.344 113.375C297.078 113.375 297.703 113.242 298.219 112.977C298.75 112.695 299.148 112.305 299.414 111.805C299.695 111.289 299.828 110.672 299.812 109.953H307.242C307.258 111.859 306.789 113.531 305.836 114.969C304.898 116.391 303.617 117.5 301.992 118.297C300.383 119.078 298.562 119.469 296.531 119.469C294.547 119.469 292.812 119.148 291.328 118.508C289.844 117.852 288.602 116.945 287.602 115.789C286.617 114.617 285.875 113.25 285.375 111.688C284.891 110.125 284.648 108.43 284.648 106.602V106.062C284.648 104.234 284.891 102.539 285.375 100.977C285.875 99.3984 286.617 98.0312 287.602 96.875C288.602 95.7031 289.836 94.7969 291.305 94.1562C292.789 93.5 294.516 93.1719 296.484 93.1719C298.594 93.1719 300.453 93.5703 302.062 94.3672C303.688 95.1641 304.961 96.3203 305.883 97.8359C306.805 99.3516 307.258 101.188 307.242 103.344H299.812C299.828 102.578 299.711 101.891 299.461 101.281C299.211 100.672 298.82 100.188 298.289 99.8281C297.773 99.4531 297.109 99.2656 296.297 99.2656C295.484 99.2656 294.828 99.4453 294.328 99.8047C293.828 100.164 293.445 100.664 293.18 101.305C292.93 101.93 292.758 102.648 292.664 103.461C292.586 104.273 292.547 105.141 292.547 106.062V106.602C292.547 107.539 292.586 108.422 292.664 109.25C292.758 110.062 292.938 110.781 293.203 111.406C293.469 112.016 293.852 112.5 294.352 112.859C294.852 113.203 295.516 113.375 296.344 113.375ZM318.586 82.9766V119H310.688V82.9766H318.586ZM334.805 93.6406L323.789 106.555L318.023 112.32L314.578 107.305L319.383 101.047L325.336 93.6406H334.805ZM326.344 119L319.57 107.445L325.406 103.297L335.391 119H326.344ZM350.156 111.875C350.156 111.438 350.008 111.062 349.711 110.75C349.43 110.422 348.93 110.125 348.211 109.859C347.492 109.578 346.484 109.297 345.188 109.016C343.953 108.75 342.789 108.398 341.695 107.961C340.617 107.523 339.672 106.992 338.859 106.367C338.047 105.742 337.406 105 336.938 104.141C336.484 103.281 336.258 102.297 336.258 101.188C336.258 100.109 336.484 99.0938 336.938 98.1406C337.406 97.1719 338.086 96.3203 338.977 95.5859C339.883 94.8359 340.984 94.25 342.281 93.8281C343.578 93.3906 345.055 93.1719 346.711 93.1719C348.992 93.1719 350.961 93.5234 352.617 94.2266C354.273 94.9141 355.547 95.8828 356.438 97.1328C357.344 98.3672 357.797 99.7969 357.797 101.422H349.898C349.898 100.781 349.789 100.234 349.57 99.7812C349.367 99.3281 349.031 98.9844 348.562 98.75C348.094 98.5 347.469 98.375 346.688 98.375C346.141 98.375 345.641 98.4766 345.188 98.6797C344.75 98.8828 344.398 99.1641 344.133 99.5234C343.867 99.8828 343.734 100.305 343.734 100.789C343.734 101.133 343.812 101.445 343.969 101.727C344.141 101.992 344.398 102.242 344.742 102.477C345.086 102.695 345.523 102.898 346.055 103.086C346.586 103.258 347.227 103.414 347.977 103.555C349.68 103.867 351.273 104.312 352.758 104.891C354.242 105.469 355.445 106.289 356.367 107.352C357.305 108.414 357.773 109.844 357.773 111.641C357.773 112.766 357.516 113.805 357 114.758C356.484 115.695 355.742 116.523 354.773 117.242C353.805 117.945 352.641 118.492 351.281 118.883C349.922 119.273 348.391 119.469 346.688 119.469C344.266 119.469 342.219 119.039 340.547 118.18C338.875 117.305 337.609 116.211 336.75 114.898C335.906 113.57 335.484 112.227 335.484 110.867H342.844C342.875 111.648 343.062 112.289 343.406 112.789C343.766 113.289 344.242 113.656 344.836 113.891C345.43 114.125 346.117 114.242 346.898 114.242C347.617 114.242 348.211 114.141 348.68 113.938C349.164 113.734 349.531 113.461 349.781 113.117C350.031 112.758 350.156 112.344 350.156 111.875Z" fill="black"/>
<path d="M1134 0H1348C1356.28 0 1363 6.71573 1363 15V148C1363 156.284 1356.28 163 1348 163H1134V0Z" fill="#02BAFF"/>
<path fill-rule="evenodd" clip-rule="evenodd" d="M1219.98 53C1219.85 53 1219.73 53.0527 1219.64 53.1464C1219.55 53.2402 1219.5 53.3674 1219.5 53.5V109.5C1219.5 109.633 1219.55 109.76 1219.64 109.854C1219.73 109.947 1219.85 110 1219.98 110H1277.02C1277.15 110 1277.27 109.947 1277.36 109.854C1277.45 109.76 1277.5 109.633 1277.5 109.5V64C1277.5 63.8674 1277.45 63.7402 1277.36 63.6464C1277.27 63.5527 1277.15 63.5 1277.02 63.5H1248.5C1247.65 63.5 1246.84 63.1045 1246.29 62.4206L1238.77 53H1219.98ZM1215.58 48.9038C1216.74 47.6848 1218.33 47 1219.98 47H1240.11C1240.97 47 1241.77 47.3955 1242.32 48.0794L1249.85 57.5H1277.02C1278.67 57.5 1280.26 58.1848 1281.42 59.4038C1282.59 60.6228 1283.25 62.2761 1283.25 64V109.5C1283.25 111.224 1282.59 112.877 1281.42 114.096C1280.26 115.315 1278.67 116 1277.02 116H1219.98C1218.33 116 1216.74 115.315 1215.58 114.096C1214.41 112.877 1213.75 111.224 1213.75 109.5V53.5C1213.75 51.7761 1214.41 50.1228 1215.58 48.9038Z" fill="white"/>
<path fill-rule="evenodd" clip-rule="evenodd" d="M1244.16 75.5251C1245.47 76.892 1245.47 79.108 1244.16 80.4749L1238.15 86.75L1244.16 93.0251C1245.47 94.392 1245.47 96.608 1244.16 97.9749C1242.85 99.3417 1240.73 99.3417 1239.42 97.9749L1231.03 89.2249C1229.72 87.858 1229.72 85.642 1231.03 84.2751L1239.42 75.5251C1240.73 74.1583 1242.85 74.1583 1244.16 75.5251Z" fill="white"/>
<path fill-rule="evenodd" clip-rule="evenodd" d="M1252.12 97.9749C1250.81 96.608 1250.81 94.392 1252.12 93.0251L1258.13 86.75L1252.12 80.4749C1250.81 79.108 1250.81 76.892 1252.12 75.5251C1253.43 74.1583 1255.55 74.1583 1256.86 75.5251L1265.25 84.2751C1266.56 85.642 1266.56 87.858 1265.25 89.2249L1256.86 97.9749C1255.55 99.3417 1253.43 99.3417 1252.12 97.9749Z" fill="white"/>
</svg>
