<svg width="1363" height="297" viewBox="0 0 1363 297" fill="none" xmlns="http://www.w3.org/2000/svg">
<path d="M0 15C0 6.71573 6.71573 0 15 0H37V297H15C6.71573 297 0 290.284 0 282V15Z" fill="#02BAFF"/>
<path d="M37 0H1066V297H37V0Z" fill="#F0F0F0"/>
<path d="M116.115 49.4062V75H110.842L100.559 57.8438V75H95.2852V49.4062H100.559L110.859 66.5801V49.4062H116.115ZM130.652 70.7109V62.2383C130.652 61.6289 130.553 61.1074 130.354 60.6738C130.154 60.2285 129.844 59.8828 129.422 59.6367C129.012 59.3906 128.479 59.2676 127.822 59.2676C127.26 59.2676 126.773 59.3672 126.363 59.5664C125.953 59.7539 125.637 60.0293 125.414 60.3926C125.191 60.7441 125.08 61.1602 125.08 61.6406H120.018C120.018 60.832 120.205 60.0645 120.58 59.3379C120.955 58.6113 121.5 57.9727 122.215 57.4219C122.93 56.8594 123.779 56.4199 124.764 56.1035C125.76 55.7871 126.873 55.6289 128.104 55.6289C129.58 55.6289 130.893 55.875 132.041 56.3672C133.189 56.8594 134.092 57.5977 134.748 58.582C135.416 59.5664 135.75 60.7969 135.75 62.2734V70.4121C135.75 71.4551 135.814 72.3105 135.943 72.9785C136.072 73.6348 136.26 74.209 136.506 74.7012V75H131.391C131.145 74.4844 130.957 73.8398 130.828 73.0664C130.711 72.2812 130.652 71.4961 130.652 70.7109ZM131.32 63.416L131.355 66.2812H128.525C127.857 66.2812 127.277 66.3574 126.785 66.5098C126.293 66.6621 125.889 66.8789 125.572 67.1602C125.256 67.4297 125.021 67.7461 124.869 68.1094C124.729 68.4727 124.658 68.8711 124.658 69.3047C124.658 69.7383 124.758 70.1309 124.957 70.4824C125.156 70.8223 125.443 71.0918 125.818 71.291C126.193 71.4785 126.633 71.5723 127.137 71.5723C127.898 71.5723 128.561 71.4199 129.123 71.1152C129.686 70.8105 130.119 70.4355 130.424 69.9902C130.74 69.5449 130.904 69.123 130.916 68.7246L132.252 70.8691C132.064 71.3496 131.807 71.8477 131.479 72.3633C131.162 72.8789 130.758 73.3652 130.266 73.8223C129.773 74.2676 129.182 74.6367 128.49 74.9297C127.799 75.2109 126.979 75.3516 126.029 75.3516C124.822 75.3516 123.727 75.1113 122.742 74.6309C121.77 74.1387 120.996 73.4648 120.422 72.6094C119.859 71.7422 119.578 70.7578 119.578 69.6562C119.578 68.6602 119.766 67.7754 120.141 67.002C120.516 66.2285 121.066 65.5781 121.793 65.0508C122.531 64.5117 123.451 64.1074 124.553 63.8379C125.654 63.5566 126.932 63.416 128.385 63.416H131.32ZM150.885 70.8516V48H155.982V75H151.395L150.885 70.8516ZM138.861 65.7188V65.3496C138.861 63.8965 139.025 62.5781 139.354 61.3945C139.682 60.1992 140.162 59.1738 140.795 58.3184C141.428 57.4629 142.207 56.8008 143.133 56.332C144.059 55.8633 145.113 55.6289 146.297 55.6289C147.41 55.6289 148.383 55.8633 149.215 56.332C150.059 56.8008 150.773 57.4688 151.359 58.3359C151.957 59.1914 152.438 60.2051 152.801 61.377C153.164 62.5371 153.428 63.8086 153.592 65.1914V66C153.428 67.3242 153.164 68.5547 152.801 69.6914C152.438 70.8281 151.957 71.8242 151.359 72.6797C150.773 73.5234 150.059 74.1797 149.215 74.6484C148.371 75.1172 147.387 75.3516 146.262 75.3516C145.078 75.3516 144.023 75.1113 143.098 74.6309C142.184 74.1504 141.41 73.4766 140.777 72.6094C140.156 71.7422 139.682 70.7227 139.354 69.5508C139.025 68.3789 138.861 67.1016 138.861 65.7188ZM143.924 65.3496V65.7188C143.924 66.5039 143.982 67.2363 144.1 67.916C144.229 68.5957 144.434 69.1992 144.715 69.7266C145.008 70.2422 145.383 70.6465 145.84 70.9395C146.309 71.2207 146.877 71.3613 147.545 71.3613C148.412 71.3613 149.127 71.168 149.689 70.7812C150.252 70.3828 150.68 69.8379 150.973 69.1465C151.277 68.4551 151.453 67.6582 151.5 66.7559V64.4531C151.465 63.7148 151.359 63.0527 151.184 62.4668C151.02 61.8691 150.773 61.3594 150.445 60.9375C150.129 60.5156 149.73 60.1875 149.25 59.9531C148.781 59.7188 148.225 59.6016 147.58 59.6016C146.924 59.6016 146.361 59.7539 145.893 60.0586C145.424 60.3516 145.043 60.7559 144.75 61.2715C144.469 61.7871 144.258 62.3965 144.117 63.0996C143.988 63.791 143.924 64.541 143.924 65.3496ZM165.281 55.9805V75H160.201V55.9805H165.281ZM159.885 51.0234C159.885 50.2852 160.143 49.6758 160.658 49.1953C161.174 48.7148 161.865 48.4746 162.732 48.4746C163.588 48.4746 164.273 48.7148 164.789 49.1953C165.316 49.6758 165.58 50.2852 165.58 51.0234C165.58 51.7617 165.316 52.3711 164.789 52.8516C164.273 53.332 163.588 53.5723 162.732 53.5723C161.865 53.5723 161.174 53.332 160.658 52.8516C160.143 52.3711 159.885 51.7617 159.885 51.0234ZM174.527 59.918V75H169.447V55.9805H174.211L174.527 59.918ZM173.824 64.8223H172.418C172.418 63.498 172.576 62.2793 172.893 61.166C173.221 60.041 173.695 59.0684 174.316 58.248C174.949 57.416 175.729 56.7715 176.654 56.3145C177.58 55.8574 178.652 55.6289 179.871 55.6289C180.715 55.6289 181.488 55.7578 182.191 56.0156C182.895 56.2617 183.498 56.6543 184.002 57.1934C184.518 57.7207 184.916 58.4121 185.197 59.2676C185.479 60.1113 185.619 61.125 185.619 62.3086V75H180.557V62.8711C180.557 62.0039 180.439 61.3359 180.205 60.8672C179.971 60.3984 179.637 60.0703 179.203 59.8828C178.781 59.6953 178.271 59.6016 177.674 59.6016C177.018 59.6016 176.443 59.7363 175.951 60.0059C175.471 60.2754 175.072 60.6504 174.756 61.1309C174.439 61.5996 174.205 62.1504 174.053 62.7832C173.9 63.416 173.824 64.0957 173.824 64.8223ZM185.145 64.2422L183.334 64.4707C183.334 63.2285 183.486 62.0742 183.791 61.0078C184.107 59.9414 184.57 59.0039 185.18 58.1953C185.801 57.3867 186.568 56.7598 187.482 56.3145C188.396 55.8574 189.451 55.6289 190.646 55.6289C191.561 55.6289 192.393 55.7637 193.143 56.0332C193.893 56.291 194.531 56.707 195.059 57.2812C195.598 57.8438 196.008 58.582 196.289 59.4961C196.582 60.4102 196.729 61.5293 196.729 62.8535V75H191.648V62.8535C191.648 61.9746 191.531 61.3066 191.297 60.8496C191.074 60.3809 190.746 60.0586 190.312 59.8828C189.891 59.6953 189.387 59.6016 188.801 59.6016C188.191 59.6016 187.658 59.7246 187.201 59.9707C186.744 60.2051 186.363 60.5332 186.059 60.9551C185.754 61.377 185.525 61.8691 185.373 62.4316C185.221 62.9824 185.145 63.5859 185.145 64.2422ZM209.93 49.4062H219.475C221.432 49.4062 223.113 49.6992 224.52 50.2852C225.938 50.8711 227.027 51.7383 227.789 52.8867C228.551 54.0352 228.932 55.4473 228.932 57.123C228.932 58.4941 228.697 59.6719 228.229 60.6562C227.771 61.6289 227.121 62.4434 226.277 63.0996C225.445 63.7441 224.467 64.2598 223.342 64.6465L221.672 65.5254H213.375L213.34 61.4121H219.51C220.436 61.4121 221.203 61.248 221.812 60.9199C222.422 60.5918 222.879 60.1348 223.184 59.5488C223.5 58.9629 223.658 58.2832 223.658 57.5098C223.658 56.6895 223.506 55.9805 223.201 55.3828C222.896 54.7852 222.434 54.3281 221.812 54.0117C221.191 53.6953 220.412 53.5371 219.475 53.5371H215.203V75H209.93V49.4062ZM224.238 75L218.402 63.5918L223.975 63.5566L229.881 74.7539V75H224.238ZM238.02 55.9805V75H232.939V55.9805H238.02ZM232.623 51.0234C232.623 50.2852 232.881 49.6758 233.396 49.1953C233.912 48.7148 234.604 48.4746 235.471 48.4746C236.326 48.4746 237.012 48.7148 237.527 49.1953C238.055 49.6758 238.318 50.2852 238.318 51.0234C238.318 51.7617 238.055 52.3711 237.527 52.8516C237.012 53.332 236.326 53.5723 235.471 53.5723C234.604 53.5723 233.912 53.332 233.396 52.8516C232.881 52.3711 232.623 51.7617 232.623 51.0234ZM248.654 75H243.557V54.293C243.557 52.8516 243.838 51.6387 244.4 50.6543C244.975 49.6582 245.777 48.9082 246.809 48.4043C247.852 47.8887 249.088 47.6309 250.518 47.6309C250.986 47.6309 251.438 47.666 251.871 47.7363C252.305 47.7949 252.727 47.8711 253.137 47.9648L253.084 51.7793C252.861 51.7207 252.627 51.6797 252.381 51.6562C252.135 51.6328 251.848 51.6211 251.52 51.6211C250.91 51.6211 250.389 51.7266 249.955 51.9375C249.533 52.1367 249.211 52.4355 248.988 52.834C248.766 53.2324 248.654 53.7188 248.654 54.293V75ZM252.451 55.9805V59.5664H240.727V55.9805H252.451ZM265.371 70.7109V62.2383C265.371 61.6289 265.271 61.1074 265.072 60.6738C264.873 60.2285 264.562 59.8828 264.141 59.6367C263.73 59.3906 263.197 59.2676 262.541 59.2676C261.979 59.2676 261.492 59.3672 261.082 59.5664C260.672 59.7539 260.355 60.0293 260.133 60.3926C259.91 60.7441 259.799 61.1602 259.799 61.6406H254.736C254.736 60.832 254.924 60.0645 255.299 59.3379C255.674 58.6113 256.219 57.9727 256.934 57.4219C257.648 56.8594 258.498 56.4199 259.482 56.1035C260.479 55.7871 261.592 55.6289 262.822 55.6289C264.299 55.6289 265.611 55.875 266.76 56.3672C267.908 56.8594 268.811 57.5977 269.467 58.582C270.135 59.5664 270.469 60.7969 270.469 62.2734V70.4121C270.469 71.4551 270.533 72.3105 270.662 72.9785C270.791 73.6348 270.979 74.209 271.225 74.7012V75H266.109C265.863 74.4844 265.676 73.8398 265.547 73.0664C265.43 72.2812 265.371 71.4961 265.371 70.7109ZM266.039 63.416L266.074 66.2812H263.244C262.576 66.2812 261.996 66.3574 261.504 66.5098C261.012 66.6621 260.607 66.8789 260.291 67.1602C259.975 67.4297 259.74 67.7461 259.588 68.1094C259.447 68.4727 259.377 68.8711 259.377 69.3047C259.377 69.7383 259.477 70.1309 259.676 70.4824C259.875 70.8223 260.162 71.0918 260.537 71.291C260.912 71.4785 261.352 71.5723 261.855 71.5723C262.617 71.5723 263.279 71.4199 263.842 71.1152C264.404 70.8105 264.838 70.4355 265.143 69.9902C265.459 69.5449 265.623 69.123 265.635 68.7246L266.971 70.8691C266.783 71.3496 266.525 71.8477 266.197 72.3633C265.881 72.8789 265.477 73.3652 264.984 73.8223C264.492 74.2676 263.9 74.6367 263.209 74.9297C262.518 75.2109 261.697 75.3516 260.748 75.3516C259.541 75.3516 258.445 75.1113 257.461 74.6309C256.488 74.1387 255.715 73.4648 255.141 72.6094C254.578 71.7422 254.297 70.7578 254.297 69.6562C254.297 68.6602 254.484 67.7754 254.859 67.002C255.234 66.2285 255.785 65.5781 256.512 65.0508C257.25 64.5117 258.17 64.1074 259.271 63.8379C260.373 63.5566 261.65 63.416 263.104 63.416H266.039ZM279.715 55.9805V75H274.635V55.9805H279.715ZM274.318 51.0234C274.318 50.2852 274.576 49.6758 275.092 49.1953C275.607 48.7148 276.299 48.4746 277.166 48.4746C278.021 48.4746 278.707 48.7148 279.223 49.1953C279.75 49.6758 280.014 50.2852 280.014 51.0234C280.014 51.7617 279.75 52.3711 279.223 52.8516C278.707 53.332 278.021 53.5723 277.166 53.5723C276.299 53.5723 275.607 53.332 275.092 52.8516C274.576 52.3711 274.318 51.7617 274.318 51.0234ZM289.242 55.9805V75H284.162V55.9805H289.242ZM283.846 51.0234C283.846 50.2852 284.104 49.6758 284.619 49.1953C285.135 48.7148 285.826 48.4746 286.693 48.4746C287.549 48.4746 288.234 48.7148 288.75 49.1953C289.277 49.6758 289.541 50.2852 289.541 51.0234C289.541 51.7617 289.277 52.3711 288.75 52.8516C288.234 53.332 287.549 53.5723 286.693 53.5723C285.826 53.5723 285.135 53.332 284.619 52.8516C284.104 52.3711 283.846 51.7617 283.846 51.0234Z" fill="#888888"/>
<path d="M118.676 126.52H128.246C128.118 129.29 127.371 131.733 126.004 133.848C124.637 135.962 122.741 137.612 120.316 138.797C117.91 139.964 115.066 140.547 111.785 140.547C109.124 140.547 106.745 140.1 104.648 139.207C102.57 138.314 100.802 137.029 99.3438 135.352C97.9036 133.674 96.8008 131.642 96.0352 129.254C95.2878 126.866 94.9141 124.177 94.9141 121.188V119.027C94.9141 116.038 95.306 113.349 96.0898 110.961C96.8919 108.555 98.0221 106.513 99.4805 104.836C100.957 103.141 102.725 101.846 104.785 100.953C106.845 100.06 109.133 99.6133 111.648 99.6133C115.112 99.6133 118.038 100.233 120.426 101.473C122.814 102.712 124.664 104.417 125.977 106.586C127.289 108.737 128.064 111.189 128.301 113.941H118.73C118.694 112.447 118.439 111.198 117.965 110.195C117.491 109.174 116.743 108.409 115.723 107.898C114.702 107.388 113.344 107.133 111.648 107.133C110.464 107.133 109.434 107.352 108.559 107.789C107.684 108.227 106.954 108.919 106.371 109.867C105.788 110.815 105.35 112.046 105.059 113.559C104.785 115.053 104.648 116.858 104.648 118.973V121.188C104.648 123.302 104.776 125.107 105.031 126.602C105.286 128.096 105.697 129.318 106.262 130.266C106.827 131.214 107.556 131.915 108.449 132.371C109.361 132.809 110.473 133.027 111.785 133.027C113.243 133.027 114.474 132.799 115.477 132.344C116.479 131.87 117.254 131.159 117.801 130.211C118.348 129.245 118.639 128.014 118.676 126.52ZM147.715 132.562V120.367C147.715 119.529 147.596 118.809 147.359 118.207C147.122 117.605 146.749 117.141 146.238 116.812C145.728 116.466 145.044 116.293 144.188 116.293C143.495 116.293 142.902 116.411 142.41 116.648C141.918 116.885 141.544 117.241 141.289 117.715C141.034 118.189 140.906 118.79 140.906 119.52H131.691C131.691 118.152 131.992 116.885 132.594 115.719C133.214 114.534 134.089 113.504 135.219 112.629C136.367 111.754 137.734 111.079 139.32 110.605C140.924 110.113 142.711 109.867 144.68 109.867C147.031 109.867 149.128 110.259 150.969 111.043C152.828 111.827 154.296 113.003 155.371 114.57C156.447 116.12 156.984 118.07 156.984 120.422V132.535C156.984 134.467 157.094 135.935 157.312 136.938C157.531 137.922 157.841 138.788 158.242 139.535V140H149C148.562 139.089 148.234 137.977 148.016 136.664C147.815 135.333 147.715 133.966 147.715 132.562ZM148.836 121.926L148.891 126.848H144.816C143.96 126.848 143.23 126.966 142.629 127.203C142.046 127.44 141.572 127.768 141.207 128.188C140.861 128.589 140.605 129.044 140.441 129.555C140.296 130.065 140.223 130.603 140.223 131.168C140.223 131.715 140.35 132.207 140.605 132.645C140.879 133.064 141.243 133.392 141.699 133.629C142.155 133.866 142.665 133.984 143.23 133.984C144.251 133.984 145.117 133.793 145.828 133.41C146.557 133.009 147.113 132.526 147.496 131.961C147.879 131.396 148.07 130.867 148.07 130.375L150.094 134.148C149.729 134.878 149.31 135.616 148.836 136.363C148.38 137.111 147.806 137.803 147.113 138.441C146.439 139.061 145.609 139.572 144.625 139.973C143.641 140.355 142.447 140.547 141.043 140.547C139.22 140.547 137.543 140.173 136.012 139.426C134.499 138.678 133.286 137.639 132.375 136.309C131.464 134.96 131.008 133.41 131.008 131.66C131.008 130.129 131.281 128.762 131.828 127.559C132.393 126.355 133.241 125.335 134.371 124.496C135.501 123.658 136.941 123.02 138.691 122.582C140.441 122.145 142.501 121.926 144.871 121.926H148.836ZM171.395 116.676V140H162.18V110.414H170.82L171.395 116.676ZM170.273 124.195L168.168 124.25C168.168 122.172 168.414 120.258 168.906 118.508C169.398 116.758 170.128 115.236 171.094 113.941C172.06 112.647 173.245 111.645 174.648 110.934C176.07 110.223 177.711 109.867 179.57 109.867C180.865 109.867 182.04 110.068 183.098 110.469C184.155 110.852 185.066 111.462 185.832 112.301C186.598 113.121 187.181 114.197 187.582 115.527C188.001 116.84 188.211 118.417 188.211 120.258V140H178.996V121.434C178.996 120.176 178.85 119.228 178.559 118.59C178.285 117.952 177.884 117.523 177.355 117.305C176.827 117.086 176.18 116.977 175.414 116.977C174.612 116.977 173.892 117.159 173.254 117.523C172.616 117.888 172.069 118.398 171.613 119.055C171.176 119.693 170.839 120.449 170.602 121.324C170.383 122.199 170.273 123.156 170.273 124.195ZM187.172 124.195L184.602 124.25C184.602 122.172 184.829 120.258 185.285 118.508C185.759 116.758 186.461 115.236 187.391 113.941C188.339 112.647 189.514 111.645 190.918 110.934C192.322 110.223 193.953 109.867 195.812 109.867C197.161 109.867 198.401 110.068 199.531 110.469C200.661 110.87 201.637 111.517 202.457 112.41C203.277 113.303 203.915 114.488 204.371 115.965C204.827 117.423 205.055 119.228 205.055 121.379V140H195.812V121.379C195.812 120.158 195.667 119.237 195.375 118.617C195.102 117.979 194.701 117.551 194.172 117.332C193.643 117.095 193.014 116.977 192.285 116.977C191.41 116.977 190.654 117.159 190.016 117.523C189.378 117.888 188.84 118.398 188.402 119.055C187.983 119.693 187.673 120.449 187.473 121.324C187.272 122.199 187.172 123.156 187.172 124.195ZM219.629 116.102V151.375H210.414V110.414H219L219.629 116.102ZM237.785 124.852V125.426C237.785 127.577 237.539 129.573 237.047 131.414C236.555 133.255 235.826 134.859 234.859 136.227C233.893 137.594 232.69 138.66 231.25 139.426C229.828 140.173 228.178 140.547 226.301 140.547C224.533 140.547 223.01 140.155 221.734 139.371C220.458 138.587 219.392 137.503 218.535 136.117C217.678 134.732 216.986 133.146 216.457 131.359C215.928 129.573 215.509 127.686 215.199 125.699V124.961C215.509 122.828 215.928 120.85 216.457 119.027C216.986 117.186 217.678 115.582 218.535 114.215C219.392 112.848 220.449 111.781 221.707 111.016C222.983 110.25 224.505 109.867 226.273 109.867C228.151 109.867 229.801 110.223 231.223 110.934C232.663 111.645 233.866 112.665 234.832 113.996C235.816 115.309 236.555 116.885 237.047 118.727C237.539 120.568 237.785 122.609 237.785 124.852ZM228.57 125.426V124.852C228.57 123.703 228.488 122.655 228.324 121.707C228.16 120.741 227.896 119.902 227.531 119.191C227.185 118.48 226.72 117.934 226.137 117.551C225.553 117.168 224.833 116.977 223.977 116.977C222.992 116.977 222.163 117.132 221.488 117.441C220.832 117.733 220.303 118.189 219.902 118.809C219.52 119.41 219.246 120.167 219.082 121.078C218.936 121.971 218.872 123.02 218.891 124.223V126.465C218.854 127.85 218.991 129.072 219.301 130.129C219.611 131.168 220.148 131.979 220.914 132.562C221.68 133.146 222.719 133.438 224.031 133.438C224.906 133.438 225.635 133.237 226.219 132.836C226.802 132.417 227.267 131.842 227.613 131.113C227.96 130.366 228.206 129.509 228.352 128.543C228.497 127.577 228.57 126.538 228.57 125.426ZM257.391 130.621L265.676 100.188H276.422L262.996 140H256.051L257.391 130.621ZM249.871 100.188L258.156 130.621L259.551 140H252.523L239.18 100.188H249.871ZM292.035 140.547C289.629 140.547 287.478 140.173 285.582 139.426C283.686 138.66 282.082 137.612 280.77 136.281C279.475 134.951 278.482 133.419 277.789 131.688C277.115 129.956 276.777 128.124 276.777 126.191V125.152C276.777 122.983 277.078 120.978 277.68 119.137C278.281 117.277 279.174 115.655 280.359 114.27C281.544 112.884 283.03 111.809 284.816 111.043C286.603 110.259 288.681 109.867 291.051 109.867C293.147 109.867 295.025 110.204 296.684 110.879C298.342 111.553 299.746 112.52 300.895 113.777C302.061 115.035 302.945 116.557 303.547 118.344C304.167 120.13 304.477 122.135 304.477 124.359V128.105H280.305V122.336H295.48V121.625C295.499 120.641 295.326 119.802 294.961 119.109C294.615 118.417 294.104 117.888 293.43 117.523C292.755 117.159 291.935 116.977 290.969 116.977C289.966 116.977 289.137 117.195 288.48 117.633C287.842 118.07 287.341 118.672 286.977 119.438C286.63 120.185 286.384 121.051 286.238 122.035C286.092 123.02 286.02 124.059 286.02 125.152V126.191C286.02 127.285 286.165 128.279 286.457 129.172C286.767 130.065 287.204 130.831 287.77 131.469C288.353 132.089 289.046 132.572 289.848 132.918C290.668 133.264 291.598 133.438 292.637 133.438C293.895 133.438 295.134 133.201 296.355 132.727C297.577 132.253 298.625 131.469 299.5 130.375L303.684 135.352C303.082 136.208 302.225 137.038 301.113 137.84C300.02 138.642 298.707 139.298 297.176 139.809C295.645 140.301 293.931 140.547 292.035 140.547ZM317.52 117.742V140H308.305V110.414H316.918L317.52 117.742ZM326.27 110.195L326.105 118.754C325.741 118.717 325.249 118.672 324.629 118.617C324.009 118.562 323.49 118.535 323.07 118.535C321.995 118.535 321.065 118.663 320.281 118.918C319.516 119.155 318.878 119.52 318.367 120.012C317.875 120.486 317.51 121.087 317.273 121.816C317.055 122.546 316.954 123.393 316.973 124.359L315.305 123.266C315.305 121.279 315.496 119.474 315.879 117.852C316.28 116.211 316.845 114.798 317.574 113.613C318.303 112.41 319.188 111.49 320.227 110.852C321.266 110.195 322.432 109.867 323.727 109.867C324.182 109.867 324.629 109.895 325.066 109.949C325.522 110.004 325.923 110.086 326.27 110.195ZM344.945 131.688C344.945 131.177 344.772 130.74 344.426 130.375C344.098 129.992 343.514 129.646 342.676 129.336C341.837 129.008 340.661 128.68 339.148 128.352C337.708 128.042 336.35 127.632 335.074 127.121C333.816 126.611 332.714 125.991 331.766 125.262C330.818 124.533 330.07 123.667 329.523 122.664C328.995 121.661 328.73 120.513 328.73 119.219C328.73 117.961 328.995 116.776 329.523 115.664C330.07 114.534 330.863 113.54 331.902 112.684C332.96 111.809 334.245 111.125 335.758 110.633C337.271 110.122 338.993 109.867 340.926 109.867C343.587 109.867 345.884 110.277 347.816 111.098C349.749 111.9 351.234 113.03 352.273 114.488C353.331 115.928 353.859 117.596 353.859 119.492H344.645C344.645 118.745 344.517 118.107 344.262 117.578C344.025 117.049 343.633 116.648 343.086 116.375C342.539 116.083 341.81 115.938 340.898 115.938C340.26 115.938 339.677 116.056 339.148 116.293C338.638 116.53 338.228 116.858 337.918 117.277C337.608 117.697 337.453 118.189 337.453 118.754C337.453 119.155 337.544 119.52 337.727 119.848C337.927 120.158 338.228 120.449 338.629 120.723C339.03 120.978 339.54 121.215 340.16 121.434C340.78 121.634 341.527 121.816 342.402 121.98C344.389 122.345 346.249 122.865 347.98 123.539C349.712 124.214 351.116 125.171 352.191 126.41C353.285 127.65 353.832 129.318 353.832 131.414C353.832 132.727 353.531 133.939 352.93 135.051C352.328 136.145 351.462 137.111 350.332 137.949C349.202 138.77 347.844 139.408 346.258 139.863C344.672 140.319 342.885 140.547 340.898 140.547C338.073 140.547 335.685 140.046 333.734 139.043C331.784 138.022 330.307 136.746 329.305 135.215C328.32 133.665 327.828 132.098 327.828 130.512H336.414C336.451 131.423 336.669 132.171 337.07 132.754C337.49 133.337 338.046 133.766 338.738 134.039C339.431 134.312 340.233 134.449 341.145 134.449C341.983 134.449 342.676 134.331 343.223 134.094C343.788 133.857 344.216 133.538 344.508 133.137C344.799 132.717 344.945 132.234 344.945 131.688ZM372.48 140.547C370.074 140.547 367.923 140.173 366.027 139.426C364.132 138.66 362.527 137.612 361.215 136.281C359.921 134.951 358.927 133.419 358.234 131.688C357.56 129.956 357.223 128.124 357.223 126.191V125.152C357.223 122.983 357.523 120.978 358.125 119.137C358.727 117.277 359.62 115.655 360.805 114.27C361.99 112.884 363.475 111.809 365.262 111.043C367.048 110.259 369.126 109.867 371.496 109.867C373.592 109.867 375.47 110.204 377.129 110.879C378.788 111.553 380.191 112.52 381.34 113.777C382.507 115.035 383.391 116.557 383.992 118.344C384.612 120.13 384.922 122.135 384.922 124.359V128.105H360.75V122.336H375.926V121.625C375.944 120.641 375.771 119.802 375.406 119.109C375.06 118.417 374.549 117.888 373.875 117.523C373.201 117.159 372.38 116.977 371.414 116.977C370.411 116.977 369.582 117.195 368.926 117.633C368.288 118.07 367.786 118.672 367.422 119.438C367.076 120.185 366.829 121.051 366.684 122.035C366.538 123.02 366.465 124.059 366.465 125.152V126.191C366.465 127.285 366.611 128.279 366.902 129.172C367.212 130.065 367.65 130.831 368.215 131.469C368.798 132.089 369.491 132.572 370.293 132.918C371.113 133.264 372.043 133.438 373.082 133.438C374.34 133.438 375.579 133.201 376.801 132.727C378.022 132.253 379.07 131.469 379.945 130.375L384.129 135.352C383.527 136.208 382.671 137.038 381.559 137.84C380.465 138.642 379.152 139.298 377.621 139.809C376.09 140.301 374.376 140.547 372.48 140.547Z" fill="black"/>
<rect x="93" y="178" width="917" height="77" rx="10" fill="#D3D3D3"/>
<rect x="111" y="196" width="91" height="41" rx="3" fill="#424242"/>
<rect x="111" y="196" width="91" height="41" rx="3" stroke="#424242" stroke-width="4"/>
<path d="M134.141 210.203H139.177C140.161 210.203 141.017 210.35 141.743 210.643C142.47 210.936 143.029 211.369 143.422 211.943C143.82 212.518 144.02 213.227 144.02 214.07C144.02 214.803 143.905 215.415 143.677 215.907C143.448 216.399 143.129 216.807 142.719 217.129C142.314 217.445 141.843 217.706 141.304 217.911L140.293 218.482H136.065L136.048 216.101H139.177C139.569 216.101 139.895 216.03 140.152 215.89C140.41 215.749 140.604 215.55 140.732 215.292C140.867 215.028 140.935 214.715 140.935 214.352C140.935 213.982 140.867 213.666 140.732 213.402C140.598 213.139 140.398 212.937 140.135 212.796C139.877 212.655 139.558 212.585 139.177 212.585H137.226V223H134.141V210.203ZM141.146 223L138.315 217.34L141.585 217.322L144.45 222.868V223H141.146ZM150.348 223.176C149.574 223.176 148.883 223.056 148.273 222.815C147.664 222.569 147.148 222.232 146.727 221.805C146.311 221.377 145.991 220.885 145.769 220.328C145.552 219.771 145.443 219.183 145.443 218.562V218.228C145.443 217.53 145.54 216.886 145.733 216.294C145.927 215.696 146.214 215.175 146.595 214.729C146.976 214.284 147.453 213.938 148.027 213.692C148.602 213.44 149.27 213.314 150.031 213.314C150.705 213.314 151.309 213.423 151.842 213.64C152.375 213.856 152.826 214.167 153.195 214.571C153.57 214.976 153.854 215.465 154.048 216.039C154.247 216.613 154.347 217.258 154.347 217.973V219.177H146.577V217.322H151.455V217.094C151.461 216.777 151.405 216.508 151.288 216.285C151.177 216.062 151.013 215.893 150.796 215.775C150.579 215.658 150.315 215.6 150.005 215.6C149.683 215.6 149.416 215.67 149.205 215.811C149 215.951 148.839 216.145 148.722 216.391C148.61 216.631 148.531 216.909 148.484 217.226C148.438 217.542 148.414 217.876 148.414 218.228V218.562C148.414 218.913 148.461 219.232 148.555 219.52C148.654 219.807 148.795 220.053 148.977 220.258C149.164 220.457 149.387 220.612 149.645 220.724C149.908 220.835 150.207 220.891 150.541 220.891C150.945 220.891 151.344 220.814 151.736 220.662C152.129 220.51 152.466 220.258 152.747 219.906L154.092 221.506C153.898 221.781 153.623 222.048 153.266 222.306C152.914 222.563 152.492 222.774 152 222.938C151.508 223.097 150.957 223.176 150.348 223.176ZM160.49 220.609V216.689C160.49 216.42 160.452 216.188 160.376 215.995C160.3 215.802 160.18 215.652 160.016 215.547C159.852 215.436 159.632 215.38 159.356 215.38C159.134 215.38 158.943 215.418 158.785 215.494C158.627 215.57 158.507 215.685 158.425 215.837C158.343 215.989 158.302 216.183 158.302 216.417H155.34C155.34 215.978 155.437 215.57 155.63 215.195C155.829 214.814 156.11 214.483 156.474 214.202C156.843 213.921 157.282 213.704 157.792 213.552C158.308 213.394 158.882 213.314 159.515 213.314C160.271 213.314 160.944 213.44 161.536 213.692C162.134 213.944 162.605 214.322 162.951 214.826C163.297 215.324 163.47 215.951 163.47 216.707V220.601C163.47 221.222 163.505 221.693 163.575 222.016C163.646 222.332 163.745 222.61 163.874 222.851V223H160.903C160.763 222.707 160.657 222.35 160.587 221.928C160.522 221.5 160.49 221.061 160.49 220.609ZM160.851 217.19L160.868 218.772H159.559C159.283 218.772 159.049 218.811 158.855 218.887C158.668 218.963 158.516 219.068 158.398 219.203C158.287 219.332 158.205 219.479 158.152 219.643C158.105 219.807 158.082 219.979 158.082 220.161C158.082 220.337 158.123 220.495 158.205 220.636C158.293 220.771 158.41 220.876 158.557 220.952C158.703 221.028 158.867 221.066 159.049 221.066C159.377 221.066 159.655 221.005 159.884 220.882C160.118 220.753 160.297 220.598 160.42 220.416C160.543 220.234 160.604 220.064 160.604 219.906L161.255 221.119C161.138 221.354 161.003 221.591 160.851 221.831C160.704 222.071 160.52 222.294 160.297 222.499C160.08 222.698 159.813 222.862 159.497 222.991C159.181 223.114 158.797 223.176 158.346 223.176C157.76 223.176 157.221 223.056 156.729 222.815C156.242 222.575 155.853 222.241 155.56 221.813C155.267 221.38 155.12 220.882 155.12 220.319C155.12 219.827 155.208 219.388 155.384 219.001C155.565 218.614 155.838 218.286 156.201 218.017C156.564 217.747 157.027 217.542 157.59 217.401C158.152 217.261 158.814 217.19 159.576 217.19H160.851ZM169.13 220.891C169.405 220.891 169.64 220.841 169.833 220.741C170.032 220.636 170.182 220.489 170.281 220.302C170.387 220.108 170.437 219.877 170.431 219.607H173.217C173.223 220.322 173.047 220.949 172.689 221.488C172.338 222.021 171.857 222.438 171.248 222.736C170.645 223.029 169.962 223.176 169.2 223.176C168.456 223.176 167.806 223.056 167.249 222.815C166.692 222.569 166.227 222.229 165.852 221.796C165.482 221.356 165.204 220.844 165.017 220.258C164.835 219.672 164.744 219.036 164.744 218.351V218.148C164.744 217.463 164.835 216.827 165.017 216.241C165.204 215.649 165.482 215.137 165.852 214.703C166.227 214.264 166.689 213.924 167.24 213.684C167.797 213.438 168.444 213.314 169.183 213.314C169.974 213.314 170.671 213.464 171.274 213.763C171.884 214.062 172.361 214.495 172.707 215.063C173.053 215.632 173.223 216.32 173.217 217.129H170.431C170.437 216.842 170.393 216.584 170.299 216.355C170.205 216.127 170.059 215.945 169.859 215.811C169.666 215.67 169.417 215.6 169.112 215.6C168.808 215.6 168.562 215.667 168.374 215.802C168.187 215.937 168.043 216.124 167.943 216.364C167.85 216.599 167.785 216.868 167.75 217.173C167.721 217.478 167.706 217.803 167.706 218.148V218.351C167.706 218.702 167.721 219.033 167.75 219.344C167.785 219.648 167.853 219.918 167.952 220.152C168.052 220.381 168.195 220.562 168.383 220.697C168.57 220.826 168.819 220.891 169.13 220.891ZM179.492 213.49V215.547H173.762V213.49H179.492ZM174.966 211.126H177.928V219.897C177.928 220.149 177.957 220.346 178.016 220.486C178.074 220.621 178.174 220.718 178.314 220.776C178.461 220.829 178.654 220.855 178.895 220.855C179.064 220.855 179.205 220.853 179.316 220.847C179.428 220.835 179.533 220.82 179.633 220.803V222.921C179.381 223.003 179.117 223.064 178.842 223.105C178.566 223.152 178.273 223.176 177.963 223.176C177.33 223.176 176.788 223.076 176.337 222.877C175.892 222.678 175.552 222.364 175.317 221.937C175.083 221.509 174.966 220.952 174.966 220.267V211.126Z" fill="white"/>
<rect x="222" y="196" width="133" height="41" rx="3" fill="#424242"/>
<rect x="222" y="196" width="133" height="41" rx="3" stroke="#424242" stroke-width="4"/>
<path d="M251.34 210.203V223H248.255V210.203H251.34ZM255.189 210.203V212.585H244.493V210.203H255.189ZM258.556 221.884L261.017 213.49H264.198L260.375 224.415C260.293 224.655 260.185 224.913 260.05 225.188C259.915 225.47 259.73 225.736 259.496 225.988C259.262 226.24 258.96 226.445 258.591 226.604C258.228 226.762 257.776 226.841 257.237 226.841C256.95 226.841 256.739 226.826 256.604 226.797C256.476 226.773 256.276 226.729 256.007 226.665V224.547C256.083 224.547 256.147 224.547 256.2 224.547C256.259 224.547 256.323 224.547 256.394 224.547C256.71 224.547 256.962 224.515 257.149 224.45C257.343 224.386 257.489 224.292 257.589 224.169C257.694 224.046 257.776 223.896 257.835 223.721L258.556 221.884ZM257.932 213.49L259.804 220.144L260.129 223.281H258.143L254.759 213.49H257.932ZM267.96 215.318V226.656H264.998V213.49H267.758L267.96 215.318ZM273.796 218.131V218.315C273.796 219.007 273.717 219.648 273.559 220.24C273.4 220.832 273.166 221.348 272.855 221.787C272.545 222.227 272.158 222.569 271.695 222.815C271.238 223.056 270.708 223.176 270.104 223.176C269.536 223.176 269.047 223.05 268.637 222.798C268.227 222.546 267.884 222.197 267.608 221.752C267.333 221.307 267.11 220.797 266.94 220.223C266.771 219.648 266.636 219.042 266.536 218.403V218.166C266.636 217.48 266.771 216.845 266.94 216.259C267.11 215.667 267.333 215.151 267.608 214.712C267.884 214.272 268.224 213.93 268.628 213.684C269.038 213.438 269.527 213.314 270.096 213.314C270.699 213.314 271.229 213.429 271.687 213.657C272.149 213.886 272.536 214.214 272.847 214.642C273.163 215.063 273.4 215.57 273.559 216.162C273.717 216.754 273.796 217.41 273.796 218.131ZM270.834 218.315V218.131C270.834 217.762 270.808 217.425 270.755 217.12C270.702 216.81 270.617 216.54 270.5 216.312C270.389 216.083 270.239 215.907 270.052 215.784C269.864 215.661 269.633 215.6 269.357 215.6C269.041 215.6 268.774 215.649 268.558 215.749C268.347 215.843 268.177 215.989 268.048 216.188C267.925 216.382 267.837 216.625 267.784 216.918C267.737 217.205 267.717 217.542 267.723 217.929V218.649C267.711 219.095 267.755 219.487 267.854 219.827C267.954 220.161 268.127 220.422 268.373 220.609C268.619 220.797 268.953 220.891 269.375 220.891C269.656 220.891 269.891 220.826 270.078 220.697C270.266 220.562 270.415 220.378 270.526 220.144C270.638 219.903 270.717 219.628 270.764 219.317C270.811 219.007 270.834 218.673 270.834 218.315ZM279.72 223.176C278.946 223.176 278.255 223.056 277.646 222.815C277.036 222.569 276.521 222.232 276.099 221.805C275.683 221.377 275.363 220.885 275.141 220.328C274.924 219.771 274.815 219.183 274.815 218.562V218.228C274.815 217.53 274.912 216.886 275.105 216.294C275.299 215.696 275.586 215.175 275.967 214.729C276.348 214.284 276.825 213.938 277.399 213.692C277.974 213.44 278.642 213.314 279.403 213.314C280.077 213.314 280.681 213.423 281.214 213.64C281.747 213.856 282.198 214.167 282.567 214.571C282.942 214.976 283.227 215.465 283.42 216.039C283.619 216.613 283.719 217.258 283.719 217.973V219.177H275.949V217.322H280.827V217.094C280.833 216.777 280.777 216.508 280.66 216.285C280.549 216.062 280.385 215.893 280.168 215.775C279.951 215.658 279.688 215.6 279.377 215.6C279.055 215.6 278.788 215.67 278.577 215.811C278.372 215.951 278.211 216.145 278.094 216.391C277.982 216.631 277.903 216.909 277.856 217.226C277.81 217.542 277.786 217.876 277.786 218.228V218.562C277.786 218.913 277.833 219.232 277.927 219.52C278.026 219.807 278.167 220.053 278.349 220.258C278.536 220.457 278.759 220.612 279.017 220.724C279.28 220.835 279.579 220.891 279.913 220.891C280.317 220.891 280.716 220.814 281.108 220.662C281.501 220.51 281.838 220.258 282.119 219.906L283.464 221.506C283.271 221.781 282.995 222.048 282.638 222.306C282.286 222.563 281.864 222.774 281.372 222.938C280.88 223.097 280.329 223.176 279.72 223.176ZM291.655 219.599C291.655 219.399 291.626 219.221 291.567 219.062C291.509 218.898 291.4 218.746 291.242 218.605C291.084 218.465 290.855 218.324 290.557 218.184C290.264 218.037 289.877 217.885 289.396 217.727C288.834 217.539 288.292 217.328 287.771 217.094C287.249 216.854 286.783 216.575 286.373 216.259C285.963 215.937 285.638 215.562 285.397 215.134C285.157 214.7 285.037 214.196 285.037 213.622C285.037 213.071 285.16 212.576 285.406 212.137C285.652 211.691 285.995 211.313 286.435 211.003C286.88 210.687 287.401 210.446 287.999 210.282C288.597 210.112 289.25 210.027 289.959 210.027C290.896 210.027 291.723 210.191 292.438 210.52C293.158 210.842 293.721 211.302 294.125 211.899C294.535 212.491 294.74 213.191 294.74 214H291.673C291.673 213.678 291.605 213.394 291.471 213.147C291.342 212.901 291.146 212.708 290.882 212.567C290.618 212.427 290.287 212.356 289.889 212.356C289.502 212.356 289.177 212.415 288.913 212.532C288.649 212.649 288.45 212.808 288.315 213.007C288.181 213.2 288.113 213.414 288.113 213.648C288.113 213.842 288.166 214.018 288.271 214.176C288.383 214.328 288.538 214.472 288.737 214.606C288.942 214.741 289.188 214.87 289.476 214.993C289.769 215.116 290.097 215.236 290.46 215.354C291.14 215.57 291.743 215.813 292.271 216.083C292.804 216.347 293.252 216.648 293.615 216.988C293.984 217.322 294.263 217.703 294.45 218.131C294.644 218.559 294.74 219.042 294.74 219.581C294.74 220.155 294.629 220.665 294.406 221.11C294.184 221.556 293.864 221.934 293.448 222.244C293.032 222.549 292.534 222.78 291.954 222.938C291.374 223.097 290.727 223.176 290.012 223.176C289.355 223.176 288.708 223.094 288.069 222.93C287.437 222.76 286.862 222.502 286.347 222.156C285.831 221.805 285.418 221.356 285.107 220.812C284.803 220.261 284.65 219.607 284.65 218.852H287.744C287.744 219.227 287.794 219.543 287.894 219.801C287.993 220.059 288.14 220.267 288.333 220.425C288.526 220.577 288.764 220.688 289.045 220.759C289.326 220.823 289.648 220.855 290.012 220.855C290.404 220.855 290.721 220.8 290.961 220.688C291.201 220.571 291.377 220.419 291.488 220.231C291.6 220.038 291.655 219.827 291.655 219.599ZM300.207 220.891C300.482 220.891 300.717 220.841 300.91 220.741C301.109 220.636 301.259 220.489 301.358 220.302C301.464 220.108 301.514 219.877 301.508 219.607H304.294C304.3 220.322 304.124 220.949 303.767 221.488C303.415 222.021 302.935 222.438 302.325 222.736C301.722 223.029 301.039 223.176 300.277 223.176C299.533 223.176 298.883 223.056 298.326 222.815C297.77 222.569 297.304 222.229 296.929 221.796C296.56 221.356 296.281 220.844 296.094 220.258C295.912 219.672 295.821 219.036 295.821 218.351V218.148C295.821 217.463 295.912 216.827 296.094 216.241C296.281 215.649 296.56 215.137 296.929 214.703C297.304 214.264 297.767 213.924 298.317 213.684C298.874 213.438 299.521 213.314 300.26 213.314C301.051 213.314 301.748 213.464 302.352 213.763C302.961 214.062 303.438 214.495 303.784 215.063C304.13 215.632 304.3 216.32 304.294 217.129H301.508C301.514 216.842 301.47 216.584 301.376 216.355C301.282 216.127 301.136 215.945 300.937 215.811C300.743 215.67 300.494 215.6 300.189 215.6C299.885 215.6 299.639 215.667 299.451 215.802C299.264 215.937 299.12 216.124 299.021 216.364C298.927 216.599 298.862 216.868 298.827 217.173C298.798 217.478 298.783 217.803 298.783 218.148V218.351C298.783 218.702 298.798 219.033 298.827 219.344C298.862 219.648 298.93 219.918 299.029 220.152C299.129 220.381 299.272 220.562 299.46 220.697C299.647 220.826 299.896 220.891 300.207 220.891ZM308.548 215.846V223H305.586V213.49H308.354L308.548 215.846ZM311.36 213.42L311.308 216.171C311.19 216.159 311.032 216.145 310.833 216.127C310.634 216.109 310.467 216.101 310.332 216.101C309.986 216.101 309.688 216.142 309.436 216.224C309.189 216.3 308.984 216.417 308.82 216.575C308.662 216.728 308.545 216.921 308.469 217.155C308.398 217.39 308.366 217.662 308.372 217.973L307.836 217.621C307.836 216.982 307.897 216.402 308.021 215.881C308.149 215.354 308.331 214.899 308.565 214.519C308.8 214.132 309.084 213.836 309.418 213.631C309.752 213.42 310.127 213.314 310.543 213.314C310.689 213.314 310.833 213.323 310.974 213.341C311.12 213.358 311.249 213.385 311.36 213.42ZM315.509 213.49V223H312.538V213.49H315.509ZM312.362 211.038C312.362 210.616 312.515 210.271 312.819 210.001C313.124 209.731 313.52 209.597 314.006 209.597C314.492 209.597 314.888 209.731 315.192 210.001C315.497 210.271 315.649 210.616 315.649 211.038C315.649 211.46 315.497 211.806 315.192 212.075C314.888 212.345 314.492 212.479 314.006 212.479C313.52 212.479 313.124 212.345 312.819 212.075C312.515 211.806 312.362 211.46 312.362 211.038ZM320.325 215.318V226.656H317.363V213.49H320.123L320.325 215.318ZM326.161 218.131V218.315C326.161 219.007 326.082 219.648 325.924 220.24C325.766 220.832 325.531 221.348 325.221 221.787C324.91 222.227 324.523 222.569 324.061 222.815C323.604 223.056 323.073 223.176 322.47 223.176C321.901 223.176 321.412 223.05 321.002 222.798C320.592 222.546 320.249 222.197 319.974 221.752C319.698 221.307 319.476 220.797 319.306 220.223C319.136 219.648 319.001 219.042 318.901 218.403V218.166C319.001 217.48 319.136 216.845 319.306 216.259C319.476 215.667 319.698 215.151 319.974 214.712C320.249 214.272 320.589 213.93 320.993 213.684C321.403 213.438 321.893 213.314 322.461 213.314C323.064 213.314 323.595 213.429 324.052 213.657C324.515 213.886 324.901 214.214 325.212 214.642C325.528 215.063 325.766 215.57 325.924 216.162C326.082 216.754 326.161 217.41 326.161 218.131ZM323.199 218.315V218.131C323.199 217.762 323.173 217.425 323.12 217.12C323.067 216.81 322.982 216.54 322.865 216.312C322.754 216.083 322.604 215.907 322.417 215.784C322.229 215.661 321.998 215.6 321.723 215.6C321.406 215.6 321.14 215.649 320.923 215.749C320.712 215.843 320.542 215.989 320.413 216.188C320.29 216.382 320.202 216.625 320.149 216.918C320.103 217.205 320.082 217.542 320.088 217.929V218.649C320.076 219.095 320.12 219.487 320.22 219.827C320.319 220.161 320.492 220.422 320.738 220.609C320.984 220.797 321.318 220.891 321.74 220.891C322.021 220.891 322.256 220.826 322.443 220.697C322.631 220.562 322.78 220.378 322.892 220.144C323.003 219.903 323.082 219.628 323.129 219.317C323.176 219.007 323.199 218.673 323.199 218.315ZM332.489 213.49V215.547H326.759V213.49H332.489ZM327.963 211.126H330.925V219.897C330.925 220.149 330.954 220.346 331.013 220.486C331.071 220.621 331.171 220.718 331.312 220.776C331.458 220.829 331.651 220.855 331.892 220.855C332.062 220.855 332.202 220.853 332.313 220.847C332.425 220.835 332.53 220.82 332.63 220.803V222.921C332.378 223.003 332.114 223.064 331.839 223.105C331.563 223.152 331.271 223.176 330.96 223.176C330.327 223.176 329.785 223.076 329.334 222.877C328.889 222.678 328.549 222.364 328.314 221.937C328.08 221.509 327.963 220.952 327.963 220.267V211.126Z" fill="white"/>
<rect x="375" y="196" width="69" height="41" rx="3" fill="#424242"/>
<rect x="375" y="196" width="69" height="41" rx="3" stroke="#424242" stroke-width="4"/>
<path d="M408.595 216.162V221.418C408.378 221.658 408.044 221.916 407.593 222.191C407.147 222.461 406.585 222.692 405.905 222.886C405.226 223.079 404.426 223.176 403.506 223.176C402.656 223.176 401.886 223.041 401.194 222.771C400.503 222.496 399.908 222.095 399.41 221.567C398.918 221.034 398.537 220.384 398.268 219.616C398.004 218.843 397.872 217.958 397.872 216.962V216.25C397.872 215.254 398.007 214.369 398.276 213.596C398.546 212.822 398.924 212.172 399.41 211.645C399.902 211.111 400.479 210.707 401.142 210.432C401.81 210.156 402.542 210.019 403.339 210.019C404.517 210.019 405.475 210.206 406.213 210.581C406.951 210.95 407.511 211.463 407.892 212.119C408.272 212.77 408.504 213.522 408.586 214.378H405.624C405.565 213.956 405.454 213.599 405.29 213.306C405.132 213.007 404.903 212.781 404.604 212.629C404.306 212.471 403.919 212.392 403.444 212.392C403.075 212.392 402.738 212.471 402.434 212.629C402.135 212.787 401.88 213.027 401.669 213.35C401.458 213.666 401.294 214.064 401.177 214.545C401.065 215.025 401.01 215.588 401.01 216.232V216.962C401.01 217.601 401.062 218.16 401.168 218.641C401.279 219.121 401.443 219.522 401.66 219.845C401.883 220.161 402.164 220.401 402.504 220.565C402.85 220.724 403.257 220.803 403.726 220.803C404.054 220.803 404.335 220.776 404.569 220.724C404.804 220.665 404.997 220.595 405.149 220.513C405.308 220.425 405.428 220.343 405.51 220.267V218.28H403.365V216.162H408.595ZM421.225 216.347V216.865C421.225 217.844 421.087 218.723 420.812 219.502C420.542 220.275 420.158 220.938 419.66 221.488C419.162 222.033 418.573 222.452 417.894 222.745C417.214 223.032 416.464 223.176 415.644 223.176C414.817 223.176 414.062 223.032 413.376 222.745C412.696 222.452 412.104 222.033 411.601 221.488C411.103 220.938 410.716 220.275 410.44 219.502C410.171 218.723 410.036 217.844 410.036 216.865V216.347C410.036 215.368 410.171 214.489 410.44 213.71C410.716 212.931 411.1 212.269 411.592 211.724C412.09 211.173 412.679 210.754 413.358 210.467C414.044 210.174 414.8 210.027 415.626 210.027C416.446 210.027 417.196 210.174 417.876 210.467C418.562 210.754 419.153 211.173 419.651 211.724C420.149 212.269 420.536 212.931 420.812 213.71C421.087 214.489 421.225 215.368 421.225 216.347ZM418.096 216.865V216.329C418.096 215.696 418.04 215.14 417.929 214.659C417.823 214.173 417.665 213.766 417.454 213.438C417.243 213.109 416.982 212.863 416.672 212.699C416.367 212.529 416.019 212.444 415.626 212.444C415.216 212.444 414.858 212.529 414.554 212.699C414.249 212.863 413.994 213.109 413.789 213.438C413.584 213.766 413.429 214.173 413.323 214.659C413.224 215.14 413.174 215.696 413.174 216.329V216.865C413.174 217.492 413.224 218.049 413.323 218.535C413.429 219.016 413.584 219.423 413.789 219.757C414 220.091 414.258 220.343 414.562 220.513C414.873 220.683 415.233 220.768 415.644 220.768C416.036 220.768 416.385 220.683 416.689 220.513C416.994 220.343 417.249 220.091 417.454 219.757C417.665 219.423 417.823 219.016 417.929 218.535C418.04 218.049 418.096 217.492 418.096 216.865Z" fill="white"/>
<rect x="464" y="196" width="109" height="41" rx="3" fill="#424242"/>
<rect x="464" y="196" width="109" height="41" rx="3" stroke="#424242" stroke-width="4"/>
<path d="M498.118 210.203V223H495.042L490.516 215.037V223H487.431V210.203H490.516L495.042 218.166V210.203H498.118ZM499.56 218.342V218.157C499.56 217.46 499.659 216.818 499.858 216.232C500.058 215.641 500.351 215.128 500.737 214.694C501.124 214.261 501.602 213.924 502.17 213.684C502.738 213.438 503.395 213.314 504.139 213.314C504.889 213.314 505.548 213.438 506.116 213.684C506.69 213.924 507.171 214.261 507.558 214.694C507.944 215.128 508.237 215.641 508.437 216.232C508.636 216.818 508.735 217.46 508.735 218.157V218.342C508.735 219.033 508.636 219.675 508.437 220.267C508.237 220.853 507.944 221.365 507.558 221.805C507.171 222.238 506.693 222.575 506.125 222.815C505.557 223.056 504.9 223.176 504.156 223.176C503.412 223.176 502.753 223.056 502.179 222.815C501.604 222.575 501.124 222.238 500.737 221.805C500.351 221.365 500.058 220.853 499.858 220.267C499.659 219.675 499.56 219.033 499.56 218.342ZM502.521 218.157V218.342C502.521 218.699 502.548 219.033 502.601 219.344C502.653 219.654 502.741 219.927 502.864 220.161C502.987 220.39 503.154 220.568 503.365 220.697C503.576 220.826 503.84 220.891 504.156 220.891C504.467 220.891 504.725 220.826 504.93 220.697C505.141 220.568 505.308 220.39 505.431 220.161C505.554 219.927 505.642 219.654 505.694 219.344C505.747 219.033 505.773 218.699 505.773 218.342V218.157C505.773 217.812 505.747 217.486 505.694 217.182C505.642 216.871 505.554 216.599 505.431 216.364C505.308 216.124 505.141 215.937 504.93 215.802C504.719 215.667 504.455 215.6 504.139 215.6C503.828 215.6 503.567 215.667 503.356 215.802C503.151 215.937 502.987 216.124 502.864 216.364C502.741 216.599 502.653 216.871 502.601 217.182C502.548 217.486 502.521 217.812 502.521 218.157ZM515.521 220.82V209.5H518.5V223H515.828L515.521 220.82ZM509.685 218.359V218.175C509.685 217.454 509.764 216.798 509.922 216.206C510.08 215.608 510.314 215.096 510.625 214.668C510.936 214.234 511.322 213.9 511.785 213.666C512.248 213.432 512.781 213.314 513.385 213.314C513.924 213.314 514.396 213.44 514.8 213.692C515.204 213.938 515.55 214.284 515.837 214.729C516.124 215.175 516.358 215.696 516.54 216.294C516.722 216.886 516.859 217.524 516.953 218.21V218.43C516.859 219.074 516.722 219.684 516.54 220.258C516.358 220.826 516.124 221.33 515.837 221.77C515.55 222.209 515.201 222.555 514.791 222.807C514.387 223.053 513.912 223.176 513.367 223.176C512.764 223.176 512.23 223.056 511.768 222.815C511.311 222.575 510.927 222.238 510.616 221.805C510.312 221.371 510.08 220.861 509.922 220.275C509.764 219.689 509.685 219.051 509.685 218.359ZM512.646 218.175V218.359C512.646 218.717 512.67 219.048 512.717 219.353C512.764 219.657 512.843 219.927 512.954 220.161C513.071 220.39 513.224 220.568 513.411 220.697C513.604 220.826 513.842 220.891 514.123 220.891C514.504 220.891 514.817 220.8 515.063 220.618C515.315 220.437 515.5 220.179 515.617 219.845C515.74 219.511 515.793 219.118 515.775 218.667V217.973C515.787 217.586 515.761 217.246 515.696 216.953C515.632 216.654 515.529 216.405 515.389 216.206C515.254 216.007 515.081 215.857 514.87 215.758C514.665 215.652 514.422 215.6 514.141 215.6C513.865 215.6 513.631 215.664 513.438 215.793C513.25 215.922 513.098 216.104 512.98 216.338C512.863 216.566 512.778 216.839 512.726 217.155C512.673 217.466 512.646 217.806 512.646 218.175ZM524.784 223.176C524.011 223.176 523.319 223.056 522.71 222.815C522.101 222.569 521.585 222.232 521.163 221.805C520.747 221.377 520.428 220.885 520.205 220.328C519.988 219.771 519.88 219.183 519.88 218.562V218.228C519.88 217.53 519.977 216.886 520.17 216.294C520.363 215.696 520.65 215.175 521.031 214.729C521.412 214.284 521.89 213.938 522.464 213.692C523.038 213.44 523.706 213.314 524.468 213.314C525.142 213.314 525.745 213.423 526.278 213.64C526.812 213.856 527.263 214.167 527.632 214.571C528.007 214.976 528.291 215.465 528.484 216.039C528.684 216.613 528.783 217.258 528.783 217.973V219.177H521.014V217.322H525.892V217.094C525.897 216.777 525.842 216.508 525.725 216.285C525.613 216.062 525.449 215.893 525.232 215.775C525.016 215.658 524.752 215.6 524.441 215.6C524.119 215.6 523.853 215.67 523.642 215.811C523.437 215.951 523.275 216.145 523.158 216.391C523.047 216.631 522.968 216.909 522.921 217.226C522.874 217.542 522.851 217.876 522.851 218.228V218.562C522.851 218.913 522.897 219.232 522.991 219.52C523.091 219.807 523.231 220.053 523.413 220.258C523.601 220.457 523.823 220.612 524.081 220.724C524.345 220.835 524.644 220.891 524.978 220.891C525.382 220.891 525.78 220.814 526.173 220.662C526.565 220.51 526.902 220.258 527.184 219.906L528.528 221.506C528.335 221.781 528.06 222.048 527.702 222.306C527.351 222.563 526.929 222.774 526.437 222.938C525.944 223.097 525.394 223.176 524.784 223.176ZM535.217 218.983V210.203H538.293V218.983C538.293 219.839 538.097 220.58 537.704 221.207C537.317 221.834 536.79 222.32 536.122 222.666C535.46 223.006 534.716 223.176 533.89 223.176C533.034 223.176 532.272 223.032 531.604 222.745C530.942 222.458 530.421 222.016 530.04 221.418C529.665 220.82 529.478 220.059 529.478 219.133H532.571C532.571 219.566 532.621 219.906 532.721 220.152C532.82 220.393 532.967 220.562 533.16 220.662C533.359 220.756 533.603 220.803 533.89 220.803C534.171 220.803 534.408 220.732 534.602 220.592C534.801 220.445 534.953 220.237 535.059 219.968C535.164 219.692 535.217 219.364 535.217 218.983ZM546.845 219.599C546.845 219.399 546.815 219.221 546.757 219.062C546.698 218.898 546.59 218.746 546.432 218.605C546.273 218.465 546.045 218.324 545.746 218.184C545.453 218.037 545.066 217.885 544.586 217.727C544.023 217.539 543.481 217.328 542.96 217.094C542.438 216.854 541.973 216.575 541.562 216.259C541.152 215.937 540.827 215.562 540.587 215.134C540.347 214.7 540.227 214.196 540.227 213.622C540.227 213.071 540.35 212.576 540.596 212.137C540.842 211.691 541.185 211.313 541.624 211.003C542.069 210.687 542.591 210.446 543.188 210.282C543.786 210.112 544.439 210.027 545.148 210.027C546.086 210.027 546.912 210.191 547.627 210.52C548.348 210.842 548.91 211.302 549.314 211.899C549.725 212.491 549.93 213.191 549.93 214H546.862C546.862 213.678 546.795 213.394 546.66 213.147C546.531 212.901 546.335 212.708 546.071 212.567C545.808 212.427 545.477 212.356 545.078 212.356C544.691 212.356 544.366 212.415 544.103 212.532C543.839 212.649 543.64 212.808 543.505 213.007C543.37 213.2 543.303 213.414 543.303 213.648C543.303 213.842 543.355 214.018 543.461 214.176C543.572 214.328 543.728 214.472 543.927 214.606C544.132 214.741 544.378 214.87 544.665 214.993C544.958 215.116 545.286 215.236 545.649 215.354C546.329 215.57 546.933 215.813 547.46 216.083C547.993 216.347 548.441 216.648 548.805 216.988C549.174 217.322 549.452 217.703 549.64 218.131C549.833 218.559 549.93 219.042 549.93 219.581C549.93 220.155 549.818 220.665 549.596 221.11C549.373 221.556 549.054 221.934 548.638 222.244C548.222 222.549 547.724 222.78 547.144 222.938C546.563 223.097 545.916 223.176 545.201 223.176C544.545 223.176 543.897 223.094 543.259 222.93C542.626 222.76 542.052 222.502 541.536 222.156C541.021 221.805 540.607 221.356 540.297 220.812C539.992 220.261 539.84 219.607 539.84 218.852H542.934C542.934 219.227 542.983 219.543 543.083 219.801C543.183 220.059 543.329 220.267 543.522 220.425C543.716 220.577 543.953 220.688 544.234 220.759C544.516 220.823 544.838 220.855 545.201 220.855C545.594 220.855 545.91 220.8 546.15 220.688C546.391 220.571 546.566 220.419 546.678 220.231C546.789 220.038 546.845 219.827 546.845 219.599Z" fill="white"/>
<rect x="593" y="196" width="109" height="41" rx="3" fill="#424242"/>
<rect x="593" y="196" width="109" height="41" rx="3" stroke="#424242" stroke-width="4"/>
<path d="M625.079 220.627V223H618.259V220.627H625.079ZM619.357 210.203V223H616.272V210.203H619.357ZM624.2 215.283V217.577H618.259V215.283H624.2ZM625.105 210.203V212.585H618.259V210.203H625.105ZM628.718 213.49L630.054 216.109L631.434 213.49H634.51L632.014 218.122L634.642 223H631.539L630.054 220.188L628.577 223H625.475L628.103 218.122L625.615 213.49H628.718ZM638.474 215.318V226.656H635.512V213.49H638.271L638.474 215.318ZM644.31 218.131V218.315C644.31 219.007 644.23 219.648 644.072 220.24C643.914 220.832 643.68 221.348 643.369 221.787C643.059 222.227 642.672 222.569 642.209 222.815C641.752 223.056 641.222 223.176 640.618 223.176C640.05 223.176 639.561 223.05 639.15 222.798C638.74 222.546 638.397 222.197 638.122 221.752C637.847 221.307 637.624 220.797 637.454 220.223C637.284 219.648 637.149 219.042 637.05 218.403V218.166C637.149 217.48 637.284 216.845 637.454 216.259C637.624 215.667 637.847 215.151 638.122 214.712C638.397 214.272 638.737 213.93 639.142 213.684C639.552 213.438 640.041 213.314 640.609 213.314C641.213 213.314 641.743 213.429 642.2 213.657C642.663 213.886 643.05 214.214 643.36 214.642C643.677 215.063 643.914 215.57 644.072 216.162C644.23 216.754 644.31 217.41 644.31 218.131ZM641.348 218.315V218.131C641.348 217.762 641.321 217.425 641.269 217.12C641.216 216.81 641.131 216.54 641.014 216.312C640.902 216.083 640.753 215.907 640.565 215.784C640.378 215.661 640.146 215.6 639.871 215.6C639.555 215.6 639.288 215.649 639.071 215.749C638.86 215.843 638.69 215.989 638.562 216.188C638.438 216.382 638.351 216.625 638.298 216.918C638.251 217.205 638.23 217.542 638.236 217.929V218.649C638.225 219.095 638.269 219.487 638.368 219.827C638.468 220.161 638.641 220.422 638.887 220.609C639.133 220.797 639.467 220.891 639.889 220.891C640.17 220.891 640.404 220.826 640.592 220.697C640.779 220.562 640.929 220.378 641.04 220.144C641.151 219.903 641.23 219.628 641.277 219.317C641.324 219.007 641.348 218.673 641.348 218.315ZM648.616 215.846V223H645.654V213.49H648.423L648.616 215.846ZM651.429 213.42L651.376 216.171C651.259 216.159 651.101 216.145 650.901 216.127C650.702 216.109 650.535 216.101 650.4 216.101C650.055 216.101 649.756 216.142 649.504 216.224C649.258 216.3 649.053 216.417 648.889 216.575C648.73 216.728 648.613 216.921 648.537 217.155C648.467 217.39 648.435 217.662 648.44 217.973L647.904 217.621C647.904 216.982 647.966 216.402 648.089 215.881C648.218 215.354 648.399 214.899 648.634 214.519C648.868 214.132 649.152 213.836 649.486 213.631C649.82 213.42 650.195 213.314 650.611 213.314C650.758 213.314 650.901 213.323 651.042 213.341C651.188 213.358 651.317 213.385 651.429 213.42ZM656.878 223.176C656.104 223.176 655.413 223.056 654.804 222.815C654.194 222.569 653.679 222.232 653.257 221.805C652.841 221.377 652.521 220.885 652.299 220.328C652.082 219.771 651.974 219.183 651.974 218.562V218.228C651.974 217.53 652.07 216.886 652.264 216.294C652.457 215.696 652.744 215.175 653.125 214.729C653.506 214.284 653.983 213.938 654.558 213.692C655.132 213.44 655.8 213.314 656.562 213.314C657.235 213.314 657.839 213.423 658.372 213.64C658.905 213.856 659.356 214.167 659.726 214.571C660.101 214.976 660.385 215.465 660.578 216.039C660.777 216.613 660.877 217.258 660.877 217.973V219.177H653.107V217.322H657.985V217.094C657.991 216.777 657.936 216.508 657.818 216.285C657.707 216.062 657.543 215.893 657.326 215.775C657.109 215.658 656.846 215.6 656.535 215.6C656.213 215.6 655.946 215.67 655.735 215.811C655.53 215.951 655.369 216.145 655.252 216.391C655.141 216.631 655.062 216.909 655.015 217.226C654.968 217.542 654.944 217.876 654.944 218.228V218.562C654.944 218.913 654.991 219.232 655.085 219.52C655.185 219.807 655.325 220.053 655.507 220.258C655.694 220.457 655.917 220.612 656.175 220.724C656.438 220.835 656.737 220.891 657.071 220.891C657.476 220.891 657.874 220.814 658.267 220.662C658.659 220.51 658.996 220.258 659.277 219.906L660.622 221.506C660.429 221.781 660.153 222.048 659.796 222.306C659.444 222.563 659.022 222.774 658.53 222.938C658.038 223.097 657.487 223.176 656.878 223.176ZM667.064 220.328C667.064 220.164 667.009 220.023 666.897 219.906C666.792 219.783 666.604 219.672 666.335 219.572C666.065 219.467 665.688 219.361 665.201 219.256C664.738 219.156 664.302 219.024 663.892 218.86C663.487 218.696 663.133 218.497 662.828 218.263C662.523 218.028 662.283 217.75 662.107 217.428C661.938 217.105 661.853 216.736 661.853 216.32C661.853 215.916 661.938 215.535 662.107 215.178C662.283 214.814 662.538 214.495 662.872 214.22C663.212 213.938 663.625 213.719 664.111 213.561C664.598 213.396 665.151 213.314 665.772 213.314C666.628 213.314 667.366 213.446 667.987 213.71C668.608 213.968 669.086 214.331 669.42 214.8C669.76 215.263 669.93 215.799 669.93 216.408H666.968C666.968 216.168 666.927 215.963 666.845 215.793C666.769 215.623 666.643 215.494 666.467 215.406C666.291 215.312 666.057 215.266 665.764 215.266C665.559 215.266 665.371 215.304 665.201 215.38C665.037 215.456 664.905 215.562 664.806 215.696C664.706 215.831 664.656 215.989 664.656 216.171C664.656 216.3 664.686 216.417 664.744 216.522C664.809 216.622 664.905 216.716 665.034 216.804C665.163 216.886 665.327 216.962 665.526 217.032C665.726 217.097 665.966 217.155 666.247 217.208C666.886 217.325 667.483 217.492 668.04 217.709C668.597 217.926 669.048 218.233 669.394 218.632C669.745 219.03 669.921 219.566 669.921 220.24C669.921 220.662 669.824 221.052 669.631 221.409C669.438 221.761 669.159 222.071 668.796 222.341C668.433 222.604 667.996 222.81 667.486 222.956C666.977 223.103 666.402 223.176 665.764 223.176C664.855 223.176 664.088 223.015 663.461 222.692C662.834 222.364 662.359 221.954 662.037 221.462C661.721 220.964 661.562 220.46 661.562 219.95H664.322C664.334 220.243 664.404 220.483 664.533 220.671C664.668 220.858 664.847 220.996 665.069 221.084C665.292 221.172 665.55 221.216 665.843 221.216C666.112 221.216 666.335 221.178 666.511 221.102C666.692 221.025 666.83 220.923 666.924 220.794C667.018 220.659 667.064 220.504 667.064 220.328ZM676.293 220.328C676.293 220.164 676.237 220.023 676.126 219.906C676.021 219.783 675.833 219.672 675.563 219.572C675.294 219.467 674.916 219.361 674.43 219.256C673.967 219.156 673.53 219.024 673.12 218.86C672.716 218.696 672.361 218.497 672.057 218.263C671.752 218.028 671.512 217.75 671.336 217.428C671.166 217.105 671.081 216.736 671.081 216.32C671.081 215.916 671.166 215.535 671.336 215.178C671.512 214.814 671.767 214.495 672.101 214.22C672.44 213.938 672.854 213.719 673.34 213.561C673.826 213.396 674.38 213.314 675.001 213.314C675.856 213.314 676.595 213.446 677.216 213.71C677.837 213.968 678.314 214.331 678.648 214.8C678.988 215.263 679.158 215.799 679.158 216.408H676.196C676.196 216.168 676.155 215.963 676.073 215.793C675.997 215.623 675.871 215.494 675.695 215.406C675.52 215.312 675.285 215.266 674.992 215.266C674.787 215.266 674.6 215.304 674.43 215.38C674.266 215.456 674.134 215.562 674.034 215.696C673.935 215.831 673.885 215.989 673.885 216.171C673.885 216.3 673.914 216.417 673.973 216.522C674.037 216.622 674.134 216.716 674.263 216.804C674.392 216.886 674.556 216.962 674.755 217.032C674.954 217.097 675.194 217.155 675.476 217.208C676.114 217.325 676.712 217.492 677.269 217.709C677.825 217.926 678.276 218.233 678.622 218.632C678.974 219.03 679.149 219.566 679.149 220.24C679.149 220.662 679.053 221.052 678.859 221.409C678.666 221.761 678.388 222.071 678.024 222.341C677.661 222.604 677.225 222.81 676.715 222.956C676.205 223.103 675.631 223.176 674.992 223.176C674.084 223.176 673.316 223.015 672.689 222.692C672.062 222.364 671.588 221.954 671.266 221.462C670.949 220.964 670.791 220.46 670.791 219.95H673.551C673.562 220.243 673.633 220.483 673.762 220.671C673.896 220.858 674.075 220.996 674.298 221.084C674.521 221.172 674.778 221.216 675.071 221.216C675.341 221.216 675.563 221.178 675.739 221.102C675.921 221.025 676.059 220.923 676.152 220.794C676.246 220.659 676.293 220.504 676.293 220.328Z" fill="white"/>
<rect x="722" y="196" width="103" height="41" rx="3" fill="#424242"/>
<rect x="722" y="196" width="103" height="41" rx="3" stroke="#424242" stroke-width="4"/>
<path d="M746.72 210.203H749.233L752.09 219.106L754.946 210.203H757.46L753.109 223H751.07L746.72 210.203ZM745.19 210.203H747.792L748.275 220.012V223H745.19V210.203ZM756.388 210.203H758.998V223H755.904V220.012L756.388 210.203ZM763.753 221.884L766.214 213.49H769.396L765.572 224.415C765.49 224.655 765.382 224.913 765.247 225.188C765.112 225.47 764.928 225.736 764.693 225.988C764.459 226.24 764.157 226.445 763.788 226.604C763.425 226.762 762.974 226.841 762.435 226.841C762.147 226.841 761.937 226.826 761.802 226.797C761.673 226.773 761.474 226.729 761.204 226.665V224.547C761.28 224.547 761.345 224.547 761.397 224.547C761.456 224.547 761.521 224.547 761.591 224.547C761.907 224.547 762.159 224.515 762.347 224.45C762.54 224.386 762.687 224.292 762.786 224.169C762.892 224.046 762.974 223.896 763.032 223.721L763.753 221.884ZM763.129 213.49L765.001 220.144L765.326 223.281H763.34L759.956 213.49H763.129ZM776.901 219.599C776.901 219.399 776.872 219.221 776.813 219.062C776.755 218.898 776.646 218.746 776.488 218.605C776.33 218.465 776.102 218.324 775.803 218.184C775.51 218.037 775.123 217.885 774.643 217.727C774.08 217.539 773.538 217.328 773.017 217.094C772.495 216.854 772.029 216.575 771.619 216.259C771.209 215.937 770.884 215.562 770.644 215.134C770.403 214.7 770.283 214.196 770.283 213.622C770.283 213.071 770.406 212.576 770.652 212.137C770.898 211.691 771.241 211.313 771.681 211.003C772.126 210.687 772.647 210.446 773.245 210.282C773.843 210.112 774.496 210.027 775.205 210.027C776.143 210.027 776.969 210.191 777.684 210.52C778.404 210.842 778.967 211.302 779.371 211.899C779.781 212.491 779.986 213.191 779.986 214H776.919C776.919 213.678 776.852 213.394 776.717 213.147C776.588 212.901 776.392 212.708 776.128 212.567C775.864 212.427 775.533 212.356 775.135 212.356C774.748 212.356 774.423 212.415 774.159 212.532C773.896 212.649 773.696 212.808 773.562 213.007C773.427 213.2 773.359 213.414 773.359 213.648C773.359 213.842 773.412 214.018 773.518 214.176C773.629 214.328 773.784 214.472 773.983 214.606C774.188 214.741 774.435 214.87 774.722 214.993C775.015 215.116 775.343 215.236 775.706 215.354C776.386 215.57 776.989 215.813 777.517 216.083C778.05 216.347 778.498 216.648 778.861 216.988C779.23 217.322 779.509 217.703 779.696 218.131C779.89 218.559 779.986 219.042 779.986 219.581C779.986 220.155 779.875 220.665 779.652 221.11C779.43 221.556 779.11 221.934 778.694 222.244C778.278 222.549 777.78 222.78 777.2 222.938C776.62 223.097 775.973 223.176 775.258 223.176C774.602 223.176 773.954 223.094 773.315 222.93C772.683 222.76 772.108 222.502 771.593 222.156C771.077 221.805 770.664 221.356 770.354 220.812C770.049 220.261 769.896 219.607 769.896 218.852H772.99C772.99 219.227 773.04 219.543 773.14 219.801C773.239 220.059 773.386 220.267 773.579 220.425C773.772 220.577 774.01 220.688 774.291 220.759C774.572 220.823 774.895 220.855 775.258 220.855C775.65 220.855 775.967 220.8 776.207 220.688C776.447 220.571 776.623 220.419 776.734 220.231C776.846 220.038 776.901 219.827 776.901 219.599ZM788.714 220.891L792.282 223.721L790.366 225.338L786.859 222.508L788.714 220.891ZM792.432 216.347V216.865C792.432 217.844 792.294 218.723 792.019 219.502C791.749 220.275 791.362 220.938 790.858 221.488C790.36 222.033 789.771 222.452 789.092 222.745C788.412 223.032 787.662 223.176 786.842 223.176C786.016 223.176 785.26 223.032 784.574 222.745C783.895 222.452 783.303 222.033 782.799 221.488C782.301 220.938 781.914 220.275 781.639 219.502C781.369 218.723 781.234 217.844 781.234 216.865V216.347C781.234 215.368 781.369 214.489 781.639 213.71C781.914 212.931 782.298 212.269 782.79 211.724C783.288 211.173 783.877 210.754 784.557 210.467C785.242 210.174 785.998 210.027 786.824 210.027C787.645 210.027 788.395 210.174 789.074 210.467C789.76 210.754 790.352 211.173 790.85 211.724C791.354 212.269 791.743 212.931 792.019 213.71C792.294 214.489 792.432 215.368 792.432 216.347ZM789.294 216.865V216.329C789.294 215.696 789.238 215.14 789.127 214.659C789.021 214.173 788.863 213.766 788.652 213.438C788.441 213.109 788.181 212.863 787.87 212.699C787.565 212.529 787.217 212.444 786.824 212.444C786.414 212.444 786.057 212.529 785.752 212.699C785.447 212.863 785.192 213.109 784.987 213.438C784.782 213.766 784.627 214.173 784.521 214.659C784.422 215.14 784.372 215.696 784.372 216.329V216.865C784.372 217.492 784.422 218.049 784.521 218.535C784.627 219.016 784.782 219.423 784.987 219.757C785.198 220.091 785.456 220.343 785.761 220.513C786.071 220.683 786.432 220.768 786.842 220.768C787.234 220.768 787.583 220.683 787.888 220.513C788.192 220.343 788.447 220.091 788.652 219.757C788.863 219.423 789.021 219.016 789.127 218.535C789.238 218.049 789.294 217.492 789.294 216.865ZM802.46 220.627V223H795.991V220.627H802.46ZM797.09 210.203V223H794.005V210.203H797.09Z" fill="white"/>
<rect x="845" y="196" width="124" height="41" rx="3" fill="#424242"/>
<rect x="845" y="196" width="124" height="41" rx="3" stroke="#424242" stroke-width="4"/>
<path d="M869.585 210.203H872.099L874.955 219.106L877.812 210.203H880.325L875.975 223H873.936L869.585 210.203ZM868.056 210.203H870.657L871.141 220.012V223H868.056V210.203ZM879.253 210.203H881.863V223H878.77V220.012L879.253 210.203ZM883.331 218.342V218.157C883.331 217.46 883.431 216.818 883.63 216.232C883.829 215.641 884.122 215.128 884.509 214.694C884.896 214.261 885.373 213.924 885.941 213.684C886.51 213.438 887.166 213.314 887.91 213.314C888.66 213.314 889.319 213.438 889.888 213.684C890.462 213.924 890.942 214.261 891.329 214.694C891.716 215.128 892.009 215.641 892.208 216.232C892.407 216.818 892.507 217.46 892.507 218.157V218.342C892.507 219.033 892.407 219.675 892.208 220.267C892.009 220.853 891.716 221.365 891.329 221.805C890.942 222.238 890.465 222.575 889.896 222.815C889.328 223.056 888.672 223.176 887.928 223.176C887.184 223.176 886.524 223.056 885.95 222.815C885.376 222.575 884.896 222.238 884.509 221.805C884.122 221.365 883.829 220.853 883.63 220.267C883.431 219.675 883.331 219.033 883.331 218.342ZM886.293 218.157V218.342C886.293 218.699 886.319 219.033 886.372 219.344C886.425 219.654 886.513 219.927 886.636 220.161C886.759 220.39 886.926 220.568 887.137 220.697C887.348 220.826 887.611 220.891 887.928 220.891C888.238 220.891 888.496 220.826 888.701 220.697C888.912 220.568 889.079 220.39 889.202 220.161C889.325 219.927 889.413 219.654 889.466 219.344C889.519 219.033 889.545 218.699 889.545 218.342V218.157C889.545 217.812 889.519 217.486 889.466 217.182C889.413 216.871 889.325 216.599 889.202 216.364C889.079 216.124 888.912 215.937 888.701 215.802C888.49 215.667 888.227 215.6 887.91 215.6C887.6 215.6 887.339 215.667 887.128 215.802C886.923 215.937 886.759 216.124 886.636 216.364C886.513 216.599 886.425 216.871 886.372 217.182C886.319 217.486 886.293 217.812 886.293 218.157ZM896.734 215.521V223H893.772V213.49H896.55L896.734 215.521ZM896.383 217.92L895.688 217.938C895.688 217.211 895.776 216.563 895.952 215.995C896.128 215.421 896.377 214.935 896.699 214.536C897.021 214.138 897.405 213.836 897.851 213.631C898.302 213.42 898.803 213.314 899.354 213.314C899.793 213.314 900.194 213.379 900.558 213.508C900.927 213.637 901.243 213.845 901.507 214.132C901.776 214.419 901.981 214.8 902.122 215.274C902.269 215.743 902.342 216.323 902.342 217.015V223H899.362V217.006C899.362 216.625 899.31 216.335 899.204 216.136C899.099 215.931 898.946 215.79 898.747 215.714C898.548 215.638 898.305 215.6 898.018 215.6C897.713 215.6 897.455 215.658 897.244 215.775C897.033 215.893 896.863 216.057 896.734 216.268C896.611 216.473 896.521 216.716 896.462 216.997C896.409 217.278 896.383 217.586 896.383 217.92ZM909.962 213.49H912.651V222.631C912.651 223.51 912.449 224.254 912.045 224.863C911.641 225.479 911.075 225.944 910.349 226.261C909.628 226.583 908.784 226.744 907.817 226.744C907.39 226.744 906.953 226.688 906.508 226.577C906.062 226.472 905.646 226.313 905.26 226.103C904.873 225.892 904.548 225.631 904.284 225.32L905.523 223.58C905.764 223.85 906.065 224.078 906.429 224.266C906.792 224.459 907.22 224.556 907.712 224.556C908.14 224.556 908.497 224.479 908.784 224.327C909.077 224.175 909.3 223.952 909.452 223.659C909.604 223.372 909.681 223.023 909.681 222.613V215.74L909.962 213.49ZM903.643 218.359V218.175C903.643 217.454 903.73 216.798 903.906 216.206C904.088 215.608 904.346 215.096 904.68 214.668C905.02 214.234 905.43 213.9 905.91 213.666C906.391 213.432 906.933 213.314 907.536 213.314C908.187 213.314 908.72 213.44 909.136 213.692C909.558 213.938 909.895 214.284 910.146 214.729C910.404 215.175 910.604 215.696 910.744 216.294C910.891 216.886 911.014 217.524 911.113 218.21V218.43C911.014 219.074 910.876 219.684 910.7 220.258C910.53 220.826 910.308 221.33 910.032 221.77C909.757 222.209 909.411 222.555 908.995 222.807C908.585 223.053 908.093 223.176 907.519 223.176C906.921 223.176 906.382 223.056 905.901 222.815C905.427 222.575 905.02 222.238 904.68 221.805C904.346 221.371 904.088 220.861 903.906 220.275C903.73 219.689 903.643 219.051 903.643 218.359ZM906.604 218.175V218.359C906.604 218.717 906.637 219.048 906.701 219.353C906.771 219.657 906.877 219.927 907.018 220.161C907.158 220.39 907.331 220.568 907.536 220.697C907.747 220.826 907.993 220.891 908.274 220.891C908.702 220.891 909.048 220.8 909.312 220.618C909.575 220.437 909.766 220.179 909.883 219.845C910 219.511 910.05 219.118 910.032 218.667V217.973C910.044 217.586 910.018 217.246 909.953 216.953C909.889 216.654 909.786 216.405 909.646 216.206C909.511 216.007 909.329 215.857 909.101 215.758C908.878 215.652 908.608 215.6 908.292 215.6C908.017 215.6 907.773 215.664 907.562 215.793C907.352 215.922 907.176 216.104 907.035 216.338C906.895 216.566 906.786 216.839 906.71 217.155C906.64 217.466 906.604 217.806 906.604 218.175ZM913.987 218.342V218.157C913.987 217.46 914.087 216.818 914.286 216.232C914.485 215.641 914.778 215.128 915.165 214.694C915.552 214.261 916.029 213.924 916.598 213.684C917.166 213.438 917.822 213.314 918.566 213.314C919.316 213.314 919.976 213.438 920.544 213.684C921.118 213.924 921.599 214.261 921.985 214.694C922.372 215.128 922.665 215.641 922.864 216.232C923.063 216.818 923.163 217.46 923.163 218.157V218.342C923.163 219.033 923.063 219.675 922.864 220.267C922.665 220.853 922.372 221.365 921.985 221.805C921.599 222.238 921.121 222.575 920.553 222.815C919.984 223.056 919.328 223.176 918.584 223.176C917.84 223.176 917.181 223.056 916.606 222.815C916.032 222.575 915.552 222.238 915.165 221.805C914.778 221.365 914.485 220.853 914.286 220.267C914.087 219.675 913.987 219.033 913.987 218.342ZM916.949 218.157V218.342C916.949 218.699 916.976 219.033 917.028 219.344C917.081 219.654 917.169 219.927 917.292 220.161C917.415 220.39 917.582 220.568 917.793 220.697C918.004 220.826 918.268 220.891 918.584 220.891C918.895 220.891 919.152 220.826 919.357 220.697C919.568 220.568 919.735 220.39 919.858 220.161C919.981 219.927 920.069 219.654 920.122 219.344C920.175 219.033 920.201 218.699 920.201 218.342V218.157C920.201 217.812 920.175 217.486 920.122 217.182C920.069 216.871 919.981 216.599 919.858 216.364C919.735 216.124 919.568 215.937 919.357 215.802C919.146 215.667 918.883 215.6 918.566 215.6C918.256 215.6 917.995 215.667 917.784 215.802C917.579 215.937 917.415 216.124 917.292 216.364C917.169 216.599 917.081 216.871 917.028 217.182C916.976 217.486 916.949 217.812 916.949 218.157ZM928.779 223H925.94L925.958 220.627H928.779C929.365 220.627 929.86 220.486 930.265 220.205C930.675 219.924 930.985 219.505 931.196 218.948C931.413 218.386 931.521 217.694 931.521 216.874V216.32C931.521 215.705 931.46 215.166 931.337 214.703C931.22 214.234 931.044 213.845 930.81 213.534C930.575 213.218 930.282 212.98 929.931 212.822C929.585 212.664 929.187 212.585 928.735 212.585H925.888V210.203H928.735C929.603 210.203 930.396 210.353 931.117 210.651C931.844 210.944 932.471 211.366 932.998 211.917C933.531 212.462 933.941 213.109 934.229 213.859C934.521 214.604 934.668 215.43 934.668 216.338V216.874C934.668 217.776 934.521 218.603 934.229 219.353C933.941 220.103 933.534 220.75 933.007 221.295C932.479 221.84 931.855 222.262 931.135 222.561C930.42 222.854 929.635 223 928.779 223ZM927.707 210.203V223H924.622V210.203H927.707ZM941.497 217.56H938.201L938.184 215.538H940.855C941.336 215.538 941.72 215.485 942.007 215.38C942.294 215.269 942.502 215.107 942.631 214.896C942.766 214.686 942.833 214.422 942.833 214.105C942.833 213.742 942.766 213.449 942.631 213.227C942.496 213.004 942.282 212.843 941.989 212.743C941.702 212.638 941.33 212.585 940.873 212.585H939.361V223H936.276V210.203H940.873C941.664 210.203 942.37 210.276 942.991 210.423C943.612 210.563 944.14 210.78 944.573 211.073C945.013 211.366 945.347 211.735 945.575 212.181C945.804 212.62 945.918 213.139 945.918 213.736C945.918 214.258 945.807 214.747 945.584 215.204C945.361 215.661 944.989 216.033 944.468 216.32C943.952 216.602 943.246 216.748 942.35 216.76L941.497 217.56ZM941.374 223H937.454L938.509 220.627H941.374C941.796 220.627 942.133 220.562 942.385 220.434C942.643 220.299 942.827 220.123 942.938 219.906C943.056 219.684 943.114 219.438 943.114 219.168C943.114 218.84 943.059 218.556 942.947 218.315C942.842 218.075 942.672 217.891 942.438 217.762C942.203 217.627 941.89 217.56 941.497 217.56H938.904L938.922 215.538H942.024L942.745 216.347C943.601 216.312 944.277 216.432 944.775 216.707C945.279 216.982 945.64 217.346 945.856 217.797C946.073 218.248 946.182 218.72 946.182 219.212C946.182 220.05 946 220.75 945.637 221.312C945.279 221.875 944.743 222.297 944.028 222.578C943.313 222.859 942.429 223 941.374 223Z" fill="white"/>
<path d="M1066 0H1348C1356.28 0 1363 6.71573 1363 15V282C1363 290.284 1356.28 297 1348 297H1066V0Z" fill="white"/>
<g clip-path="url(#clip0_3_61)">
<g clip-path="url(#clip1_3_61)">
<path d="M1110.32 176.505L1113.24 179.754L1111.78 175.53C1111.42 173.58 1108.86 175.855 1110.32 176.505ZM1113.61 174.555C1114.71 176.18 1115.8 177.804 1115.8 179.429C1115.8 181.704 1118 182.678 1119.82 183.328C1117.26 180.729 1115.8 173.58 1113.61 174.555ZM1253.98 36.785C1260.19 36.785 1266.04 36.1351 1272.62 37.4348C1288.71 41.0091 1302.23 48.1575 1311.37 58.2303L1336.96 94.6225C1338.05 103.72 1340.25 113.793 1339.88 124.841C1342.44 124.841 1342.08 121.592 1345 120.942C1342.08 127.44 1340.61 135.564 1339.88 144.987C1338.05 139.788 1339.88 131.989 1340.25 127.765C1337.69 131.34 1336.23 128.74 1336.23 127.115C1336.59 124.516 1335.13 124.841 1334.03 123.866C1330.01 120.617 1327.45 117.043 1324.53 111.519C1326.36 107.295 1326.72 101.121 1320.87 97.8718C1319.05 96.897 1316.85 95.2723 1315.76 92.6729C1314.29 89.0986 1311.74 84.8746 1312.47 79.3508C1312.83 77.7261 1306.98 82.925 1303.69 80.6505C1289.44 71.8774 1275.18 61.8046 1258 53.3564C1248.86 53.3564 1242.28 50.432 1238.99 46.8578C1236.07 43.6085 1238.26 39.3844 1242.65 39.0595C1245.21 39.0595 1248.13 38.4096 1250.32 39.7093C1250.69 38.4096 1252.15 36.785 1253.98 36.785ZM1217.79 29.3116L1218.52 29.6365C1222.18 30.2864 1224 34.8354 1228.03 33.2107C1228.03 35.4852 1228.39 37.7598 1227.66 39.3844C1226.56 41.9838 1223.27 41.9838 1220.71 41.9838C1196.22 40.6841 1181.97 49.7822 1166.98 57.5805C1162.96 59.855 1158.57 61.4796 1155.28 64.404C1139.56 77.4012 1122.38 89.4236 1118.36 113.468L1115.07 140.113C1114.71 143.037 1111.05 145.961 1111.78 149.536L1114.34 165.457C1111.78 163.183 1110.32 166.107 1111.05 167.407C1111.42 168.382 1112.88 171.631 1115.07 168.706C1118 173.58 1120.92 183.003 1124.94 187.227C1137.37 200.225 1153.45 211.922 1166.61 223.62C1169.9 222.97 1172.46 222.97 1173.19 221.02C1174.29 222.97 1172.1 224.919 1170.27 225.244C1176.12 228.494 1182.7 231.418 1191.47 232.068C1202.8 232.718 1213.4 234.342 1223.27 236.617C1228.39 235.317 1233.51 234.667 1238.99 234.342C1240.82 234.342 1241.92 231.743 1244.11 231.093L1244.47 227.844C1246.67 230.768 1246.3 226.869 1244.84 224.919C1247.4 226.869 1248.13 228.494 1249.23 229.793C1249.23 228.818 1252.15 225.244 1252.15 229.468L1252.88 225.244C1253.98 224.594 1254.34 228.818 1255.44 225.894C1256.54 222.97 1258.73 225.244 1260.92 224.269C1260.19 225.569 1260.56 228.169 1263.12 226.544L1266.04 224.269C1267.87 228.169 1270.79 226.544 1272.26 225.894C1288.34 216.796 1304.42 206.073 1319.78 195.351L1319.41 199.575L1321.24 194.376C1323.07 196.001 1324.53 194.701 1325.26 193.726C1327.45 190.477 1330.38 187.227 1335.13 184.303C1329.28 198.275 1322.34 209.323 1313.56 218.421L1309.91 222.32C1309.91 224.594 1309.18 227.519 1306.25 227.844C1304.79 228.169 1301.87 227.194 1299.67 229.143C1298.58 230.443 1302.23 233.043 1299.31 231.093C1296.75 229.468 1294.19 231.093 1291.26 231.743C1289.07 232.393 1292.73 234.342 1293.46 235.642C1294.19 236.942 1294.92 238.241 1294.55 239.866L1290.53 235.967C1285.78 238.241 1282.86 242.465 1278.84 245.715C1277.01 247.014 1277.74 249.289 1277.74 251.239C1275.18 251.239 1272.26 250.589 1270.79 251.888C1269.7 253.188 1270.06 255.138 1270.06 257.087C1266.41 256.762 1266.04 251.888 1262.75 252.863C1259.46 253.513 1255.81 253.838 1252.88 255.463C1255.08 259.362 1249.23 257.087 1249.96 257.737C1244.47 254.813 1239.72 252.538 1233.87 254.488C1221.45 250.914 1206.09 252.538 1194.76 253.838C1194.76 252.213 1195.13 250.589 1194.39 250.264C1193.66 251.888 1191.47 251.239 1191.84 251.239C1184.89 247.015 1177.95 244.415 1170.63 240.841C1164.05 241.491 1157.84 238.566 1156.01 236.942C1150.89 232.718 1145.05 234.992 1140.29 234.017C1130.06 231.743 1126.4 222.32 1125.31 215.821C1124.58 212.572 1121.65 211.272 1120.55 211.597C1115.8 197.95 1108.49 185.603 1102.64 172.931C1101.18 169.681 1101.55 166.432 1101.55 162.858C1103.37 163.508 1105.2 163.183 1104.84 160.908C1103.01 150.185 1098.62 142.062 1093.87 134.264C1096.43 123.216 1096.79 110.219 1102.64 100.471C1107.76 91.6981 1117.26 87.1491 1123.84 79.6757C1126.04 77.0763 1126.04 73.502 1128.23 71.2275C1135.54 64.7289 1142.85 57.9054 1150.89 52.0567C1154.55 49.4572 1158.94 52.0567 1164.42 51.0819C1166.25 45.2331 1173.56 40.0343 1180.5 41.6589C1183.43 42.3088 1189.28 35.4852 1191.1 34.8354C1194.03 33.8606 1192.57 37.4348 1192.57 39.7093C1199.51 34.8354 1209.02 32.236 1217.79 29.3116Z" fill="#02BAFF"/>
<g clip-path="url(#clip2_3_61)">
<g clip-path="url(#clip3_3_61)">
<g clip-path="url(#clip4_3_61)">
<g clip-path="url(#clip5_3_61)">
<path fill-rule="evenodd" clip-rule="evenodd" d="M1234.89 126.81C1235.68 127.001 1236.63 126.708 1236.95 126.81C1236.65 126.776 1237.19 126.58 1237.21 126.466C1237.19 126.919 1237.41 126.429 1237.6 126.695C1237.63 126.261 1237.9 126.041 1238.24 125.892C1238.86 124.103 1237.38 122.381 1235.79 122.219C1235.62 122.219 1235.45 122.219 1235.27 122.219C1232.63 122.666 1232.39 126.207 1234.89 126.81ZM1235.15 124.055C1235.27 124.055 1235.4 124.055 1235.53 124.055C1235.69 124.508 1235.6 124.505 1235.79 124.974C1235.4 124.891 1235.32 125.091 1235.02 125.088C1234.76 124.823 1234.88 124.208 1235.15 124.055Z" fill="#02BAFF"/>
<path fill-rule="evenodd" clip-rule="evenodd" d="M1226.24 146.321C1226.24 146.479 1226.18 146.573 1226.11 146.666C1225.79 146.815 1225.57 146.329 1225.46 146.666C1224.36 147.783 1224.63 149.982 1226.5 150.797C1231.55 151.694 1230.75 145.232 1226.24 146.321ZM1227.53 149.19C1227.38 148.827 1227.61 148.686 1227.4 148.272C1227.57 148.108 1228.13 148.108 1228.3 148.272C1228.23 148.795 1228.35 149.16 1227.53 149.19Z" fill="#02BAFF"/>
<path fill-rule="evenodd" clip-rule="evenodd" d="M1234.63 132.204C1234.1 132.278 1233.86 132.508 1233.21 132.663C1232.33 132.294 1231.73 131.398 1231.06 130.832C1231.09 130.868 1231.12 130.899 1231.14 130.942C1230.06 130.522 1229.52 130.112 1228.95 129.105C1228.27 128.793 1226.31 128.68 1227.27 128.417C1226.46 128.185 1225.69 127.828 1224.43 127.728C1224.43 127.576 1224.66 127.623 1224.69 127.498C1224 127.264 1222.83 126.97 1222.75 126.925C1222.61 126.842 1222.08 126.964 1221.72 126.925C1221.35 126.885 1220.99 126.62 1220.56 126.58C1218.16 126.364 1215.02 126.642 1213.45 127.384C1213.47 127.167 1213.88 127.304 1213.84 127.039C1212.79 126.994 1212.45 127.63 1211.65 127.498C1209.31 125.303 1205.55 124.172 1202.35 125.547C1202.09 125.661 1202.22 125.823 1202.09 125.892C1201.82 126.042 1201.43 125.999 1201.19 126.121C1199.45 127.003 1198.64 129.16 1198.09 130.597C1198.09 131.324 1198.09 132.051 1198.09 132.778C1198.54 134.26 1199.35 135.387 1200.41 136.565C1199.28 138.647 1198.39 141.255 1198.35 143.911C1198.24 150.218 1201.98 155.253 1205.84 157.913C1206.64 158.464 1205.89 159.149 1206.22 160.782C1206.32 161.234 1206.75 162.063 1207 162.389C1209.39 165.513 1215.15 165.516 1217.2 161.585C1223.63 161.827 1228.49 159.715 1232.05 156.535C1235.85 153.134 1238.19 148.282 1237.47 141.959C1243.22 140.386 1241.57 131.225 1234.63 132.204ZM1200.03 131.63C1200.07 130.45 1201.03 129.807 1201.45 128.761C1201.6 128.78 1201.56 128.97 1201.58 129.105C1201.55 128.81 1202.41 128.712 1201.96 128.417C1202.28 128.376 1202.35 128.635 1202.48 127.958C1203.35 127.958 1204.05 127.556 1204.67 127.039C1204.97 127.103 1204.52 127.219 1204.8 127.384C1207.93 126.806 1209.83 128.753 1210.74 130.597C1210.83 132.237 1210.26 134.184 1209.06 135.532C1207.56 136.19 1206.28 136.652 1204.67 136.451C1202.08 136.125 1199.93 133.968 1200.03 131.63ZM1209.58 162.274C1209.75 161.902 1208.78 160.742 1208.16 160.323C1208.18 160.188 1208.4 160.226 1208.55 160.208C1207.24 155.895 1215.3 155.309 1215.78 159.176C1216.13 162.028 1212.71 164.487 1209.58 162.274ZM1231.4 155.502C1230.3 155.329 1229.77 156.547 1228.95 157.109C1228.99 156.959 1229.18 156.928 1229.21 156.765C1228.6 157.262 1227.71 157.503 1227.4 158.257C1226.98 158.327 1227.22 157.844 1226.88 158.142C1224.09 159.553 1220.91 159.945 1217.97 160.552C1218 160.35 1218.19 160.291 1218.49 160.323C1218.46 160.085 1217.92 160.292 1217.84 160.094C1218.24 157.856 1216.54 156.517 1215.39 155.273C1212.67 153.784 1208.25 154.47 1207 156.765C1203.31 154.414 1201.52 151.079 1200.15 146.666C1199.99 143.941 1200.37 139.792 1201.83 137.484C1208.27 140.247 1214.91 134.724 1212.03 128.876C1219.95 126.499 1228.3 129.578 1231.92 133.467C1228.22 136.155 1230.25 143.112 1236.31 142.19C1237.38 148.38 1233.83 152.373 1231.4 155.502ZM1233.34 139.894C1233.16 139.568 1233.4 139.227 1232.69 139.205C1232.54 138.353 1231.98 137.851 1232.05 137.024C1232.27 134.401 1235.59 133.261 1238.5 134.959C1238.95 136.057 1239.57 136.62 1239.41 137.713C1239.01 140.409 1235.25 141.655 1233.34 139.894Z" fill="#02BAFF"/>
<path fill-rule="evenodd" clip-rule="evenodd" d="M1230.76 130.597C1230.86 130.666 1230.96 130.745 1231.06 130.832C1230.99 130.729 1230.89 130.645 1230.76 130.597Z" fill="#02BAFF"/>
<path fill-rule="evenodd" clip-rule="evenodd" d="M1206.61 129.794C1206.96 130.089 1206.27 129.958 1206.61 130.253C1207.9 130.57 1207.43 132.634 1208.81 132.548C1210.9 130.875 1207.9 127.91 1205.06 128.531C1205.06 128.761 1205.06 128.99 1205.06 129.22C1205.69 129.375 1206.44 129.901 1206.61 129.794Z" fill="#02BAFF"/>
<path fill-rule="evenodd" clip-rule="evenodd" d="M1234.63 135.647C1234.93 135.838 1234.41 135.958 1234.37 135.991C1234.49 136.275 1234.78 136.972 1235.92 136.91C1236.16 137.558 1236.63 138.423 1237.73 137.943C1238.35 136.432 1236.11 134.832 1234.63 135.647Z" fill="#02BAFF"/>
<path fill-rule="evenodd" clip-rule="evenodd" d="M1215.78 138.057C1215.43 138.223 1214.92 138.672 1214.49 138.402C1214.51 138.763 1214.16 138.796 1213.84 138.861C1213.85 138.682 1213.47 138.781 1213.71 138.861C1213.88 138.939 1213.57 139.242 1213.58 139.32C1213.26 138.947 1213.43 139.416 1212.81 139.205C1212.56 139.491 1213.01 139.676 1212.68 139.894C1212.66 139.753 1212.64 139.622 1212.42 139.664C1212.7 140.21 1211.97 139.815 1212.29 140.467C1211.26 140.242 1211.25 142.258 1210.74 142.304C1210.86 142.678 1210.76 142.9 1211 143.337C1210.84 143.33 1210.82 143.189 1210.61 143.222C1210.46 144.888 1210.92 147.481 1212.42 148.387C1213.69 150.256 1217.17 151.389 1219.91 150.797C1221.27 150.504 1222.1 149.715 1223.14 149.19C1223.3 148.57 1223.75 148.202 1224.3 147.928C1227.46 142.455 1222.65 136.727 1215.78 138.057ZM1215.78 148.272C1215.59 148.259 1215.2 148.122 1214.87 147.928C1214.97 147.723 1215.11 147.911 1215.26 147.928C1214.26 147.245 1213.82 146.139 1212.94 145.058C1212.96 144.928 1213.07 144.995 1213.07 145.058C1213.5 145.116 1213.15 144.131 1213.07 143.911C1213.45 141.576 1215.39 140.13 1217.46 139.664C1219.72 139.776 1221.21 140.305 1222.36 141.156C1226.22 145.145 1220.16 151.627 1215.78 148.272Z" fill="#02BAFF"/>
<path fill-rule="evenodd" clip-rule="evenodd" d="M1217.72 141.041C1217.55 141.247 1217.21 141.884 1217.33 141.959C1217.73 141.786 1217.79 142.258 1217.97 142.533C1220.83 142.28 1219.6 145.066 1221.72 145.058C1222.62 143.035 1220.63 140.796 1217.72 141.041Z" fill="#02BAFF"/>
<path fill-rule="evenodd" clip-rule="evenodd" d="M1211.26 157.798C1211.05 158.208 1211.07 158.294 1210.74 158.372C1210.84 159.464 1212.88 159.151 1212.94 160.437C1215.47 160.633 1213.52 157.163 1211.26 157.798Z" fill="#02BAFF"/>
</g>
</g>
</g>
</g>
</g>
</g>
<defs>
<clipPath id="clip0_3_61">
<rect width="251.13" height="251.13" fill="white" transform="translate(1093.87 18)"/>
</clipPath>
<clipPath id="clip1_3_61">
<rect width="251.13" height="251.13" fill="white" transform="translate(1093.87 18)"/>
</clipPath>
<clipPath id="clip2_3_61">
<rect width="150.678" height="77.5977" fill="white" transform="translate(1144.1 104.766)"/>
</clipPath>
<clipPath id="clip3_3_61">
<rect width="150.678" height="77.5977" fill="white" transform="translate(1144.1 104.766)"/>
</clipPath>
<clipPath id="clip4_3_61">
<rect width="42.8669" height="42.4222" fill="white" transform="translate(1198.09 122.219)"/>
</clipPath>
<clipPath id="clip5_3_61">
<rect width="42.8669" height="42.4222" fill="white" transform="translate(1198.09 122.219)"/>
</clipPath>
</defs>
</svg>
