<svg width="1363" height="297" viewBox="0 0 1363 297" fill="none" xmlns="http://www.w3.org/2000/svg">
<path d="M0 15C0 6.71573 6.71573 0 15 0H37V297H15C6.71573 297 0 290.284 0 282V15Z" fill="#02BAFF"/>
<path d="M37 0H1066V297H37V0Z" fill="#F0F0F0"/>
<path d="M116.115 49.4062V75H110.842L100.559 57.8438V75H95.2852V49.4062H100.559L110.859 66.5801V49.4062H116.115ZM130.652 70.7109V62.2383C130.652 61.6289 130.553 61.1074 130.354 60.6738C130.154 60.2285 129.844 59.8828 129.422 59.6367C129.012 59.3906 128.479 59.2676 127.822 59.2676C127.26 59.2676 126.773 59.3672 126.363 59.5664C125.953 59.7539 125.637 60.0293 125.414 60.3926C125.191 60.7441 125.08 61.1602 125.08 61.6406H120.018C120.018 60.832 120.205 60.0645 120.58 59.3379C120.955 58.6113 121.5 57.9727 122.215 57.4219C122.93 56.8594 123.779 56.4199 124.764 56.1035C125.76 55.7871 126.873 55.6289 128.104 55.6289C129.58 55.6289 130.893 55.875 132.041 56.3672C133.189 56.8594 134.092 57.5977 134.748 58.582C135.416 59.5664 135.75 60.7969 135.75 62.2734V70.4121C135.75 71.4551 135.814 72.3105 135.943 72.9785C136.072 73.6348 136.26 74.209 136.506 74.7012V75H131.391C131.145 74.4844 130.957 73.8398 130.828 73.0664C130.711 72.2812 130.652 71.4961 130.652 70.7109ZM131.32 63.416L131.355 66.2812H128.525C127.857 66.2812 127.277 66.3574 126.785 66.5098C126.293 66.6621 125.889 66.8789 125.572 67.1602C125.256 67.4297 125.021 67.7461 124.869 68.1094C124.729 68.4727 124.658 68.8711 124.658 69.3047C124.658 69.7383 124.758 70.1309 124.957 70.4824C125.156 70.8223 125.443 71.0918 125.818 71.291C126.193 71.4785 126.633 71.5723 127.137 71.5723C127.898 71.5723 128.561 71.4199 129.123 71.1152C129.686 70.8105 130.119 70.4355 130.424 69.9902C130.74 69.5449 130.904 69.123 130.916 68.7246L132.252 70.8691C132.064 71.3496 131.807 71.8477 131.479 72.3633C131.162 72.8789 130.758 73.3652 130.266 73.8223C129.773 74.2676 129.182 74.6367 128.49 74.9297C127.799 75.2109 126.979 75.3516 126.029 75.3516C124.822 75.3516 123.727 75.1113 122.742 74.6309C121.77 74.1387 120.996 73.4648 120.422 72.6094C119.859 71.7422 119.578 70.7578 119.578 69.6562C119.578 68.6602 119.766 67.7754 120.141 67.002C120.516 66.2285 121.066 65.5781 121.793 65.0508C122.531 64.5117 123.451 64.1074 124.553 63.8379C125.654 63.5566 126.932 63.416 128.385 63.416H131.32ZM150.885 70.8516V48H155.982V75H151.395L150.885 70.8516ZM138.861 65.7188V65.3496C138.861 63.8965 139.025 62.5781 139.354 61.3945C139.682 60.1992 140.162 59.1738 140.795 58.3184C141.428 57.4629 142.207 56.8008 143.133 56.332C144.059 55.8633 145.113 55.6289 146.297 55.6289C147.41 55.6289 148.383 55.8633 149.215 56.332C150.059 56.8008 150.773 57.4688 151.359 58.3359C151.957 59.1914 152.438 60.2051 152.801 61.377C153.164 62.5371 153.428 63.8086 153.592 65.1914V66C153.428 67.3242 153.164 68.5547 152.801 69.6914C152.438 70.8281 151.957 71.8242 151.359 72.6797C150.773 73.5234 150.059 74.1797 149.215 74.6484C148.371 75.1172 147.387 75.3516 146.262 75.3516C145.078 75.3516 144.023 75.1113 143.098 74.6309C142.184 74.1504 141.41 73.4766 140.777 72.6094C140.156 71.7422 139.682 70.7227 139.354 69.5508C139.025 68.3789 138.861 67.1016 138.861 65.7188ZM143.924 65.3496V65.7188C143.924 66.5039 143.982 67.2363 144.1 67.916C144.229 68.5957 144.434 69.1992 144.715 69.7266C145.008 70.2422 145.383 70.6465 145.84 70.9395C146.309 71.2207 146.877 71.3613 147.545 71.3613C148.412 71.3613 149.127 71.168 149.689 70.7812C150.252 70.3828 150.68 69.8379 150.973 69.1465C151.277 68.4551 151.453 67.6582 151.5 66.7559V64.4531C151.465 63.7148 151.359 63.0527 151.184 62.4668C151.02 61.8691 150.773 61.3594 150.445 60.9375C150.129 60.5156 149.73 60.1875 149.25 59.9531C148.781 59.7188 148.225 59.6016 147.58 59.6016C146.924 59.6016 146.361 59.7539 145.893 60.0586C145.424 60.3516 145.043 60.7559 144.75 61.2715C144.469 61.7871 144.258 62.3965 144.117 63.0996C143.988 63.791 143.924 64.541 143.924 65.3496ZM165.281 55.9805V75H160.201V55.9805H165.281ZM159.885 51.0234C159.885 50.2852 160.143 49.6758 160.658 49.1953C161.174 48.7148 161.865 48.4746 162.732 48.4746C163.588 48.4746 164.273 48.7148 164.789 49.1953C165.316 49.6758 165.58 50.2852 165.58 51.0234C165.58 51.7617 165.316 52.3711 164.789 52.8516C164.273 53.332 163.588 53.5723 162.732 53.5723C161.865 53.5723 161.174 53.332 160.658 52.8516C160.143 52.3711 159.885 51.7617 159.885 51.0234ZM174.527 59.918V75H169.447V55.9805H174.211L174.527 59.918ZM173.824 64.8223H172.418C172.418 63.498 172.576 62.2793 172.893 61.166C173.221 60.041 173.695 59.0684 174.316 58.248C174.949 57.416 175.729 56.7715 176.654 56.3145C177.58 55.8574 178.652 55.6289 179.871 55.6289C180.715 55.6289 181.488 55.7578 182.191 56.0156C182.895 56.2617 183.498 56.6543 184.002 57.1934C184.518 57.7207 184.916 58.4121 185.197 59.2676C185.479 60.1113 185.619 61.125 185.619 62.3086V75H180.557V62.8711C180.557 62.0039 180.439 61.3359 180.205 60.8672C179.971 60.3984 179.637 60.0703 179.203 59.8828C178.781 59.6953 178.271 59.6016 177.674 59.6016C177.018 59.6016 176.443 59.7363 175.951 60.0059C175.471 60.2754 175.072 60.6504 174.756 61.1309C174.439 61.5996 174.205 62.1504 174.053 62.7832C173.9 63.416 173.824 64.0957 173.824 64.8223ZM185.145 64.2422L183.334 64.4707C183.334 63.2285 183.486 62.0742 183.791 61.0078C184.107 59.9414 184.57 59.0039 185.18 58.1953C185.801 57.3867 186.568 56.7598 187.482 56.3145C188.396 55.8574 189.451 55.6289 190.646 55.6289C191.561 55.6289 192.393 55.7637 193.143 56.0332C193.893 56.291 194.531 56.707 195.059 57.2812C195.598 57.8438 196.008 58.582 196.289 59.4961C196.582 60.4102 196.729 61.5293 196.729 62.8535V75H191.648V62.8535C191.648 61.9746 191.531 61.3066 191.297 60.8496C191.074 60.3809 190.746 60.0586 190.312 59.8828C189.891 59.6953 189.387 59.6016 188.801 59.6016C188.191 59.6016 187.658 59.7246 187.201 59.9707C186.744 60.2051 186.363 60.5332 186.059 60.9551C185.754 61.377 185.525 61.8691 185.373 62.4316C185.221 62.9824 185.145 63.5859 185.145 64.2422ZM209.93 49.4062H219.475C221.432 49.4062 223.113 49.6992 224.52 50.2852C225.938 50.8711 227.027 51.7383 227.789 52.8867C228.551 54.0352 228.932 55.4473 228.932 57.123C228.932 58.4941 228.697 59.6719 228.229 60.6562C227.771 61.6289 227.121 62.4434 226.277 63.0996C225.445 63.7441 224.467 64.2598 223.342 64.6465L221.672 65.5254H213.375L213.34 61.4121H219.51C220.436 61.4121 221.203 61.248 221.812 60.9199C222.422 60.5918 222.879 60.1348 223.184 59.5488C223.5 58.9629 223.658 58.2832 223.658 57.5098C223.658 56.6895 223.506 55.9805 223.201 55.3828C222.896 54.7852 222.434 54.3281 221.812 54.0117C221.191 53.6953 220.412 53.5371 219.475 53.5371H215.203V75H209.93V49.4062ZM224.238 75L218.402 63.5918L223.975 63.5566L229.881 74.7539V75H224.238ZM238.02 55.9805V75H232.939V55.9805H238.02ZM232.623 51.0234C232.623 50.2852 232.881 49.6758 233.396 49.1953C233.912 48.7148 234.604 48.4746 235.471 48.4746C236.326 48.4746 237.012 48.7148 237.527 49.1953C238.055 49.6758 238.318 50.2852 238.318 51.0234C238.318 51.7617 238.055 52.3711 237.527 52.8516C237.012 53.332 236.326 53.5723 235.471 53.5723C234.604 53.5723 233.912 53.332 233.396 52.8516C232.881 52.3711 232.623 51.7617 232.623 51.0234ZM248.654 75H243.557V54.293C243.557 52.8516 243.838 51.6387 244.4 50.6543C244.975 49.6582 245.777 48.9082 246.809 48.4043C247.852 47.8887 249.088 47.6309 250.518 47.6309C250.986 47.6309 251.438 47.666 251.871 47.7363C252.305 47.7949 252.727 47.8711 253.137 47.9648L253.084 51.7793C252.861 51.7207 252.627 51.6797 252.381 51.6562C252.135 51.6328 251.848 51.6211 251.52 51.6211C250.91 51.6211 250.389 51.7266 249.955 51.9375C249.533 52.1367 249.211 52.4355 248.988 52.834C248.766 53.2324 248.654 53.7188 248.654 54.293V75ZM252.451 55.9805V59.5664H240.727V55.9805H252.451ZM265.371 70.7109V62.2383C265.371 61.6289 265.271 61.1074 265.072 60.6738C264.873 60.2285 264.562 59.8828 264.141 59.6367C263.73 59.3906 263.197 59.2676 262.541 59.2676C261.979 59.2676 261.492 59.3672 261.082 59.5664C260.672 59.7539 260.355 60.0293 260.133 60.3926C259.91 60.7441 259.799 61.1602 259.799 61.6406H254.736C254.736 60.832 254.924 60.0645 255.299 59.3379C255.674 58.6113 256.219 57.9727 256.934 57.4219C257.648 56.8594 258.498 56.4199 259.482 56.1035C260.479 55.7871 261.592 55.6289 262.822 55.6289C264.299 55.6289 265.611 55.875 266.76 56.3672C267.908 56.8594 268.811 57.5977 269.467 58.582C270.135 59.5664 270.469 60.7969 270.469 62.2734V70.4121C270.469 71.4551 270.533 72.3105 270.662 72.9785C270.791 73.6348 270.979 74.209 271.225 74.7012V75H266.109C265.863 74.4844 265.676 73.8398 265.547 73.0664C265.43 72.2812 265.371 71.4961 265.371 70.7109ZM266.039 63.416L266.074 66.2812H263.244C262.576 66.2812 261.996 66.3574 261.504 66.5098C261.012 66.6621 260.607 66.8789 260.291 67.1602C259.975 67.4297 259.74 67.7461 259.588 68.1094C259.447 68.4727 259.377 68.8711 259.377 69.3047C259.377 69.7383 259.477 70.1309 259.676 70.4824C259.875 70.8223 260.162 71.0918 260.537 71.291C260.912 71.4785 261.352 71.5723 261.855 71.5723C262.617 71.5723 263.279 71.4199 263.842 71.1152C264.404 70.8105 264.838 70.4355 265.143 69.9902C265.459 69.5449 265.623 69.123 265.635 68.7246L266.971 70.8691C266.783 71.3496 266.525 71.8477 266.197 72.3633C265.881 72.8789 265.477 73.3652 264.984 73.8223C264.492 74.2676 263.9 74.6367 263.209 74.9297C262.518 75.2109 261.697 75.3516 260.748 75.3516C259.541 75.3516 258.445 75.1113 257.461 74.6309C256.488 74.1387 255.715 73.4648 255.141 72.6094C254.578 71.7422 254.297 70.7578 254.297 69.6562C254.297 68.6602 254.484 67.7754 254.859 67.002C255.234 66.2285 255.785 65.5781 256.512 65.0508C257.25 64.5117 258.17 64.1074 259.271 63.8379C260.373 63.5566 261.65 63.416 263.104 63.416H266.039ZM279.715 55.9805V75H274.635V55.9805H279.715ZM274.318 51.0234C274.318 50.2852 274.576 49.6758 275.092 49.1953C275.607 48.7148 276.299 48.4746 277.166 48.4746C278.021 48.4746 278.707 48.7148 279.223 49.1953C279.75 49.6758 280.014 50.2852 280.014 51.0234C280.014 51.7617 279.75 52.3711 279.223 52.8516C278.707 53.332 278.021 53.5723 277.166 53.5723C276.299 53.5723 275.607 53.332 275.092 52.8516C274.576 52.3711 274.318 51.7617 274.318 51.0234ZM289.242 55.9805V75H284.162V55.9805H289.242ZM283.846 51.0234C283.846 50.2852 284.104 49.6758 284.619 49.1953C285.135 48.7148 285.826 48.4746 286.693 48.4746C287.549 48.4746 288.234 48.7148 288.75 49.1953C289.277 49.6758 289.541 50.2852 289.541 51.0234C289.541 51.7617 289.277 52.3711 288.75 52.8516C288.234 53.332 287.549 53.5723 286.693 53.5723C285.826 53.5723 285.135 53.332 284.619 52.8516C284.104 52.3711 283.846 51.7617 283.846 51.0234Z" fill="#888888"/>
<path d="M118.676 126.52H128.246C128.118 129.29 127.371 131.733 126.004 133.848C124.637 135.962 122.741 137.612 120.316 138.797C117.91 139.964 115.066 140.547 111.785 140.547C109.124 140.547 106.745 140.1 104.648 139.207C102.57 138.314 100.802 137.029 99.3438 135.352C97.9036 133.674 96.8008 131.642 96.0352 129.254C95.2878 126.866 94.9141 124.177 94.9141 121.188V119.027C94.9141 116.038 95.306 113.349 96.0898 110.961C96.8919 108.555 98.0221 106.513 99.4805 104.836C100.957 103.141 102.725 101.846 104.785 100.953C106.845 100.06 109.133 99.6133 111.648 99.6133C115.112 99.6133 118.038 100.233 120.426 101.473C122.814 102.712 124.664 104.417 125.977 106.586C127.289 108.737 128.064 111.189 128.301 113.941H118.73C118.694 112.447 118.439 111.198 117.965 110.195C117.491 109.174 116.743 108.409 115.723 107.898C114.702 107.388 113.344 107.133 111.648 107.133C110.464 107.133 109.434 107.352 108.559 107.789C107.684 108.227 106.954 108.919 106.371 109.867C105.788 110.815 105.35 112.046 105.059 113.559C104.785 115.053 104.648 116.858 104.648 118.973V121.188C104.648 123.302 104.776 125.107 105.031 126.602C105.286 128.096 105.697 129.318 106.262 130.266C106.827 131.214 107.556 131.915 108.449 132.371C109.361 132.809 110.473 133.027 111.785 133.027C113.243 133.027 114.474 132.799 115.477 132.344C116.479 131.87 117.254 131.159 117.801 130.211C118.348 129.245 118.639 128.014 118.676 126.52ZM147.715 132.562V120.367C147.715 119.529 147.596 118.809 147.359 118.207C147.122 117.605 146.749 117.141 146.238 116.812C145.728 116.466 145.044 116.293 144.188 116.293C143.495 116.293 142.902 116.411 142.41 116.648C141.918 116.885 141.544 117.241 141.289 117.715C141.034 118.189 140.906 118.79 140.906 119.52H131.691C131.691 118.152 131.992 116.885 132.594 115.719C133.214 114.534 134.089 113.504 135.219 112.629C136.367 111.754 137.734 111.079 139.32 110.605C140.924 110.113 142.711 109.867 144.68 109.867C147.031 109.867 149.128 110.259 150.969 111.043C152.828 111.827 154.296 113.003 155.371 114.57C156.447 116.12 156.984 118.07 156.984 120.422V132.535C156.984 134.467 157.094 135.935 157.312 136.938C157.531 137.922 157.841 138.788 158.242 139.535V140H149C148.562 139.089 148.234 137.977 148.016 136.664C147.815 135.333 147.715 133.966 147.715 132.562ZM148.836 121.926L148.891 126.848H144.816C143.96 126.848 143.23 126.966 142.629 127.203C142.046 127.44 141.572 127.768 141.207 128.188C140.861 128.589 140.605 129.044 140.441 129.555C140.296 130.065 140.223 130.603 140.223 131.168C140.223 131.715 140.35 132.207 140.605 132.645C140.879 133.064 141.243 133.392 141.699 133.629C142.155 133.866 142.665 133.984 143.23 133.984C144.251 133.984 145.117 133.793 145.828 133.41C146.557 133.009 147.113 132.526 147.496 131.961C147.879 131.396 148.07 130.867 148.07 130.375L150.094 134.148C149.729 134.878 149.31 135.616 148.836 136.363C148.38 137.111 147.806 137.803 147.113 138.441C146.439 139.061 145.609 139.572 144.625 139.973C143.641 140.355 142.447 140.547 141.043 140.547C139.22 140.547 137.543 140.173 136.012 139.426C134.499 138.678 133.286 137.639 132.375 136.309C131.464 134.96 131.008 133.41 131.008 131.66C131.008 130.129 131.281 128.762 131.828 127.559C132.393 126.355 133.241 125.335 134.371 124.496C135.501 123.658 136.941 123.02 138.691 122.582C140.441 122.145 142.501 121.926 144.871 121.926H148.836ZM171.395 116.676V140H162.18V110.414H170.82L171.395 116.676ZM170.273 124.195L168.168 124.25C168.168 122.172 168.414 120.258 168.906 118.508C169.398 116.758 170.128 115.236 171.094 113.941C172.06 112.647 173.245 111.645 174.648 110.934C176.07 110.223 177.711 109.867 179.57 109.867C180.865 109.867 182.04 110.068 183.098 110.469C184.155 110.852 185.066 111.462 185.832 112.301C186.598 113.121 187.181 114.197 187.582 115.527C188.001 116.84 188.211 118.417 188.211 120.258V140H178.996V121.434C178.996 120.176 178.85 119.228 178.559 118.59C178.285 117.952 177.884 117.523 177.355 117.305C176.827 117.086 176.18 116.977 175.414 116.977C174.612 116.977 173.892 117.159 173.254 117.523C172.616 117.888 172.069 118.398 171.613 119.055C171.176 119.693 170.839 120.449 170.602 121.324C170.383 122.199 170.273 123.156 170.273 124.195ZM187.172 124.195L184.602 124.25C184.602 122.172 184.829 120.258 185.285 118.508C185.759 116.758 186.461 115.236 187.391 113.941C188.339 112.647 189.514 111.645 190.918 110.934C192.322 110.223 193.953 109.867 195.812 109.867C197.161 109.867 198.401 110.068 199.531 110.469C200.661 110.87 201.637 111.517 202.457 112.41C203.277 113.303 203.915 114.488 204.371 115.965C204.827 117.423 205.055 119.228 205.055 121.379V140H195.812V121.379C195.812 120.158 195.667 119.237 195.375 118.617C195.102 117.979 194.701 117.551 194.172 117.332C193.643 117.095 193.014 116.977 192.285 116.977C191.41 116.977 190.654 117.159 190.016 117.523C189.378 117.888 188.84 118.398 188.402 119.055C187.983 119.693 187.673 120.449 187.473 121.324C187.272 122.199 187.172 123.156 187.172 124.195ZM219.629 116.102V151.375H210.414V110.414H219L219.629 116.102ZM237.785 124.852V125.426C237.785 127.577 237.539 129.573 237.047 131.414C236.555 133.255 235.826 134.859 234.859 136.227C233.893 137.594 232.69 138.66 231.25 139.426C229.828 140.173 228.178 140.547 226.301 140.547C224.533 140.547 223.01 140.155 221.734 139.371C220.458 138.587 219.392 137.503 218.535 136.117C217.678 134.732 216.986 133.146 216.457 131.359C215.928 129.573 215.509 127.686 215.199 125.699V124.961C215.509 122.828 215.928 120.85 216.457 119.027C216.986 117.186 217.678 115.582 218.535 114.215C219.392 112.848 220.449 111.781 221.707 111.016C222.983 110.25 224.505 109.867 226.273 109.867C228.151 109.867 229.801 110.223 231.223 110.934C232.663 111.645 233.866 112.665 234.832 113.996C235.816 115.309 236.555 116.885 237.047 118.727C237.539 120.568 237.785 122.609 237.785 124.852ZM228.57 125.426V124.852C228.57 123.703 228.488 122.655 228.324 121.707C228.16 120.741 227.896 119.902 227.531 119.191C227.185 118.48 226.72 117.934 226.137 117.551C225.553 117.168 224.833 116.977 223.977 116.977C222.992 116.977 222.163 117.132 221.488 117.441C220.832 117.733 220.303 118.189 219.902 118.809C219.52 119.41 219.246 120.167 219.082 121.078C218.936 121.971 218.872 123.02 218.891 124.223V126.465C218.854 127.85 218.991 129.072 219.301 130.129C219.611 131.168 220.148 131.979 220.914 132.562C221.68 133.146 222.719 133.438 224.031 133.438C224.906 133.438 225.635 133.237 226.219 132.836C226.802 132.417 227.267 131.842 227.613 131.113C227.96 130.366 228.206 129.509 228.352 128.543C228.497 127.577 228.57 126.538 228.57 125.426ZM257.391 130.621L265.676 100.188H276.422L262.996 140H256.051L257.391 130.621ZM249.871 100.188L258.156 130.621L259.551 140H252.523L239.18 100.188H249.871ZM292.035 140.547C289.629 140.547 287.478 140.173 285.582 139.426C283.686 138.66 282.082 137.612 280.77 136.281C279.475 134.951 278.482 133.419 277.789 131.688C277.115 129.956 276.777 128.124 276.777 126.191V125.152C276.777 122.983 277.078 120.978 277.68 119.137C278.281 117.277 279.174 115.655 280.359 114.27C281.544 112.884 283.03 111.809 284.816 111.043C286.603 110.259 288.681 109.867 291.051 109.867C293.147 109.867 295.025 110.204 296.684 110.879C298.342 111.553 299.746 112.52 300.895 113.777C302.061 115.035 302.945 116.557 303.547 118.344C304.167 120.13 304.477 122.135 304.477 124.359V128.105H280.305V122.336H295.48V121.625C295.499 120.641 295.326 119.802 294.961 119.109C294.615 118.417 294.104 117.888 293.43 117.523C292.755 117.159 291.935 116.977 290.969 116.977C289.966 116.977 289.137 117.195 288.48 117.633C287.842 118.07 287.341 118.672 286.977 119.438C286.63 120.185 286.384 121.051 286.238 122.035C286.092 123.02 286.02 124.059 286.02 125.152V126.191C286.02 127.285 286.165 128.279 286.457 129.172C286.767 130.065 287.204 130.831 287.77 131.469C288.353 132.089 289.046 132.572 289.848 132.918C290.668 133.264 291.598 133.438 292.637 133.438C293.895 133.438 295.134 133.201 296.355 132.727C297.577 132.253 298.625 131.469 299.5 130.375L303.684 135.352C303.082 136.208 302.225 137.038 301.113 137.84C300.02 138.642 298.707 139.298 297.176 139.809C295.645 140.301 293.931 140.547 292.035 140.547ZM317.52 117.742V140H308.305V110.414H316.918L317.52 117.742ZM326.27 110.195L326.105 118.754C325.741 118.717 325.249 118.672 324.629 118.617C324.009 118.562 323.49 118.535 323.07 118.535C321.995 118.535 321.065 118.663 320.281 118.918C319.516 119.155 318.878 119.52 318.367 120.012C317.875 120.486 317.51 121.087 317.273 121.816C317.055 122.546 316.954 123.393 316.973 124.359L315.305 123.266C315.305 121.279 315.496 119.474 315.879 117.852C316.28 116.211 316.845 114.798 317.574 113.613C318.303 112.41 319.188 111.49 320.227 110.852C321.266 110.195 322.432 109.867 323.727 109.867C324.182 109.867 324.629 109.895 325.066 109.949C325.522 110.004 325.923 110.086 326.27 110.195ZM344.945 131.688C344.945 131.177 344.772 130.74 344.426 130.375C344.098 129.992 343.514 129.646 342.676 129.336C341.837 129.008 340.661 128.68 339.148 128.352C337.708 128.042 336.35 127.632 335.074 127.121C333.816 126.611 332.714 125.991 331.766 125.262C330.818 124.533 330.07 123.667 329.523 122.664C328.995 121.661 328.73 120.513 328.73 119.219C328.73 117.961 328.995 116.776 329.523 115.664C330.07 114.534 330.863 113.54 331.902 112.684C332.96 111.809 334.245 111.125 335.758 110.633C337.271 110.122 338.993 109.867 340.926 109.867C343.587 109.867 345.884 110.277 347.816 111.098C349.749 111.9 351.234 113.03 352.273 114.488C353.331 115.928 353.859 117.596 353.859 119.492H344.645C344.645 118.745 344.517 118.107 344.262 117.578C344.025 117.049 343.633 116.648 343.086 116.375C342.539 116.083 341.81 115.938 340.898 115.938C340.26 115.938 339.677 116.056 339.148 116.293C338.638 116.53 338.228 116.858 337.918 117.277C337.608 117.697 337.453 118.189 337.453 118.754C337.453 119.155 337.544 119.52 337.727 119.848C337.927 120.158 338.228 120.449 338.629 120.723C339.03 120.978 339.54 121.215 340.16 121.434C340.78 121.634 341.527 121.816 342.402 121.98C344.389 122.345 346.249 122.865 347.98 123.539C349.712 124.214 351.116 125.171 352.191 126.41C353.285 127.65 353.832 129.318 353.832 131.414C353.832 132.727 353.531 133.939 352.93 135.051C352.328 136.145 351.462 137.111 350.332 137.949C349.202 138.77 347.844 139.408 346.258 139.863C344.672 140.319 342.885 140.547 340.898 140.547C338.073 140.547 335.685 140.046 333.734 139.043C331.784 138.022 330.307 136.746 329.305 135.215C328.32 133.665 327.828 132.098 327.828 130.512H336.414C336.451 131.423 336.669 132.171 337.07 132.754C337.49 133.337 338.046 133.766 338.738 134.039C339.431 134.312 340.233 134.449 341.145 134.449C341.983 134.449 342.676 134.331 343.223 134.094C343.788 133.857 344.216 133.538 344.508 133.137C344.799 132.717 344.945 132.234 344.945 131.688ZM372.48 140.547C370.074 140.547 367.923 140.173 366.027 139.426C364.132 138.66 362.527 137.612 361.215 136.281C359.921 134.951 358.927 133.419 358.234 131.688C357.56 129.956 357.223 128.124 357.223 126.191V125.152C357.223 122.983 357.523 120.978 358.125 119.137C358.727 117.277 359.62 115.655 360.805 114.27C361.99 112.884 363.475 111.809 365.262 111.043C367.048 110.259 369.126 109.867 371.496 109.867C373.592 109.867 375.47 110.204 377.129 110.879C378.788 111.553 380.191 112.52 381.34 113.777C382.507 115.035 383.391 116.557 383.992 118.344C384.612 120.13 384.922 122.135 384.922 124.359V128.105H360.75V122.336H375.926V121.625C375.944 120.641 375.771 119.802 375.406 119.109C375.06 118.417 374.549 117.888 373.875 117.523C373.201 117.159 372.38 116.977 371.414 116.977C370.411 116.977 369.582 117.195 368.926 117.633C368.288 118.07 367.786 118.672 367.422 119.438C367.076 120.185 366.829 121.051 366.684 122.035C366.538 123.02 366.465 124.059 366.465 125.152V126.191C366.465 127.285 366.611 128.279 366.902 129.172C367.212 130.065 367.65 130.831 368.215 131.469C368.798 132.089 369.491 132.572 370.293 132.918C371.113 133.264 372.043 133.438 373.082 133.438C374.34 133.438 375.579 133.201 376.801 132.727C378.022 132.253 379.07 131.469 379.945 130.375L384.129 135.352C383.527 136.208 382.671 137.038 381.559 137.84C380.465 138.642 379.152 139.298 377.621 139.809C376.09 140.301 374.376 140.547 372.48 140.547Z" fill="black"/>
<rect x="93" y="178" width="959" height="77" rx="10" fill="#D3D3D3"/>
<rect x="111" y="196" width="91" height="41" rx="3" fill="#424242"/>
<rect x="111" y="196" width="91" height="41" rx="3" stroke="#424242" stroke-width="4"/>
<path d="M134.141 210.203H139.177C140.161 210.203 141.017 210.35 141.743 210.643C142.47 210.936 143.029 211.369 143.422 211.943C143.82 212.518 144.02 213.227 144.02 214.07C144.02 214.803 143.905 215.415 143.677 215.907C143.448 216.399 143.129 216.807 142.719 217.129C142.314 217.445 141.843 217.706 141.304 217.911L140.293 218.482H136.065L136.048 216.101H139.177C139.569 216.101 139.895 216.03 140.152 215.89C140.41 215.749 140.604 215.55 140.732 215.292C140.867 215.028 140.935 214.715 140.935 214.352C140.935 213.982 140.867 213.666 140.732 213.402C140.598 213.139 140.398 212.937 140.135 212.796C139.877 212.655 139.558 212.585 139.177 212.585H137.226V223H134.141V210.203ZM141.146 223L138.315 217.34L141.585 217.322L144.45 222.868V223H141.146ZM150.348 223.176C149.574 223.176 148.883 223.056 148.273 222.815C147.664 222.569 147.148 222.232 146.727 221.805C146.311 221.377 145.991 220.885 145.769 220.328C145.552 219.771 145.443 219.183 145.443 218.562V218.228C145.443 217.53 145.54 216.886 145.733 216.294C145.927 215.696 146.214 215.175 146.595 214.729C146.976 214.284 147.453 213.938 148.027 213.692C148.602 213.44 149.27 213.314 150.031 213.314C150.705 213.314 151.309 213.423 151.842 213.64C152.375 213.856 152.826 214.167 153.195 214.571C153.57 214.976 153.854 215.465 154.048 216.039C154.247 216.613 154.347 217.258 154.347 217.973V219.177H146.577V217.322H151.455V217.094C151.461 216.777 151.405 216.508 151.288 216.285C151.177 216.062 151.013 215.893 150.796 215.775C150.579 215.658 150.315 215.6 150.005 215.6C149.683 215.6 149.416 215.67 149.205 215.811C149 215.951 148.839 216.145 148.722 216.391C148.61 216.631 148.531 216.909 148.484 217.226C148.438 217.542 148.414 217.876 148.414 218.228V218.562C148.414 218.913 148.461 219.232 148.555 219.52C148.654 219.807 148.795 220.053 148.977 220.258C149.164 220.457 149.387 220.612 149.645 220.724C149.908 220.835 150.207 220.891 150.541 220.891C150.945 220.891 151.344 220.814 151.736 220.662C152.129 220.51 152.466 220.258 152.747 219.906L154.092 221.506C153.898 221.781 153.623 222.048 153.266 222.306C152.914 222.563 152.492 222.774 152 222.938C151.508 223.097 150.957 223.176 150.348 223.176ZM160.49 220.609V216.689C160.49 216.42 160.452 216.188 160.376 215.995C160.3 215.802 160.18 215.652 160.016 215.547C159.852 215.436 159.632 215.38 159.356 215.38C159.134 215.38 158.943 215.418 158.785 215.494C158.627 215.57 158.507 215.685 158.425 215.837C158.343 215.989 158.302 216.183 158.302 216.417H155.34C155.34 215.978 155.437 215.57 155.63 215.195C155.829 214.814 156.11 214.483 156.474 214.202C156.843 213.921 157.282 213.704 157.792 213.552C158.308 213.394 158.882 213.314 159.515 213.314C160.271 213.314 160.944 213.44 161.536 213.692C162.134 213.944 162.605 214.322 162.951 214.826C163.297 215.324 163.47 215.951 163.47 216.707V220.601C163.47 221.222 163.505 221.693 163.575 222.016C163.646 222.332 163.745 222.61 163.874 222.851V223H160.903C160.763 222.707 160.657 222.35 160.587 221.928C160.522 221.5 160.49 221.061 160.49 220.609ZM160.851 217.19L160.868 218.772H159.559C159.283 218.772 159.049 218.811 158.855 218.887C158.668 218.963 158.516 219.068 158.398 219.203C158.287 219.332 158.205 219.479 158.152 219.643C158.105 219.807 158.082 219.979 158.082 220.161C158.082 220.337 158.123 220.495 158.205 220.636C158.293 220.771 158.41 220.876 158.557 220.952C158.703 221.028 158.867 221.066 159.049 221.066C159.377 221.066 159.655 221.005 159.884 220.882C160.118 220.753 160.297 220.598 160.42 220.416C160.543 220.234 160.604 220.064 160.604 219.906L161.255 221.119C161.138 221.354 161.003 221.591 160.851 221.831C160.704 222.071 160.52 222.294 160.297 222.499C160.08 222.698 159.813 222.862 159.497 222.991C159.181 223.114 158.797 223.176 158.346 223.176C157.76 223.176 157.221 223.056 156.729 222.815C156.242 222.575 155.853 222.241 155.56 221.813C155.267 221.38 155.12 220.882 155.12 220.319C155.12 219.827 155.208 219.388 155.384 219.001C155.565 218.614 155.838 218.286 156.201 218.017C156.564 217.747 157.027 217.542 157.59 217.401C158.152 217.261 158.814 217.19 159.576 217.19H160.851ZM169.13 220.891C169.405 220.891 169.64 220.841 169.833 220.741C170.032 220.636 170.182 220.489 170.281 220.302C170.387 220.108 170.437 219.877 170.431 219.607H173.217C173.223 220.322 173.047 220.949 172.689 221.488C172.338 222.021 171.857 222.438 171.248 222.736C170.645 223.029 169.962 223.176 169.2 223.176C168.456 223.176 167.806 223.056 167.249 222.815C166.692 222.569 166.227 222.229 165.852 221.796C165.482 221.356 165.204 220.844 165.017 220.258C164.835 219.672 164.744 219.036 164.744 218.351V218.148C164.744 217.463 164.835 216.827 165.017 216.241C165.204 215.649 165.482 215.137 165.852 214.703C166.227 214.264 166.689 213.924 167.24 213.684C167.797 213.438 168.444 213.314 169.183 213.314C169.974 213.314 170.671 213.464 171.274 213.763C171.884 214.062 172.361 214.495 172.707 215.063C173.053 215.632 173.223 216.32 173.217 217.129H170.431C170.437 216.842 170.393 216.584 170.299 216.355C170.205 216.127 170.059 215.945 169.859 215.811C169.666 215.67 169.417 215.6 169.112 215.6C168.808 215.6 168.562 215.667 168.374 215.802C168.187 215.937 168.043 216.124 167.943 216.364C167.85 216.599 167.785 216.868 167.75 217.173C167.721 217.478 167.706 217.803 167.706 218.148V218.351C167.706 218.702 167.721 219.033 167.75 219.344C167.785 219.648 167.853 219.918 167.952 220.152C168.052 220.381 168.195 220.562 168.383 220.697C168.57 220.826 168.819 220.891 169.13 220.891ZM179.492 213.49V215.547H173.762V213.49H179.492ZM174.966 211.126H177.928V219.897C177.928 220.149 177.957 220.346 178.016 220.486C178.074 220.621 178.174 220.718 178.314 220.776C178.461 220.829 178.654 220.855 178.895 220.855C179.064 220.855 179.205 220.853 179.316 220.847C179.428 220.835 179.533 220.82 179.633 220.803V222.921C179.381 223.003 179.117 223.064 178.842 223.105C178.566 223.152 178.273 223.176 177.963 223.176C177.33 223.176 176.788 223.076 176.337 222.877C175.892 222.678 175.552 222.364 175.317 221.937C175.083 221.509 174.966 220.952 174.966 220.267V211.126Z" fill="white"/>
<rect x="213" y="196" width="130" height="41" rx="3" fill="#424242"/>
<rect x="213" y="196" width="130" height="41" rx="3" stroke="#424242" stroke-width="4"/>
<path d="M244.883 220.627V223H238.062V220.627H244.883ZM239.161 210.203V223H236.076V210.203H239.161ZM244.004 215.283V217.577H238.062V215.283H244.004ZM244.909 210.203V212.585H238.062V210.203H244.909ZM248.521 213.49L249.857 216.109L251.237 213.49H254.313L251.817 218.122L254.445 223H251.343L249.857 220.188L248.381 223H245.278L247.906 218.122L245.419 213.49H248.521ZM258.277 215.318V226.656H255.315V213.49H258.075L258.277 215.318ZM264.113 218.131V218.315C264.113 219.007 264.034 219.648 263.876 220.24C263.718 220.832 263.483 221.348 263.173 221.787C262.862 222.227 262.476 222.569 262.013 222.815C261.556 223.056 261.025 223.176 260.422 223.176C259.854 223.176 259.364 223.05 258.954 222.798C258.544 222.546 258.201 222.197 257.926 221.752C257.65 221.307 257.428 220.797 257.258 220.223C257.088 219.648 256.953 219.042 256.854 218.403V218.166C256.953 217.48 257.088 216.845 257.258 216.259C257.428 215.667 257.65 215.151 257.926 214.712C258.201 214.272 258.541 213.93 258.945 213.684C259.355 213.438 259.845 213.314 260.413 213.314C261.017 213.314 261.547 213.429 262.004 213.657C262.467 213.886 262.854 214.214 263.164 214.642C263.48 215.063 263.718 215.57 263.876 216.162C264.034 216.754 264.113 217.41 264.113 218.131ZM261.151 218.315V218.131C261.151 217.762 261.125 217.425 261.072 217.12C261.02 216.81 260.935 216.54 260.817 216.312C260.706 216.083 260.557 215.907 260.369 215.784C260.182 215.661 259.95 215.6 259.675 215.6C259.358 215.6 259.092 215.649 258.875 215.749C258.664 215.843 258.494 215.989 258.365 216.188C258.242 216.382 258.154 216.625 258.102 216.918C258.055 217.205 258.034 217.542 258.04 217.929V218.649C258.028 219.095 258.072 219.487 258.172 219.827C258.271 220.161 258.444 220.422 258.69 220.609C258.937 220.797 259.271 220.891 259.692 220.891C259.974 220.891 260.208 220.826 260.396 220.697C260.583 220.562 260.732 220.378 260.844 220.144C260.955 219.903 261.034 219.628 261.081 219.317C261.128 219.007 261.151 218.673 261.151 218.315ZM268.42 215.846V223H265.458V213.49H268.227L268.42 215.846ZM271.232 213.42L271.18 216.171C271.062 216.159 270.904 216.145 270.705 216.127C270.506 216.109 270.339 216.101 270.204 216.101C269.858 216.101 269.56 216.142 269.308 216.224C269.062 216.3 268.856 216.417 268.692 216.575C268.534 216.728 268.417 216.921 268.341 217.155C268.271 217.39 268.238 217.662 268.244 217.973L267.708 217.621C267.708 216.982 267.77 216.402 267.893 215.881C268.021 215.354 268.203 214.899 268.438 214.519C268.672 214.132 268.956 213.836 269.29 213.631C269.624 213.42 269.999 213.314 270.415 213.314C270.562 213.314 270.705 213.323 270.846 213.341C270.992 213.358 271.121 213.385 271.232 213.42ZM276.682 223.176C275.908 223.176 275.217 223.056 274.607 222.815C273.998 222.569 273.482 222.232 273.061 221.805C272.645 221.377 272.325 220.885 272.103 220.328C271.886 219.771 271.777 219.183 271.777 218.562V218.228C271.777 217.53 271.874 216.886 272.067 216.294C272.261 215.696 272.548 215.175 272.929 214.729C273.31 214.284 273.787 213.938 274.361 213.692C274.936 213.44 275.604 213.314 276.365 213.314C277.039 213.314 277.643 213.423 278.176 213.64C278.709 213.856 279.16 214.167 279.529 214.571C279.904 214.976 280.188 215.465 280.382 216.039C280.581 216.613 280.681 217.258 280.681 217.973V219.177H272.911V217.322H277.789V217.094C277.795 216.777 277.739 216.508 277.622 216.285C277.511 216.062 277.347 215.893 277.13 215.775C276.913 215.658 276.649 215.6 276.339 215.6C276.017 215.6 275.75 215.67 275.539 215.811C275.334 215.951 275.173 216.145 275.056 216.391C274.944 216.631 274.865 216.909 274.818 217.226C274.771 217.542 274.748 217.876 274.748 218.228V218.562C274.748 218.913 274.795 219.232 274.889 219.52C274.988 219.807 275.129 220.053 275.311 220.258C275.498 220.457 275.721 220.612 275.979 220.724C276.242 220.835 276.541 220.891 276.875 220.891C277.279 220.891 277.678 220.814 278.07 220.662C278.463 220.51 278.8 220.258 279.081 219.906L280.426 221.506C280.232 221.781 279.957 222.048 279.6 222.306C279.248 222.563 278.826 222.774 278.334 222.938C277.842 223.097 277.291 223.176 276.682 223.176ZM286.868 220.328C286.868 220.164 286.812 220.023 286.701 219.906C286.596 219.783 286.408 219.672 286.139 219.572C285.869 219.467 285.491 219.361 285.005 219.256C284.542 219.156 284.105 219.024 283.695 218.86C283.291 218.696 282.937 218.497 282.632 218.263C282.327 218.028 282.087 217.75 281.911 217.428C281.741 217.105 281.656 216.736 281.656 216.32C281.656 215.916 281.741 215.535 281.911 215.178C282.087 214.814 282.342 214.495 282.676 214.22C283.016 213.938 283.429 213.719 283.915 213.561C284.401 213.396 284.955 213.314 285.576 213.314C286.432 213.314 287.17 213.446 287.791 213.71C288.412 213.968 288.89 214.331 289.224 214.8C289.563 215.263 289.733 215.799 289.733 216.408H286.771C286.771 216.168 286.73 215.963 286.648 215.793C286.572 215.623 286.446 215.494 286.271 215.406C286.095 215.312 285.86 215.266 285.567 215.266C285.362 215.266 285.175 215.304 285.005 215.38C284.841 215.456 284.709 215.562 284.609 215.696C284.51 215.831 284.46 215.989 284.46 216.171C284.46 216.3 284.489 216.417 284.548 216.522C284.612 216.622 284.709 216.716 284.838 216.804C284.967 216.886 285.131 216.962 285.33 217.032C285.529 217.097 285.77 217.155 286.051 217.208C286.689 217.325 287.287 217.492 287.844 217.709C288.4 217.926 288.852 218.233 289.197 218.632C289.549 219.03 289.725 219.566 289.725 220.24C289.725 220.662 289.628 221.052 289.435 221.409C289.241 221.761 288.963 222.071 288.6 222.341C288.236 222.604 287.8 222.81 287.29 222.956C286.78 223.103 286.206 223.176 285.567 223.176C284.659 223.176 283.892 223.015 283.265 222.692C282.638 222.364 282.163 221.954 281.841 221.462C281.524 220.964 281.366 220.46 281.366 219.95H284.126C284.138 220.243 284.208 220.483 284.337 220.671C284.472 220.858 284.65 220.996 284.873 221.084C285.096 221.172 285.354 221.216 285.646 221.216C285.916 221.216 286.139 221.178 286.314 221.102C286.496 221.025 286.634 220.923 286.728 220.794C286.821 220.659 286.868 220.504 286.868 220.328ZM296.097 220.328C296.097 220.164 296.041 220.023 295.93 219.906C295.824 219.783 295.637 219.672 295.367 219.572C295.098 219.467 294.72 219.361 294.233 219.256C293.771 219.156 293.334 219.024 292.924 218.86C292.52 218.696 292.165 218.497 291.86 218.263C291.556 218.028 291.315 217.75 291.14 217.428C290.97 217.105 290.885 216.736 290.885 216.32C290.885 215.916 290.97 215.535 291.14 215.178C291.315 214.814 291.57 214.495 291.904 214.22C292.244 213.938 292.657 213.719 293.144 213.561C293.63 213.396 294.184 213.314 294.805 213.314C295.66 213.314 296.398 213.446 297.02 213.71C297.641 213.968 298.118 214.331 298.452 214.8C298.792 215.263 298.962 215.799 298.962 216.408H296C296 216.168 295.959 215.963 295.877 215.793C295.801 215.623 295.675 215.494 295.499 215.406C295.323 215.312 295.089 215.266 294.796 215.266C294.591 215.266 294.403 215.304 294.233 215.38C294.069 215.456 293.938 215.562 293.838 215.696C293.738 215.831 293.688 215.989 293.688 216.171C293.688 216.3 293.718 216.417 293.776 216.522C293.841 216.622 293.938 216.716 294.066 216.804C294.195 216.886 294.359 216.962 294.559 217.032C294.758 217.097 294.998 217.155 295.279 217.208C295.918 217.325 296.516 217.492 297.072 217.709C297.629 217.926 298.08 218.233 298.426 218.632C298.777 219.03 298.953 219.566 298.953 220.24C298.953 220.662 298.856 221.052 298.663 221.409C298.47 221.761 298.191 222.071 297.828 222.341C297.465 222.604 297.028 222.81 296.519 222.956C296.009 223.103 295.435 223.176 294.796 223.176C293.888 223.176 293.12 223.015 292.493 222.692C291.866 222.364 291.392 221.954 291.069 221.462C290.753 220.964 290.595 220.46 290.595 219.95H293.354C293.366 220.243 293.437 220.483 293.565 220.671C293.7 220.858 293.879 220.996 294.102 221.084C294.324 221.172 294.582 221.216 294.875 221.216C295.145 221.216 295.367 221.178 295.543 221.102C295.725 221.025 295.862 220.923 295.956 220.794C296.05 220.659 296.097 220.504 296.097 220.328ZM305.571 218.983V210.203H308.647V218.983C308.647 219.839 308.451 220.58 308.059 221.207C307.672 221.834 307.145 222.32 306.477 222.666C305.814 223.006 305.07 223.176 304.244 223.176C303.389 223.176 302.627 223.032 301.959 222.745C301.297 222.458 300.775 222.016 300.395 221.418C300.02 220.82 299.832 220.059 299.832 219.133H302.926C302.926 219.566 302.976 219.906 303.075 220.152C303.175 220.393 303.321 220.562 303.515 220.662C303.714 220.756 303.957 220.803 304.244 220.803C304.525 220.803 304.763 220.732 304.956 220.592C305.155 220.445 305.308 220.237 305.413 219.968C305.519 219.692 305.571 219.364 305.571 218.983ZM317.199 219.599C317.199 219.399 317.17 219.221 317.111 219.062C317.053 218.898 316.944 218.746 316.786 218.605C316.628 218.465 316.399 218.324 316.101 218.184C315.808 218.037 315.421 217.885 314.94 217.727C314.378 217.539 313.836 217.328 313.314 217.094C312.793 216.854 312.327 216.575 311.917 216.259C311.507 215.937 311.182 215.562 310.941 215.134C310.701 214.7 310.581 214.196 310.581 213.622C310.581 213.071 310.704 212.576 310.95 212.137C311.196 211.691 311.539 211.313 311.979 211.003C312.424 210.687 312.945 210.446 313.543 210.282C314.141 210.112 314.794 210.027 315.503 210.027C316.44 210.027 317.267 210.191 317.981 210.52C318.702 210.842 319.265 211.302 319.669 211.899C320.079 212.491 320.284 213.191 320.284 214H317.217C317.217 213.678 317.149 213.394 317.015 213.147C316.886 212.901 316.689 212.708 316.426 212.567C316.162 212.427 315.831 212.356 315.433 212.356C315.046 212.356 314.721 212.415 314.457 212.532C314.193 212.649 313.994 212.808 313.859 213.007C313.725 213.2 313.657 213.414 313.657 213.648C313.657 213.842 313.71 214.018 313.815 214.176C313.927 214.328 314.082 214.472 314.281 214.606C314.486 214.741 314.732 214.87 315.02 214.993C315.312 215.116 315.641 215.236 316.004 215.354C316.684 215.57 317.287 215.813 317.814 216.083C318.348 216.347 318.796 216.648 319.159 216.988C319.528 217.322 319.807 217.703 319.994 218.131C320.188 218.559 320.284 219.042 320.284 219.581C320.284 220.155 320.173 220.665 319.95 221.11C319.728 221.556 319.408 221.934 318.992 222.244C318.576 222.549 318.078 222.78 317.498 222.938C316.918 223.097 316.271 223.176 315.556 223.176C314.899 223.176 314.252 223.094 313.613 222.93C312.98 222.76 312.406 222.502 311.891 222.156C311.375 221.805 310.962 221.356 310.651 220.812C310.347 220.261 310.194 219.607 310.194 218.852H313.288C313.288 219.227 313.338 219.543 313.438 219.801C313.537 220.059 313.684 220.267 313.877 220.425C314.07 220.577 314.308 220.688 314.589 220.759C314.87 220.823 315.192 220.855 315.556 220.855C315.948 220.855 316.265 220.8 316.505 220.688C316.745 220.571 316.921 220.419 317.032 220.231C317.144 220.038 317.199 219.827 317.199 219.599Z" fill="white"/>
<rect x="354" y="196" width="109" height="41" rx="3" fill="#424242"/>
<rect x="354" y="196" width="109" height="41" rx="3" stroke="#424242" stroke-width="4"/>
<path d="M388.118 210.203V223H385.042L380.516 215.037V223H377.431V210.203H380.516L385.042 218.166V210.203H388.118ZM389.56 218.342V218.157C389.56 217.46 389.659 216.818 389.858 216.232C390.058 215.641 390.351 215.128 390.737 214.694C391.124 214.261 391.602 213.924 392.17 213.684C392.738 213.438 393.395 213.314 394.139 213.314C394.889 213.314 395.548 213.438 396.116 213.684C396.69 213.924 397.171 214.261 397.558 214.694C397.944 215.128 398.237 215.641 398.437 216.232C398.636 216.818 398.735 217.46 398.735 218.157V218.342C398.735 219.033 398.636 219.675 398.437 220.267C398.237 220.853 397.944 221.365 397.558 221.805C397.171 222.238 396.693 222.575 396.125 222.815C395.557 223.056 394.9 223.176 394.156 223.176C393.412 223.176 392.753 223.056 392.179 222.815C391.604 222.575 391.124 222.238 390.737 221.805C390.351 221.365 390.058 220.853 389.858 220.267C389.659 219.675 389.56 219.033 389.56 218.342ZM392.521 218.157V218.342C392.521 218.699 392.548 219.033 392.601 219.344C392.653 219.654 392.741 219.927 392.864 220.161C392.987 220.39 393.154 220.568 393.365 220.697C393.576 220.826 393.84 220.891 394.156 220.891C394.467 220.891 394.725 220.826 394.93 220.697C395.141 220.568 395.308 220.39 395.431 220.161C395.554 219.927 395.642 219.654 395.694 219.344C395.747 219.033 395.773 218.699 395.773 218.342V218.157C395.773 217.812 395.747 217.486 395.694 217.182C395.642 216.871 395.554 216.599 395.431 216.364C395.308 216.124 395.141 215.937 394.93 215.802C394.719 215.667 394.455 215.6 394.139 215.6C393.828 215.6 393.567 215.667 393.356 215.802C393.151 215.937 392.987 216.124 392.864 216.364C392.741 216.599 392.653 216.871 392.601 217.182C392.548 217.486 392.521 217.812 392.521 218.157ZM405.521 220.82V209.5H408.5V223H405.828L405.521 220.82ZM399.685 218.359V218.175C399.685 217.454 399.764 216.798 399.922 216.206C400.08 215.608 400.314 215.096 400.625 214.668C400.936 214.234 401.322 213.9 401.785 213.666C402.248 213.432 402.781 213.314 403.385 213.314C403.924 213.314 404.396 213.44 404.8 213.692C405.204 213.938 405.55 214.284 405.837 214.729C406.124 215.175 406.358 215.696 406.54 216.294C406.722 216.886 406.859 217.524 406.953 218.21V218.43C406.859 219.074 406.722 219.684 406.54 220.258C406.358 220.826 406.124 221.33 405.837 221.77C405.55 222.209 405.201 222.555 404.791 222.807C404.387 223.053 403.912 223.176 403.367 223.176C402.764 223.176 402.23 223.056 401.768 222.815C401.311 222.575 400.927 222.238 400.616 221.805C400.312 221.371 400.08 220.861 399.922 220.275C399.764 219.689 399.685 219.051 399.685 218.359ZM402.646 218.175V218.359C402.646 218.717 402.67 219.048 402.717 219.353C402.764 219.657 402.843 219.927 402.954 220.161C403.071 220.39 403.224 220.568 403.411 220.697C403.604 220.826 403.842 220.891 404.123 220.891C404.504 220.891 404.817 220.8 405.063 220.618C405.315 220.437 405.5 220.179 405.617 219.845C405.74 219.511 405.793 219.118 405.775 218.667V217.973C405.787 217.586 405.761 217.246 405.696 216.953C405.632 216.654 405.529 216.405 405.389 216.206C405.254 216.007 405.081 215.857 404.87 215.758C404.665 215.652 404.422 215.6 404.141 215.6C403.865 215.6 403.631 215.664 403.438 215.793C403.25 215.922 403.098 216.104 402.98 216.338C402.863 216.566 402.778 216.839 402.726 217.155C402.673 217.466 402.646 217.806 402.646 218.175ZM414.784 223.176C414.011 223.176 413.319 223.056 412.71 222.815C412.101 222.569 411.585 222.232 411.163 221.805C410.747 221.377 410.428 220.885 410.205 220.328C409.988 219.771 409.88 219.183 409.88 218.562V218.228C409.88 217.53 409.977 216.886 410.17 216.294C410.363 215.696 410.65 215.175 411.031 214.729C411.412 214.284 411.89 213.938 412.464 213.692C413.038 213.44 413.706 213.314 414.468 213.314C415.142 213.314 415.745 213.423 416.278 213.64C416.812 213.856 417.263 214.167 417.632 214.571C418.007 214.976 418.291 215.465 418.484 216.039C418.684 216.613 418.783 217.258 418.783 217.973V219.177H411.014V217.322H415.892V217.094C415.897 216.777 415.842 216.508 415.725 216.285C415.613 216.062 415.449 215.893 415.232 215.775C415.016 215.658 414.752 215.6 414.441 215.6C414.119 215.6 413.853 215.67 413.642 215.811C413.437 215.951 413.275 216.145 413.158 216.391C413.047 216.631 412.968 216.909 412.921 217.226C412.874 217.542 412.851 217.876 412.851 218.228V218.562C412.851 218.913 412.897 219.232 412.991 219.52C413.091 219.807 413.231 220.053 413.413 220.258C413.601 220.457 413.823 220.612 414.081 220.724C414.345 220.835 414.644 220.891 414.978 220.891C415.382 220.891 415.78 220.814 416.173 220.662C416.565 220.51 416.902 220.258 417.184 219.906L418.528 221.506C418.335 221.781 418.06 222.048 417.702 222.306C417.351 222.563 416.929 222.774 416.437 222.938C415.944 223.097 415.394 223.176 414.784 223.176ZM425.217 218.983V210.203H428.293V218.983C428.293 219.839 428.097 220.58 427.704 221.207C427.317 221.834 426.79 222.32 426.122 222.666C425.46 223.006 424.716 223.176 423.89 223.176C423.034 223.176 422.272 223.032 421.604 222.745C420.942 222.458 420.421 222.016 420.04 221.418C419.665 220.82 419.478 220.059 419.478 219.133H422.571C422.571 219.566 422.621 219.906 422.721 220.152C422.82 220.393 422.967 220.562 423.16 220.662C423.359 220.756 423.603 220.803 423.89 220.803C424.171 220.803 424.408 220.732 424.602 220.592C424.801 220.445 424.953 220.237 425.059 219.968C425.164 219.692 425.217 219.364 425.217 218.983ZM436.845 219.599C436.845 219.399 436.815 219.221 436.757 219.062C436.698 218.898 436.59 218.746 436.432 218.605C436.273 218.465 436.045 218.324 435.746 218.184C435.453 218.037 435.066 217.885 434.586 217.727C434.023 217.539 433.481 217.328 432.96 217.094C432.438 216.854 431.973 216.575 431.562 216.259C431.152 215.937 430.827 215.562 430.587 215.134C430.347 214.7 430.227 214.196 430.227 213.622C430.227 213.071 430.35 212.576 430.596 212.137C430.842 211.691 431.185 211.313 431.624 211.003C432.069 210.687 432.591 210.446 433.188 210.282C433.786 210.112 434.439 210.027 435.148 210.027C436.086 210.027 436.912 210.191 437.627 210.52C438.348 210.842 438.91 211.302 439.314 211.899C439.725 212.491 439.93 213.191 439.93 214H436.862C436.862 213.678 436.795 213.394 436.66 213.147C436.531 212.901 436.335 212.708 436.071 212.567C435.808 212.427 435.477 212.356 435.078 212.356C434.691 212.356 434.366 212.415 434.103 212.532C433.839 212.649 433.64 212.808 433.505 213.007C433.37 213.2 433.303 213.414 433.303 213.648C433.303 213.842 433.355 214.018 433.461 214.176C433.572 214.328 433.728 214.472 433.927 214.606C434.132 214.741 434.378 214.87 434.665 214.993C434.958 215.116 435.286 215.236 435.649 215.354C436.329 215.57 436.933 215.813 437.46 216.083C437.993 216.347 438.441 216.648 438.805 216.988C439.174 217.322 439.452 217.703 439.64 218.131C439.833 218.559 439.93 219.042 439.93 219.581C439.93 220.155 439.818 220.665 439.596 221.11C439.373 221.556 439.054 221.934 438.638 222.244C438.222 222.549 437.724 222.78 437.144 222.938C436.563 223.097 435.916 223.176 435.201 223.176C434.545 223.176 433.897 223.094 433.259 222.93C432.626 222.76 432.052 222.502 431.536 222.156C431.021 221.805 430.607 221.356 430.297 220.812C429.992 220.261 429.84 219.607 429.84 218.852H432.934C432.934 219.227 432.983 219.543 433.083 219.801C433.183 220.059 433.329 220.267 433.522 220.425C433.716 220.577 433.953 220.688 434.234 220.759C434.516 220.823 434.838 220.855 435.201 220.855C435.594 220.855 435.91 220.8 436.15 220.688C436.391 220.571 436.566 220.419 436.678 220.231C436.789 220.038 436.845 219.827 436.845 219.599Z" fill="white"/>
<rect x="474" y="196" width="124" height="41" rx="3" fill="#424242"/>
<rect x="474" y="196" width="124" height="41" rx="3" stroke="#424242" stroke-width="4"/>
<path d="M500.044 215.503V223H497.082V213.49H499.859L500.044 215.503ZM499.684 217.92L499.007 217.938C499.007 217.27 499.086 216.654 499.244 216.092C499.402 215.529 499.637 215.04 499.947 214.624C500.258 214.208 500.639 213.886 501.09 213.657C501.547 213.429 502.074 213.314 502.672 213.314C503.088 213.314 503.466 213.379 503.806 213.508C504.146 213.631 504.438 213.827 504.685 214.097C504.931 214.36 505.118 214.706 505.247 215.134C505.382 215.556 505.449 216.062 505.449 216.654V223H502.487V217.032C502.487 216.628 502.44 216.323 502.347 216.118C502.259 215.913 502.13 215.775 501.96 215.705C501.79 215.635 501.582 215.6 501.336 215.6C501.078 215.6 500.847 215.658 500.642 215.775C500.437 215.893 500.261 216.057 500.114 216.268C499.974 216.473 499.865 216.716 499.789 216.997C499.719 217.278 499.684 217.586 499.684 217.92ZM505.115 217.92L504.289 217.938C504.289 217.27 504.362 216.654 504.509 216.092C504.661 215.529 504.887 215.04 505.186 214.624C505.49 214.208 505.868 213.886 506.319 213.657C506.771 213.429 507.295 213.314 507.893 213.314C508.326 213.314 508.725 213.379 509.088 213.508C509.451 213.637 509.765 213.845 510.028 214.132C510.292 214.419 510.497 214.8 510.644 215.274C510.79 215.743 510.863 216.323 510.863 217.015V223H507.893V217.015C507.893 216.622 507.846 216.326 507.752 216.127C507.664 215.922 507.535 215.784 507.365 215.714C507.195 215.638 506.993 215.6 506.759 215.6C506.478 215.6 506.234 215.658 506.029 215.775C505.824 215.893 505.651 216.057 505.511 216.268C505.376 216.473 505.276 216.716 505.212 216.997C505.147 217.278 505.115 217.586 505.115 217.92ZM512.19 218.342V218.157C512.19 217.46 512.29 216.818 512.489 216.232C512.688 215.641 512.981 215.128 513.368 214.694C513.755 214.261 514.232 213.924 514.801 213.684C515.369 213.438 516.025 213.314 516.77 213.314C517.52 213.314 518.179 213.438 518.747 213.684C519.321 213.924 519.802 214.261 520.188 214.694C520.575 215.128 520.868 215.641 521.067 216.232C521.267 216.818 521.366 217.46 521.366 218.157V218.342C521.366 219.033 521.267 219.675 521.067 220.267C520.868 220.853 520.575 221.365 520.188 221.805C519.802 222.238 519.324 222.575 518.756 222.815C518.188 223.056 517.531 223.176 516.787 223.176C516.043 223.176 515.384 223.056 514.81 222.815C514.235 222.575 513.755 222.238 513.368 221.805C512.981 221.365 512.688 220.853 512.489 220.267C512.29 219.675 512.19 219.033 512.19 218.342ZM515.152 218.157V218.342C515.152 218.699 515.179 219.033 515.231 219.344C515.284 219.654 515.372 219.927 515.495 220.161C515.618 220.39 515.785 220.568 515.996 220.697C516.207 220.826 516.471 220.891 516.787 220.891C517.098 220.891 517.355 220.826 517.561 220.697C517.771 220.568 517.938 220.39 518.062 220.161C518.185 219.927 518.272 219.654 518.325 219.344C518.378 219.033 518.404 218.699 518.404 218.342V218.157C518.404 217.812 518.378 217.486 518.325 217.182C518.272 216.871 518.185 216.599 518.062 216.364C517.938 216.124 517.771 215.937 517.561 215.802C517.35 215.667 517.086 215.6 516.77 215.6C516.459 215.6 516.198 215.667 515.987 215.802C515.782 215.937 515.618 216.124 515.495 216.364C515.372 216.599 515.284 216.871 515.231 217.182C515.179 217.486 515.152 217.812 515.152 218.157ZM525.594 215.521V223H522.632V213.49H525.409L525.594 215.521ZM525.242 217.92L524.548 217.938C524.548 217.211 524.636 216.563 524.812 215.995C524.987 215.421 525.236 214.935 525.559 214.536C525.881 214.138 526.265 213.836 526.71 213.631C527.161 213.42 527.662 213.314 528.213 213.314C528.652 213.314 529.054 213.379 529.417 213.508C529.786 213.637 530.103 213.845 530.366 214.132C530.636 214.419 530.841 214.8 530.981 215.274C531.128 215.743 531.201 216.323 531.201 217.015V223H528.222V217.006C528.222 216.625 528.169 216.335 528.063 216.136C527.958 215.931 527.806 215.79 527.606 215.714C527.407 215.638 527.164 215.6 526.877 215.6C526.572 215.6 526.314 215.658 526.104 215.775C525.893 215.893 525.723 216.057 525.594 216.268C525.471 216.473 525.38 216.716 525.321 216.997C525.269 217.278 525.242 217.586 525.242 217.92ZM538.821 213.49H541.511V222.631C541.511 223.51 541.309 224.254 540.904 224.863C540.5 225.479 539.935 225.944 539.208 226.261C538.487 226.583 537.644 226.744 536.677 226.744C536.249 226.744 535.812 226.688 535.367 226.577C534.922 226.472 534.506 226.313 534.119 226.103C533.732 225.892 533.407 225.631 533.144 225.32L534.383 223.58C534.623 223.85 534.925 224.078 535.288 224.266C535.651 224.459 536.079 224.556 536.571 224.556C536.999 224.556 537.356 224.479 537.644 224.327C537.937 224.175 538.159 223.952 538.312 223.659C538.464 223.372 538.54 223.023 538.54 222.613V215.74L538.821 213.49ZM532.502 218.359V218.175C532.502 217.454 532.59 216.798 532.766 216.206C532.947 215.608 533.205 215.096 533.539 214.668C533.879 214.234 534.289 213.9 534.77 213.666C535.25 213.432 535.792 213.314 536.396 213.314C537.046 213.314 537.579 213.44 537.995 213.692C538.417 213.938 538.754 214.284 539.006 214.729C539.264 215.175 539.463 215.696 539.604 216.294C539.75 216.886 539.873 217.524 539.973 218.21V218.43C539.873 219.074 539.735 219.684 539.56 220.258C539.39 220.826 539.167 221.33 538.892 221.77C538.616 222.209 538.271 222.555 537.854 222.807C537.444 223.053 536.952 223.176 536.378 223.176C535.78 223.176 535.241 223.056 534.761 222.815C534.286 222.575 533.879 222.238 533.539 221.805C533.205 221.371 532.947 220.861 532.766 220.275C532.59 219.689 532.502 219.051 532.502 218.359ZM535.464 218.175V218.359C535.464 218.717 535.496 219.048 535.561 219.353C535.631 219.657 535.736 219.927 535.877 220.161C536.018 220.39 536.19 220.568 536.396 220.697C536.606 220.826 536.853 220.891 537.134 220.891C537.562 220.891 537.907 220.8 538.171 220.618C538.435 220.437 538.625 220.179 538.742 219.845C538.859 219.511 538.909 219.118 538.892 218.667V217.973C538.903 217.586 538.877 217.246 538.812 216.953C538.748 216.654 538.646 216.405 538.505 216.206C538.37 216.007 538.188 215.857 537.96 215.758C537.737 215.652 537.468 215.6 537.151 215.6C536.876 215.6 536.633 215.664 536.422 215.793C536.211 215.922 536.035 216.104 535.895 216.338C535.754 216.566 535.646 216.839 535.569 217.155C535.499 217.466 535.464 217.806 535.464 218.175ZM542.847 218.342V218.157C542.847 217.46 542.946 216.818 543.146 216.232C543.345 215.641 543.638 215.128 544.024 214.694C544.411 214.261 544.889 213.924 545.457 213.684C546.025 213.438 546.682 213.314 547.426 213.314C548.176 213.314 548.835 213.438 549.403 213.684C549.978 213.924 550.458 214.261 550.845 214.694C551.231 215.128 551.524 215.641 551.724 216.232C551.923 216.818 552.022 217.46 552.022 218.157V218.342C552.022 219.033 551.923 219.675 551.724 220.267C551.524 220.853 551.231 221.365 550.845 221.805C550.458 222.238 549.98 222.575 549.412 222.815C548.844 223.056 548.188 223.176 547.443 223.176C546.699 223.176 546.04 223.056 545.466 222.815C544.892 222.575 544.411 222.238 544.024 221.805C543.638 221.365 543.345 220.853 543.146 220.267C542.946 219.675 542.847 219.033 542.847 218.342ZM545.809 218.157V218.342C545.809 218.699 545.835 219.033 545.888 219.344C545.94 219.654 546.028 219.927 546.151 220.161C546.274 220.39 546.441 220.568 546.652 220.697C546.863 220.826 547.127 220.891 547.443 220.891C547.754 220.891 548.012 220.826 548.217 220.697C548.428 220.568 548.595 220.39 548.718 220.161C548.841 219.927 548.929 219.654 548.981 219.344C549.034 219.033 549.061 218.699 549.061 218.342V218.157C549.061 217.812 549.034 217.486 548.981 217.182C548.929 216.871 548.841 216.599 548.718 216.364C548.595 216.124 548.428 215.937 548.217 215.802C548.006 215.667 547.742 215.6 547.426 215.6C547.115 215.6 546.854 215.667 546.644 215.802C546.438 215.937 546.274 216.124 546.151 216.364C546.028 216.599 545.94 216.871 545.888 217.182C545.835 217.486 545.809 217.812 545.809 218.157ZM557.639 223H554.8L554.817 220.627H557.639C558.225 220.627 558.72 220.486 559.124 220.205C559.534 219.924 559.845 219.505 560.056 218.948C560.272 218.386 560.381 217.694 560.381 216.874V216.32C560.381 215.705 560.319 215.166 560.196 214.703C560.079 214.234 559.903 213.845 559.669 213.534C559.435 213.218 559.142 212.98 558.79 212.822C558.444 212.664 558.046 212.585 557.595 212.585H554.747V210.203H557.595C558.462 210.203 559.256 210.353 559.977 210.651C560.703 210.944 561.33 211.366 561.857 211.917C562.391 212.462 562.801 213.109 563.088 213.859C563.381 214.604 563.527 215.43 563.527 216.338V216.874C563.527 217.776 563.381 218.603 563.088 219.353C562.801 220.103 562.394 220.75 561.866 221.295C561.339 221.84 560.715 222.262 559.994 222.561C559.279 222.854 558.494 223 557.639 223ZM556.566 210.203V223H553.481V210.203H556.566ZM570.356 217.56H567.061L567.043 215.538H569.715C570.195 215.538 570.579 215.485 570.866 215.38C571.153 215.269 571.361 215.107 571.49 214.896C571.625 214.686 571.692 214.422 571.692 214.105C571.692 213.742 571.625 213.449 571.49 213.227C571.355 213.004 571.142 212.843 570.849 212.743C570.562 212.638 570.189 212.585 569.732 212.585H568.221V223H565.136V210.203H569.732C570.523 210.203 571.229 210.276 571.851 210.423C572.472 210.563 572.999 210.78 573.433 211.073C573.872 211.366 574.206 211.735 574.435 212.181C574.663 212.62 574.777 213.139 574.777 213.736C574.777 214.258 574.666 214.747 574.443 215.204C574.221 215.661 573.849 216.033 573.327 216.32C572.812 216.602 572.105 216.748 571.209 216.76L570.356 217.56ZM570.233 223H566.313L567.368 220.627H570.233C570.655 220.627 570.992 220.562 571.244 220.434C571.502 220.299 571.687 220.123 571.798 219.906C571.915 219.684 571.974 219.438 571.974 219.168C571.974 218.84 571.918 218.556 571.807 218.315C571.701 218.075 571.531 217.891 571.297 217.762C571.062 217.627 570.749 217.56 570.356 217.56H567.764L567.781 215.538H570.884L571.604 216.347C572.46 216.312 573.137 216.432 573.635 216.707C574.139 216.982 574.499 217.346 574.716 217.797C574.933 218.248 575.041 218.72 575.041 219.212C575.041 220.05 574.859 220.75 574.496 221.312C574.139 221.875 573.603 222.297 572.888 222.578C572.173 222.859 571.288 223 570.233 223Z" fill="white"/>
<rect x="609" y="196" width="67" height="41" rx="3" fill="#424242"/>
<rect x="609" y="196" width="67" height="41" rx="3" stroke="#424242" stroke-width="4"/>
<path d="M642.746 216.162V221.418C642.529 221.658 642.195 221.916 641.744 222.191C641.299 222.461 640.736 222.692 640.057 222.886C639.377 223.079 638.577 223.176 637.657 223.176C636.808 223.176 636.037 223.041 635.346 222.771C634.654 222.496 634.06 222.095 633.562 221.567C633.069 221.034 632.688 220.384 632.419 219.616C632.155 218.843 632.023 217.958 632.023 216.962V216.25C632.023 215.254 632.158 214.369 632.428 213.596C632.697 212.822 633.075 212.172 633.562 211.645C634.054 211.111 634.631 210.707 635.293 210.432C635.961 210.156 636.693 210.019 637.49 210.019C638.668 210.019 639.626 210.206 640.364 210.581C641.103 210.95 641.662 211.463 642.043 212.119C642.424 212.77 642.655 213.522 642.737 214.378H639.775C639.717 213.956 639.605 213.599 639.441 213.306C639.283 213.007 639.055 212.781 638.756 212.629C638.457 212.471 638.07 212.392 637.596 212.392C637.227 212.392 636.89 212.471 636.585 212.629C636.286 212.787 636.031 213.027 635.82 213.35C635.609 213.666 635.445 214.064 635.328 214.545C635.217 215.025 635.161 215.588 635.161 216.232V216.962C635.161 217.601 635.214 218.16 635.319 218.641C635.431 219.121 635.595 219.522 635.812 219.845C636.034 220.161 636.315 220.401 636.655 220.565C637.001 220.724 637.408 220.803 637.877 220.803C638.205 220.803 638.486 220.776 638.721 220.724C638.955 220.665 639.148 220.595 639.301 220.513C639.459 220.425 639.579 220.343 639.661 220.267V218.28H637.517V216.162H642.746ZM644.038 218.342V218.157C644.038 217.46 644.138 216.818 644.337 216.232C644.536 215.641 644.829 215.128 645.216 214.694C645.603 214.261 646.08 213.924 646.648 213.684C647.217 213.438 647.873 213.314 648.617 213.314C649.367 213.314 650.026 213.438 650.595 213.684C651.169 213.924 651.649 214.261 652.036 214.694C652.423 215.128 652.716 215.641 652.915 216.232C653.114 216.818 653.214 217.46 653.214 218.157V218.342C653.214 219.033 653.114 219.675 652.915 220.267C652.716 220.853 652.423 221.365 652.036 221.805C651.649 222.238 651.172 222.575 650.604 222.815C650.035 223.056 649.379 223.176 648.635 223.176C647.891 223.176 647.231 223.056 646.657 222.815C646.083 222.575 645.603 222.238 645.216 221.805C644.829 221.365 644.536 220.853 644.337 220.267C644.138 219.675 644.038 219.033 644.038 218.342ZM647 218.157V218.342C647 218.699 647.026 219.033 647.079 219.344C647.132 219.654 647.22 219.927 647.343 220.161C647.466 220.39 647.633 220.568 647.844 220.697C648.055 220.826 648.318 220.891 648.635 220.891C648.945 220.891 649.203 220.826 649.408 220.697C649.619 220.568 649.786 220.39 649.909 220.161C650.032 219.927 650.12 219.654 650.173 219.344C650.226 219.033 650.252 218.699 650.252 218.342V218.157C650.252 217.812 650.226 217.486 650.173 217.182C650.12 216.871 650.032 216.599 649.909 216.364C649.786 216.124 649.619 215.937 649.408 215.802C649.197 215.667 648.934 215.6 648.617 215.6C648.307 215.6 648.046 215.667 647.835 215.802C647.63 215.937 647.466 216.124 647.343 216.364C647.22 216.599 647.132 216.871 647.079 217.182C647.026 217.486 647 217.812 647 218.157Z" fill="white"/>
<rect x="687" y="196" width="86" height="41" rx="3" fill="#424242"/>
<rect x="687" y="196" width="86" height="41" rx="3" stroke="#424242" stroke-width="4"/>
<path d="M713.274 210.203V223H710.189V210.203H713.274ZM718.249 215.529V217.902H712.396V215.529H718.249ZM718.75 210.203V212.585H712.396V210.203H718.75ZM723.021 213.49V223H720.051V213.49H723.021ZM719.875 211.038C719.875 210.616 720.027 210.271 720.332 210.001C720.637 209.731 721.032 209.597 721.519 209.597C722.005 209.597 722.4 209.731 722.705 210.001C723.01 210.271 723.162 210.616 723.162 211.038C723.162 211.46 723.01 211.806 722.705 212.075C722.4 212.345 722.005 212.479 721.519 212.479C721.032 212.479 720.637 212.345 720.332 212.075C720.027 211.806 719.875 211.46 719.875 211.038ZM724.876 209.5H727.838V220.662L727.53 223H724.876V209.5ZM733.674 218.14V218.324C733.674 219.045 733.601 219.701 733.454 220.293C733.308 220.885 733.082 221.397 732.777 221.831C732.473 222.259 732.089 222.59 731.626 222.824C731.163 223.059 730.615 223.176 729.982 223.176C729.408 223.176 728.916 223.053 728.506 222.807C728.096 222.555 727.753 222.209 727.478 221.77C727.202 221.324 726.979 220.812 726.81 220.231C726.64 219.646 726.505 219.019 726.405 218.351V218.131C726.505 217.469 726.64 216.848 726.81 216.268C726.979 215.682 727.202 215.169 727.478 214.729C727.753 214.284 728.093 213.938 728.497 213.692C728.907 213.44 729.396 213.314 729.965 213.314C730.604 213.314 731.154 213.435 731.617 213.675C732.086 213.915 732.473 214.252 732.777 214.686C733.082 215.119 733.308 215.629 733.454 216.215C733.601 216.801 733.674 217.442 733.674 218.14ZM730.712 218.324V218.14C730.712 217.794 730.691 217.469 730.65 217.164C730.609 216.859 730.536 216.59 730.431 216.355C730.325 216.121 730.176 215.937 729.982 215.802C729.789 215.667 729.537 215.6 729.227 215.6C728.91 215.6 728.644 215.652 728.427 215.758C728.216 215.863 728.046 216.016 727.917 216.215C727.794 216.408 727.706 216.648 727.653 216.936C727.601 217.217 727.577 217.536 727.583 217.894V218.588C727.571 219.074 727.615 219.49 727.715 219.836C727.814 220.182 727.987 220.445 728.233 220.627C728.479 220.809 728.816 220.899 729.244 220.899C729.561 220.899 729.815 220.838 730.009 220.715C730.208 220.592 730.357 220.416 730.457 220.188C730.557 219.959 730.624 219.687 730.659 219.37C730.694 219.054 730.712 218.705 730.712 218.324ZM739.598 223.176C738.824 223.176 738.133 223.056 737.523 222.815C736.914 222.569 736.398 222.232 735.977 221.805C735.561 221.377 735.241 220.885 735.019 220.328C734.802 219.771 734.693 219.183 734.693 218.562V218.228C734.693 217.53 734.79 216.886 734.983 216.294C735.177 215.696 735.464 215.175 735.845 214.729C736.226 214.284 736.703 213.938 737.277 213.692C737.852 213.44 738.52 213.314 739.281 213.314C739.955 213.314 740.559 213.423 741.092 213.64C741.625 213.856 742.076 214.167 742.445 214.571C742.82 214.976 743.104 215.465 743.298 216.039C743.497 216.613 743.597 217.258 743.597 217.973V219.177H735.827V217.322H740.705V217.094C740.711 216.777 740.655 216.508 740.538 216.285C740.427 216.062 740.263 215.893 740.046 215.775C739.829 215.658 739.565 215.6 739.255 215.6C738.933 215.6 738.666 215.67 738.455 215.811C738.25 215.951 738.089 216.145 737.972 216.391C737.86 216.631 737.781 216.909 737.734 217.226C737.688 217.542 737.664 217.876 737.664 218.228V218.562C737.664 218.913 737.711 219.232 737.805 219.52C737.904 219.807 738.045 220.053 738.227 220.258C738.414 220.457 738.637 220.612 738.895 220.724C739.158 220.835 739.457 220.891 739.791 220.891C740.195 220.891 740.594 220.814 740.986 220.662C741.379 220.51 741.716 220.258 741.997 219.906L743.342 221.506C743.148 221.781 742.873 222.048 742.516 222.306C742.164 222.563 741.742 222.774 741.25 222.938C740.758 223.097 740.207 223.176 739.598 223.176ZM747.789 215.846V223H744.827V213.49H747.596L747.789 215.846ZM750.602 213.42L750.549 216.171C750.432 216.159 750.273 216.145 750.074 216.127C749.875 216.109 749.708 216.101 749.573 216.101C749.228 216.101 748.929 216.142 748.677 216.224C748.431 216.3 748.226 216.417 748.062 216.575C747.903 216.728 747.786 216.921 747.71 217.155C747.64 217.39 747.607 217.662 747.613 217.973L747.077 217.621C747.077 216.982 747.139 216.402 747.262 215.881C747.391 215.354 747.572 214.899 747.807 214.519C748.041 214.132 748.325 213.836 748.659 213.631C748.993 213.42 749.368 213.314 749.784 213.314C749.931 213.314 750.074 213.323 750.215 213.341C750.361 213.358 750.49 213.385 750.602 213.42Z" fill="white"/>
<rect x="784" y="196" width="103" height="41" rx="3" fill="#424242"/>
<rect x="784" y="196" width="103" height="41" rx="3" stroke="#424242" stroke-width="4"/>
<path d="M808.72 210.203H811.233L814.09 219.106L816.946 210.203H819.46L815.109 223H813.07L808.72 210.203ZM807.19 210.203H809.792L810.275 220.012V223H807.19V210.203ZM818.388 210.203H820.998V223H817.904V220.012L818.388 210.203ZM825.753 221.884L828.214 213.49H831.396L827.572 224.415C827.49 224.655 827.382 224.913 827.247 225.188C827.112 225.47 826.928 225.736 826.693 225.988C826.459 226.24 826.157 226.445 825.788 226.604C825.425 226.762 824.974 226.841 824.435 226.841C824.147 226.841 823.937 226.826 823.802 226.797C823.673 226.773 823.474 226.729 823.204 226.665V224.547C823.28 224.547 823.345 224.547 823.397 224.547C823.456 224.547 823.521 224.547 823.591 224.547C823.907 224.547 824.159 224.515 824.347 224.45C824.54 224.386 824.687 224.292 824.786 224.169C824.892 224.046 824.974 223.896 825.032 223.721L825.753 221.884ZM825.129 213.49L827.001 220.144L827.326 223.281H825.34L821.956 213.49H825.129ZM838.901 219.599C838.901 219.399 838.872 219.221 838.813 219.062C838.755 218.898 838.646 218.746 838.488 218.605C838.33 218.465 838.102 218.324 837.803 218.184C837.51 218.037 837.123 217.885 836.643 217.727C836.08 217.539 835.538 217.328 835.017 217.094C834.495 216.854 834.029 216.575 833.619 216.259C833.209 215.937 832.884 215.562 832.644 215.134C832.403 214.7 832.283 214.196 832.283 213.622C832.283 213.071 832.406 212.576 832.652 212.137C832.898 211.691 833.241 211.313 833.681 211.003C834.126 210.687 834.647 210.446 835.245 210.282C835.843 210.112 836.496 210.027 837.205 210.027C838.143 210.027 838.969 210.191 839.684 210.52C840.404 210.842 840.967 211.302 841.371 211.899C841.781 212.491 841.986 213.191 841.986 214H838.919C838.919 213.678 838.852 213.394 838.717 213.147C838.588 212.901 838.392 212.708 838.128 212.567C837.864 212.427 837.533 212.356 837.135 212.356C836.748 212.356 836.423 212.415 836.159 212.532C835.896 212.649 835.696 212.808 835.562 213.007C835.427 213.2 835.359 213.414 835.359 213.648C835.359 213.842 835.412 214.018 835.518 214.176C835.629 214.328 835.784 214.472 835.983 214.606C836.188 214.741 836.435 214.87 836.722 214.993C837.015 215.116 837.343 215.236 837.706 215.354C838.386 215.57 838.989 215.813 839.517 216.083C840.05 216.347 840.498 216.648 840.861 216.988C841.23 217.322 841.509 217.703 841.696 218.131C841.89 218.559 841.986 219.042 841.986 219.581C841.986 220.155 841.875 220.665 841.652 221.11C841.43 221.556 841.11 221.934 840.694 222.244C840.278 222.549 839.78 222.78 839.2 222.938C838.62 223.097 837.973 223.176 837.258 223.176C836.602 223.176 835.954 223.094 835.315 222.93C834.683 222.76 834.108 222.502 833.593 222.156C833.077 221.805 832.664 221.356 832.354 220.812C832.049 220.261 831.896 219.607 831.896 218.852H834.99C834.99 219.227 835.04 219.543 835.14 219.801C835.239 220.059 835.386 220.267 835.579 220.425C835.772 220.577 836.01 220.688 836.291 220.759C836.572 220.823 836.895 220.855 837.258 220.855C837.65 220.855 837.967 220.8 838.207 220.688C838.447 220.571 838.623 220.419 838.734 220.231C838.846 220.038 838.901 219.827 838.901 219.599ZM850.714 220.891L854.282 223.721L852.366 225.338L848.859 222.508L850.714 220.891ZM854.432 216.347V216.865C854.432 217.844 854.294 218.723 854.019 219.502C853.749 220.275 853.362 220.938 852.858 221.488C852.36 222.033 851.771 222.452 851.092 222.745C850.412 223.032 849.662 223.176 848.842 223.176C848.016 223.176 847.26 223.032 846.574 222.745C845.895 222.452 845.303 222.033 844.799 221.488C844.301 220.938 843.914 220.275 843.639 219.502C843.369 218.723 843.234 217.844 843.234 216.865V216.347C843.234 215.368 843.369 214.489 843.639 213.71C843.914 212.931 844.298 212.269 844.79 211.724C845.288 211.173 845.877 210.754 846.557 210.467C847.242 210.174 847.998 210.027 848.824 210.027C849.645 210.027 850.395 210.174 851.074 210.467C851.76 210.754 852.352 211.173 852.85 211.724C853.354 212.269 853.743 212.931 854.019 213.71C854.294 214.489 854.432 215.368 854.432 216.347ZM851.294 216.865V216.329C851.294 215.696 851.238 215.14 851.127 214.659C851.021 214.173 850.863 213.766 850.652 213.438C850.441 213.109 850.181 212.863 849.87 212.699C849.565 212.529 849.217 212.444 848.824 212.444C848.414 212.444 848.057 212.529 847.752 212.699C847.447 212.863 847.192 213.109 846.987 213.438C846.782 213.766 846.627 214.173 846.521 214.659C846.422 215.14 846.372 215.696 846.372 216.329V216.865C846.372 217.492 846.422 218.049 846.521 218.535C846.627 219.016 846.782 219.423 846.987 219.757C847.198 220.091 847.456 220.343 847.761 220.513C848.071 220.683 848.432 220.768 848.842 220.768C849.234 220.768 849.583 220.683 849.888 220.513C850.192 220.343 850.447 220.091 850.652 219.757C850.863 219.423 851.021 219.016 851.127 218.535C851.238 218.049 851.294 217.492 851.294 216.865ZM864.46 220.627V223H857.991V220.627H864.46ZM859.09 210.203V223H856.005V210.203H859.09Z" fill="white"/>
<rect x="898" y="196" width="112" height="41" rx="3" fill="#424242"/>
<rect x="898" y="196" width="112" height="41" rx="3" stroke="#424242" stroke-width="4"/>
<path d="M930.19 220.627V223H923.37V220.627H930.19ZM924.469 210.203V223H921.384V210.203H924.469ZM929.312 215.283V217.577H923.37V215.283H929.312ZM930.217 210.203V212.585H923.37V210.203H930.217ZM934.444 209.5V223H931.474V209.5H934.444ZM940.878 223.176C940.104 223.176 939.413 223.056 938.804 222.815C938.194 222.569 937.679 222.232 937.257 221.805C936.841 221.377 936.521 220.885 936.299 220.328C936.082 219.771 935.974 219.183 935.974 218.562V218.228C935.974 217.53 936.07 216.886 936.264 216.294C936.457 215.696 936.744 215.175 937.125 214.729C937.506 214.284 937.983 213.938 938.558 213.692C939.132 213.44 939.8 213.314 940.562 213.314C941.235 213.314 941.839 213.423 942.372 213.64C942.905 213.856 943.356 214.167 943.726 214.571C944.101 214.976 944.385 215.465 944.578 216.039C944.777 216.613 944.877 217.258 944.877 217.973V219.177H937.107V217.322H941.985V217.094C941.991 216.777 941.936 216.508 941.818 216.285C941.707 216.062 941.543 215.893 941.326 215.775C941.109 215.658 940.846 215.6 940.535 215.6C940.213 215.6 939.946 215.67 939.735 215.811C939.53 215.951 939.369 216.145 939.252 216.391C939.141 216.631 939.062 216.909 939.015 217.226C938.968 217.542 938.944 217.876 938.944 218.228V218.562C938.944 218.913 938.991 219.232 939.085 219.52C939.185 219.807 939.325 220.053 939.507 220.258C939.694 220.457 939.917 220.612 940.175 220.724C940.438 220.835 940.737 220.891 941.071 220.891C941.476 220.891 941.874 220.814 942.267 220.662C942.659 220.51 942.996 220.258 943.277 219.906L944.622 221.506C944.429 221.781 944.153 222.048 943.796 222.306C943.444 222.563 943.022 222.774 942.53 222.938C942.038 223.097 941.487 223.176 940.878 223.176ZM950.098 220.891C950.373 220.891 950.607 220.841 950.801 220.741C951 220.636 951.149 220.489 951.249 220.302C951.354 220.108 951.404 219.877 951.398 219.607H954.185C954.19 220.322 954.015 220.949 953.657 221.488C953.306 222.021 952.825 222.438 952.216 222.736C951.612 223.029 950.93 223.176 950.168 223.176C949.424 223.176 948.773 223.056 948.217 222.815C947.66 222.569 947.194 222.229 946.819 221.796C946.45 221.356 946.172 220.844 945.984 220.258C945.803 219.672 945.712 219.036 945.712 218.351V218.148C945.712 217.463 945.803 216.827 945.984 216.241C946.172 215.649 946.45 215.137 946.819 214.703C947.194 214.264 947.657 213.924 948.208 213.684C948.765 213.438 949.412 213.314 950.15 213.314C950.941 213.314 951.639 213.464 952.242 213.763C952.852 214.062 953.329 214.495 953.675 215.063C954.021 215.632 954.19 216.32 954.185 217.129H951.398C951.404 216.842 951.36 216.584 951.267 216.355C951.173 216.127 951.026 215.945 950.827 215.811C950.634 215.67 950.385 215.6 950.08 215.6C949.775 215.6 949.529 215.667 949.342 215.802C949.154 215.937 949.011 216.124 948.911 216.364C948.817 216.599 948.753 216.868 948.718 217.173C948.688 217.478 948.674 217.803 948.674 218.148V218.351C948.674 218.702 948.688 219.033 948.718 219.344C948.753 219.648 948.82 219.918 948.92 220.152C949.02 220.381 949.163 220.562 949.351 220.697C949.538 220.826 949.787 220.891 950.098 220.891ZM960.46 213.49V215.547H954.729V213.49H960.46ZM955.934 211.126H958.896V219.897C958.896 220.149 958.925 220.346 958.983 220.486C959.042 220.621 959.142 220.718 959.282 220.776C959.429 220.829 959.622 220.855 959.862 220.855C960.032 220.855 960.173 220.853 960.284 220.847C960.396 220.835 960.501 220.82 960.601 220.803V222.921C960.349 223.003 960.085 223.064 959.81 223.105C959.534 223.152 959.241 223.176 958.931 223.176C958.298 223.176 957.756 223.076 957.305 222.877C956.859 222.678 956.52 222.364 956.285 221.937C956.051 221.509 955.934 220.952 955.934 220.267V211.126ZM964.626 215.846V223H961.664V213.49H964.433L964.626 215.846ZM967.438 213.42L967.386 216.171C967.269 216.159 967.11 216.145 966.911 216.127C966.712 216.109 966.545 216.101 966.41 216.101C966.064 216.101 965.766 216.142 965.514 216.224C965.268 216.3 965.062 216.417 964.898 216.575C964.74 216.728 964.623 216.921 964.547 217.155C964.477 217.39 964.444 217.662 964.45 217.973L963.914 217.621C963.914 216.982 963.976 216.402 964.099 215.881C964.228 215.354 964.409 214.899 964.644 214.519C964.878 214.132 965.162 213.836 965.496 213.631C965.83 213.42 966.205 213.314 966.621 213.314C966.768 213.314 966.911 213.323 967.052 213.341C967.198 213.358 967.327 213.385 967.438 213.42ZM967.772 218.342V218.157C967.772 217.46 967.872 216.818 968.071 216.232C968.271 215.641 968.563 215.128 968.95 214.694C969.337 214.261 969.814 213.924 970.383 213.684C970.951 213.438 971.607 213.314 972.352 213.314C973.102 213.314 973.761 213.438 974.329 213.684C974.903 213.924 975.384 214.261 975.771 214.694C976.157 215.128 976.45 215.641 976.649 216.232C976.849 216.818 976.948 217.46 976.948 218.157V218.342C976.948 219.033 976.849 219.675 976.649 220.267C976.45 220.853 976.157 221.365 975.771 221.805C975.384 222.238 974.906 222.575 974.338 222.815C973.77 223.056 973.113 223.176 972.369 223.176C971.625 223.176 970.966 223.056 970.392 222.815C969.817 222.575 969.337 222.238 968.95 221.805C968.563 221.365 968.271 220.853 968.071 220.267C967.872 219.675 967.772 219.033 967.772 218.342ZM970.734 218.157V218.342C970.734 218.699 970.761 219.033 970.813 219.344C970.866 219.654 970.954 219.927 971.077 220.161C971.2 220.39 971.367 220.568 971.578 220.697C971.789 220.826 972.053 220.891 972.369 220.891C972.68 220.891 972.938 220.826 973.143 220.697C973.354 220.568 973.521 220.39 973.644 220.161C973.767 219.927 973.854 219.654 973.907 219.344C973.96 219.033 973.986 218.699 973.986 218.342V218.157C973.986 217.812 973.96 217.486 973.907 217.182C973.854 216.871 973.767 216.599 973.644 216.364C973.521 216.124 973.354 215.937 973.143 215.802C972.932 215.667 972.668 215.6 972.352 215.6C972.041 215.6 971.78 215.667 971.569 215.802C971.364 215.937 971.2 216.124 971.077 216.364C970.954 216.599 970.866 216.871 970.813 217.182C970.761 217.486 970.734 217.812 970.734 218.157ZM981.176 215.521V223H978.214V213.49H980.991L981.176 215.521ZM980.824 217.92L980.13 217.938C980.13 217.211 980.218 216.563 980.394 215.995C980.569 215.421 980.818 214.935 981.141 214.536C981.463 214.138 981.847 213.836 982.292 213.631C982.743 213.42 983.244 213.314 983.795 213.314C984.234 213.314 984.636 213.379 984.999 213.508C985.368 213.637 985.685 213.845 985.948 214.132C986.218 214.419 986.423 214.8 986.563 215.274C986.71 215.743 986.783 216.323 986.783 217.015V223H983.804V217.006C983.804 216.625 983.751 216.335 983.646 216.136C983.54 215.931 983.388 215.79 983.188 215.714C982.989 215.638 982.746 215.6 982.459 215.6C982.154 215.6 981.896 215.658 981.686 215.775C981.475 215.893 981.305 216.057 981.176 216.268C981.053 216.473 980.962 216.716 980.903 216.997C980.851 217.278 980.824 217.586 980.824 217.92Z" fill="white"/>
<g clip-path="url(#clip0_3_61)">
<path d="M1066 0H1348C1356.28 0 1363 6.71573 1363 15V282C1363 290.284 1356.28 297 1348 297H1066V0Z" fill="white"/>
<g clip-path="url(#clip1_3_61)">
<g clip-path="url(#clip2_3_61)">
<path d="M1110.32 176.505L1113.24 179.754L1111.78 175.53C1111.42 173.58 1108.86 175.855 1110.32 176.505ZM1113.61 174.555C1114.71 176.18 1115.8 177.804 1115.8 179.429C1115.8 181.704 1118 182.678 1119.82 183.328C1117.26 180.729 1115.8 173.58 1113.61 174.555ZM1253.98 36.785C1260.19 36.785 1266.04 36.1351 1272.62 37.4348C1288.71 41.0091 1302.23 48.1575 1311.37 58.2303L1336.96 94.6225C1338.05 103.72 1340.25 113.793 1339.88 124.841C1342.44 124.841 1342.08 121.592 1345 120.942C1342.08 127.44 1340.61 135.564 1339.88 144.987C1338.05 139.788 1339.88 131.989 1340.25 127.765C1337.69 131.34 1336.23 128.74 1336.23 127.115C1336.59 124.516 1335.13 124.841 1334.03 123.866C1330.01 120.617 1327.45 117.043 1324.53 111.519C1326.36 107.295 1326.72 101.121 1320.87 97.8718C1319.05 96.897 1316.85 95.2723 1315.76 92.6729C1314.29 89.0986 1311.74 84.8746 1312.47 79.3508C1312.83 77.7261 1306.98 82.925 1303.69 80.6505C1289.44 71.8774 1275.18 61.8046 1258 53.3564C1248.86 53.3564 1242.28 50.432 1238.99 46.8578C1236.07 43.6085 1238.26 39.3844 1242.65 39.0595C1245.21 39.0595 1248.13 38.4096 1250.32 39.7093C1250.69 38.4096 1252.15 36.785 1253.98 36.785ZM1217.79 29.3116L1218.52 29.6365C1222.18 30.2864 1224 34.8354 1228.03 33.2107C1228.03 35.4852 1228.39 37.7598 1227.66 39.3844C1226.56 41.9838 1223.27 41.9838 1220.71 41.9838C1196.22 40.6841 1181.97 49.7822 1166.98 57.5805C1162.96 59.855 1158.57 61.4796 1155.28 64.404C1139.56 77.4012 1122.38 89.4236 1118.36 113.468L1115.07 140.113C1114.71 143.037 1111.05 145.961 1111.78 149.536L1114.34 165.457C1111.78 163.183 1110.32 166.107 1111.05 167.407C1111.42 168.382 1112.88 171.631 1115.07 168.706C1118 173.58 1120.92 183.003 1124.94 187.227C1137.37 200.225 1153.45 211.922 1166.61 223.62C1169.9 222.97 1172.46 222.97 1173.19 221.02C1174.29 222.97 1172.1 224.919 1170.27 225.244C1176.12 228.494 1182.7 231.418 1191.47 232.068C1202.8 232.718 1213.4 234.342 1223.27 236.617C1228.39 235.317 1233.51 234.667 1238.99 234.342C1240.82 234.342 1241.92 231.743 1244.11 231.093L1244.47 227.844C1246.67 230.768 1246.3 226.869 1244.84 224.919C1247.4 226.869 1248.13 228.494 1249.23 229.793C1249.23 228.818 1252.15 225.244 1252.15 229.468L1252.88 225.244C1253.98 224.594 1254.34 228.818 1255.44 225.894C1256.54 222.97 1258.73 225.244 1260.92 224.269C1260.19 225.569 1260.56 228.169 1263.12 226.544L1266.04 224.269C1267.87 228.169 1270.79 226.544 1272.26 225.894C1288.34 216.796 1304.42 206.073 1319.78 195.351L1319.41 199.575L1321.24 194.376C1323.07 196.001 1324.53 194.701 1325.26 193.726C1327.45 190.477 1330.38 187.227 1335.13 184.303C1329.28 198.275 1322.34 209.323 1313.56 218.421L1309.91 222.32C1309.91 224.594 1309.18 227.519 1306.25 227.844C1304.79 228.169 1301.87 227.194 1299.67 229.143C1298.58 230.443 1302.23 233.043 1299.31 231.093C1296.75 229.468 1294.19 231.093 1291.26 231.743C1289.07 232.393 1292.73 234.342 1293.46 235.642C1294.19 236.942 1294.92 238.241 1294.55 239.866L1290.53 235.967C1285.78 238.241 1282.86 242.465 1278.84 245.715C1277.01 247.014 1277.74 249.289 1277.74 251.239C1275.18 251.239 1272.26 250.589 1270.79 251.888C1269.7 253.188 1270.06 255.138 1270.06 257.087C1266.41 256.762 1266.04 251.888 1262.75 252.863C1259.46 253.513 1255.81 253.838 1252.88 255.463C1255.08 259.362 1249.23 257.087 1249.96 257.737C1244.47 254.813 1239.72 252.538 1233.87 254.488C1221.45 250.914 1206.09 252.538 1194.76 253.838C1194.76 252.213 1195.13 250.589 1194.39 250.264C1193.66 251.888 1191.47 251.239 1191.84 251.239C1184.89 247.014 1177.95 244.415 1170.63 240.841C1164.05 241.491 1157.84 238.566 1156.01 236.942C1150.89 232.718 1145.05 234.992 1140.29 234.017C1130.06 231.743 1126.4 222.32 1125.31 215.821C1124.58 212.572 1121.65 211.272 1120.55 211.597C1115.8 197.95 1108.49 185.603 1102.64 172.931C1101.18 169.681 1101.55 166.432 1101.55 162.858C1103.37 163.508 1105.2 163.183 1104.84 160.908C1103.01 150.185 1098.62 142.062 1093.87 134.264C1096.43 123.216 1096.79 110.219 1102.64 100.471C1107.76 91.6981 1117.26 87.1491 1123.84 79.6757C1126.04 77.0763 1126.04 73.502 1128.23 71.2275C1135.54 64.7289 1142.85 57.9054 1150.89 52.0567C1154.55 49.4572 1158.94 52.0567 1164.42 51.0819C1166.25 45.2331 1173.56 40.0343 1180.5 41.6589C1183.43 42.3088 1189.28 35.4852 1191.1 34.8354C1194.03 33.8606 1192.57 37.4348 1192.57 39.7093C1199.51 34.8354 1209.02 32.236 1217.79 29.3116Z" fill="#02BAFF"/>
<g clip-path="url(#clip3_3_61)">
<g clip-path="url(#clip4_3_61)">
<g clip-path="url(#clip5_3_61)">
<g clip-path="url(#clip6_3_61)">
<path fill-rule="evenodd" clip-rule="evenodd" d="M1234.89 126.81C1235.68 127.001 1236.63 126.708 1236.95 126.81C1236.65 126.776 1237.19 126.58 1237.21 126.466C1237.19 126.919 1237.41 126.429 1237.6 126.695C1237.63 126.261 1237.9 126.041 1238.24 125.892C1238.86 124.103 1237.38 122.381 1235.79 122.219C1235.62 122.219 1235.45 122.219 1235.27 122.219C1232.63 122.666 1232.39 126.207 1234.89 126.81ZM1235.15 124.055C1235.27 124.055 1235.4 124.055 1235.53 124.055C1235.69 124.508 1235.6 124.505 1235.79 124.974C1235.4 124.891 1235.32 125.091 1235.02 125.088C1234.76 124.823 1234.88 124.208 1235.15 124.055Z" fill="#02BAFF"/>
<path fill-rule="evenodd" clip-rule="evenodd" d="M1226.24 146.321C1226.24 146.479 1226.18 146.573 1226.11 146.666C1225.79 146.815 1225.57 146.329 1225.46 146.666C1224.36 147.783 1224.63 149.982 1226.5 150.797C1231.55 151.694 1230.75 145.232 1226.24 146.321ZM1227.53 149.19C1227.38 148.827 1227.61 148.686 1227.4 148.272C1227.57 148.108 1228.13 148.108 1228.3 148.272C1228.23 148.795 1228.35 149.16 1227.53 149.19Z" fill="#02BAFF"/>
<path fill-rule="evenodd" clip-rule="evenodd" d="M1234.63 132.204C1234.1 132.278 1233.86 132.508 1233.21 132.663C1232.33 132.294 1231.73 131.398 1231.06 130.832C1231.09 130.868 1231.12 130.899 1231.14 130.942C1230.06 130.522 1229.52 130.112 1228.95 129.105C1228.27 128.793 1226.31 128.68 1227.27 128.417C1226.46 128.185 1225.69 127.828 1224.43 127.728C1224.43 127.576 1224.66 127.623 1224.69 127.498C1224 127.264 1222.83 126.97 1222.75 126.925C1222.61 126.842 1222.08 126.964 1221.72 126.925C1221.35 126.885 1220.99 126.62 1220.56 126.58C1218.16 126.364 1215.02 126.642 1213.45 127.384C1213.47 127.167 1213.88 127.304 1213.84 127.039C1212.79 126.994 1212.45 127.63 1211.65 127.498C1209.31 125.303 1205.55 124.172 1202.35 125.547C1202.09 125.661 1202.22 125.823 1202.09 125.892C1201.82 126.042 1201.43 125.999 1201.19 126.121C1199.45 127.003 1198.64 129.16 1198.09 130.597C1198.09 131.324 1198.09 132.051 1198.09 132.778C1198.54 134.26 1199.35 135.387 1200.41 136.565C1199.28 138.647 1198.39 141.255 1198.35 143.911C1198.24 150.218 1201.98 155.253 1205.84 157.913C1206.64 158.464 1205.89 159.149 1206.22 160.782C1206.32 161.234 1206.75 162.063 1207 162.389C1209.39 165.513 1215.15 165.516 1217.2 161.585C1223.63 161.827 1228.49 159.715 1232.05 156.535C1235.85 153.134 1238.19 148.282 1237.47 141.959C1243.22 140.386 1241.57 131.225 1234.63 132.204ZM1200.03 131.63C1200.07 130.45 1201.03 129.807 1201.45 128.761C1201.6 128.78 1201.56 128.97 1201.58 129.105C1201.55 128.81 1202.41 128.712 1201.96 128.417C1202.28 128.376 1202.35 128.635 1202.48 127.958C1203.35 127.958 1204.05 127.556 1204.67 127.039C1204.97 127.103 1204.52 127.219 1204.8 127.384C1207.93 126.806 1209.83 128.753 1210.74 130.597C1210.83 132.237 1210.26 134.184 1209.06 135.532C1207.56 136.19 1206.28 136.652 1204.67 136.451C1202.08 136.125 1199.93 133.968 1200.03 131.63ZM1209.58 162.274C1209.75 161.902 1208.78 160.742 1208.16 160.323C1208.18 160.188 1208.4 160.226 1208.55 160.208C1207.24 155.895 1215.3 155.309 1215.78 159.176C1216.13 162.028 1212.71 164.487 1209.58 162.274ZM1231.4 155.502C1230.3 155.329 1229.77 156.547 1228.95 157.109C1228.99 156.959 1229.18 156.928 1229.21 156.765C1228.6 157.262 1227.71 157.503 1227.4 158.257C1226.98 158.327 1227.22 157.844 1226.88 158.142C1224.09 159.553 1220.91 159.945 1217.97 160.552C1218 160.35 1218.19 160.291 1218.49 160.323C1218.46 160.085 1217.92 160.292 1217.84 160.094C1218.24 157.856 1216.54 156.517 1215.39 155.273C1212.67 153.784 1208.25 154.47 1207 156.765C1203.31 154.414 1201.52 151.079 1200.15 146.666C1199.99 143.941 1200.37 139.792 1201.83 137.484C1208.27 140.247 1214.91 134.724 1212.03 128.876C1219.95 126.499 1228.3 129.578 1231.92 133.467C1228.22 136.155 1230.25 143.112 1236.31 142.19C1237.38 148.38 1233.83 152.373 1231.4 155.502ZM1233.34 139.894C1233.16 139.568 1233.4 139.227 1232.69 139.205C1232.54 138.353 1231.98 137.851 1232.05 137.024C1232.27 134.401 1235.59 133.261 1238.5 134.959C1238.95 136.057 1239.57 136.62 1239.41 137.713C1239.01 140.409 1235.25 141.655 1233.34 139.894Z" fill="#02BAFF"/>
<path fill-rule="evenodd" clip-rule="evenodd" d="M1230.76 130.597C1230.86 130.666 1230.96 130.745 1231.06 130.832C1230.99 130.729 1230.89 130.645 1230.76 130.597Z" fill="#02BAFF"/>
<path fill-rule="evenodd" clip-rule="evenodd" d="M1206.61 129.794C1206.96 130.089 1206.27 129.958 1206.61 130.253C1207.9 130.57 1207.43 132.634 1208.81 132.548C1210.9 130.875 1207.9 127.91 1205.06 128.531C1205.06 128.761 1205.06 128.99 1205.06 129.22C1205.69 129.375 1206.44 129.901 1206.61 129.794Z" fill="#02BAFF"/>
<path fill-rule="evenodd" clip-rule="evenodd" d="M1234.63 135.647C1234.93 135.838 1234.41 135.958 1234.37 135.991C1234.49 136.275 1234.78 136.972 1235.92 136.91C1236.16 137.558 1236.63 138.423 1237.73 137.943C1238.35 136.432 1236.11 134.832 1234.63 135.647Z" fill="#02BAFF"/>
<path fill-rule="evenodd" clip-rule="evenodd" d="M1215.78 138.057C1215.43 138.223 1214.92 138.672 1214.49 138.402C1214.51 138.763 1214.16 138.796 1213.84 138.861C1213.85 138.682 1213.47 138.781 1213.71 138.861C1213.88 138.939 1213.57 139.242 1213.58 139.32C1213.26 138.947 1213.43 139.416 1212.81 139.205C1212.56 139.491 1213.01 139.676 1212.68 139.894C1212.66 139.753 1212.64 139.622 1212.42 139.664C1212.7 140.21 1211.97 139.815 1212.29 140.467C1211.26 140.242 1211.25 142.258 1210.74 142.304C1210.86 142.678 1210.76 142.9 1211 143.337C1210.84 143.33 1210.82 143.189 1210.61 143.222C1210.46 144.888 1210.92 147.481 1212.42 148.387C1213.69 150.256 1217.17 151.389 1219.91 150.797C1221.27 150.504 1222.1 149.715 1223.14 149.19C1223.3 148.57 1223.75 148.202 1224.3 147.928C1227.46 142.455 1222.65 136.727 1215.78 138.057ZM1215.78 148.272C1215.59 148.259 1215.2 148.122 1214.87 147.928C1214.97 147.723 1215.11 147.911 1215.26 147.928C1214.26 147.245 1213.82 146.139 1212.94 145.058C1212.96 144.928 1213.07 144.995 1213.07 145.058C1213.5 145.116 1213.15 144.131 1213.07 143.911C1213.45 141.576 1215.39 140.13 1217.46 139.664C1219.72 139.776 1221.21 140.305 1222.36 141.156C1226.22 145.145 1220.16 151.627 1215.78 148.272Z" fill="#02BAFF"/>
<path fill-rule="evenodd" clip-rule="evenodd" d="M1217.72 141.041C1217.55 141.247 1217.21 141.884 1217.33 141.959C1217.73 141.786 1217.79 142.258 1217.97 142.533C1220.83 142.28 1219.6 145.066 1221.72 145.058C1222.62 143.035 1220.63 140.796 1217.72 141.041Z" fill="#02BAFF"/>
<path fill-rule="evenodd" clip-rule="evenodd" d="M1211.26 157.798C1211.05 158.208 1211.07 158.294 1210.74 158.372C1210.84 159.464 1212.88 159.151 1212.94 160.437C1215.47 160.633 1213.52 157.163 1211.26 157.798Z" fill="#02BAFF"/>
</g>
</g>
</g>
</g>
</g>
</g>
<g clip-path="url(#clip7_3_61)">
<g clip-path="url(#clip8_3_61)">
<g clip-path="url(#clip9_3_61)">
<g clip-path="url(#clip10_3_61)">
<path d="M345.504 443.623L368.794 472.735L357.149 434.889C354.238 417.422 333.859 437.8 345.504 443.623ZM371.705 426.155C380.439 440.711 389.172 455.267 389.172 469.823C389.172 490.202 406.64 498.936 421.196 504.758C400.817 481.468 389.172 417.422 371.705 426.155ZM1489.61 -808.196C1539.1 -808.196 1585.68 -814.018 1638.08 -802.374C1766.17 -770.35 1873.89 -706.304 1946.67 -616.056L2150.45 -290.001C2159.19 -208.488 2176.65 -118.24 2173.74 -19.2592C2194.12 -19.2592 2191.21 -48.3713 2214.5 -54.1937C2191.21 4.03046 2179.56 76.8106 2173.74 161.236C2159.19 114.656 2173.74 44.7874 2176.65 6.94171C2156.27 38.965 2144.63 15.6753 2144.63 1.11926C2147.54 -22.1703 2135.9 -19.2592 2127.16 -27.9928C2095.14 -57.1049 2074.76 -89.1281 2051.47 -138.619C2066.03 -176.464 2068.94 -231.777 2022.36 -260.889C2007.8 -269.623 1990.34 -284.179 1981.6 -307.469C1969.96 -339.492 1949.58 -377.338 1955.4 -426.828C1958.31 -441.384 1911.73 -394.805 1885.53 -415.183C1772 -493.786 1658.46 -584.033 1521.63 -659.725C1448.85 -659.725 1396.45 -685.925 1370.25 -717.949C1346.96 -747.061 1364.43 -784.906 1399.36 -787.818C1419.74 -787.818 1443.03 -793.64 1460.5 -781.995C1463.41 -793.64 1475.05 -808.196 1489.61 -808.196ZM1201.4 -875.154L1207.22 -872.243C1236.33 -866.42 1250.89 -825.663 1282.91 -840.219C1282.91 -819.841 1285.82 -799.462 1280 -784.906C1271.27 -761.617 1245.07 -761.617 1224.69 -761.617C1029.64 -773.262 916.101 -691.748 796.741 -621.879C764.718 -601.5 729.784 -586.944 703.583 -560.744C578.401 -444.295 441.574 -336.581 409.551 -121.151L383.35 117.568C380.439 143.768 351.327 169.969 357.149 201.993L377.528 344.642C357.149 324.263 345.504 350.464 351.327 362.109C354.238 370.842 365.883 399.955 383.35 373.754C406.64 417.422 429.929 501.847 461.953 539.692C560.934 656.141 689.027 760.944 793.83 865.748C820.031 859.925 840.409 859.925 846.232 842.458C854.965 859.925 837.498 877.392 822.942 880.304C869.521 909.416 921.923 935.617 991.792 941.439C1082.04 947.261 1166.46 961.817 1245.07 982.196C1285.82 970.551 1326.58 964.729 1370.25 961.817C1384.8 961.817 1393.54 938.528 1411.01 932.705L1413.92 903.593C1431.38 929.794 1428.47 894.86 1416.83 877.392C1437.21 894.86 1443.03 909.416 1451.76 921.061C1451.76 912.327 1475.05 880.303 1475.05 918.149L1480.87 880.304C1489.61 874.481 1492.52 912.327 1501.25 886.126C1509.99 859.925 1527.45 880.304 1544.92 871.57C1539.1 883.215 1542.01 906.505 1562.39 891.948L1585.68 871.57C1600.23 906.504 1623.52 891.948 1635.17 886.126C1763.26 804.612 1891.36 708.542 2013.63 612.473L2010.71 650.318L2025.27 603.739C2039.83 618.295 2051.47 606.65 2057.29 597.917C2074.76 568.804 2098.05 539.692 2135.9 513.491C2089.32 638.673 2034 737.655 1964.14 819.168L1935.02 854.103C1935.02 874.481 1929.2 900.682 1905.91 903.593C1894.27 906.504 1870.98 897.771 1853.51 915.238C1844.78 926.883 1873.89 950.172 1850.6 932.705C1830.22 918.149 1809.84 932.705 1786.55 938.528C1769.08 944.35 1798.2 961.817 1804.02 973.462C1809.84 985.107 1815.66 996.752 1812.75 1011.31L1780.73 976.373C1742.88 996.752 1719.59 1034.6 1687.57 1063.71C1673.01 1075.35 1678.84 1095.73 1678.84 1113.2C1658.46 1113.2 1635.17 1107.38 1623.52 1119.02C1614.79 1130.67 1617.7 1148.13 1617.7 1165.6C1588.59 1162.69 1585.68 1119.02 1559.48 1127.76C1533.28 1133.58 1504.16 1136.49 1480.87 1151.05C1498.34 1185.98 1451.76 1165.6 1457.59 1171.42C1413.92 1145.22 1376.07 1124.84 1329.49 1142.31C1230.51 1110.29 1108.24 1124.84 1017.99 1136.49C1017.99 1121.93 1020.9 1107.38 1015.08 1104.47C1009.26 1119.02 991.792 1113.2 994.703 1113.2C939.39 1075.35 884.077 1052.06 825.853 1020.04C773.452 1025.86 723.961 999.663 709.405 985.107C668.648 947.261 622.069 967.64 584.223 958.906C502.709 938.528 473.597 854.103 464.864 795.879C459.041 766.767 435.752 755.122 427.018 758.033C389.172 635.762 330.948 525.136 284.369 411.599C272.724 382.487 275.635 353.375 275.635 321.352C290.191 327.174 304.747 324.263 301.836 303.885C287.28 207.815 252.346 135.035 214.5 65.1659C234.878 -33.8151 237.79 -150.263 284.369 -237.6C325.126 -316.202 400.817 -356.959 453.219 -423.917C470.686 -447.206 470.686 -479.23 488.153 -499.608C546.378 -557.832 604.602 -618.968 668.648 -671.369C697.76 -694.659 732.695 -671.369 776.363 -680.103C790.919 -732.505 849.143 -779.084 904.456 -764.528C927.746 -758.706 974.325 -819.841 988.881 -825.663C1012.17 -834.397 1000.53 -802.374 1000.53 -781.995C1055.84 -825.663 1131.53 -848.953 1201.4 -875.154Z" fill="#636365"/>
</g>
</g>
</g>
</g>
</g>
<defs>
<clipPath id="clip0_3_61">
<path d="M1066 0H1348C1356.28 0 1363 6.71573 1363 15V282C1363 290.284 1356.28 297 1348 297H1066V0Z" fill="white"/>
</clipPath>
<clipPath id="clip1_3_61">
<rect width="251.13" height="251.13" fill="white" transform="translate(1093.87 18)"/>
</clipPath>
<clipPath id="clip2_3_61">
<rect width="251.13" height="251.13" fill="white" transform="translate(1093.87 18)"/>
</clipPath>
<clipPath id="clip3_3_61">
<rect width="150.678" height="77.5977" fill="white" transform="translate(1144.1 104.766)"/>
</clipPath>
<clipPath id="clip4_3_61">
<rect width="150.678" height="77.5977" fill="white" transform="translate(1144.1 104.766)"/>
</clipPath>
<clipPath id="clip5_3_61">
<rect width="42.8669" height="42.4222" fill="white" transform="translate(1198.09 122.219)"/>
</clipPath>
<clipPath id="clip6_3_61">
<rect width="42.8669" height="42.4222" fill="white" transform="translate(1198.09 122.219)"/>
</clipPath>
<clipPath id="clip7_3_61">
<rect width="2000" height="2250" fill="white" transform="translate(214.5 -976.5)"/>
</clipPath>
<clipPath id="clip8_3_61">
<rect width="2000" height="2250" fill="white" transform="translate(214.5 -976.5)"/>
</clipPath>
<clipPath id="clip9_3_61">
<rect width="2000" height="2250" fill="white" transform="translate(214.5 -976.5)"/>
</clipPath>
<clipPath id="clip10_3_61">
<rect width="2000" height="2250" fill="white" transform="translate(214.5 -976.5)"/>
</clipPath>
</defs>
</svg>
