<svg width="1363" height="163" viewBox="0 0 1363 163" fill="none" xmlns="http://www.w3.org/2000/svg">
<path d="M0 15C0 6.71573 6.71573 0 15 0H37V163H15C6.71573 163 0 156.284 0 148V15Z" fill="#424242"/>
<rect width="1097" height="163" transform="translate(37)" fill="#F0F0F0"/>
<path d="M101.906 53.9219L94.3945 51.2383V48.0859L104.602 52.375V54.6367L101.906 53.9219ZM94.3945 56.1719L101.918 53.4297L104.602 52.7852V55.0352L94.3945 59.3242V56.1719ZM122.789 55.3398H126.293C126.223 56.4883 125.906 57.5078 125.344 58.3984C124.789 59.2891 124.012 59.9844 123.012 60.4844C122.02 60.9844 120.824 61.2344 119.426 61.2344C118.332 61.2344 117.352 61.0469 116.484 60.6719C115.617 60.2891 114.875 59.7422 114.258 59.0312C113.648 58.3203 113.184 57.4609 112.863 56.4531C112.543 55.4453 112.383 54.3164 112.383 53.0664V51.8828C112.383 50.6328 112.547 49.5039 112.875 48.4961C113.211 47.4805 113.688 46.6172 114.305 45.9062C114.93 45.1953 115.676 44.6484 116.543 44.2656C117.41 43.8828 118.379 43.6914 119.449 43.6914C120.871 43.6914 122.07 43.9492 123.047 44.4648C124.031 44.9805 124.793 45.6914 125.332 46.5977C125.879 47.5039 126.207 48.5352 126.316 49.6914H122.801C122.762 49.0039 122.625 48.4219 122.391 47.9453C122.156 47.4609 121.801 47.0977 121.324 46.8555C120.855 46.6055 120.23 46.4805 119.449 46.4805C118.863 46.4805 118.352 46.5898 117.914 46.8086C117.477 47.0273 117.109 47.3594 116.812 47.8047C116.516 48.25 116.293 48.8125 116.145 49.4922C116.004 50.1641 115.934 50.9531 115.934 51.8594V53.0664C115.934 53.9492 116 54.7266 116.133 55.3984C116.266 56.0625 116.469 56.625 116.742 57.0859C117.023 57.5391 117.383 57.8828 117.82 58.1172C118.266 58.3438 118.801 58.457 119.426 58.457C120.16 58.457 120.766 58.3398 121.242 58.1055C121.719 57.8711 122.082 57.5234 122.332 57.0625C122.59 56.6016 122.742 56.0273 122.789 55.3398ZM135.234 58.1406V52.4922C135.234 52.0859 135.168 51.7383 135.035 51.4492C134.902 51.1523 134.695 50.9219 134.414 50.7578C134.141 50.5938 133.785 50.5117 133.348 50.5117C132.973 50.5117 132.648 50.5781 132.375 50.7109C132.102 50.8359 131.891 51.0195 131.742 51.2617C131.594 51.4961 131.52 51.7734 131.52 52.0938H128.145C128.145 51.5547 128.27 51.043 128.52 50.5586C128.77 50.0742 129.133 49.6484 129.609 49.2812C130.086 48.9062 130.652 48.6133 131.309 48.4023C131.973 48.1914 132.715 48.0859 133.535 48.0859C134.52 48.0859 135.395 48.25 136.16 48.5781C136.926 48.9062 137.527 49.3984 137.965 50.0547C138.41 50.7109 138.633 51.5312 138.633 52.5156V57.9414C138.633 58.6367 138.676 59.207 138.762 59.6523C138.848 60.0898 138.973 60.4727 139.137 60.8008V61H135.727C135.562 60.6562 135.438 60.2266 135.352 59.7109C135.273 59.1875 135.234 58.6641 135.234 58.1406ZM135.68 53.2773L135.703 55.1875H133.816C133.371 55.1875 132.984 55.2383 132.656 55.3398C132.328 55.4414 132.059 55.5859 131.848 55.7734C131.637 55.9531 131.48 56.1641 131.379 56.4062C131.285 56.6484 131.238 56.9141 131.238 57.2031C131.238 57.4922 131.305 57.7539 131.438 57.9883C131.57 58.2148 131.762 58.3945 132.012 58.5273C132.262 58.6523 132.555 58.7148 132.891 58.7148C133.398 58.7148 133.84 58.6133 134.215 58.4102C134.59 58.207 134.879 57.957 135.082 57.6602C135.293 57.3633 135.402 57.082 135.41 56.8164L136.301 58.2461C136.176 58.5664 136.004 58.8984 135.785 59.2422C135.574 59.5859 135.305 59.9102 134.977 60.2148C134.648 60.5117 134.254 60.7578 133.793 60.9531C133.332 61.1406 132.785 61.2344 132.152 61.2344C131.348 61.2344 130.617 61.0742 129.961 60.7539C129.312 60.4258 128.797 59.9766 128.414 59.4062C128.039 58.8281 127.852 58.1719 127.852 57.4375C127.852 56.7734 127.977 56.1836 128.227 55.668C128.477 55.1523 128.844 54.7188 129.328 54.3672C129.82 54.0078 130.434 53.7383 131.168 53.5586C131.902 53.3711 132.754 53.2773 133.723 53.2773H135.68ZM144.609 50.9453V61H141.223V48.3203H144.398L144.609 50.9453ZM144.141 54.2148H143.203C143.203 53.332 143.309 52.5195 143.52 51.7773C143.738 51.0273 144.055 50.3789 144.469 49.832C144.891 49.2773 145.41 48.8477 146.027 48.543C146.645 48.2383 147.359 48.0859 148.172 48.0859C148.734 48.0859 149.25 48.1719 149.719 48.3438C150.188 48.5078 150.59 48.7695 150.926 49.1289C151.27 49.4805 151.535 49.9414 151.723 50.5117C151.91 51.0742 152.004 51.75 152.004 52.5391V61H148.629V52.9141C148.629 52.3359 148.551 51.8906 148.395 51.5781C148.238 51.2656 148.016 51.0469 147.727 50.9219C147.445 50.7969 147.105 50.7344 146.707 50.7344C146.27 50.7344 145.887 50.8242 145.559 51.0039C145.238 51.1836 144.973 51.4336 144.762 51.7539C144.551 52.0664 144.395 52.4336 144.293 52.8555C144.191 53.2773 144.141 53.7305 144.141 54.2148ZM151.688 53.8281L150.48 53.9805C150.48 53.1523 150.582 52.3828 150.785 51.6719C150.996 50.9609 151.305 50.3359 151.711 49.7969C152.125 49.2578 152.637 48.8398 153.246 48.543C153.855 48.2383 154.559 48.0859 155.355 48.0859C155.965 48.0859 156.52 48.1758 157.02 48.3555C157.52 48.5273 157.945 48.8047 158.297 49.1875C158.656 49.5625 158.93 50.0547 159.117 50.6641C159.312 51.2734 159.41 52.0195 159.41 52.9023V61H156.023V52.9023C156.023 52.3164 155.945 51.8711 155.789 51.5664C155.641 51.2539 155.422 51.0391 155.133 50.9219C154.852 50.7969 154.516 50.7344 154.125 50.7344C153.719 50.7344 153.363 50.8164 153.059 50.9805C152.754 51.1367 152.5 51.3555 152.297 51.6367C152.094 51.918 151.941 52.2461 151.84 52.6211C151.738 52.9883 151.688 53.3906 151.688 53.8281ZM165.398 50.7578V65.875H162.023V48.3203H165.152L165.398 50.7578ZM173.426 54.5195V54.7656C173.426 55.6875 173.316 56.543 173.098 57.332C172.887 58.1211 172.574 58.8086 172.16 59.3945C171.746 59.9727 171.23 60.4258 170.613 60.7539C170.004 61.0742 169.301 61.2344 168.504 61.2344C167.73 61.2344 167.059 61.0781 166.488 60.7656C165.918 60.4531 165.438 60.0156 165.047 59.4531C164.664 58.8828 164.355 58.2227 164.121 57.4727C163.887 56.7227 163.707 55.918 163.582 55.0586V54.4141C163.707 53.4922 163.887 52.6484 164.121 51.8828C164.355 51.1094 164.664 50.4414 165.047 49.8789C165.438 49.3086 165.914 48.8672 166.477 48.5547C167.047 48.2422 167.715 48.0859 168.48 48.0859C169.285 48.0859 169.992 48.2383 170.602 48.543C171.219 48.8477 171.734 49.2852 172.148 49.8555C172.57 50.4258 172.887 51.1055 173.098 51.8945C173.316 52.6836 173.426 53.5586 173.426 54.5195ZM170.039 54.7656V54.5195C170.039 53.9805 169.992 53.4844 169.898 53.0312C169.812 52.5703 169.672 52.168 169.477 51.8242C169.289 51.4805 169.039 51.2148 168.727 51.0273C168.422 50.832 168.051 50.7344 167.613 50.7344C167.152 50.7344 166.758 50.8086 166.43 50.957C166.109 51.1055 165.848 51.3203 165.645 51.6016C165.441 51.8828 165.289 52.2188 165.188 52.6094C165.086 53 165.023 53.4414 165 53.9336V55.5625C165.039 56.1406 165.148 56.6602 165.328 57.1211C165.508 57.5742 165.785 57.9336 166.16 58.1992C166.535 58.4648 167.027 58.5977 167.637 58.5977C168.082 58.5977 168.457 58.5 168.762 58.3047C169.066 58.1016 169.312 57.8242 169.5 57.4727C169.695 57.1211 169.832 56.7148 169.91 56.2539C169.996 55.793 170.039 55.2969 170.039 54.7656ZM181.887 57.4375L185.906 43.9375H189.82L183.879 61H181.301L181.887 57.4375ZM178.184 43.9375L182.191 57.4375L182.801 61H180.199L174.293 43.9375H178.184ZM196.523 61.2344C195.539 61.2344 194.656 61.0781 193.875 60.7656C193.094 60.4453 192.43 60.0039 191.883 59.4414C191.344 58.8789 190.93 58.2266 190.641 57.4844C190.352 56.7344 190.207 55.9375 190.207 55.0938V54.625C190.207 53.6641 190.344 52.7852 190.617 51.9883C190.891 51.1914 191.281 50.5 191.789 49.9141C192.305 49.3281 192.93 48.8789 193.664 48.5664C194.398 48.2461 195.227 48.0859 196.148 48.0859C197.047 48.0859 197.844 48.2344 198.539 48.5312C199.234 48.8281 199.816 49.25 200.285 49.7969C200.762 50.3438 201.121 51 201.363 51.7656C201.605 52.5234 201.727 53.3672 201.727 54.2969V55.7031H191.648V53.4531H198.41V53.1953C198.41 52.7266 198.324 52.3086 198.152 51.9414C197.988 51.5664 197.738 51.2695 197.402 51.0508C197.066 50.832 196.637 50.7227 196.113 50.7227C195.668 50.7227 195.285 50.8203 194.965 51.0156C194.645 51.2109 194.383 51.4844 194.18 51.8359C193.984 52.1875 193.836 52.6016 193.734 53.0781C193.641 53.5469 193.594 54.0625 193.594 54.625V55.0938C193.594 55.6016 193.664 56.0703 193.805 56.5C193.953 56.9297 194.16 57.3008 194.426 57.6133C194.699 57.9258 195.027 58.168 195.41 58.3398C195.801 58.5117 196.242 58.5977 196.734 58.5977C197.344 58.5977 197.91 58.4805 198.434 58.2461C198.965 58.0039 199.422 57.6406 199.805 57.1562L201.445 58.9375C201.18 59.3203 200.816 59.6875 200.355 60.0391C199.902 60.3906 199.355 60.6797 198.715 60.9062C198.074 61.125 197.344 61.2344 196.523 61.2344ZM207.023 51.0859V61H203.648V48.3203H206.824L207.023 51.0859ZM210.844 48.2383L210.785 51.3672C210.621 51.3438 210.422 51.3242 210.188 51.3086C209.961 51.2852 209.754 51.2734 209.566 51.2734C209.09 51.2734 208.676 51.3359 208.324 51.4609C207.98 51.5781 207.691 51.7539 207.457 51.9883C207.23 52.2227 207.059 52.5078 206.941 52.8438C206.832 53.1797 206.77 53.5625 206.754 53.9922L206.074 53.7812C206.074 52.9609 206.156 52.207 206.32 51.5195C206.484 50.8242 206.723 50.2188 207.035 49.7031C207.355 49.1875 207.746 48.7891 208.207 48.5078C208.668 48.2266 209.195 48.0859 209.789 48.0859C209.977 48.0859 210.168 48.1016 210.363 48.1328C210.559 48.1562 210.719 48.1914 210.844 48.2383ZM219.293 57.4961C219.293 57.2539 219.223 57.0352 219.082 56.8398C218.941 56.6445 218.68 56.4648 218.297 56.3008C217.922 56.1289 217.379 55.9727 216.668 55.832C216.027 55.6914 215.43 55.5156 214.875 55.3047C214.328 55.0859 213.852 54.8242 213.445 54.5195C213.047 54.2148 212.734 53.8555 212.508 53.4414C212.281 53.0195 212.168 52.5391 212.168 52C212.168 51.4688 212.281 50.9688 212.508 50.5C212.742 50.0312 213.074 49.6172 213.504 49.2578C213.941 48.8906 214.473 48.6055 215.098 48.4023C215.73 48.1914 216.441 48.0859 217.23 48.0859C218.332 48.0859 219.277 48.2617 220.066 48.6133C220.863 48.9648 221.473 49.4492 221.895 50.0664C222.324 50.6758 222.539 51.3711 222.539 52.1523H219.164C219.164 51.8242 219.094 51.5312 218.953 51.2734C218.82 51.0078 218.609 50.8008 218.32 50.6523C218.039 50.4961 217.672 50.418 217.219 50.418C216.844 50.418 216.52 50.4844 216.246 50.6172C215.973 50.7422 215.762 50.9141 215.613 51.1328C215.473 51.3438 215.402 51.5781 215.402 51.8359C215.402 52.0312 215.441 52.207 215.52 52.3633C215.605 52.5117 215.742 52.6484 215.93 52.7734C216.117 52.8984 216.359 53.0156 216.656 53.125C216.961 53.2266 217.336 53.3203 217.781 53.4062C218.695 53.5938 219.512 53.8398 220.23 54.1445C220.949 54.4414 221.52 54.8477 221.941 55.3633C222.363 55.8711 222.574 56.5391 222.574 57.3672C222.574 57.9297 222.449 58.4453 222.199 58.9141C221.949 59.3828 221.59 59.793 221.121 60.1445C220.652 60.4883 220.09 60.7578 219.434 60.9531C218.785 61.1406 218.055 61.2344 217.242 61.2344C216.062 61.2344 215.062 61.0234 214.242 60.6016C213.43 60.1797 212.812 59.6445 212.391 58.9961C211.977 58.3398 211.77 57.668 211.77 56.9805H214.969C214.984 57.4414 215.102 57.8125 215.32 58.0938C215.547 58.375 215.832 58.5781 216.176 58.7031C216.527 58.8281 216.906 58.8906 217.312 58.8906C217.75 58.8906 218.113 58.832 218.402 58.7148C218.691 58.5898 218.91 58.4258 219.059 58.2227C219.215 58.0117 219.293 57.7695 219.293 57.4961ZM230.602 61.2344C229.617 61.2344 228.734 61.0781 227.953 60.7656C227.172 60.4453 226.508 60.0039 225.961 59.4414C225.422 58.8789 225.008 58.2266 224.719 57.4844C224.43 56.7344 224.285 55.9375 224.285 55.0938V54.625C224.285 53.6641 224.422 52.7852 224.695 51.9883C224.969 51.1914 225.359 50.5 225.867 49.9141C226.383 49.3281 227.008 48.8789 227.742 48.5664C228.477 48.2461 229.305 48.0859 230.227 48.0859C231.125 48.0859 231.922 48.2344 232.617 48.5312C233.312 48.8281 233.895 49.25 234.363 49.7969C234.84 50.3438 235.199 51 235.441 51.7656C235.684 52.5234 235.805 53.3672 235.805 54.2969V55.7031H225.727V53.4531H232.488V53.1953C232.488 52.7266 232.402 52.3086 232.23 51.9414C232.066 51.5664 231.816 51.2695 231.48 51.0508C231.145 50.832 230.715 50.7227 230.191 50.7227C229.746 50.7227 229.363 50.8203 229.043 51.0156C228.723 51.2109 228.461 51.4844 228.258 51.8359C228.062 52.1875 227.914 52.6016 227.812 53.0781C227.719 53.5469 227.672 54.0625 227.672 54.625V55.0938C227.672 55.6016 227.742 56.0703 227.883 56.5C228.031 56.9297 228.238 57.3008 228.504 57.6133C228.777 57.9258 229.105 58.168 229.488 58.3398C229.879 58.5117 230.32 58.5977 230.812 58.5977C231.422 58.5977 231.988 58.4805 232.512 58.2461C233.043 58.0039 233.5 57.6406 233.883 57.1562L235.523 58.9375C235.258 59.3203 234.895 59.6875 234.434 60.0391C233.98 60.3906 233.434 60.6797 232.793 60.9062C232.152 61.125 231.422 61.2344 230.602 61.2344Z" fill="#888888"/>
<path d="M118.594 98.4219V104.75H101.086V98.4219H118.594ZM103.828 84.875V119H95.6016V84.875H103.828ZM124.125 84.875V119H115.922V84.875H124.125ZM127.992 106.578V106.086C127.992 104.227 128.258 102.516 128.789 100.953C129.32 99.375 130.102 98.0078 131.133 96.8516C132.164 95.6953 133.438 94.7969 134.953 94.1562C136.469 93.5 138.219 93.1719 140.203 93.1719C142.203 93.1719 143.961 93.5 145.477 94.1562C147.008 94.7969 148.289 95.6953 149.32 96.8516C150.352 98.0078 151.133 99.375 151.664 100.953C152.195 102.516 152.461 104.227 152.461 106.086V106.578C152.461 108.422 152.195 110.133 151.664 111.711C151.133 113.273 150.352 114.641 149.32 115.812C148.289 116.969 147.016 117.867 145.5 118.508C143.984 119.148 142.234 119.469 140.25 119.469C138.266 119.469 136.508 119.148 134.977 118.508C133.445 117.867 132.164 116.969 131.133 115.812C130.102 114.641 129.32 113.273 128.789 111.711C128.258 110.133 127.992 108.422 127.992 106.578ZM135.891 106.086V106.578C135.891 107.531 135.961 108.422 136.102 109.25C136.242 110.078 136.477 110.805 136.805 111.43C137.133 112.039 137.578 112.516 138.141 112.859C138.703 113.203 139.406 113.375 140.25 113.375C141.078 113.375 141.766 113.203 142.312 112.859C142.875 112.516 143.32 112.039 143.648 111.43C143.977 110.805 144.211 110.078 144.352 109.25C144.492 108.422 144.562 107.531 144.562 106.578V106.086C144.562 105.164 144.492 104.297 144.352 103.484C144.211 102.656 143.977 101.93 143.648 101.305C143.32 100.664 142.875 100.164 142.312 99.8047C141.75 99.4453 141.047 99.2656 140.203 99.2656C139.375 99.2656 138.68 99.4453 138.117 99.8047C137.57 100.164 137.133 100.664 136.805 101.305C136.477 101.93 136.242 102.656 136.102 103.484C135.961 104.297 135.891 105.164 135.891 106.086ZM163.688 111.453L168.375 93.6406H173.32L171.562 102.57L166.922 119H162.961L163.688 111.453ZM161.836 93.6406L164.742 111.312L165.07 119H160.266L154.266 93.6406H161.836ZM177.492 110.938L180.422 93.6406H187.992L182.039 119H177.234L177.492 110.938ZM173.883 93.6406L178.617 111.406L179.344 119H175.336L170.789 102.617L169.102 93.6406H173.883ZM218.297 84.875V119H210.07V84.875H218.297ZM228.562 84.875V91.2266H200.039V84.875H228.562ZM225.773 106.578V106.086C225.773 104.227 226.039 102.516 226.57 100.953C227.102 99.375 227.883 98.0078 228.914 96.8516C229.945 95.6953 231.219 94.7969 232.734 94.1562C234.25 93.5 236 93.1719 237.984 93.1719C239.984 93.1719 241.742 93.5 243.258 94.1562C244.789 94.7969 246.07 95.6953 247.102 96.8516C248.133 98.0078 248.914 99.375 249.445 100.953C249.977 102.516 250.242 104.227 250.242 106.086V106.578C250.242 108.422 249.977 110.133 249.445 111.711C248.914 113.273 248.133 114.641 247.102 115.812C246.07 116.969 244.797 117.867 243.281 118.508C241.766 119.148 240.016 119.469 238.031 119.469C236.047 119.469 234.289 119.148 232.758 118.508C231.227 117.867 229.945 116.969 228.914 115.812C227.883 114.641 227.102 113.273 226.57 111.711C226.039 110.133 225.773 108.422 225.773 106.578ZM233.672 106.086V106.578C233.672 107.531 233.742 108.422 233.883 109.25C234.023 110.078 234.258 110.805 234.586 111.43C234.914 112.039 235.359 112.516 235.922 112.859C236.484 113.203 237.188 113.375 238.031 113.375C238.859 113.375 239.547 113.203 240.094 112.859C240.656 112.516 241.102 112.039 241.43 111.43C241.758 110.805 241.992 110.078 242.133 109.25C242.273 108.422 242.344 107.531 242.344 106.578V106.086C242.344 105.164 242.273 104.297 242.133 103.484C241.992 102.656 241.758 101.93 241.43 101.305C241.102 100.664 240.656 100.164 240.094 99.8047C239.531 99.4453 238.828 99.2656 237.984 99.2656C237.156 99.2656 236.461 99.4453 235.898 99.8047C235.352 100.164 234.914 100.664 234.586 101.305C234.258 101.93 234.023 102.656 233.883 103.484C233.742 104.297 233.672 105.164 233.672 106.086ZM266.086 84.875H279.516C282.141 84.875 284.422 85.2656 286.359 86.0469C288.297 86.8281 289.789 87.9844 290.836 89.5156C291.898 91.0469 292.43 92.9375 292.43 95.1875C292.43 97.1406 292.125 98.7734 291.516 100.086C290.906 101.398 290.055 102.484 288.961 103.344C287.883 104.188 286.625 104.883 285.188 105.43L282.492 106.953H271.219L271.172 100.602H279.516C280.562 100.602 281.43 100.414 282.117 100.039C282.805 99.6641 283.32 99.1328 283.664 98.4453C284.023 97.7422 284.203 96.9062 284.203 95.9375C284.203 94.9531 284.023 94.1094 283.664 93.4062C283.305 92.7031 282.773 92.1641 282.07 91.7891C281.383 91.4141 280.531 91.2266 279.516 91.2266H274.312V119H266.086V84.875ZM284.766 119L277.219 103.906L285.938 103.859L293.578 118.648V119H284.766ZM311.836 112.836V93.6406H319.758V119H312.352L311.836 112.836ZM312.586 107.68L314.648 107.633C314.648 109.336 314.445 110.914 314.039 112.367C313.633 113.805 313.031 115.055 312.234 116.117C311.453 117.18 310.484 118.008 309.328 118.602C308.188 119.18 306.867 119.469 305.367 119.469C304.117 119.469 302.969 119.297 301.922 118.953C300.891 118.594 300 118.039 299.25 117.289C298.5 116.523 297.914 115.547 297.492 114.359C297.086 113.156 296.883 111.719 296.883 110.047V93.6406H304.781V110.094C304.781 110.656 304.852 111.141 304.992 111.547C305.133 111.953 305.336 112.297 305.602 112.578C305.867 112.844 306.195 113.047 306.586 113.188C306.992 113.312 307.453 113.375 307.969 113.375C309.156 113.375 310.086 113.125 310.758 112.625C311.43 112.125 311.898 111.445 312.164 110.586C312.445 109.727 312.586 108.758 312.586 107.68ZM331.875 99.0547V119H323.977V93.6406H331.383L331.875 99.0547ZM330.938 105.453L329.086 105.5C329.086 103.562 329.32 101.836 329.789 100.32C330.258 98.7891 330.922 97.4922 331.781 96.4297C332.641 95.3672 333.664 94.5625 334.852 94.0156C336.055 93.4531 337.391 93.1719 338.859 93.1719C340.031 93.1719 341.102 93.3438 342.07 93.6875C343.055 94.0312 343.898 94.5859 344.602 95.3516C345.32 96.1172 345.867 97.1328 346.242 98.3984C346.633 99.6484 346.828 101.195 346.828 103.039V119H338.883V103.016C338.883 102 338.742 101.227 338.461 100.695C338.18 100.148 337.773 99.7734 337.242 99.5703C336.711 99.3672 336.062 99.2656 335.297 99.2656C334.484 99.2656 333.797 99.4219 333.234 99.7344C332.672 100.047 332.219 100.484 331.875 101.047C331.547 101.594 331.305 102.242 331.148 102.992C331.008 103.742 330.938 104.562 330.938 105.453ZM363.773 108.195H357.047C357.047 106.82 357.141 105.609 357.328 104.562C357.531 103.5 357.875 102.547 358.359 101.703C358.844 100.859 359.5 100.078 360.328 99.3594C361.062 98.75 361.695 98.1641 362.227 97.6016C362.758 97.0391 363.164 96.4688 363.445 95.8906C363.727 95.3125 363.867 94.6953 363.867 94.0391C363.867 93.2266 363.75 92.5625 363.516 92.0469C363.297 91.5312 362.961 91.1484 362.508 90.8984C362.07 90.6328 361.516 90.5 360.844 90.5C360.297 90.5 359.781 90.6328 359.297 90.8984C358.828 91.1641 358.445 91.5781 358.148 92.1406C357.852 92.6875 357.688 93.4141 357.656 94.3203H349.711C349.758 91.9922 350.273 90.1016 351.258 88.6484C352.258 87.1797 353.586 86.1094 355.242 85.4375C356.914 84.75 358.781 84.4062 360.844 84.4062C363.125 84.4062 365.086 84.7578 366.727 85.4609C368.367 86.1641 369.625 87.2109 370.5 88.6016C371.375 89.9766 371.812 91.6719 371.812 93.6875C371.812 95.0312 371.555 96.2031 371.039 97.2031C370.539 98.1875 369.859 99.1094 369 99.9688C368.156 100.812 367.211 101.719 366.164 102.688C365.258 103.484 364.641 104.297 364.312 105.125C363.984 105.938 363.805 106.961 363.773 108.195ZM356.086 115.32C356.086 114.195 356.492 113.258 357.305 112.508C358.117 111.742 359.172 111.359 360.469 111.359C361.766 111.359 362.82 111.742 363.633 112.508C364.445 113.258 364.852 114.195 364.852 115.32C364.852 116.445 364.445 117.391 363.633 118.156C362.82 118.906 361.766 119.281 360.469 119.281C359.172 119.281 358.117 118.906 357.305 118.156C356.492 117.391 356.086 116.445 356.086 115.32Z" fill="black"/>
<path d="M1134 0H1348C1356.28 0 1363 6.71573 1363 15V148C1363 156.284 1356.28 163 1348 163H1134V0Z" fill="#02BAFF"/>
<path d="M1260.62 78.8078C1263.81 78.8078 1266.93 79.7552 1269.59 81.5302C1272.25 83.3052 1274.32 85.8281 1275.54 88.7798C1276.76 91.7315 1277.08 94.9795 1276.46 98.1131C1275.84 101.247 1274.3 104.125 1272.04 106.384C1269.78 108.643 1266.9 110.182 1263.77 110.805C1260.63 111.428 1257.39 111.108 1254.43 109.886C1251.48 108.663 1248.96 106.593 1247.18 103.936C1245.41 101.28 1244.46 98.1565 1244.46 94.9616C1244.46 90.6774 1246.16 86.5686 1249.19 83.5392C1252.22 80.5097 1256.33 78.8078 1260.62 78.8078ZM1260.62 73.4232C1256.36 73.4232 1252.19 74.6864 1248.65 77.0531C1245.11 79.4198 1242.35 82.7836 1240.72 86.7192C1239.09 90.6549 1238.66 94.9855 1239.49 99.1636C1240.32 103.342 1242.37 107.179 1245.39 110.192C1248.4 113.204 1252.24 115.255 1256.41 116.086C1260.59 116.917 1264.92 116.491 1268.86 114.861C1272.79 113.23 1276.16 110.47 1278.52 106.928C1280.89 103.386 1282.15 99.2215 1282.15 94.9616C1282.15 89.2493 1279.88 83.7709 1275.85 79.7317C1271.81 75.6924 1266.33 73.4232 1260.62 73.4232Z" fill="white"/>
<path d="M1274.08 46.4999H1220.23C1218.8 46.4999 1217.43 47.0672 1216.42 48.0771C1215.41 49.0869 1214.85 50.4565 1214.85 51.8845V105.731C1214.85 107.159 1215.41 108.528 1216.42 109.538C1217.43 110.548 1218.8 111.115 1220.23 111.115H1231V105.731H1220.23V68.0383H1279.46V51.8845C1279.46 50.4565 1278.89 49.0869 1277.88 48.0771C1276.87 47.0672 1275.5 46.4999 1274.08 46.4999ZM1220.23 62.6537V51.8845H1274.08V62.6537H1220.23Z" fill="white"/>
<path d="M1255.23 86.8848V103.039L1268.69 94.9617L1255.23 86.8848Z" fill="white"/>
</svg>
