<svg width="1363" height="163" viewBox="0 0 1363 163" fill="none" xmlns="http://www.w3.org/2000/svg">
<path d="M0 15C0 6.71573 6.71573 0 15 0H37V163H15C6.71573 163 0 156.284 0 148V15Z" fill="#424242"/>
<rect width="1097" height="163" transform="translate(37)" fill="#F0F0F0"/>
<path d="M101.906 53.9219L94.3945 51.2383V48.0859L104.602 52.375V54.6367L101.906 53.9219ZM94.3945 56.1719L101.918 53.4297L104.602 52.7852V55.0352L94.3945 59.3242V56.1719ZM122.789 55.3398H126.293C126.223 56.4883 125.906 57.5078 125.344 58.3984C124.789 59.2891 124.012 59.9844 123.012 60.4844C122.02 60.9844 120.824 61.2344 119.426 61.2344C118.332 61.2344 117.352 61.0469 116.484 60.6719C115.617 60.2891 114.875 59.7422 114.258 59.0312C113.648 58.3203 113.184 57.4609 112.863 56.4531C112.543 55.4453 112.383 54.3164 112.383 53.0664V51.8828C112.383 50.6328 112.547 49.5039 112.875 48.4961C113.211 47.4805 113.688 46.6172 114.305 45.9062C114.93 45.1953 115.676 44.6484 116.543 44.2656C117.41 43.8828 118.379 43.6914 119.449 43.6914C120.871 43.6914 122.07 43.9492 123.047 44.4648C124.031 44.9805 124.793 45.6914 125.332 46.5977C125.879 47.5039 126.207 48.5352 126.316 49.6914H122.801C122.762 49.0039 122.625 48.4219 122.391 47.9453C122.156 47.4609 121.801 47.0977 121.324 46.8555C120.855 46.6055 120.23 46.4805 119.449 46.4805C118.863 46.4805 118.352 46.5898 117.914 46.8086C117.477 47.0273 117.109 47.3594 116.812 47.8047C116.516 48.25 116.293 48.8125 116.145 49.4922C116.004 50.1641 115.934 50.9531 115.934 51.8594V53.0664C115.934 53.9492 116 54.7266 116.133 55.3984C116.266 56.0625 116.469 56.625 116.742 57.0859C117.023 57.5391 117.383 57.8828 117.82 58.1172C118.266 58.3438 118.801 58.457 119.426 58.457C120.16 58.457 120.766 58.3398 121.242 58.1055C121.719 57.8711 122.082 57.5234 122.332 57.0625C122.59 56.6016 122.742 56.0273 122.789 55.3398ZM135.234 58.1406V52.4922C135.234 52.0859 135.168 51.7383 135.035 51.4492C134.902 51.1523 134.695 50.9219 134.414 50.7578C134.141 50.5938 133.785 50.5117 133.348 50.5117C132.973 50.5117 132.648 50.5781 132.375 50.7109C132.102 50.8359 131.891 51.0195 131.742 51.2617C131.594 51.4961 131.52 51.7734 131.52 52.0938H128.145C128.145 51.5547 128.27 51.043 128.52 50.5586C128.77 50.0742 129.133 49.6484 129.609 49.2812C130.086 48.9062 130.652 48.6133 131.309 48.4023C131.973 48.1914 132.715 48.0859 133.535 48.0859C134.52 48.0859 135.395 48.25 136.16 48.5781C136.926 48.9062 137.527 49.3984 137.965 50.0547C138.41 50.7109 138.633 51.5312 138.633 52.5156V57.9414C138.633 58.6367 138.676 59.207 138.762 59.6523C138.848 60.0898 138.973 60.4727 139.137 60.8008V61H135.727C135.562 60.6562 135.438 60.2266 135.352 59.7109C135.273 59.1875 135.234 58.6641 135.234 58.1406ZM135.68 53.2773L135.703 55.1875H133.816C133.371 55.1875 132.984 55.2383 132.656 55.3398C132.328 55.4414 132.059 55.5859 131.848 55.7734C131.637 55.9531 131.48 56.1641 131.379 56.4062C131.285 56.6484 131.238 56.9141 131.238 57.2031C131.238 57.4922 131.305 57.7539 131.438 57.9883C131.57 58.2148 131.762 58.3945 132.012 58.5273C132.262 58.6523 132.555 58.7148 132.891 58.7148C133.398 58.7148 133.84 58.6133 134.215 58.4102C134.59 58.207 134.879 57.957 135.082 57.6602C135.293 57.3633 135.402 57.082 135.41 56.8164L136.301 58.2461C136.176 58.5664 136.004 58.8984 135.785 59.2422C135.574 59.5859 135.305 59.9102 134.977 60.2148C134.648 60.5117 134.254 60.7578 133.793 60.9531C133.332 61.1406 132.785 61.2344 132.152 61.2344C131.348 61.2344 130.617 61.0742 129.961 60.7539C129.312 60.4258 128.797 59.9766 128.414 59.4062C128.039 58.8281 127.852 58.1719 127.852 57.4375C127.852 56.7734 127.977 56.1836 128.227 55.668C128.477 55.1523 128.844 54.7188 129.328 54.3672C129.82 54.0078 130.434 53.7383 131.168 53.5586C131.902 53.3711 132.754 53.2773 133.723 53.2773H135.68ZM144.609 50.9453V61H141.223V48.3203H144.398L144.609 50.9453ZM144.141 54.2148H143.203C143.203 53.332 143.309 52.5195 143.52 51.7773C143.738 51.0273 144.055 50.3789 144.469 49.832C144.891 49.2773 145.41 48.8477 146.027 48.543C146.645 48.2383 147.359 48.0859 148.172 48.0859C148.734 48.0859 149.25 48.1719 149.719 48.3438C150.188 48.5078 150.59 48.7695 150.926 49.1289C151.27 49.4805 151.535 49.9414 151.723 50.5117C151.91 51.0742 152.004 51.75 152.004 52.5391V61H148.629V52.9141C148.629 52.3359 148.551 51.8906 148.395 51.5781C148.238 51.2656 148.016 51.0469 147.727 50.9219C147.445 50.7969 147.105 50.7344 146.707 50.7344C146.27 50.7344 145.887 50.8242 145.559 51.0039C145.238 51.1836 144.973 51.4336 144.762 51.7539C144.551 52.0664 144.395 52.4336 144.293 52.8555C144.191 53.2773 144.141 53.7305 144.141 54.2148ZM151.688 53.8281L150.48 53.9805C150.48 53.1523 150.582 52.3828 150.785 51.6719C150.996 50.9609 151.305 50.3359 151.711 49.7969C152.125 49.2578 152.637 48.8398 153.246 48.543C153.855 48.2383 154.559 48.0859 155.355 48.0859C155.965 48.0859 156.52 48.1758 157.02 48.3555C157.52 48.5273 157.945 48.8047 158.297 49.1875C158.656 49.5625 158.93 50.0547 159.117 50.6641C159.312 51.2734 159.41 52.0195 159.41 52.9023V61H156.023V52.9023C156.023 52.3164 155.945 51.8711 155.789 51.5664C155.641 51.2539 155.422 51.0391 155.133 50.9219C154.852 50.7969 154.516 50.7344 154.125 50.7344C153.719 50.7344 153.363 50.8164 153.059 50.9805C152.754 51.1367 152.5 51.3555 152.297 51.6367C152.094 51.918 151.941 52.2461 151.84 52.6211C151.738 52.9883 151.688 53.3906 151.688 53.8281ZM165.398 50.7578V65.875H162.023V48.3203H165.152L165.398 50.7578ZM173.426 54.5195V54.7656C173.426 55.6875 173.316 56.543 173.098 57.332C172.887 58.1211 172.574 58.8086 172.16 59.3945C171.746 59.9727 171.23 60.4258 170.613 60.7539C170.004 61.0742 169.301 61.2344 168.504 61.2344C167.73 61.2344 167.059 61.0781 166.488 60.7656C165.918 60.4531 165.438 60.0156 165.047 59.4531C164.664 58.8828 164.355 58.2227 164.121 57.4727C163.887 56.7227 163.707 55.918 163.582 55.0586V54.4141C163.707 53.4922 163.887 52.6484 164.121 51.8828C164.355 51.1094 164.664 50.4414 165.047 49.8789C165.438 49.3086 165.914 48.8672 166.477 48.5547C167.047 48.2422 167.715 48.0859 168.48 48.0859C169.285 48.0859 169.992 48.2383 170.602 48.543C171.219 48.8477 171.734 49.2852 172.148 49.8555C172.57 50.4258 172.887 51.1055 173.098 51.8945C173.316 52.6836 173.426 53.5586 173.426 54.5195ZM170.039 54.7656V54.5195C170.039 53.9805 169.992 53.4844 169.898 53.0312C169.812 52.5703 169.672 52.168 169.477 51.8242C169.289 51.4805 169.039 51.2148 168.727 51.0273C168.422 50.832 168.051 50.7344 167.613 50.7344C167.152 50.7344 166.758 50.8086 166.43 50.957C166.109 51.1055 165.848 51.3203 165.645 51.6016C165.441 51.8828 165.289 52.2188 165.188 52.6094C165.086 53 165.023 53.4414 165 53.9336V55.5625C165.039 56.1406 165.148 56.6602 165.328 57.1211C165.508 57.5742 165.785 57.9336 166.16 58.1992C166.535 58.4648 167.027 58.5977 167.637 58.5977C168.082 58.5977 168.457 58.5 168.762 58.3047C169.066 58.1016 169.312 57.8242 169.5 57.4727C169.695 57.1211 169.832 56.7148 169.91 56.2539C169.996 55.793 170.039 55.2969 170.039 54.7656ZM181.887 57.4375L185.906 43.9375H189.82L183.879 61H181.301L181.887 57.4375ZM178.184 43.9375L182.191 57.4375L182.801 61H180.199L174.293 43.9375H178.184ZM196.523 61.2344C195.539 61.2344 194.656 61.0781 193.875 60.7656C193.094 60.4453 192.43 60.0039 191.883 59.4414C191.344 58.8789 190.93 58.2266 190.641 57.4844C190.352 56.7344 190.207 55.9375 190.207 55.0938V54.625C190.207 53.6641 190.344 52.7852 190.617 51.9883C190.891 51.1914 191.281 50.5 191.789 49.9141C192.305 49.3281 192.93 48.8789 193.664 48.5664C194.398 48.2461 195.227 48.0859 196.148 48.0859C197.047 48.0859 197.844 48.2344 198.539 48.5312C199.234 48.8281 199.816 49.25 200.285 49.7969C200.762 50.3438 201.121 51 201.363 51.7656C201.605 52.5234 201.727 53.3672 201.727 54.2969V55.7031H191.648V53.4531H198.41V53.1953C198.41 52.7266 198.324 52.3086 198.152 51.9414C197.988 51.5664 197.738 51.2695 197.402 51.0508C197.066 50.832 196.637 50.7227 196.113 50.7227C195.668 50.7227 195.285 50.8203 194.965 51.0156C194.645 51.2109 194.383 51.4844 194.18 51.8359C193.984 52.1875 193.836 52.6016 193.734 53.0781C193.641 53.5469 193.594 54.0625 193.594 54.625V55.0938C193.594 55.6016 193.664 56.0703 193.805 56.5C193.953 56.9297 194.16 57.3008 194.426 57.6133C194.699 57.9258 195.027 58.168 195.41 58.3398C195.801 58.5117 196.242 58.5977 196.734 58.5977C197.344 58.5977 197.91 58.4805 198.434 58.2461C198.965 58.0039 199.422 57.6406 199.805 57.1562L201.445 58.9375C201.18 59.3203 200.816 59.6875 200.355 60.0391C199.902 60.3906 199.355 60.6797 198.715 60.9062C198.074 61.125 197.344 61.2344 196.523 61.2344ZM207.023 51.0859V61H203.648V48.3203H206.824L207.023 51.0859ZM210.844 48.2383L210.785 51.3672C210.621 51.3438 210.422 51.3242 210.188 51.3086C209.961 51.2852 209.754 51.2734 209.566 51.2734C209.09 51.2734 208.676 51.3359 208.324 51.4609C207.98 51.5781 207.691 51.7539 207.457 51.9883C207.23 52.2227 207.059 52.5078 206.941 52.8438C206.832 53.1797 206.77 53.5625 206.754 53.9922L206.074 53.7812C206.074 52.9609 206.156 52.207 206.32 51.5195C206.484 50.8242 206.723 50.2188 207.035 49.7031C207.355 49.1875 207.746 48.7891 208.207 48.5078C208.668 48.2266 209.195 48.0859 209.789 48.0859C209.977 48.0859 210.168 48.1016 210.363 48.1328C210.559 48.1562 210.719 48.1914 210.844 48.2383ZM219.293 57.4961C219.293 57.2539 219.223 57.0352 219.082 56.8398C218.941 56.6445 218.68 56.4648 218.297 56.3008C217.922 56.1289 217.379 55.9727 216.668 55.832C216.027 55.6914 215.43 55.5156 214.875 55.3047C214.328 55.0859 213.852 54.8242 213.445 54.5195C213.047 54.2148 212.734 53.8555 212.508 53.4414C212.281 53.0195 212.168 52.5391 212.168 52C212.168 51.4688 212.281 50.9688 212.508 50.5C212.742 50.0312 213.074 49.6172 213.504 49.2578C213.941 48.8906 214.473 48.6055 215.098 48.4023C215.73 48.1914 216.441 48.0859 217.23 48.0859C218.332 48.0859 219.277 48.2617 220.066 48.6133C220.863 48.9648 221.473 49.4492 221.895 50.0664C222.324 50.6758 222.539 51.3711 222.539 52.1523H219.164C219.164 51.8242 219.094 51.5312 218.953 51.2734C218.82 51.0078 218.609 50.8008 218.32 50.6523C218.039 50.4961 217.672 50.418 217.219 50.418C216.844 50.418 216.52 50.4844 216.246 50.6172C215.973 50.7422 215.762 50.9141 215.613 51.1328C215.473 51.3438 215.402 51.5781 215.402 51.8359C215.402 52.0312 215.441 52.207 215.52 52.3633C215.605 52.5117 215.742 52.6484 215.93 52.7734C216.117 52.8984 216.359 53.0156 216.656 53.125C216.961 53.2266 217.336 53.3203 217.781 53.4062C218.695 53.5938 219.512 53.8398 220.23 54.1445C220.949 54.4414 221.52 54.8477 221.941 55.3633C222.363 55.8711 222.574 56.5391 222.574 57.3672C222.574 57.9297 222.449 58.4453 222.199 58.9141C221.949 59.3828 221.59 59.793 221.121 60.1445C220.652 60.4883 220.09 60.7578 219.434 60.9531C218.785 61.1406 218.055 61.2344 217.242 61.2344C216.062 61.2344 215.062 61.0234 214.242 60.6016C213.43 60.1797 212.812 59.6445 212.391 58.9961C211.977 58.3398 211.77 57.668 211.77 56.9805H214.969C214.984 57.4414 215.102 57.8125 215.32 58.0938C215.547 58.375 215.832 58.5781 216.176 58.7031C216.527 58.8281 216.906 58.8906 217.312 58.8906C217.75 58.8906 218.113 58.832 218.402 58.7148C218.691 58.5898 218.91 58.4258 219.059 58.2227C219.215 58.0117 219.293 57.7695 219.293 57.4961ZM230.602 61.2344C229.617 61.2344 228.734 61.0781 227.953 60.7656C227.172 60.4453 226.508 60.0039 225.961 59.4414C225.422 58.8789 225.008 58.2266 224.719 57.4844C224.43 56.7344 224.285 55.9375 224.285 55.0938V54.625C224.285 53.6641 224.422 52.7852 224.695 51.9883C224.969 51.1914 225.359 50.5 225.867 49.9141C226.383 49.3281 227.008 48.8789 227.742 48.5664C228.477 48.2461 229.305 48.0859 230.227 48.0859C231.125 48.0859 231.922 48.2344 232.617 48.5312C233.312 48.8281 233.895 49.25 234.363 49.7969C234.84 50.3438 235.199 51 235.441 51.7656C235.684 52.5234 235.805 53.3672 235.805 54.2969V55.7031H225.727V53.4531H232.488V53.1953C232.488 52.7266 232.402 52.3086 232.23 51.9414C232.066 51.5664 231.816 51.2695 231.48 51.0508C231.145 50.832 230.715 50.7227 230.191 50.7227C229.746 50.7227 229.363 50.8203 229.043 51.0156C228.723 51.2109 228.461 51.4844 228.258 51.8359C228.062 52.1875 227.914 52.6016 227.812 53.0781C227.719 53.5469 227.672 54.0625 227.672 54.625V55.0938C227.672 55.6016 227.742 56.0703 227.883 56.5C228.031 56.9297 228.238 57.3008 228.504 57.6133C228.777 57.9258 229.105 58.168 229.488 58.3398C229.879 58.5117 230.32 58.5977 230.812 58.5977C231.422 58.5977 231.988 58.4805 232.512 58.2461C233.043 58.0039 233.5 57.6406 233.883 57.1562L235.523 58.9375C235.258 59.3203 234.895 59.6875 234.434 60.0391C233.98 60.3906 233.434 60.6797 232.793 60.9062C232.152 61.125 231.422 61.2344 230.602 61.2344Z" fill="#888888"/>
<path d="M114.117 84.875H122.344V107.164C122.344 109.82 121.789 112.07 120.68 113.914C119.57 115.742 118.016 117.125 116.016 118.062C114.016 119 111.664 119.469 108.961 119.469C106.289 119.469 103.938 119 101.906 118.062C99.8906 117.125 98.3125 115.742 97.1719 113.914C96.0469 112.07 95.4844 109.82 95.4844 107.164V84.875H103.734V107.164C103.734 108.57 103.938 109.719 104.344 110.609C104.75 111.484 105.344 112.125 106.125 112.531C106.906 112.938 107.852 113.141 108.961 113.141C110.086 113.141 111.031 112.938 111.797 112.531C112.562 112.125 113.141 111.484 113.531 110.609C113.922 109.719 114.117 108.57 114.117 107.164V84.875ZM134.906 99.0547V119H127.008V93.6406H134.414L134.906 99.0547ZM133.969 105.453L132.117 105.5C132.117 103.562 132.352 101.836 132.82 100.32C133.289 98.7891 133.953 97.4922 134.812 96.4297C135.672 95.3672 136.695 94.5625 137.883 94.0156C139.086 93.4531 140.422 93.1719 141.891 93.1719C143.062 93.1719 144.133 93.3438 145.102 93.6875C146.086 94.0312 146.93 94.5859 147.633 95.3516C148.352 96.1172 148.898 97.1328 149.273 98.3984C149.664 99.6484 149.859 101.195 149.859 103.039V119H141.914V103.016C141.914 102 141.773 101.227 141.492 100.695C141.211 100.148 140.805 99.7734 140.273 99.5703C139.742 99.3672 139.094 99.2656 138.328 99.2656C137.516 99.2656 136.828 99.4219 136.266 99.7344C135.703 100.047 135.25 100.484 134.906 101.047C134.578 101.594 134.336 102.242 134.18 102.992C134.039 103.742 133.969 104.562 133.969 105.453ZM162.586 93.6406V119H154.664V93.6406H162.586ZM154.195 87.1016C154.195 85.9766 154.602 85.0547 155.414 84.3359C156.227 83.6172 157.281 83.2578 158.578 83.2578C159.875 83.2578 160.93 83.6172 161.742 84.3359C162.555 85.0547 162.961 85.9766 162.961 87.1016C162.961 88.2266 162.555 89.1484 161.742 89.8672C160.93 90.5859 159.875 90.9453 158.578 90.9453C157.281 90.9453 156.227 90.5859 155.414 89.8672C154.602 89.1484 154.195 88.2266 154.195 87.1016ZM180.82 93.6406V99.125H165.539V93.6406H180.82ZM168.75 87.3359H176.648V110.727C176.648 111.398 176.727 111.922 176.883 112.297C177.039 112.656 177.305 112.914 177.68 113.07C178.07 113.211 178.586 113.281 179.227 113.281C179.68 113.281 180.055 113.273 180.352 113.258C180.648 113.227 180.93 113.188 181.195 113.141V118.789C180.523 119.008 179.82 119.172 179.086 119.281C178.352 119.406 177.57 119.469 176.742 119.469C175.055 119.469 173.609 119.203 172.406 118.672C171.219 118.141 170.312 117.305 169.688 116.164C169.062 115.023 168.75 113.539 168.75 111.711V87.3359ZM211.406 84.875V119H203.18V84.875H211.406ZM221.672 84.875V91.2266H193.148V84.875H221.672ZM234.961 119.469C232.898 119.469 231.055 119.148 229.43 118.508C227.805 117.852 226.43 116.953 225.305 115.812C224.195 114.672 223.344 113.359 222.75 111.875C222.172 110.391 221.883 108.82 221.883 107.164V106.273C221.883 104.414 222.141 102.695 222.656 101.117C223.172 99.5234 223.938 98.1328 224.953 96.9453C225.969 95.7578 227.242 94.8359 228.773 94.1797C230.305 93.5078 232.086 93.1719 234.117 93.1719C235.914 93.1719 237.523 93.4609 238.945 94.0391C240.367 94.6172 241.57 95.4453 242.555 96.5234C243.555 97.6016 244.312 98.9062 244.828 100.438C245.359 101.969 245.625 103.688 245.625 105.594V108.805H224.906V103.859H237.914V103.25C237.93 102.406 237.781 101.688 237.469 101.094C237.172 100.5 236.734 100.047 236.156 99.7344C235.578 99.4219 234.875 99.2656 234.047 99.2656C233.188 99.2656 232.477 99.4531 231.914 99.8281C231.367 100.203 230.938 100.719 230.625 101.375C230.328 102.016 230.117 102.758 229.992 103.602C229.867 104.445 229.805 105.336 229.805 106.273V107.164C229.805 108.102 229.93 108.953 230.18 109.719C230.445 110.484 230.82 111.141 231.305 111.688C231.805 112.219 232.398 112.633 233.086 112.93C233.789 113.227 234.586 113.375 235.477 113.375C236.555 113.375 237.617 113.172 238.664 112.766C239.711 112.359 240.609 111.688 241.359 110.75L244.945 115.016C244.43 115.75 243.695 116.461 242.742 117.148C241.805 117.836 240.68 118.398 239.367 118.836C238.055 119.258 236.586 119.469 234.961 119.469ZM262.125 111.875C262.125 111.438 261.977 111.062 261.68 110.75C261.398 110.422 260.898 110.125 260.18 109.859C259.461 109.578 258.453 109.297 257.156 109.016C255.922 108.75 254.758 108.398 253.664 107.961C252.586 107.523 251.641 106.992 250.828 106.367C250.016 105.742 249.375 105 248.906 104.141C248.453 103.281 248.227 102.297 248.227 101.188C248.227 100.109 248.453 99.0938 248.906 98.1406C249.375 97.1719 250.055 96.3203 250.945 95.5859C251.852 94.8359 252.953 94.25 254.25 93.8281C255.547 93.3906 257.023 93.1719 258.68 93.1719C260.961 93.1719 262.93 93.5234 264.586 94.2266C266.242 94.9141 267.516 95.8828 268.406 97.1328C269.312 98.3672 269.766 99.7969 269.766 101.422H261.867C261.867 100.781 261.758 100.234 261.539 99.7812C261.336 99.3281 261 98.9844 260.531 98.75C260.062 98.5 259.438 98.375 258.656 98.375C258.109 98.375 257.609 98.4766 257.156 98.6797C256.719 98.8828 256.367 99.1641 256.102 99.5234C255.836 99.8828 255.703 100.305 255.703 100.789C255.703 101.133 255.781 101.445 255.938 101.727C256.109 101.992 256.367 102.242 256.711 102.477C257.055 102.695 257.492 102.898 258.023 103.086C258.555 103.258 259.195 103.414 259.945 103.555C261.648 103.867 263.242 104.312 264.727 104.891C266.211 105.469 267.414 106.289 268.336 107.352C269.273 108.414 269.742 109.844 269.742 111.641C269.742 112.766 269.484 113.805 268.969 114.758C268.453 115.695 267.711 116.523 266.742 117.242C265.773 117.945 264.609 118.492 263.25 118.883C261.891 119.273 260.359 119.469 258.656 119.469C256.234 119.469 254.188 119.039 252.516 118.18C250.844 117.305 249.578 116.211 248.719 114.898C247.875 113.57 247.453 112.227 247.453 110.867H254.812C254.844 111.648 255.031 112.289 255.375 112.789C255.734 113.289 256.211 113.656 256.805 113.891C257.398 114.125 258.086 114.242 258.867 114.242C259.586 114.242 260.18 114.141 260.648 113.938C261.133 113.734 261.5 113.461 261.75 113.117C262 112.758 262.125 112.344 262.125 111.875ZM286.805 93.6406V99.125H271.523V93.6406H286.805ZM274.734 87.3359H282.633V110.727C282.633 111.398 282.711 111.922 282.867 112.297C283.023 112.656 283.289 112.914 283.664 113.07C284.055 113.211 284.57 113.281 285.211 113.281C285.664 113.281 286.039 113.273 286.336 113.258C286.633 113.227 286.914 113.188 287.18 113.141V118.789C286.508 119.008 285.805 119.172 285.07 119.281C284.336 119.406 283.555 119.469 282.727 119.469C281.039 119.469 279.594 119.203 278.391 118.672C277.203 118.141 276.297 117.305 275.672 116.164C275.047 115.023 274.734 113.539 274.734 111.711V87.3359ZM298.289 93.6406V119H290.367V93.6406H298.289ZM289.898 87.1016C289.898 85.9766 290.305 85.0547 291.117 84.3359C291.93 83.6172 292.984 83.2578 294.281 83.2578C295.578 83.2578 296.633 83.6172 297.445 84.3359C298.258 85.0547 298.664 85.9766 298.664 87.1016C298.664 88.2266 298.258 89.1484 297.445 89.8672C296.633 90.5859 295.578 90.9453 294.281 90.9453C292.984 90.9453 291.93 90.5859 291.117 89.8672C290.305 89.1484 289.898 88.2266 289.898 87.1016ZM310.922 99.0547V119H303.023V93.6406H310.43L310.922 99.0547ZM309.984 105.453L308.133 105.5C308.133 103.562 308.367 101.836 308.836 100.32C309.305 98.7891 309.969 97.4922 310.828 96.4297C311.688 95.3672 312.711 94.5625 313.898 94.0156C315.102 93.4531 316.438 93.1719 317.906 93.1719C319.078 93.1719 320.148 93.3438 321.117 93.6875C322.102 94.0312 322.945 94.5859 323.648 95.3516C324.367 96.1172 324.914 97.1328 325.289 98.3984C325.68 99.6484 325.875 101.195 325.875 103.039V119H317.93V103.016C317.93 102 317.789 101.227 317.508 100.695C317.227 100.148 316.82 99.7734 316.289 99.5703C315.758 99.3672 315.109 99.2656 314.344 99.2656C313.531 99.2656 312.844 99.4219 312.281 99.7344C311.719 100.047 311.266 100.484 310.922 101.047C310.594 101.594 310.352 102.242 310.195 102.992C310.055 103.742 309.984 104.562 309.984 105.453ZM346.195 93.6406H353.367V118.016C353.367 120.359 352.828 122.344 351.75 123.969C350.672 125.609 349.164 126.852 347.227 127.695C345.305 128.555 343.055 128.984 340.477 128.984C339.336 128.984 338.172 128.836 336.984 128.539C335.797 128.258 334.688 127.836 333.656 127.273C332.625 126.711 331.758 126.016 331.055 125.188L334.359 120.547C335 121.266 335.805 121.875 336.773 122.375C337.742 122.891 338.883 123.148 340.195 123.148C341.336 123.148 342.289 122.945 343.055 122.539C343.836 122.133 344.43 121.539 344.836 120.758C345.242 119.992 345.445 119.062 345.445 117.969V99.6406L346.195 93.6406ZM329.344 106.625V106.133C329.344 104.211 329.578 102.461 330.047 100.883C330.531 99.2891 331.219 97.9219 332.109 96.7812C333.016 95.625 334.109 94.7344 335.391 94.1094C336.672 93.4844 338.117 93.1719 339.727 93.1719C341.461 93.1719 342.883 93.5078 343.992 94.1797C345.117 94.8359 346.016 95.7578 346.688 96.9453C347.375 98.1328 347.906 99.5234 348.281 101.117C348.672 102.695 349 104.398 349.266 106.227V106.812C349 108.531 348.633 110.156 348.164 111.688C347.711 113.203 347.117 114.547 346.383 115.719C345.648 116.891 344.727 117.812 343.617 118.484C342.523 119.141 341.211 119.469 339.68 119.469C338.086 119.469 336.648 119.148 335.367 118.508C334.102 117.867 333.016 116.969 332.109 115.812C331.219 114.656 330.531 113.297 330.047 111.734C329.578 110.172 329.344 108.469 329.344 106.625ZM337.242 106.133V106.625C337.242 107.578 337.328 108.461 337.5 109.273C337.688 110.086 337.969 110.805 338.344 111.43C338.719 112.039 339.18 112.516 339.727 112.859C340.289 113.203 340.945 113.375 341.695 113.375C342.836 113.375 343.758 113.133 344.461 112.648C345.164 112.164 345.672 111.477 345.984 110.586C346.297 109.695 346.43 108.648 346.383 107.445V105.594C346.414 104.562 346.344 103.656 346.172 102.875C346 102.078 345.727 101.414 345.352 100.883C344.992 100.352 344.508 99.9531 343.898 99.6875C343.305 99.4062 342.586 99.2656 341.742 99.2656C341.008 99.2656 340.359 99.4375 339.797 99.7812C339.234 100.125 338.766 100.609 338.391 101.234C338.016 101.844 337.727 102.57 337.523 103.414C337.336 104.242 337.242 105.148 337.242 106.133Z" fill="black"/>
<path d="M1134 0H1348C1356.28 0 1363 6.71573 1363 15V148C1363 156.284 1356.28 163 1348 163H1134V0Z" fill="#02BAFF"/>
<path d="M1210.62 43.625H1286.38V119.375H1210.62V43.625Z" fill="white" fill-opacity="0.01"/>
<path d="M1276.91 72.0312V105.172C1276.91 107.787 1274.79 109.906 1272.17 109.906H1224.83C1222.21 109.906 1220.09 107.787 1220.09 105.172V57.8281C1220.09 55.2134 1222.21 53.0938 1224.83 53.0938H1261.12" stroke="white" stroke-width="7.24" stroke-linecap="round" stroke-linejoin="round"/>
<path d="M1232.72 75.1875L1248.5 87.8125L1276.91 53.0938" stroke="white" stroke-width="7.24" stroke-linecap="round" stroke-linejoin="round"/>
</svg>
