<svg width="1363" height="163" viewBox="0 0 1363 163" fill="none" xmlns="http://www.w3.org/2000/svg">
<path d="M0 15C0 6.71573 6.71573 0 15 0H37V163H15C6.71573 163 0 156.284 0 148V15Z" fill="#424242"/>
<rect width="1097" height="163" transform="translate(37)" fill="#F0F0F0"/>
<path d="M101.906 53.9219L94.3945 51.2383V48.0859L104.602 52.375V54.6367L101.906 53.9219ZM94.3945 56.1719L101.918 53.4297L104.602 52.7852V55.0352L94.3945 59.3242V56.1719ZM122.789 55.3398H126.293C126.223 56.4883 125.906 57.5078 125.344 58.3984C124.789 59.2891 124.012 59.9844 123.012 60.4844C122.02 60.9844 120.824 61.2344 119.426 61.2344C118.332 61.2344 117.352 61.0469 116.484 60.6719C115.617 60.2891 114.875 59.7422 114.258 59.0312C113.648 58.3203 113.184 57.4609 112.863 56.4531C112.543 55.4453 112.383 54.3164 112.383 53.0664V51.8828C112.383 50.6328 112.547 49.5039 112.875 48.4961C113.211 47.4805 113.688 46.6172 114.305 45.9062C114.93 45.1953 115.676 44.6484 116.543 44.2656C117.41 43.8828 118.379 43.6914 119.449 43.6914C120.871 43.6914 122.07 43.9492 123.047 44.4648C124.031 44.9805 124.793 45.6914 125.332 46.5977C125.879 47.5039 126.207 48.5352 126.316 49.6914H122.801C122.762 49.0039 122.625 48.4219 122.391 47.9453C122.156 47.4609 121.801 47.0977 121.324 46.8555C120.855 46.6055 120.23 46.4805 119.449 46.4805C118.863 46.4805 118.352 46.5898 117.914 46.8086C117.477 47.0273 117.109 47.3594 116.812 47.8047C116.516 48.25 116.293 48.8125 116.145 49.4922C116.004 50.1641 115.934 50.9531 115.934 51.8594V53.0664C115.934 53.9492 116 54.7266 116.133 55.3984C116.266 56.0625 116.469 56.625 116.742 57.0859C117.023 57.5391 117.383 57.8828 117.82 58.1172C118.266 58.3438 118.801 58.457 119.426 58.457C120.16 58.457 120.766 58.3398 121.242 58.1055C121.719 57.8711 122.082 57.5234 122.332 57.0625C122.59 56.6016 122.742 56.0273 122.789 55.3398ZM135.234 58.1406V52.4922C135.234 52.0859 135.168 51.7383 135.035 51.4492C134.902 51.1523 134.695 50.9219 134.414 50.7578C134.141 50.5938 133.785 50.5117 133.348 50.5117C132.973 50.5117 132.648 50.5781 132.375 50.7109C132.102 50.8359 131.891 51.0195 131.742 51.2617C131.594 51.4961 131.52 51.7734 131.52 52.0938H128.145C128.145 51.5547 128.27 51.043 128.52 50.5586C128.77 50.0742 129.133 49.6484 129.609 49.2812C130.086 48.9062 130.652 48.6133 131.309 48.4023C131.973 48.1914 132.715 48.0859 133.535 48.0859C134.52 48.0859 135.395 48.25 136.16 48.5781C136.926 48.9062 137.527 49.3984 137.965 50.0547C138.41 50.7109 138.633 51.5312 138.633 52.5156V57.9414C138.633 58.6367 138.676 59.207 138.762 59.6523C138.848 60.0898 138.973 60.4727 139.137 60.8008V61H135.727C135.562 60.6562 135.438 60.2266 135.352 59.7109C135.273 59.1875 135.234 58.6641 135.234 58.1406ZM135.68 53.2773L135.703 55.1875H133.816C133.371 55.1875 132.984 55.2383 132.656 55.3398C132.328 55.4414 132.059 55.5859 131.848 55.7734C131.637 55.9531 131.48 56.1641 131.379 56.4062C131.285 56.6484 131.238 56.9141 131.238 57.2031C131.238 57.4922 131.305 57.7539 131.438 57.9883C131.57 58.2148 131.762 58.3945 132.012 58.5273C132.262 58.6523 132.555 58.7148 132.891 58.7148C133.398 58.7148 133.84 58.6133 134.215 58.4102C134.59 58.207 134.879 57.957 135.082 57.6602C135.293 57.3633 135.402 57.082 135.41 56.8164L136.301 58.2461C136.176 58.5664 136.004 58.8984 135.785 59.2422C135.574 59.5859 135.305 59.9102 134.977 60.2148C134.648 60.5117 134.254 60.7578 133.793 60.9531C133.332 61.1406 132.785 61.2344 132.152 61.2344C131.348 61.2344 130.617 61.0742 129.961 60.7539C129.312 60.4258 128.797 59.9766 128.414 59.4062C128.039 58.8281 127.852 58.1719 127.852 57.4375C127.852 56.7734 127.977 56.1836 128.227 55.668C128.477 55.1523 128.844 54.7188 129.328 54.3672C129.82 54.0078 130.434 53.7383 131.168 53.5586C131.902 53.3711 132.754 53.2773 133.723 53.2773H135.68ZM144.609 50.9453V61H141.223V48.3203H144.398L144.609 50.9453ZM144.141 54.2148H143.203C143.203 53.332 143.309 52.5195 143.52 51.7773C143.738 51.0273 144.055 50.3789 144.469 49.832C144.891 49.2773 145.41 48.8477 146.027 48.543C146.645 48.2383 147.359 48.0859 148.172 48.0859C148.734 48.0859 149.25 48.1719 149.719 48.3438C150.188 48.5078 150.59 48.7695 150.926 49.1289C151.27 49.4805 151.535 49.9414 151.723 50.5117C151.91 51.0742 152.004 51.75 152.004 52.5391V61H148.629V52.9141C148.629 52.3359 148.551 51.8906 148.395 51.5781C148.238 51.2656 148.016 51.0469 147.727 50.9219C147.445 50.7969 147.105 50.7344 146.707 50.7344C146.27 50.7344 145.887 50.8242 145.559 51.0039C145.238 51.1836 144.973 51.4336 144.762 51.7539C144.551 52.0664 144.395 52.4336 144.293 52.8555C144.191 53.2773 144.141 53.7305 144.141 54.2148ZM151.688 53.8281L150.48 53.9805C150.48 53.1523 150.582 52.3828 150.785 51.6719C150.996 50.9609 151.305 50.3359 151.711 49.7969C152.125 49.2578 152.637 48.8398 153.246 48.543C153.855 48.2383 154.559 48.0859 155.355 48.0859C155.965 48.0859 156.52 48.1758 157.02 48.3555C157.52 48.5273 157.945 48.8047 158.297 49.1875C158.656 49.5625 158.93 50.0547 159.117 50.6641C159.312 51.2734 159.41 52.0195 159.41 52.9023V61H156.023V52.9023C156.023 52.3164 155.945 51.8711 155.789 51.5664C155.641 51.2539 155.422 51.0391 155.133 50.9219C154.852 50.7969 154.516 50.7344 154.125 50.7344C153.719 50.7344 153.363 50.8164 153.059 50.9805C152.754 51.1367 152.5 51.3555 152.297 51.6367C152.094 51.918 151.941 52.2461 151.84 52.6211C151.738 52.9883 151.688 53.3906 151.688 53.8281ZM165.398 50.7578V65.875H162.023V48.3203H165.152L165.398 50.7578ZM173.426 54.5195V54.7656C173.426 55.6875 173.316 56.543 173.098 57.332C172.887 58.1211 172.574 58.8086 172.16 59.3945C171.746 59.9727 171.23 60.4258 170.613 60.7539C170.004 61.0742 169.301 61.2344 168.504 61.2344C167.73 61.2344 167.059 61.0781 166.488 60.7656C165.918 60.4531 165.438 60.0156 165.047 59.4531C164.664 58.8828 164.355 58.2227 164.121 57.4727C163.887 56.7227 163.707 55.918 163.582 55.0586V54.4141C163.707 53.4922 163.887 52.6484 164.121 51.8828C164.355 51.1094 164.664 50.4414 165.047 49.8789C165.438 49.3086 165.914 48.8672 166.477 48.5547C167.047 48.2422 167.715 48.0859 168.48 48.0859C169.285 48.0859 169.992 48.2383 170.602 48.543C171.219 48.8477 171.734 49.2852 172.148 49.8555C172.57 50.4258 172.887 51.1055 173.098 51.8945C173.316 52.6836 173.426 53.5586 173.426 54.5195ZM170.039 54.7656V54.5195C170.039 53.9805 169.992 53.4844 169.898 53.0312C169.812 52.5703 169.672 52.168 169.477 51.8242C169.289 51.4805 169.039 51.2148 168.727 51.0273C168.422 50.832 168.051 50.7344 167.613 50.7344C167.152 50.7344 166.758 50.8086 166.43 50.957C166.109 51.1055 165.848 51.3203 165.645 51.6016C165.441 51.8828 165.289 52.2188 165.188 52.6094C165.086 53 165.023 53.4414 165 53.9336V55.5625C165.039 56.1406 165.148 56.6602 165.328 57.1211C165.508 57.5742 165.785 57.9336 166.16 58.1992C166.535 58.4648 167.027 58.5977 167.637 58.5977C168.082 58.5977 168.457 58.5 168.762 58.3047C169.066 58.1016 169.312 57.8242 169.5 57.4727C169.695 57.1211 169.832 56.7148 169.91 56.2539C169.996 55.793 170.039 55.2969 170.039 54.7656ZM181.887 57.4375L185.906 43.9375H189.82L183.879 61H181.301L181.887 57.4375ZM178.184 43.9375L182.191 57.4375L182.801 61H180.199L174.293 43.9375H178.184ZM196.523 61.2344C195.539 61.2344 194.656 61.0781 193.875 60.7656C193.094 60.4453 192.43 60.0039 191.883 59.4414C191.344 58.8789 190.93 58.2266 190.641 57.4844C190.352 56.7344 190.207 55.9375 190.207 55.0938V54.625C190.207 53.6641 190.344 52.7852 190.617 51.9883C190.891 51.1914 191.281 50.5 191.789 49.9141C192.305 49.3281 192.93 48.8789 193.664 48.5664C194.398 48.2461 195.227 48.0859 196.148 48.0859C197.047 48.0859 197.844 48.2344 198.539 48.5312C199.234 48.8281 199.816 49.25 200.285 49.7969C200.762 50.3438 201.121 51 201.363 51.7656C201.605 52.5234 201.727 53.3672 201.727 54.2969V55.7031H191.648V53.4531H198.41V53.1953C198.41 52.7266 198.324 52.3086 198.152 51.9414C197.988 51.5664 197.738 51.2695 197.402 51.0508C197.066 50.832 196.637 50.7227 196.113 50.7227C195.668 50.7227 195.285 50.8203 194.965 51.0156C194.645 51.2109 194.383 51.4844 194.18 51.8359C193.984 52.1875 193.836 52.6016 193.734 53.0781C193.641 53.5469 193.594 54.0625 193.594 54.625V55.0938C193.594 55.6016 193.664 56.0703 193.805 56.5C193.953 56.9297 194.16 57.3008 194.426 57.6133C194.699 57.9258 195.027 58.168 195.41 58.3398C195.801 58.5117 196.242 58.5977 196.734 58.5977C197.344 58.5977 197.91 58.4805 198.434 58.2461C198.965 58.0039 199.422 57.6406 199.805 57.1562L201.445 58.9375C201.18 59.3203 200.816 59.6875 200.355 60.0391C199.902 60.3906 199.355 60.6797 198.715 60.9062C198.074 61.125 197.344 61.2344 196.523 61.2344ZM207.023 51.0859V61H203.648V48.3203H206.824L207.023 51.0859ZM210.844 48.2383L210.785 51.3672C210.621 51.3438 210.422 51.3242 210.188 51.3086C209.961 51.2852 209.754 51.2734 209.566 51.2734C209.09 51.2734 208.676 51.3359 208.324 51.4609C207.98 51.5781 207.691 51.7539 207.457 51.9883C207.23 52.2227 207.059 52.5078 206.941 52.8438C206.832 53.1797 206.77 53.5625 206.754 53.9922L206.074 53.7812C206.074 52.9609 206.156 52.207 206.32 51.5195C206.484 50.8242 206.723 50.2188 207.035 49.7031C207.355 49.1875 207.746 48.7891 208.207 48.5078C208.668 48.2266 209.195 48.0859 209.789 48.0859C209.977 48.0859 210.168 48.1016 210.363 48.1328C210.559 48.1562 210.719 48.1914 210.844 48.2383ZM219.293 57.4961C219.293 57.2539 219.223 57.0352 219.082 56.8398C218.941 56.6445 218.68 56.4648 218.297 56.3008C217.922 56.1289 217.379 55.9727 216.668 55.832C216.027 55.6914 215.43 55.5156 214.875 55.3047C214.328 55.0859 213.852 54.8242 213.445 54.5195C213.047 54.2148 212.734 53.8555 212.508 53.4414C212.281 53.0195 212.168 52.5391 212.168 52C212.168 51.4688 212.281 50.9688 212.508 50.5C212.742 50.0312 213.074 49.6172 213.504 49.2578C213.941 48.8906 214.473 48.6055 215.098 48.4023C215.73 48.1914 216.441 48.0859 217.23 48.0859C218.332 48.0859 219.277 48.2617 220.066 48.6133C220.863 48.9648 221.473 49.4492 221.895 50.0664C222.324 50.6758 222.539 51.3711 222.539 52.1523H219.164C219.164 51.8242 219.094 51.5312 218.953 51.2734C218.82 51.0078 218.609 50.8008 218.32 50.6523C218.039 50.4961 217.672 50.418 217.219 50.418C216.844 50.418 216.52 50.4844 216.246 50.6172C215.973 50.7422 215.762 50.9141 215.613 51.1328C215.473 51.3438 215.402 51.5781 215.402 51.8359C215.402 52.0312 215.441 52.207 215.52 52.3633C215.605 52.5117 215.742 52.6484 215.93 52.7734C216.117 52.8984 216.359 53.0156 216.656 53.125C216.961 53.2266 217.336 53.3203 217.781 53.4062C218.695 53.5938 219.512 53.8398 220.23 54.1445C220.949 54.4414 221.52 54.8477 221.941 55.3633C222.363 55.8711 222.574 56.5391 222.574 57.3672C222.574 57.9297 222.449 58.4453 222.199 58.9141C221.949 59.3828 221.59 59.793 221.121 60.1445C220.652 60.4883 220.09 60.7578 219.434 60.9531C218.785 61.1406 218.055 61.2344 217.242 61.2344C216.062 61.2344 215.062 61.0234 214.242 60.6016C213.43 60.1797 212.812 59.6445 212.391 58.9961C211.977 58.3398 211.77 57.668 211.77 56.9805H214.969C214.984 57.4414 215.102 57.8125 215.32 58.0938C215.547 58.375 215.832 58.5781 216.176 58.7031C216.527 58.8281 216.906 58.8906 217.312 58.8906C217.75 58.8906 218.113 58.832 218.402 58.7148C218.691 58.5898 218.91 58.4258 219.059 58.2227C219.215 58.0117 219.293 57.7695 219.293 57.4961ZM230.602 61.2344C229.617 61.2344 228.734 61.0781 227.953 60.7656C227.172 60.4453 226.508 60.0039 225.961 59.4414C225.422 58.8789 225.008 58.2266 224.719 57.4844C224.43 56.7344 224.285 55.9375 224.285 55.0938V54.625C224.285 53.6641 224.422 52.7852 224.695 51.9883C224.969 51.1914 225.359 50.5 225.867 49.9141C226.383 49.3281 227.008 48.8789 227.742 48.5664C228.477 48.2461 229.305 48.0859 230.227 48.0859C231.125 48.0859 231.922 48.2344 232.617 48.5312C233.312 48.8281 233.895 49.25 234.363 49.7969C234.84 50.3438 235.199 51 235.441 51.7656C235.684 52.5234 235.805 53.3672 235.805 54.2969V55.7031H225.727V53.4531H232.488V53.1953C232.488 52.7266 232.402 52.3086 232.23 51.9414C232.066 51.5664 231.816 51.2695 231.48 51.0508C231.145 50.832 230.715 50.7227 230.191 50.7227C229.746 50.7227 229.363 50.8203 229.043 51.0156C228.723 51.2109 228.461 51.4844 228.258 51.8359C228.062 52.1875 227.914 52.6016 227.812 53.0781C227.719 53.5469 227.672 54.0625 227.672 54.625V55.0938C227.672 55.6016 227.742 56.0703 227.883 56.5C228.031 56.9297 228.238 57.3008 228.504 57.6133C228.777 57.9258 229.105 58.168 229.488 58.3398C229.879 58.5117 230.32 58.5977 230.812 58.5977C231.422 58.5977 231.988 58.4805 232.512 58.2461C233.043 58.0039 233.5 57.6406 233.883 57.1562L235.523 58.9375C235.258 59.3203 234.895 59.6875 234.434 60.0391C233.98 60.3906 233.434 60.6797 232.793 60.9062C232.152 61.125 231.422 61.2344 230.602 61.2344Z" fill="#888888"/>
<path d="M104.344 84.875V119H96.1406V84.875H104.344ZM117.727 99.0078V119H109.828V93.6406H117.234L117.727 99.0078ZM116.766 105.453L114.961 105.5C114.961 103.719 115.172 102.078 115.594 100.578C116.016 99.0781 116.641 97.7734 117.469 96.6641C118.297 95.5547 119.312 94.6953 120.516 94.0859C121.734 93.4766 123.141 93.1719 124.734 93.1719C125.844 93.1719 126.852 93.3438 127.758 93.6875C128.664 94.0156 129.445 94.5391 130.102 95.2578C130.758 95.9609 131.258 96.8828 131.602 98.0234C131.961 99.1484 132.141 100.5 132.141 102.078V119H124.242V103.086C124.242 102.008 124.117 101.195 123.867 100.648C123.633 100.102 123.289 99.7344 122.836 99.5469C122.383 99.3594 121.828 99.2656 121.172 99.2656C120.484 99.2656 119.867 99.4219 119.32 99.7344C118.773 100.047 118.305 100.484 117.914 101.047C117.539 101.594 117.25 102.242 117.047 102.992C116.859 103.742 116.766 104.562 116.766 105.453ZM131.25 105.453L129.047 105.5C129.047 103.719 129.242 102.078 129.633 100.578C130.039 99.0781 130.641 97.7734 131.438 96.6641C132.25 95.5547 133.258 94.6953 134.461 94.0859C135.664 93.4766 137.062 93.1719 138.656 93.1719C139.812 93.1719 140.875 93.3438 141.844 93.6875C142.812 94.0312 143.648 94.5859 144.352 95.3516C145.055 96.1172 145.602 97.1328 145.992 98.3984C146.383 99.6484 146.578 101.195 146.578 103.039V119H138.656V103.039C138.656 101.992 138.531 101.203 138.281 100.672C138.047 100.125 137.703 99.7578 137.25 99.5703C136.797 99.3672 136.258 99.2656 135.633 99.2656C134.883 99.2656 134.234 99.4219 133.688 99.7344C133.141 100.047 132.68 100.484 132.305 101.047C131.945 101.594 131.68 102.242 131.508 102.992C131.336 103.742 131.25 104.562 131.25 105.453ZM159.07 98.5156V128.75H151.172V93.6406H158.531L159.07 98.5156ZM174.633 106.016V106.508C174.633 108.352 174.422 110.062 174 111.641C173.578 113.219 172.953 114.594 172.125 115.766C171.297 116.938 170.266 117.852 169.031 118.508C167.812 119.148 166.398 119.469 164.789 119.469C163.273 119.469 161.969 119.133 160.875 118.461C159.781 117.789 158.867 116.859 158.133 115.672C157.398 114.484 156.805 113.125 156.352 111.594C155.898 110.062 155.539 108.445 155.273 106.742V106.109C155.539 104.281 155.898 102.586 156.352 101.023C156.805 99.4453 157.398 98.0703 158.133 96.8984C158.867 95.7266 159.773 94.8125 160.852 94.1562C161.945 93.5 163.25 93.1719 164.766 93.1719C166.375 93.1719 167.789 93.4766 169.008 94.0859C170.242 94.6953 171.273 95.5703 172.102 96.7109C172.945 97.8359 173.578 99.1875 174 100.766C174.422 102.344 174.633 104.094 174.633 106.016ZM166.734 106.508V106.016C166.734 105.031 166.664 104.133 166.523 103.32C166.383 102.492 166.156 101.773 165.844 101.164C165.547 100.555 165.148 100.086 164.648 99.7578C164.148 99.4297 163.531 99.2656 162.797 99.2656C161.953 99.2656 161.242 99.3984 160.664 99.6641C160.102 99.9141 159.648 100.305 159.305 100.836C158.977 101.352 158.742 102 158.602 102.781C158.477 103.547 158.422 104.445 158.438 105.477V107.398C158.406 108.586 158.523 109.633 158.789 110.539C159.055 111.43 159.516 112.125 160.172 112.625C160.828 113.125 161.719 113.375 162.844 113.375C163.594 113.375 164.219 113.203 164.719 112.859C165.219 112.5 165.617 112.008 165.914 111.383C166.211 110.742 166.422 110.008 166.547 109.18C166.672 108.352 166.734 107.461 166.734 106.508ZM186.492 83V119H178.57V83H186.492ZM203.648 119.469C201.586 119.469 199.742 119.148 198.117 118.508C196.492 117.852 195.117 116.953 193.992 115.812C192.883 114.672 192.031 113.359 191.438 111.875C190.859 110.391 190.57 108.82 190.57 107.164V106.273C190.57 104.414 190.828 102.695 191.344 101.117C191.859 99.5234 192.625 98.1328 193.641 96.9453C194.656 95.7578 195.93 94.8359 197.461 94.1797C198.992 93.5078 200.773 93.1719 202.805 93.1719C204.602 93.1719 206.211 93.4609 207.633 94.0391C209.055 94.6172 210.258 95.4453 211.242 96.5234C212.242 97.6016 213 98.9062 213.516 100.438C214.047 101.969 214.312 103.688 214.312 105.594V108.805H193.594V103.859H206.602V103.25C206.617 102.406 206.469 101.688 206.156 101.094C205.859 100.5 205.422 100.047 204.844 99.7344C204.266 99.4219 203.562 99.2656 202.734 99.2656C201.875 99.2656 201.164 99.4531 200.602 99.8281C200.055 100.203 199.625 100.719 199.312 101.375C199.016 102.016 198.805 102.758 198.68 103.602C198.555 104.445 198.492 105.336 198.492 106.273V107.164C198.492 108.102 198.617 108.953 198.867 109.719C199.133 110.484 199.508 111.141 199.992 111.688C200.492 112.219 201.086 112.633 201.773 112.93C202.477 113.227 203.273 113.375 204.164 113.375C205.242 113.375 206.305 113.172 207.352 112.766C208.398 112.359 209.297 111.688 210.047 110.75L213.633 115.016C213.117 115.75 212.383 116.461 211.43 117.148C210.492 117.836 209.367 118.398 208.055 118.836C206.742 119.258 205.273 119.469 203.648 119.469ZM225.492 99.0078V119H217.594V93.6406H225L225.492 99.0078ZM224.531 105.453L222.727 105.5C222.727 103.719 222.938 102.078 223.359 100.578C223.781 99.0781 224.406 97.7734 225.234 96.6641C226.062 95.5547 227.078 94.6953 228.281 94.0859C229.5 93.4766 230.906 93.1719 232.5 93.1719C233.609 93.1719 234.617 93.3438 235.523 93.6875C236.43 94.0156 237.211 94.5391 237.867 95.2578C238.523 95.9609 239.023 96.8828 239.367 98.0234C239.727 99.1484 239.906 100.5 239.906 102.078V119H232.008V103.086C232.008 102.008 231.883 101.195 231.633 100.648C231.398 100.102 231.055 99.7344 230.602 99.5469C230.148 99.3594 229.594 99.2656 228.938 99.2656C228.25 99.2656 227.633 99.4219 227.086 99.7344C226.539 100.047 226.07 100.484 225.68 101.047C225.305 101.594 225.016 102.242 224.812 102.992C224.625 103.742 224.531 104.562 224.531 105.453ZM239.016 105.453L236.812 105.5C236.812 103.719 237.008 102.078 237.398 100.578C237.805 99.0781 238.406 97.7734 239.203 96.6641C240.016 95.5547 241.023 94.6953 242.227 94.0859C243.43 93.4766 244.828 93.1719 246.422 93.1719C247.578 93.1719 248.641 93.3438 249.609 93.6875C250.578 94.0312 251.414 94.5859 252.117 95.3516C252.82 96.1172 253.367 97.1328 253.758 98.3984C254.148 99.6484 254.344 101.195 254.344 103.039V119H246.422V103.039C246.422 101.992 246.297 101.203 246.047 100.672C245.812 100.125 245.469 99.7578 245.016 99.5703C244.562 99.3672 244.023 99.2656 243.398 99.2656C242.648 99.2656 242 99.4219 241.453 99.7344C240.906 100.047 240.445 100.484 240.07 101.047C239.711 101.594 239.445 102.242 239.273 102.992C239.102 103.742 239.016 104.562 239.016 105.453ZM271.148 119.469C269.086 119.469 267.242 119.148 265.617 118.508C263.992 117.852 262.617 116.953 261.492 115.812C260.383 114.672 259.531 113.359 258.938 111.875C258.359 110.391 258.07 108.82 258.07 107.164V106.273C258.07 104.414 258.328 102.695 258.844 101.117C259.359 99.5234 260.125 98.1328 261.141 96.9453C262.156 95.7578 263.43 94.8359 264.961 94.1797C266.492 93.5078 268.273 93.1719 270.305 93.1719C272.102 93.1719 273.711 93.4609 275.133 94.0391C276.555 94.6172 277.758 95.4453 278.742 96.5234C279.742 97.6016 280.5 98.9062 281.016 100.438C281.547 101.969 281.812 103.688 281.812 105.594V108.805H261.094V103.859H274.102V103.25C274.117 102.406 273.969 101.688 273.656 101.094C273.359 100.5 272.922 100.047 272.344 99.7344C271.766 99.4219 271.062 99.2656 270.234 99.2656C269.375 99.2656 268.664 99.4531 268.102 99.8281C267.555 100.203 267.125 100.719 266.812 101.375C266.516 102.016 266.305 102.758 266.18 103.602C266.055 104.445 265.992 105.336 265.992 106.273V107.164C265.992 108.102 266.117 108.953 266.367 109.719C266.633 110.484 267.008 111.141 267.492 111.688C267.992 112.219 268.586 112.633 269.273 112.93C269.977 113.227 270.773 113.375 271.664 113.375C272.742 113.375 273.805 113.172 274.852 112.766C275.898 112.359 276.797 111.688 277.547 110.75L281.133 115.016C280.617 115.75 279.883 116.461 278.93 117.148C277.992 117.836 276.867 118.398 275.555 118.836C274.242 119.258 272.773 119.469 271.148 119.469ZM292.781 99.0547V119H284.883V93.6406H292.289L292.781 99.0547ZM291.844 105.453L289.992 105.5C289.992 103.562 290.227 101.836 290.695 100.32C291.164 98.7891 291.828 97.4922 292.688 96.4297C293.547 95.3672 294.57 94.5625 295.758 94.0156C296.961 93.4531 298.297 93.1719 299.766 93.1719C300.938 93.1719 302.008 93.3438 302.977 93.6875C303.961 94.0312 304.805 94.5859 305.508 95.3516C306.227 96.1172 306.773 97.1328 307.148 98.3984C307.539 99.6484 307.734 101.195 307.734 103.039V119H299.789V103.016C299.789 102 299.648 101.227 299.367 100.695C299.086 100.148 298.68 99.7734 298.148 99.5703C297.617 99.3672 296.969 99.2656 296.203 99.2656C295.391 99.2656 294.703 99.4219 294.141 99.7344C293.578 100.047 293.125 100.484 292.781 101.047C292.453 101.594 292.211 102.242 292.055 102.992C291.914 103.742 291.844 104.562 291.844 105.453ZM325.477 93.6406V99.125H310.195V93.6406H325.477ZM313.406 87.3359H321.305V110.727C321.305 111.398 321.383 111.922 321.539 112.297C321.695 112.656 321.961 112.914 322.336 113.07C322.727 113.211 323.242 113.281 323.883 113.281C324.336 113.281 324.711 113.273 325.008 113.258C325.305 113.227 325.586 113.188 325.852 113.141V118.789C325.18 119.008 324.477 119.172 323.742 119.281C323.008 119.406 322.227 119.469 321.398 119.469C319.711 119.469 318.266 119.203 317.062 118.672C315.875 118.141 314.969 117.305 314.344 116.164C313.719 115.023 313.406 113.539 313.406 111.711V87.3359ZM341.789 112.625V102.172C341.789 101.453 341.688 100.836 341.484 100.32C341.281 99.8047 340.961 99.4062 340.523 99.125C340.086 98.8281 339.5 98.6797 338.766 98.6797C338.172 98.6797 337.664 98.7812 337.242 98.9844C336.82 99.1875 336.5 99.4922 336.281 99.8984C336.062 100.305 335.953 100.82 335.953 101.445H328.055C328.055 100.273 328.312 99.1875 328.828 98.1875C329.359 97.1719 330.109 96.2891 331.078 95.5391C332.062 94.7891 333.234 94.2109 334.594 93.8047C335.969 93.3828 337.5 93.1719 339.188 93.1719C341.203 93.1719 343 93.5078 344.578 94.1797C346.172 94.8516 347.43 95.8594 348.352 97.2031C349.273 98.5312 349.734 100.203 349.734 102.219V112.602C349.734 114.258 349.828 115.516 350.016 116.375C350.203 117.219 350.469 117.961 350.812 118.602V119H342.891C342.516 118.219 342.234 117.266 342.047 116.141C341.875 115 341.789 113.828 341.789 112.625ZM342.75 103.508L342.797 107.727H339.305C338.57 107.727 337.945 107.828 337.43 108.031C336.93 108.234 336.523 108.516 336.211 108.875C335.914 109.219 335.695 109.609 335.555 110.047C335.43 110.484 335.367 110.945 335.367 111.43C335.367 111.898 335.477 112.32 335.695 112.695C335.93 113.055 336.242 113.336 336.633 113.539C337.023 113.742 337.461 113.844 337.945 113.844C338.82 113.844 339.562 113.68 340.172 113.352C340.797 113.008 341.273 112.594 341.602 112.109C341.93 111.625 342.094 111.172 342.094 110.75L343.828 113.984C343.516 114.609 343.156 115.242 342.75 115.883C342.359 116.523 341.867 117.117 341.273 117.664C340.695 118.195 339.984 118.633 339.141 118.977C338.297 119.305 337.273 119.469 336.07 119.469C334.508 119.469 333.07 119.148 331.758 118.508C330.461 117.867 329.422 116.977 328.641 115.836C327.859 114.68 327.469 113.352 327.469 111.852C327.469 110.539 327.703 109.367 328.172 108.336C328.656 107.305 329.383 106.43 330.352 105.711C331.32 104.992 332.555 104.445 334.055 104.07C335.555 103.695 337.32 103.508 339.352 103.508H342.75ZM367.477 93.6406V99.125H352.195V93.6406H367.477ZM355.406 87.3359H363.305V110.727C363.305 111.398 363.383 111.922 363.539 112.297C363.695 112.656 363.961 112.914 364.336 113.07C364.727 113.211 365.242 113.281 365.883 113.281C366.336 113.281 366.711 113.273 367.008 113.258C367.305 113.227 367.586 113.188 367.852 113.141V118.789C367.18 119.008 366.477 119.172 365.742 119.281C365.008 119.406 364.227 119.469 363.398 119.469C361.711 119.469 360.266 119.203 359.062 118.672C357.875 118.141 356.969 117.305 356.344 116.164C355.719 115.023 355.406 113.539 355.406 111.711V87.3359ZM378.961 93.6406V119H371.039V93.6406H378.961ZM370.57 87.1016C370.57 85.9766 370.977 85.0547 371.789 84.3359C372.602 83.6172 373.656 83.2578 374.953 83.2578C376.25 83.2578 377.305 83.6172 378.117 84.3359C378.93 85.0547 379.336 85.9766 379.336 87.1016C379.336 88.2266 378.93 89.1484 378.117 89.8672C377.305 90.5859 376.25 90.9453 374.953 90.9453C373.656 90.9453 372.602 90.5859 371.789 89.8672C370.977 89.1484 370.57 88.2266 370.57 87.1016ZM382.852 106.578V106.086C382.852 104.227 383.117 102.516 383.648 100.953C384.18 99.375 384.961 98.0078 385.992 96.8516C387.023 95.6953 388.297 94.7969 389.812 94.1562C391.328 93.5 393.078 93.1719 395.062 93.1719C397.062 93.1719 398.82 93.5 400.336 94.1562C401.867 94.7969 403.148 95.6953 404.18 96.8516C405.211 98.0078 405.992 99.375 406.523 100.953C407.055 102.516 407.32 104.227 407.32 106.086V106.578C407.32 108.422 407.055 110.133 406.523 111.711C405.992 113.273 405.211 114.641 404.18 115.812C403.148 116.969 401.875 117.867 400.359 118.508C398.844 119.148 397.094 119.469 395.109 119.469C393.125 119.469 391.367 119.148 389.836 118.508C388.305 117.867 387.023 116.969 385.992 115.812C384.961 114.641 384.18 113.273 383.648 111.711C383.117 110.133 382.852 108.422 382.852 106.578ZM390.75 106.086V106.578C390.75 107.531 390.82 108.422 390.961 109.25C391.102 110.078 391.336 110.805 391.664 111.43C391.992 112.039 392.438 112.516 393 112.859C393.562 113.203 394.266 113.375 395.109 113.375C395.938 113.375 396.625 113.203 397.172 112.859C397.734 112.516 398.18 112.039 398.508 111.43C398.836 110.805 399.07 110.078 399.211 109.25C399.352 108.422 399.422 107.531 399.422 106.578V106.086C399.422 105.164 399.352 104.297 399.211 103.484C399.07 102.656 398.836 101.93 398.508 101.305C398.18 100.664 397.734 100.164 397.172 99.8047C396.609 99.4453 395.906 99.2656 395.062 99.2656C394.234 99.2656 393.539 99.4453 392.977 99.8047C392.43 100.164 391.992 100.664 391.664 101.305C391.336 101.93 391.102 102.656 390.961 103.484C390.82 104.297 390.75 105.164 390.75 106.086ZM418.594 99.0547V119H410.695V93.6406H418.102L418.594 99.0547ZM417.656 105.453L415.805 105.5C415.805 103.562 416.039 101.836 416.508 100.32C416.977 98.7891 417.641 97.4922 418.5 96.4297C419.359 95.3672 420.383 94.5625 421.57 94.0156C422.773 93.4531 424.109 93.1719 425.578 93.1719C426.75 93.1719 427.82 93.3438 428.789 93.6875C429.773 94.0312 430.617 94.5859 431.32 95.3516C432.039 96.1172 432.586 97.1328 432.961 98.3984C433.352 99.6484 433.547 101.195 433.547 103.039V119H425.602V103.016C425.602 102 425.461 101.227 425.18 100.695C424.898 100.148 424.492 99.7734 423.961 99.5703C423.43 99.3672 422.781 99.2656 422.016 99.2656C421.203 99.2656 420.516 99.4219 419.953 99.7344C419.391 100.047 418.938 100.484 418.594 101.047C418.266 101.594 418.023 102.242 417.867 102.992C417.727 103.742 417.656 104.562 417.656 105.453Z" fill="black"/>
<path d="M1134 0H1348C1356.28 0 1363 6.71573 1363 15V148C1363 156.284 1356.28 163 1348 163H1134V0Z" fill="#02BAFF"/>
<path d="M1281 46.5H1216L1213.5 49V114L1216 116.5H1281L1283.5 114V49L1281 46.5ZM1278.5 111.5H1233.5V101.5H1245C1246.5 104.5 1250 106.5 1253.5 106.5C1259 106.5 1263.5 102 1263.5 96.5C1263.5 91 1259 86.5 1253.5 86.5C1248 86.5 1243.5 91 1243.5 96.5H1228.5V111.5H1218.5V51.5H1228.5V63C1225.5 64.5 1223.5 68 1223.5 71.5C1223.5 77 1228 81.5 1233.5 81.5C1239 81.5 1243.5 77 1243.5 71.5H1253.5C1253.5 77 1258 81.5 1263.5 81.5C1269 81.5 1273.5 77 1273.5 71.5C1273.5 66 1269 61.5 1263.5 61.5C1260 61.5 1256.5 63.5 1255 66.5H1242C1240.5 63.5 1237 61.5 1233.5 61.5V51.5H1278.5V111.5ZM1248.5 96.5C1248.5 93.5 1250.5 91.5 1253.5 91.5C1256.5 91.5 1258.5 93.5 1258.5 96.5C1258.5 99.5 1256.5 101.5 1253.5 101.5C1250.5 101.5 1248.5 99.5 1248.5 96.5ZM1233.5 66.5C1236.5 66.5 1238.5 68.5 1238.5 71.5C1238.5 74.5 1236.5 76.5 1233.5 76.5C1230.5 76.5 1228.5 74.5 1228.5 71.5C1228.5 68.5 1230.5 66.5 1233.5 66.5ZM1263.5 66.5C1266.5 66.5 1268.5 68.5 1268.5 71.5C1268.5 74.5 1266.5 76.5 1263.5 76.5C1260.5 76.5 1258.5 74.5 1258.5 71.5C1258.5 68.5 1260.5 66.5 1263.5 66.5Z" fill="white"/>
</svg>
