<svg width="1363" height="163" viewBox="0 0 1363 163" fill="none" xmlns="http://www.w3.org/2000/svg">
<path d="M0 15C0 6.71573 6.71573 0 15 0H37V163H15C6.71573 163 0 156.284 0 148V15Z" fill="#424242"/>
<rect width="1097" height="163" transform="translate(37)" fill="#F0F0F0"/>
<path d="M104.414 55.3398H107.918C107.848 56.4883 107.531 57.5078 106.969 58.3984C106.414 59.2891 105.637 59.9844 104.637 60.4844C103.645 60.9844 102.449 61.2344 101.051 61.2344C99.957 61.2344 98.9766 61.0469 98.1094 60.6719C97.2422 60.2891 96.5 59.7422 95.8828 59.0312C95.2734 58.3203 94.8086 57.4609 94.4883 56.4531C94.168 55.4453 94.0078 54.3164 94.0078 53.0664V51.8828C94.0078 50.6328 94.1719 49.5039 94.5 48.4961C94.8359 47.4805 95.3125 46.6172 95.9297 45.9062C96.5547 45.1953 97.3008 44.6484 98.168 44.2656C99.0352 43.8828 100.004 43.6914 101.074 43.6914C102.496 43.6914 103.695 43.9492 104.672 44.4648C105.656 44.9805 106.418 45.6914 106.957 46.5977C107.504 47.5039 107.832 48.5352 107.941 49.6914H104.426C104.387 49.0039 104.25 48.4219 104.016 47.9453C103.781 47.4609 103.426 47.0977 102.949 46.8555C102.48 46.6055 101.855 46.4805 101.074 46.4805C100.488 46.4805 99.9766 46.5898 99.5391 46.8086C99.1016 47.0273 98.7344 47.3594 98.4375 47.8047C98.1406 48.25 97.918 48.8125 97.7695 49.4922C97.6289 50.1641 97.5586 50.9531 97.5586 51.8594V53.0664C97.5586 53.9492 97.625 54.7266 97.7578 55.3984C97.8906 56.0625 98.0938 56.625 98.3672 57.0859C98.6484 57.5391 99.0078 57.8828 99.4453 58.1172C99.8906 58.3438 100.426 58.457 101.051 58.457C101.785 58.457 102.391 58.3398 102.867 58.1055C103.344 57.8711 103.707 57.5234 103.957 57.0625C104.215 56.6016 104.367 56.0273 104.414 55.3398ZM116.859 58.1406V52.4922C116.859 52.0859 116.793 51.7383 116.66 51.4492C116.527 51.1523 116.32 50.9219 116.039 50.7578C115.766 50.5938 115.41 50.5117 114.973 50.5117C114.598 50.5117 114.273 50.5781 114 50.7109C113.727 50.8359 113.516 51.0195 113.367 51.2617C113.219 51.4961 113.145 51.7734 113.145 52.0938H109.77C109.77 51.5547 109.895 51.043 110.145 50.5586C110.395 50.0742 110.758 49.6484 111.234 49.2812C111.711 48.9062 112.277 48.6133 112.934 48.4023C113.598 48.1914 114.34 48.0859 115.16 48.0859C116.145 48.0859 117.02 48.25 117.785 48.5781C118.551 48.9062 119.152 49.3984 119.59 50.0547C120.035 50.7109 120.258 51.5312 120.258 52.5156V57.9414C120.258 58.6367 120.301 59.207 120.387 59.6523C120.473 60.0898 120.598 60.4727 120.762 60.8008V61H117.352C117.188 60.6562 117.062 60.2266 116.977 59.7109C116.898 59.1875 116.859 58.6641 116.859 58.1406ZM117.305 53.2773L117.328 55.1875H115.441C114.996 55.1875 114.609 55.2383 114.281 55.3398C113.953 55.4414 113.684 55.5859 113.473 55.7734C113.262 55.9531 113.105 56.1641 113.004 56.4062C112.91 56.6484 112.863 56.9141 112.863 57.2031C112.863 57.4922 112.93 57.7539 113.062 57.9883C113.195 58.2148 113.387 58.3945 113.637 58.5273C113.887 58.6523 114.18 58.7148 114.516 58.7148C115.023 58.7148 115.465 58.6133 115.84 58.4102C116.215 58.207 116.504 57.957 116.707 57.6602C116.918 57.3633 117.027 57.082 117.035 56.8164L117.926 58.2461C117.801 58.5664 117.629 58.8984 117.41 59.2422C117.199 59.5859 116.93 59.9102 116.602 60.2148C116.273 60.5117 115.879 60.7578 115.418 60.9531C114.957 61.1406 114.41 61.2344 113.777 61.2344C112.973 61.2344 112.242 61.0742 111.586 60.7539C110.938 60.4258 110.422 59.9766 110.039 59.4062C109.664 58.8281 109.477 58.1719 109.477 57.4375C109.477 56.7734 109.602 56.1836 109.852 55.668C110.102 55.1523 110.469 54.7188 110.953 54.3672C111.445 54.0078 112.059 53.7383 112.793 53.5586C113.527 53.3711 114.379 53.2773 115.348 53.2773H117.305ZM126.234 50.9453V61H122.848V48.3203H126.023L126.234 50.9453ZM125.766 54.2148H124.828C124.828 53.332 124.934 52.5195 125.145 51.7773C125.363 51.0273 125.68 50.3789 126.094 49.832C126.516 49.2773 127.035 48.8477 127.652 48.543C128.27 48.2383 128.984 48.0859 129.797 48.0859C130.359 48.0859 130.875 48.1719 131.344 48.3438C131.812 48.5078 132.215 48.7695 132.551 49.1289C132.895 49.4805 133.16 49.9414 133.348 50.5117C133.535 51.0742 133.629 51.75 133.629 52.5391V61H130.254V52.9141C130.254 52.3359 130.176 51.8906 130.02 51.5781C129.863 51.2656 129.641 51.0469 129.352 50.9219C129.07 50.7969 128.73 50.7344 128.332 50.7344C127.895 50.7344 127.512 50.8242 127.184 51.0039C126.863 51.1836 126.598 51.4336 126.387 51.7539C126.176 52.0664 126.02 52.4336 125.918 52.8555C125.816 53.2773 125.766 53.7305 125.766 54.2148ZM133.312 53.8281L132.105 53.9805C132.105 53.1523 132.207 52.3828 132.41 51.6719C132.621 50.9609 132.93 50.3359 133.336 49.7969C133.75 49.2578 134.262 48.8398 134.871 48.543C135.48 48.2383 136.184 48.0859 136.98 48.0859C137.59 48.0859 138.145 48.1758 138.645 48.3555C139.145 48.5273 139.57 48.8047 139.922 49.1875C140.281 49.5625 140.555 50.0547 140.742 50.6641C140.938 51.2734 141.035 52.0195 141.035 52.9023V61H137.648V52.9023C137.648 52.3164 137.57 51.8711 137.414 51.5664C137.266 51.2539 137.047 51.0391 136.758 50.9219C136.477 50.7969 136.141 50.7344 135.75 50.7344C135.344 50.7344 134.988 50.8164 134.684 50.9805C134.379 51.1367 134.125 51.3555 133.922 51.6367C133.719 51.918 133.566 52.2461 133.465 52.6211C133.363 52.9883 133.312 53.3906 133.312 53.8281ZM147.023 50.7578V65.875H143.648V48.3203H146.777L147.023 50.7578ZM155.051 54.5195V54.7656C155.051 55.6875 154.941 56.543 154.723 57.332C154.512 58.1211 154.199 58.8086 153.785 59.3945C153.371 59.9727 152.855 60.4258 152.238 60.7539C151.629 61.0742 150.926 61.2344 150.129 61.2344C149.355 61.2344 148.684 61.0781 148.113 60.7656C147.543 60.4531 147.062 60.0156 146.672 59.4531C146.289 58.8828 145.98 58.2227 145.746 57.4727C145.512 56.7227 145.332 55.918 145.207 55.0586V54.4141C145.332 53.4922 145.512 52.6484 145.746 51.8828C145.98 51.1094 146.289 50.4414 146.672 49.8789C147.062 49.3086 147.539 48.8672 148.102 48.5547C148.672 48.2422 149.34 48.0859 150.105 48.0859C150.91 48.0859 151.617 48.2383 152.227 48.543C152.844 48.8477 153.359 49.2852 153.773 49.8555C154.195 50.4258 154.512 51.1055 154.723 51.8945C154.941 52.6836 155.051 53.5586 155.051 54.5195ZM151.664 54.7656V54.5195C151.664 53.9805 151.617 53.4844 151.523 53.0312C151.438 52.5703 151.297 52.168 151.102 51.8242C150.914 51.4805 150.664 51.2148 150.352 51.0273C150.047 50.832 149.676 50.7344 149.238 50.7344C148.777 50.7344 148.383 50.8086 148.055 50.957C147.734 51.1055 147.473 51.3203 147.27 51.6016C147.066 51.8828 146.914 52.2188 146.812 52.6094C146.711 53 146.648 53.4414 146.625 53.9336V55.5625C146.664 56.1406 146.773 56.6602 146.953 57.1211C147.133 57.5742 147.41 57.9336 147.785 58.1992C148.16 58.4648 148.652 58.5977 149.262 58.5977C149.707 58.5977 150.082 58.5 150.387 58.3047C150.691 58.1016 150.938 57.8242 151.125 57.4727C151.32 57.1211 151.457 56.7148 151.535 56.2539C151.621 55.793 151.664 55.2969 151.664 54.7656ZM163.512 57.4375L167.531 43.9375H171.445L165.504 61H162.926L163.512 57.4375ZM159.809 43.9375L163.816 57.4375L164.426 61H161.824L155.918 43.9375H159.809ZM178.148 61.2344C177.164 61.2344 176.281 61.0781 175.5 60.7656C174.719 60.4453 174.055 60.0039 173.508 59.4414C172.969 58.8789 172.555 58.2266 172.266 57.4844C171.977 56.7344 171.832 55.9375 171.832 55.0938V54.625C171.832 53.6641 171.969 52.7852 172.242 51.9883C172.516 51.1914 172.906 50.5 173.414 49.9141C173.93 49.3281 174.555 48.8789 175.289 48.5664C176.023 48.2461 176.852 48.0859 177.773 48.0859C178.672 48.0859 179.469 48.2344 180.164 48.5312C180.859 48.8281 181.441 49.25 181.91 49.7969C182.387 50.3438 182.746 51 182.988 51.7656C183.23 52.5234 183.352 53.3672 183.352 54.2969V55.7031H173.273V53.4531H180.035V53.1953C180.035 52.7266 179.949 52.3086 179.777 51.9414C179.613 51.5664 179.363 51.2695 179.027 51.0508C178.691 50.832 178.262 50.7227 177.738 50.7227C177.293 50.7227 176.91 50.8203 176.59 51.0156C176.27 51.2109 176.008 51.4844 175.805 51.8359C175.609 52.1875 175.461 52.6016 175.359 53.0781C175.266 53.5469 175.219 54.0625 175.219 54.625V55.0938C175.219 55.6016 175.289 56.0703 175.43 56.5C175.578 56.9297 175.785 57.3008 176.051 57.6133C176.324 57.9258 176.652 58.168 177.035 58.3398C177.426 58.5117 177.867 58.5977 178.359 58.5977C178.969 58.5977 179.535 58.4805 180.059 58.2461C180.59 58.0039 181.047 57.6406 181.43 57.1562L183.07 58.9375C182.805 59.3203 182.441 59.6875 181.98 60.0391C181.527 60.3906 180.98 60.6797 180.34 60.9062C179.699 61.125 178.969 61.2344 178.148 61.2344ZM188.648 51.0859V61H185.273V48.3203H188.449L188.648 51.0859ZM192.469 48.2383L192.41 51.3672C192.246 51.3438 192.047 51.3242 191.812 51.3086C191.586 51.2852 191.379 51.2734 191.191 51.2734C190.715 51.2734 190.301 51.3359 189.949 51.4609C189.605 51.5781 189.316 51.7539 189.082 51.9883C188.855 52.2227 188.684 52.5078 188.566 52.8438C188.457 53.1797 188.395 53.5625 188.379 53.9922L187.699 53.7812C187.699 52.9609 187.781 52.207 187.945 51.5195C188.109 50.8242 188.348 50.2188 188.66 49.7031C188.98 49.1875 189.371 48.7891 189.832 48.5078C190.293 48.2266 190.82 48.0859 191.414 48.0859C191.602 48.0859 191.793 48.1016 191.988 48.1328C192.184 48.1562 192.344 48.1914 192.469 48.2383ZM200.918 57.4961C200.918 57.2539 200.848 57.0352 200.707 56.8398C200.566 56.6445 200.305 56.4648 199.922 56.3008C199.547 56.1289 199.004 55.9727 198.293 55.832C197.652 55.6914 197.055 55.5156 196.5 55.3047C195.953 55.0859 195.477 54.8242 195.07 54.5195C194.672 54.2148 194.359 53.8555 194.133 53.4414C193.906 53.0195 193.793 52.5391 193.793 52C193.793 51.4688 193.906 50.9688 194.133 50.5C194.367 50.0312 194.699 49.6172 195.129 49.2578C195.566 48.8906 196.098 48.6055 196.723 48.4023C197.355 48.1914 198.066 48.0859 198.855 48.0859C199.957 48.0859 200.902 48.2617 201.691 48.6133C202.488 48.9648 203.098 49.4492 203.52 50.0664C203.949 50.6758 204.164 51.3711 204.164 52.1523H200.789C200.789 51.8242 200.719 51.5312 200.578 51.2734C200.445 51.0078 200.234 50.8008 199.945 50.6523C199.664 50.4961 199.297 50.418 198.844 50.418C198.469 50.418 198.145 50.4844 197.871 50.6172C197.598 50.7422 197.387 50.9141 197.238 51.1328C197.098 51.3438 197.027 51.5781 197.027 51.8359C197.027 52.0312 197.066 52.207 197.145 52.3633C197.23 52.5117 197.367 52.6484 197.555 52.7734C197.742 52.8984 197.984 53.0156 198.281 53.125C198.586 53.2266 198.961 53.3203 199.406 53.4062C200.32 53.5938 201.137 53.8398 201.855 54.1445C202.574 54.4414 203.145 54.8477 203.566 55.3633C203.988 55.8711 204.199 56.5391 204.199 57.3672C204.199 57.9297 204.074 58.4453 203.824 58.9141C203.574 59.3828 203.215 59.793 202.746 60.1445C202.277 60.4883 201.715 60.7578 201.059 60.9531C200.41 61.1406 199.68 61.2344 198.867 61.2344C197.688 61.2344 196.688 61.0234 195.867 60.6016C195.055 60.1797 194.438 59.6445 194.016 58.9961C193.602 58.3398 193.395 57.668 193.395 56.9805H196.594C196.609 57.4414 196.727 57.8125 196.945 58.0938C197.172 58.375 197.457 58.5781 197.801 58.7031C198.152 58.8281 198.531 58.8906 198.938 58.8906C199.375 58.8906 199.738 58.832 200.027 58.7148C200.316 58.5898 200.535 58.4258 200.684 58.2227C200.84 58.0117 200.918 57.7695 200.918 57.4961ZM212.227 61.2344C211.242 61.2344 210.359 61.0781 209.578 60.7656C208.797 60.4453 208.133 60.0039 207.586 59.4414C207.047 58.8789 206.633 58.2266 206.344 57.4844C206.055 56.7344 205.91 55.9375 205.91 55.0938V54.625C205.91 53.6641 206.047 52.7852 206.32 51.9883C206.594 51.1914 206.984 50.5 207.492 49.9141C208.008 49.3281 208.633 48.8789 209.367 48.5664C210.102 48.2461 210.93 48.0859 211.852 48.0859C212.75 48.0859 213.547 48.2344 214.242 48.5312C214.938 48.8281 215.52 49.25 215.988 49.7969C216.465 50.3438 216.824 51 217.066 51.7656C217.309 52.5234 217.43 53.3672 217.43 54.2969V55.7031H207.352V53.4531H214.113V53.1953C214.113 52.7266 214.027 52.3086 213.855 51.9414C213.691 51.5664 213.441 51.2695 213.105 51.0508C212.77 50.832 212.34 50.7227 211.816 50.7227C211.371 50.7227 210.988 50.8203 210.668 51.0156C210.348 51.2109 210.086 51.4844 209.883 51.8359C209.688 52.1875 209.539 52.6016 209.438 53.0781C209.344 53.5469 209.297 54.0625 209.297 54.625V55.0938C209.297 55.6016 209.367 56.0703 209.508 56.5C209.656 56.9297 209.863 57.3008 210.129 57.6133C210.402 57.9258 210.73 58.168 211.113 58.3398C211.504 58.5117 211.945 58.5977 212.438 58.5977C213.047 58.5977 213.613 58.4805 214.137 58.2461C214.668 58.0039 215.125 57.6406 215.508 57.1562L217.148 58.9375C216.883 59.3203 216.52 59.6875 216.059 60.0391C215.605 60.3906 215.059 60.6797 214.418 60.9062C213.777 61.125 213.047 61.2344 212.227 61.2344Z" fill="#888888"/>
<path d="M109.219 107.422H100.734V101.07H109.219C110.375 101.07 111.312 100.875 112.031 100.484C112.75 100.094 113.273 99.5547 113.602 98.8672C113.945 98.1641 114.117 97.375 114.117 96.5C114.117 95.5625 113.945 94.6953 113.602 93.8984C113.273 93.1016 112.75 92.4609 112.031 91.9766C111.312 91.4766 110.375 91.2266 109.219 91.2266H103.828V119H95.6016V84.875H109.219C111.953 84.875 114.305 85.375 116.273 86.375C118.258 87.375 119.781 88.75 120.844 90.5C121.906 92.2344 122.438 94.2188 122.438 96.4531C122.438 98.6562 121.906 100.578 120.844 102.219C119.781 103.859 118.258 105.141 116.273 106.062C114.305 106.969 111.953 107.422 109.219 107.422ZM134.461 99.9219V119H126.562V93.6406H133.945L134.461 99.9219ZM141.961 93.4531L141.82 100.789C141.508 100.758 141.086 100.719 140.555 100.672C140.023 100.625 139.578 100.602 139.219 100.602C138.297 100.602 137.5 100.711 136.828 100.93C136.172 101.133 135.625 101.445 135.188 101.867C134.766 102.273 134.453 102.789 134.25 103.414C134.062 104.039 133.977 104.766 133.992 105.594L132.562 104.656C132.562 102.953 132.727 101.406 133.055 100.016C133.398 98.6094 133.883 97.3984 134.508 96.3828C135.133 95.3516 135.891 94.5625 136.781 94.0156C137.672 93.4531 138.672 93.1719 139.781 93.1719C140.172 93.1719 140.555 93.1953 140.93 93.2422C141.32 93.2891 141.664 93.3594 141.961 93.4531ZM142.852 106.578V106.086C142.852 104.227 143.117 102.516 143.648 100.953C144.18 99.375 144.961 98.0078 145.992 96.8516C147.023 95.6953 148.297 94.7969 149.812 94.1562C151.328 93.5 153.078 93.1719 155.062 93.1719C157.062 93.1719 158.82 93.5 160.336 94.1562C161.867 94.7969 163.148 95.6953 164.18 96.8516C165.211 98.0078 165.992 99.375 166.523 100.953C167.055 102.516 167.32 104.227 167.32 106.086V106.578C167.32 108.422 167.055 110.133 166.523 111.711C165.992 113.273 165.211 114.641 164.18 115.812C163.148 116.969 161.875 117.867 160.359 118.508C158.844 119.148 157.094 119.469 155.109 119.469C153.125 119.469 151.367 119.148 149.836 118.508C148.305 117.867 147.023 116.969 145.992 115.812C144.961 114.641 144.18 113.273 143.648 111.711C143.117 110.133 142.852 108.422 142.852 106.578ZM150.75 106.086V106.578C150.75 107.531 150.82 108.422 150.961 109.25C151.102 110.078 151.336 110.805 151.664 111.43C151.992 112.039 152.438 112.516 153 112.859C153.562 113.203 154.266 113.375 155.109 113.375C155.938 113.375 156.625 113.203 157.172 112.859C157.734 112.516 158.18 112.039 158.508 111.43C158.836 110.805 159.07 110.078 159.211 109.25C159.352 108.422 159.422 107.531 159.422 106.578V106.086C159.422 105.164 159.352 104.297 159.211 103.484C159.07 102.656 158.836 101.93 158.508 101.305C158.18 100.664 157.734 100.164 157.172 99.8047C156.609 99.4453 155.906 99.2656 155.062 99.2656C154.234 99.2656 153.539 99.4453 152.977 99.8047C152.43 100.164 151.992 100.664 151.664 101.305C151.336 101.93 151.102 102.656 150.961 103.484C150.82 104.297 150.75 105.164 150.75 106.086ZM184.195 93.6406V99.125H168.914V93.6406H184.195ZM172.125 87.3359H180.023V110.727C180.023 111.398 180.102 111.922 180.258 112.297C180.414 112.656 180.68 112.914 181.055 113.07C181.445 113.211 181.961 113.281 182.602 113.281C183.055 113.281 183.43 113.273 183.727 113.258C184.023 113.227 184.305 113.188 184.57 113.141V118.789C183.898 119.008 183.195 119.172 182.461 119.281C181.727 119.406 180.945 119.469 180.117 119.469C178.43 119.469 176.984 119.203 175.781 118.672C174.594 118.141 173.688 117.305 173.062 116.164C172.438 115.023 172.125 113.539 172.125 111.711V87.3359ZM185.648 106.578V106.086C185.648 104.227 185.914 102.516 186.445 100.953C186.977 99.375 187.758 98.0078 188.789 96.8516C189.82 95.6953 191.094 94.7969 192.609 94.1562C194.125 93.5 195.875 93.1719 197.859 93.1719C199.859 93.1719 201.617 93.5 203.133 94.1562C204.664 94.7969 205.945 95.6953 206.977 96.8516C208.008 98.0078 208.789 99.375 209.32 100.953C209.852 102.516 210.117 104.227 210.117 106.086V106.578C210.117 108.422 209.852 110.133 209.32 111.711C208.789 113.273 208.008 114.641 206.977 115.812C205.945 116.969 204.672 117.867 203.156 118.508C201.641 119.148 199.891 119.469 197.906 119.469C195.922 119.469 194.164 119.148 192.633 118.508C191.102 117.867 189.82 116.969 188.789 115.812C187.758 114.641 186.977 113.273 186.445 111.711C185.914 110.133 185.648 108.422 185.648 106.578ZM193.547 106.086V106.578C193.547 107.531 193.617 108.422 193.758 109.25C193.898 110.078 194.133 110.805 194.461 111.43C194.789 112.039 195.234 112.516 195.797 112.859C196.359 113.203 197.062 113.375 197.906 113.375C198.734 113.375 199.422 113.203 199.969 112.859C200.531 112.516 200.977 112.039 201.305 111.43C201.633 110.805 201.867 110.078 202.008 109.25C202.148 108.422 202.219 107.531 202.219 106.578V106.086C202.219 105.164 202.148 104.297 202.008 103.484C201.867 102.656 201.633 101.93 201.305 101.305C200.977 100.664 200.531 100.164 199.969 99.8047C199.406 99.4453 198.703 99.2656 197.859 99.2656C197.031 99.2656 196.336 99.4453 195.773 99.8047C195.227 100.164 194.789 100.664 194.461 101.305C194.133 101.93 193.898 102.656 193.758 103.484C193.617 104.297 193.547 105.164 193.547 106.086ZM226.992 93.6406V99.125H211.711V93.6406H226.992ZM214.922 87.3359H222.82V110.727C222.82 111.398 222.898 111.922 223.055 112.297C223.211 112.656 223.477 112.914 223.852 113.07C224.242 113.211 224.758 113.281 225.398 113.281C225.852 113.281 226.227 113.273 226.523 113.258C226.82 113.227 227.102 113.188 227.367 113.141V118.789C226.695 119.008 225.992 119.172 225.258 119.281C224.523 119.406 223.742 119.469 222.914 119.469C221.227 119.469 219.781 119.203 218.578 118.672C217.391 118.141 216.484 117.305 215.859 116.164C215.234 115.023 214.922 113.539 214.922 111.711V87.3359ZM237.914 116.023L244.477 93.6406H252.961L242.766 122.773C242.547 123.414 242.258 124.102 241.898 124.836C241.539 125.586 241.047 126.297 240.422 126.969C239.797 127.641 238.992 128.188 238.008 128.609C237.039 129.031 235.836 129.242 234.398 129.242C233.633 129.242 233.07 129.203 232.711 129.125C232.367 129.062 231.836 128.945 231.117 128.773V123.125C231.32 123.125 231.492 123.125 231.633 123.125C231.789 123.125 231.961 123.125 232.148 123.125C232.992 123.125 233.664 123.039 234.164 122.867C234.68 122.695 235.07 122.445 235.336 122.117C235.617 121.789 235.836 121.391 235.992 120.922L237.914 116.023ZM236.25 93.6406L241.242 111.383L242.109 119.75H236.812L227.789 93.6406H236.25ZM262.992 98.5156V128.75H255.094V93.6406H262.453L262.992 98.5156ZM278.555 106.016V106.508C278.555 108.352 278.344 110.062 277.922 111.641C277.5 113.219 276.875 114.594 276.047 115.766C275.219 116.938 274.188 117.852 272.953 118.508C271.734 119.148 270.32 119.469 268.711 119.469C267.195 119.469 265.891 119.133 264.797 118.461C263.703 117.789 262.789 116.859 262.055 115.672C261.32 114.484 260.727 113.125 260.273 111.594C259.82 110.062 259.461 108.445 259.195 106.742V106.109C259.461 104.281 259.82 102.586 260.273 101.023C260.727 99.4453 261.32 98.0703 262.055 96.8984C262.789 95.7266 263.695 94.8125 264.773 94.1562C265.867 93.5 267.172 93.1719 268.688 93.1719C270.297 93.1719 271.711 93.4766 272.93 94.0859C274.164 94.6953 275.195 95.5703 276.023 96.7109C276.867 97.8359 277.5 99.1875 277.922 100.766C278.344 102.344 278.555 104.094 278.555 106.016ZM270.656 106.508V106.016C270.656 105.031 270.586 104.133 270.445 103.32C270.305 102.492 270.078 101.773 269.766 101.164C269.469 100.555 269.07 100.086 268.57 99.7578C268.07 99.4297 267.453 99.2656 266.719 99.2656C265.875 99.2656 265.164 99.3984 264.586 99.6641C264.023 99.9141 263.57 100.305 263.227 100.836C262.898 101.352 262.664 102 262.523 102.781C262.398 103.547 262.344 104.445 262.359 105.477V107.398C262.328 108.586 262.445 109.633 262.711 110.539C262.977 111.43 263.438 112.125 264.094 112.625C264.75 113.125 265.641 113.375 266.766 113.375C267.516 113.375 268.141 113.203 268.641 112.859C269.141 112.5 269.539 112.008 269.836 111.383C270.133 110.742 270.344 110.008 270.469 109.18C270.594 108.352 270.656 107.461 270.656 106.508ZM290.414 93.6406V119H282.492V93.6406H290.414ZM282.023 87.1016C282.023 85.9766 282.43 85.0547 283.242 84.3359C284.055 83.6172 285.109 83.2578 286.406 83.2578C287.703 83.2578 288.758 83.6172 289.57 84.3359C290.383 85.0547 290.789 85.9766 290.789 87.1016C290.789 88.2266 290.383 89.1484 289.57 89.8672C288.758 90.5859 287.703 90.9453 286.406 90.9453C285.109 90.9453 284.055 90.5859 283.242 89.8672C282.43 89.1484 282.023 88.2266 282.023 87.1016ZM303.047 99.0547V119H295.148V93.6406H302.555L303.047 99.0547ZM302.109 105.453L300.258 105.5C300.258 103.562 300.492 101.836 300.961 100.32C301.43 98.7891 302.094 97.4922 302.953 96.4297C303.812 95.3672 304.836 94.5625 306.023 94.0156C307.227 93.4531 308.562 93.1719 310.031 93.1719C311.203 93.1719 312.273 93.3438 313.242 93.6875C314.227 94.0312 315.07 94.5859 315.773 95.3516C316.492 96.1172 317.039 97.1328 317.414 98.3984C317.805 99.6484 318 101.195 318 103.039V119H310.055V103.016C310.055 102 309.914 101.227 309.633 100.695C309.352 100.148 308.945 99.7734 308.414 99.5703C307.883 99.3672 307.234 99.2656 306.469 99.2656C305.656 99.2656 304.969 99.4219 304.406 99.7344C303.844 100.047 303.391 100.484 303.047 101.047C302.719 101.594 302.477 102.242 302.32 102.992C302.18 103.742 302.109 104.562 302.109 105.453ZM338.32 93.6406H345.492V118.016C345.492 120.359 344.953 122.344 343.875 123.969C342.797 125.609 341.289 126.852 339.352 127.695C337.43 128.555 335.18 128.984 332.602 128.984C331.461 128.984 330.297 128.836 329.109 128.539C327.922 128.258 326.812 127.836 325.781 127.273C324.75 126.711 323.883 126.016 323.18 125.188L326.484 120.547C327.125 121.266 327.93 121.875 328.898 122.375C329.867 122.891 331.008 123.148 332.32 123.148C333.461 123.148 334.414 122.945 335.18 122.539C335.961 122.133 336.555 121.539 336.961 120.758C337.367 119.992 337.57 119.062 337.57 117.969V99.6406L338.32 93.6406ZM321.469 106.625V106.133C321.469 104.211 321.703 102.461 322.172 100.883C322.656 99.2891 323.344 97.9219 324.234 96.7812C325.141 95.625 326.234 94.7344 327.516 94.1094C328.797 93.4844 330.242 93.1719 331.852 93.1719C333.586 93.1719 335.008 93.5078 336.117 94.1797C337.242 94.8359 338.141 95.7578 338.812 96.9453C339.5 98.1328 340.031 99.5234 340.406 101.117C340.797 102.695 341.125 104.398 341.391 106.227V106.812C341.125 108.531 340.758 110.156 340.289 111.688C339.836 113.203 339.242 114.547 338.508 115.719C337.773 116.891 336.852 117.812 335.742 118.484C334.648 119.141 333.336 119.469 331.805 119.469C330.211 119.469 328.773 119.148 327.492 118.508C326.227 117.867 325.141 116.969 324.234 115.812C323.344 114.656 322.656 113.297 322.172 111.734C321.703 110.172 321.469 108.469 321.469 106.625ZM329.367 106.133V106.625C329.367 107.578 329.453 108.461 329.625 109.273C329.812 110.086 330.094 110.805 330.469 111.43C330.844 112.039 331.305 112.516 331.852 112.859C332.414 113.203 333.07 113.375 333.82 113.375C334.961 113.375 335.883 113.133 336.586 112.648C337.289 112.164 337.797 111.477 338.109 110.586C338.422 109.695 338.555 108.648 338.508 107.445V105.594C338.539 104.562 338.469 103.656 338.297 102.875C338.125 102.078 337.852 101.414 337.477 100.883C337.117 100.352 336.633 99.9531 336.023 99.6875C335.43 99.4062 334.711 99.2656 333.867 99.2656C333.133 99.2656 332.484 99.4375 331.922 99.7812C331.359 100.125 330.891 100.609 330.516 101.234C330.141 101.844 329.852 102.57 329.648 103.414C329.461 104.242 329.367 105.148 329.367 106.133Z" fill="black"/>
<path d="M1134 0H1348C1356.28 0 1363 6.71573 1363 15V148C1363 156.284 1356.28 163 1348 163H1134V0Z" fill="#02BAFF"/>
<path fill-rule="evenodd" clip-rule="evenodd" d="M1202.75 46.5018C1202.75 45.3973 1203.65 44.5018 1204.75 44.5018H1292.25C1293.35 44.5018 1294.25 45.3973 1294.25 46.5018V116.498C1294.25 117.603 1293.35 118.498 1292.25 118.498H1204.75C1203.65 118.498 1202.75 117.603 1202.75 116.498V46.5018ZM1206.75 48.5018V52.9963H1290.25V48.5018H1206.75ZM1290.25 56.9963H1235.19V114.498H1290.25V56.9963ZM1231.19 114.498V56.9963H1206.75V114.498H1231.19Z" fill="white"/>
<path fill-rule="evenodd" clip-rule="evenodd" d="M1209.72 62.3022C1209.72 61.1976 1210.62 60.3022 1211.72 60.3022H1225.72C1226.83 60.3022 1227.72 61.1976 1227.72 62.3022V81.6974C1227.72 82.802 1226.83 83.6974 1225.72 83.6974H1211.72C1210.62 83.6974 1209.72 82.802 1209.72 81.6974V62.3022ZM1213.72 64.3022V79.6974H1223.72V64.3022H1213.72ZM1239.33 63.1982C1239.33 62.0936 1240.22 61.1982 1241.33 61.1982H1284.25C1285.36 61.1982 1286.25 62.0936 1286.25 63.1982V109.407C1286.25 110.511 1285.36 111.407 1284.25 111.407H1241.33C1240.22 111.407 1239.33 110.511 1239.33 109.407V63.1982ZM1243.33 65.1982V107.407H1282.25V65.1982H1243.33ZM1209.56 93.4381C1209.56 92.3336 1210.46 91.4381 1211.56 91.4381H1220.48C1221.59 91.4381 1222.48 92.3336 1222.48 93.4381C1222.48 94.5427 1221.59 95.4381 1220.48 95.4381H1211.56C1210.46 95.4381 1209.56 94.5427 1209.56 93.4381ZM1209.56 100.438C1209.56 99.3335 1210.46 98.4381 1211.56 98.4381H1226.1C1227.21 98.4381 1228.1 99.3335 1228.1 100.438C1228.1 101.543 1227.21 102.438 1226.1 102.438H1211.56C1210.46 102.438 1209.56 101.543 1209.56 100.438ZM1209.56 107.438C1209.56 106.334 1210.46 105.438 1211.56 105.438H1220.48C1221.59 105.438 1222.48 106.334 1222.48 107.438C1222.48 108.543 1221.59 109.438 1220.48 109.438H1211.56C1210.46 109.438 1209.56 108.543 1209.56 107.438Z" fill="white"/>
</svg>
