<svg width="1363" height="163" viewBox="0 0 1363 163" fill="none" xmlns="http://www.w3.org/2000/svg">
<path d="M0 15C0 6.71573 6.71573 0 15 0H37V163H15C6.71573 163 0 156.284 0 148V15Z" fill="#424242"/>
<rect width="1097" height="163" transform="translate(37)" fill="#F0F0F0"/>
<path d="M104.414 55.3398H107.918C107.848 56.4883 107.531 57.5078 106.969 58.3984C106.414 59.2891 105.637 59.9844 104.637 60.4844C103.645 60.9844 102.449 61.2344 101.051 61.2344C99.957 61.2344 98.9766 61.0469 98.1094 60.6719C97.2422 60.2891 96.5 59.7422 95.8828 59.0312C95.2734 58.3203 94.8086 57.4609 94.4883 56.4531C94.168 55.4453 94.0078 54.3164 94.0078 53.0664V51.8828C94.0078 50.6328 94.1719 49.5039 94.5 48.4961C94.8359 47.4805 95.3125 46.6172 95.9297 45.9062C96.5547 45.1953 97.3008 44.6484 98.168 44.2656C99.0352 43.8828 100.004 43.6914 101.074 43.6914C102.496 43.6914 103.695 43.9492 104.672 44.4648C105.656 44.9805 106.418 45.6914 106.957 46.5977C107.504 47.5039 107.832 48.5352 107.941 49.6914H104.426C104.387 49.0039 104.25 48.4219 104.016 47.9453C103.781 47.4609 103.426 47.0977 102.949 46.8555C102.48 46.6055 101.855 46.4805 101.074 46.4805C100.488 46.4805 99.9766 46.5898 99.5391 46.8086C99.1016 47.0273 98.7344 47.3594 98.4375 47.8047C98.1406 48.25 97.918 48.8125 97.7695 49.4922C97.6289 50.1641 97.5586 50.9531 97.5586 51.8594V53.0664C97.5586 53.9492 97.625 54.7266 97.7578 55.3984C97.8906 56.0625 98.0938 56.625 98.3672 57.0859C98.6484 57.5391 99.0078 57.8828 99.4453 58.1172C99.8906 58.3438 100.426 58.457 101.051 58.457C101.785 58.457 102.391 58.3398 102.867 58.1055C103.344 57.8711 103.707 57.5234 103.957 57.0625C104.215 56.6016 104.367 56.0273 104.414 55.3398ZM116.859 58.1406V52.4922C116.859 52.0859 116.793 51.7383 116.66 51.4492C116.527 51.1523 116.32 50.9219 116.039 50.7578C115.766 50.5938 115.41 50.5117 114.973 50.5117C114.598 50.5117 114.273 50.5781 114 50.7109C113.727 50.8359 113.516 51.0195 113.367 51.2617C113.219 51.4961 113.145 51.7734 113.145 52.0938H109.77C109.77 51.5547 109.895 51.043 110.145 50.5586C110.395 50.0742 110.758 49.6484 111.234 49.2812C111.711 48.9062 112.277 48.6133 112.934 48.4023C113.598 48.1914 114.34 48.0859 115.16 48.0859C116.145 48.0859 117.02 48.25 117.785 48.5781C118.551 48.9062 119.152 49.3984 119.59 50.0547C120.035 50.7109 120.258 51.5312 120.258 52.5156V57.9414C120.258 58.6367 120.301 59.207 120.387 59.6523C120.473 60.0898 120.598 60.4727 120.762 60.8008V61H117.352C117.188 60.6562 117.062 60.2266 116.977 59.7109C116.898 59.1875 116.859 58.6641 116.859 58.1406ZM117.305 53.2773L117.328 55.1875H115.441C114.996 55.1875 114.609 55.2383 114.281 55.3398C113.953 55.4414 113.684 55.5859 113.473 55.7734C113.262 55.9531 113.105 56.1641 113.004 56.4062C112.91 56.6484 112.863 56.9141 112.863 57.2031C112.863 57.4922 112.93 57.7539 113.062 57.9883C113.195 58.2148 113.387 58.3945 113.637 58.5273C113.887 58.6523 114.18 58.7148 114.516 58.7148C115.023 58.7148 115.465 58.6133 115.84 58.4102C116.215 58.207 116.504 57.957 116.707 57.6602C116.918 57.3633 117.027 57.082 117.035 56.8164L117.926 58.2461C117.801 58.5664 117.629 58.8984 117.41 59.2422C117.199 59.5859 116.93 59.9102 116.602 60.2148C116.273 60.5117 115.879 60.7578 115.418 60.9531C114.957 61.1406 114.41 61.2344 113.777 61.2344C112.973 61.2344 112.242 61.0742 111.586 60.7539C110.938 60.4258 110.422 59.9766 110.039 59.4062C109.664 58.8281 109.477 58.1719 109.477 57.4375C109.477 56.7734 109.602 56.1836 109.852 55.668C110.102 55.1523 110.469 54.7188 110.953 54.3672C111.445 54.0078 112.059 53.7383 112.793 53.5586C113.527 53.3711 114.379 53.2773 115.348 53.2773H117.305ZM126.234 50.9453V61H122.848V48.3203H126.023L126.234 50.9453ZM125.766 54.2148H124.828C124.828 53.332 124.934 52.5195 125.145 51.7773C125.363 51.0273 125.68 50.3789 126.094 49.832C126.516 49.2773 127.035 48.8477 127.652 48.543C128.27 48.2383 128.984 48.0859 129.797 48.0859C130.359 48.0859 130.875 48.1719 131.344 48.3438C131.812 48.5078 132.215 48.7695 132.551 49.1289C132.895 49.4805 133.16 49.9414 133.348 50.5117C133.535 51.0742 133.629 51.75 133.629 52.5391V61H130.254V52.9141C130.254 52.3359 130.176 51.8906 130.02 51.5781C129.863 51.2656 129.641 51.0469 129.352 50.9219C129.07 50.7969 128.73 50.7344 128.332 50.7344C127.895 50.7344 127.512 50.8242 127.184 51.0039C126.863 51.1836 126.598 51.4336 126.387 51.7539C126.176 52.0664 126.02 52.4336 125.918 52.8555C125.816 53.2773 125.766 53.7305 125.766 54.2148ZM133.312 53.8281L132.105 53.9805C132.105 53.1523 132.207 52.3828 132.41 51.6719C132.621 50.9609 132.93 50.3359 133.336 49.7969C133.75 49.2578 134.262 48.8398 134.871 48.543C135.48 48.2383 136.184 48.0859 136.98 48.0859C137.59 48.0859 138.145 48.1758 138.645 48.3555C139.145 48.5273 139.57 48.8047 139.922 49.1875C140.281 49.5625 140.555 50.0547 140.742 50.6641C140.938 51.2734 141.035 52.0195 141.035 52.9023V61H137.648V52.9023C137.648 52.3164 137.57 51.8711 137.414 51.5664C137.266 51.2539 137.047 51.0391 136.758 50.9219C136.477 50.7969 136.141 50.7344 135.75 50.7344C135.344 50.7344 134.988 50.8164 134.684 50.9805C134.379 51.1367 134.125 51.3555 133.922 51.6367C133.719 51.918 133.566 52.2461 133.465 52.6211C133.363 52.9883 133.312 53.3906 133.312 53.8281ZM147.023 50.7578V65.875H143.648V48.3203H146.777L147.023 50.7578ZM155.051 54.5195V54.7656C155.051 55.6875 154.941 56.543 154.723 57.332C154.512 58.1211 154.199 58.8086 153.785 59.3945C153.371 59.9727 152.855 60.4258 152.238 60.7539C151.629 61.0742 150.926 61.2344 150.129 61.2344C149.355 61.2344 148.684 61.0781 148.113 60.7656C147.543 60.4531 147.062 60.0156 146.672 59.4531C146.289 58.8828 145.98 58.2227 145.746 57.4727C145.512 56.7227 145.332 55.918 145.207 55.0586V54.4141C145.332 53.4922 145.512 52.6484 145.746 51.8828C145.98 51.1094 146.289 50.4414 146.672 49.8789C147.062 49.3086 147.539 48.8672 148.102 48.5547C148.672 48.2422 149.34 48.0859 150.105 48.0859C150.91 48.0859 151.617 48.2383 152.227 48.543C152.844 48.8477 153.359 49.2852 153.773 49.8555C154.195 50.4258 154.512 51.1055 154.723 51.8945C154.941 52.6836 155.051 53.5586 155.051 54.5195ZM151.664 54.7656V54.5195C151.664 53.9805 151.617 53.4844 151.523 53.0312C151.438 52.5703 151.297 52.168 151.102 51.8242C150.914 51.4805 150.664 51.2148 150.352 51.0273C150.047 50.832 149.676 50.7344 149.238 50.7344C148.777 50.7344 148.383 50.8086 148.055 50.957C147.734 51.1055 147.473 51.3203 147.27 51.6016C147.066 51.8828 146.914 52.2188 146.812 52.6094C146.711 53 146.648 53.4414 146.625 53.9336V55.5625C146.664 56.1406 146.773 56.6602 146.953 57.1211C147.133 57.5742 147.41 57.9336 147.785 58.1992C148.16 58.4648 148.652 58.5977 149.262 58.5977C149.707 58.5977 150.082 58.5 150.387 58.3047C150.691 58.1016 150.938 57.8242 151.125 57.4727C151.32 57.1211 151.457 56.7148 151.535 56.2539C151.621 55.793 151.664 55.2969 151.664 54.7656ZM163.512 57.4375L167.531 43.9375H171.445L165.504 61H162.926L163.512 57.4375ZM159.809 43.9375L163.816 57.4375L164.426 61H161.824L155.918 43.9375H159.809ZM178.148 61.2344C177.164 61.2344 176.281 61.0781 175.5 60.7656C174.719 60.4453 174.055 60.0039 173.508 59.4414C172.969 58.8789 172.555 58.2266 172.266 57.4844C171.977 56.7344 171.832 55.9375 171.832 55.0938V54.625C171.832 53.6641 171.969 52.7852 172.242 51.9883C172.516 51.1914 172.906 50.5 173.414 49.9141C173.93 49.3281 174.555 48.8789 175.289 48.5664C176.023 48.2461 176.852 48.0859 177.773 48.0859C178.672 48.0859 179.469 48.2344 180.164 48.5312C180.859 48.8281 181.441 49.25 181.91 49.7969C182.387 50.3438 182.746 51 182.988 51.7656C183.23 52.5234 183.352 53.3672 183.352 54.2969V55.7031H173.273V53.4531H180.035V53.1953C180.035 52.7266 179.949 52.3086 179.777 51.9414C179.613 51.5664 179.363 51.2695 179.027 51.0508C178.691 50.832 178.262 50.7227 177.738 50.7227C177.293 50.7227 176.91 50.8203 176.59 51.0156C176.27 51.2109 176.008 51.4844 175.805 51.8359C175.609 52.1875 175.461 52.6016 175.359 53.0781C175.266 53.5469 175.219 54.0625 175.219 54.625V55.0938C175.219 55.6016 175.289 56.0703 175.43 56.5C175.578 56.9297 175.785 57.3008 176.051 57.6133C176.324 57.9258 176.652 58.168 177.035 58.3398C177.426 58.5117 177.867 58.5977 178.359 58.5977C178.969 58.5977 179.535 58.4805 180.059 58.2461C180.59 58.0039 181.047 57.6406 181.43 57.1562L183.07 58.9375C182.805 59.3203 182.441 59.6875 181.98 60.0391C181.527 60.3906 180.98 60.6797 180.34 60.9062C179.699 61.125 178.969 61.2344 178.148 61.2344ZM188.648 51.0859V61H185.273V48.3203H188.449L188.648 51.0859ZM192.469 48.2383L192.41 51.3672C192.246 51.3438 192.047 51.3242 191.812 51.3086C191.586 51.2852 191.379 51.2734 191.191 51.2734C190.715 51.2734 190.301 51.3359 189.949 51.4609C189.605 51.5781 189.316 51.7539 189.082 51.9883C188.855 52.2227 188.684 52.5078 188.566 52.8438C188.457 53.1797 188.395 53.5625 188.379 53.9922L187.699 53.7812C187.699 52.9609 187.781 52.207 187.945 51.5195C188.109 50.8242 188.348 50.2188 188.66 49.7031C188.98 49.1875 189.371 48.7891 189.832 48.5078C190.293 48.2266 190.82 48.0859 191.414 48.0859C191.602 48.0859 191.793 48.1016 191.988 48.1328C192.184 48.1562 192.344 48.1914 192.469 48.2383ZM200.918 57.4961C200.918 57.2539 200.848 57.0352 200.707 56.8398C200.566 56.6445 200.305 56.4648 199.922 56.3008C199.547 56.1289 199.004 55.9727 198.293 55.832C197.652 55.6914 197.055 55.5156 196.5 55.3047C195.953 55.0859 195.477 54.8242 195.07 54.5195C194.672 54.2148 194.359 53.8555 194.133 53.4414C193.906 53.0195 193.793 52.5391 193.793 52C193.793 51.4688 193.906 50.9688 194.133 50.5C194.367 50.0312 194.699 49.6172 195.129 49.2578C195.566 48.8906 196.098 48.6055 196.723 48.4023C197.355 48.1914 198.066 48.0859 198.855 48.0859C199.957 48.0859 200.902 48.2617 201.691 48.6133C202.488 48.9648 203.098 49.4492 203.52 50.0664C203.949 50.6758 204.164 51.3711 204.164 52.1523H200.789C200.789 51.8242 200.719 51.5312 200.578 51.2734C200.445 51.0078 200.234 50.8008 199.945 50.6523C199.664 50.4961 199.297 50.418 198.844 50.418C198.469 50.418 198.145 50.4844 197.871 50.6172C197.598 50.7422 197.387 50.9141 197.238 51.1328C197.098 51.3438 197.027 51.5781 197.027 51.8359C197.027 52.0312 197.066 52.207 197.145 52.3633C197.23 52.5117 197.367 52.6484 197.555 52.7734C197.742 52.8984 197.984 53.0156 198.281 53.125C198.586 53.2266 198.961 53.3203 199.406 53.4062C200.32 53.5938 201.137 53.8398 201.855 54.1445C202.574 54.4414 203.145 54.8477 203.566 55.3633C203.988 55.8711 204.199 56.5391 204.199 57.3672C204.199 57.9297 204.074 58.4453 203.824 58.9141C203.574 59.3828 203.215 59.793 202.746 60.1445C202.277 60.4883 201.715 60.7578 201.059 60.9531C200.41 61.1406 199.68 61.2344 198.867 61.2344C197.688 61.2344 196.688 61.0234 195.867 60.6016C195.055 60.1797 194.438 59.6445 194.016 58.9961C193.602 58.3398 193.395 57.668 193.395 56.9805H196.594C196.609 57.4414 196.727 57.8125 196.945 58.0938C197.172 58.375 197.457 58.5781 197.801 58.7031C198.152 58.8281 198.531 58.8906 198.938 58.8906C199.375 58.8906 199.738 58.832 200.027 58.7148C200.316 58.5898 200.535 58.4258 200.684 58.2227C200.84 58.0117 200.918 57.7695 200.918 57.4961ZM212.227 61.2344C211.242 61.2344 210.359 61.0781 209.578 60.7656C208.797 60.4453 208.133 60.0039 207.586 59.4414C207.047 58.8789 206.633 58.2266 206.344 57.4844C206.055 56.7344 205.91 55.9375 205.91 55.0938V54.625C205.91 53.6641 206.047 52.7852 206.32 51.9883C206.594 51.1914 206.984 50.5 207.492 49.9141C208.008 49.3281 208.633 48.8789 209.367 48.5664C210.102 48.2461 210.93 48.0859 211.852 48.0859C212.75 48.0859 213.547 48.2344 214.242 48.5312C214.938 48.8281 215.52 49.25 215.988 49.7969C216.465 50.3438 216.824 51 217.066 51.7656C217.309 52.5234 217.43 53.3672 217.43 54.2969V55.7031H207.352V53.4531H214.113V53.1953C214.113 52.7266 214.027 52.3086 213.855 51.9414C213.691 51.5664 213.441 51.2695 213.105 51.0508C212.77 50.832 212.34 50.7227 211.816 50.7227C211.371 50.7227 210.988 50.8203 210.668 51.0156C210.348 51.2109 210.086 51.4844 209.883 51.8359C209.688 52.1875 209.539 52.6016 209.438 53.0781C209.344 53.5469 209.297 54.0625 209.297 54.625V55.0938C209.297 55.6016 209.367 56.0703 209.508 56.5C209.656 56.9297 209.863 57.3008 210.129 57.6133C210.402 57.9258 210.73 58.168 211.113 58.3398C211.504 58.5117 211.945 58.5977 212.438 58.5977C213.047 58.5977 213.613 58.4805 214.137 58.2461C214.668 58.0039 215.125 57.6406 215.508 57.1562L217.148 58.9375C216.883 59.3203 216.52 59.6875 216.059 60.0391C215.605 60.3906 215.059 60.6797 214.418 60.9062C213.777 61.125 213.047 61.2344 212.227 61.2344Z" fill="#888888"/>
<path d="M112.125 84.875V119H103.898V84.875H112.125ZM122.391 84.875V91.2266H93.8672V84.875H122.391ZM135.68 119.469C133.617 119.469 131.773 119.148 130.148 118.508C128.523 117.852 127.148 116.953 126.023 115.812C124.914 114.672 124.062 113.359 123.469 111.875C122.891 110.391 122.602 108.82 122.602 107.164V106.273C122.602 104.414 122.859 102.695 123.375 101.117C123.891 99.5234 124.656 98.1328 125.672 96.9453C126.688 95.7578 127.961 94.8359 129.492 94.1797C131.023 93.5078 132.805 93.1719 134.836 93.1719C136.633 93.1719 138.242 93.4609 139.664 94.0391C141.086 94.6172 142.289 95.4453 143.273 96.5234C144.273 97.6016 145.031 98.9062 145.547 100.438C146.078 101.969 146.344 103.688 146.344 105.594V108.805H125.625V103.859H138.633V103.25C138.648 102.406 138.5 101.688 138.188 101.094C137.891 100.5 137.453 100.047 136.875 99.7344C136.297 99.4219 135.594 99.2656 134.766 99.2656C133.906 99.2656 133.195 99.4531 132.633 99.8281C132.086 100.203 131.656 100.719 131.344 101.375C131.047 102.016 130.836 102.758 130.711 103.602C130.586 104.445 130.523 105.336 130.523 106.273V107.164C130.523 108.102 130.648 108.953 130.898 109.719C131.164 110.484 131.539 111.141 132.023 111.688C132.523 112.219 133.117 112.633 133.805 112.93C134.508 113.227 135.305 113.375 136.195 113.375C137.273 113.375 138.336 113.172 139.383 112.766C140.43 112.359 141.328 111.688 142.078 110.75L145.664 115.016C145.148 115.75 144.414 116.461 143.461 117.148C142.523 117.836 141.398 118.398 140.086 118.836C138.773 119.258 137.305 119.469 135.68 119.469ZM160.266 113.375C161 113.375 161.625 113.242 162.141 112.977C162.672 112.695 163.07 112.305 163.336 111.805C163.617 111.289 163.75 110.672 163.734 109.953H171.164C171.18 111.859 170.711 113.531 169.758 114.969C168.82 116.391 167.539 117.5 165.914 118.297C164.305 119.078 162.484 119.469 160.453 119.469C158.469 119.469 156.734 119.148 155.25 118.508C153.766 117.852 152.523 116.945 151.523 115.789C150.539 114.617 149.797 113.25 149.297 111.688C148.812 110.125 148.57 108.43 148.57 106.602V106.062C148.57 104.234 148.812 102.539 149.297 100.977C149.797 99.3984 150.539 98.0312 151.523 96.875C152.523 95.7031 153.758 94.7969 155.227 94.1562C156.711 93.5 158.438 93.1719 160.406 93.1719C162.516 93.1719 164.375 93.5703 165.984 94.3672C167.609 95.1641 168.883 96.3203 169.805 97.8359C170.727 99.3516 171.18 101.188 171.164 103.344H163.734C163.75 102.578 163.633 101.891 163.383 101.281C163.133 100.672 162.742 100.188 162.211 99.8281C161.695 99.4531 161.031 99.2656 160.219 99.2656C159.406 99.2656 158.75 99.4453 158.25 99.8047C157.75 100.164 157.367 100.664 157.102 101.305C156.852 101.93 156.68 102.648 156.586 103.461C156.508 104.273 156.469 105.141 156.469 106.062V106.602C156.469 107.539 156.508 108.422 156.586 109.25C156.68 110.062 156.859 110.781 157.125 111.406C157.391 112.016 157.773 112.5 158.273 112.859C158.773 113.203 159.438 113.375 160.266 113.375ZM182.273 83V119H174.375V83H182.273ZM181.336 105.453L179.484 105.5C179.484 103.719 179.703 102.078 180.141 100.578C180.578 99.0781 181.203 97.7734 182.016 96.6641C182.828 95.5547 183.805 94.6953 184.945 94.0859C186.086 93.4766 187.352 93.1719 188.742 93.1719C189.992 93.1719 191.133 93.3516 192.164 93.7109C193.211 94.0703 194.109 94.6484 194.859 95.4453C195.625 96.2422 196.211 97.2812 196.617 98.5625C197.039 99.8438 197.25 101.406 197.25 103.25V119H189.305V103.203C189.305 102.172 189.156 101.375 188.859 100.812C188.578 100.234 188.172 99.8359 187.641 99.6172C187.109 99.3828 186.461 99.2656 185.695 99.2656C184.773 99.2656 184.023 99.4219 183.445 99.7344C182.867 100.047 182.422 100.484 182.109 101.047C181.812 101.594 181.609 102.242 181.5 102.992C181.391 103.742 181.336 104.562 181.336 105.453ZM231.539 109.93C231.539 109.398 231.461 108.922 231.305 108.5C231.148 108.062 230.859 107.656 230.438 107.281C230.016 106.906 229.406 106.531 228.609 106.156C227.828 105.766 226.797 105.359 225.516 104.938C224.016 104.438 222.57 103.875 221.18 103.25C219.789 102.609 218.547 101.867 217.453 101.023C216.359 100.164 215.492 99.1641 214.852 98.0234C214.211 96.8672 213.891 95.5234 213.891 93.9922C213.891 92.5234 214.219 91.2031 214.875 90.0312C215.531 88.8438 216.445 87.8359 217.617 87.0078C218.805 86.1641 220.195 85.5234 221.789 85.0859C223.383 84.6328 225.125 84.4062 227.016 84.4062C229.516 84.4062 231.719 84.8438 233.625 85.7188C235.547 86.5781 237.047 87.8047 238.125 89.3984C239.219 90.9766 239.766 92.8438 239.766 95H231.586C231.586 94.1406 231.406 93.3828 231.047 92.7266C230.703 92.0703 230.18 91.5547 229.477 91.1797C228.773 90.8047 227.891 90.6172 226.828 90.6172C225.797 90.6172 224.93 90.7734 224.227 91.0859C223.523 91.3984 222.992 91.8203 222.633 92.3516C222.273 92.8672 222.094 93.4375 222.094 94.0625C222.094 94.5781 222.234 95.0469 222.516 95.4688C222.812 95.875 223.227 96.2578 223.758 96.6172C224.305 96.9766 224.961 97.3203 225.727 97.6484C226.508 97.9766 227.383 98.2969 228.352 98.6094C230.164 99.1875 231.773 99.8359 233.18 100.555C234.602 101.258 235.797 102.062 236.766 102.969C237.75 103.859 238.492 104.875 238.992 106.016C239.508 107.156 239.766 108.445 239.766 109.883C239.766 111.414 239.469 112.773 238.875 113.961C238.281 115.148 237.43 116.156 236.32 116.984C235.211 117.797 233.883 118.414 232.336 118.836C230.789 119.258 229.062 119.469 227.156 119.469C225.406 119.469 223.68 119.25 221.977 118.812C220.289 118.359 218.758 117.672 217.383 116.75C216.008 115.812 214.906 114.617 214.078 113.164C213.266 111.695 212.859 109.953 212.859 107.938H221.109C221.109 108.938 221.242 109.781 221.508 110.469C221.773 111.156 222.164 111.711 222.68 112.133C223.195 112.539 223.828 112.836 224.578 113.023C225.328 113.195 226.188 113.281 227.156 113.281C228.203 113.281 229.047 113.133 229.688 112.836C230.328 112.523 230.797 112.117 231.094 111.617C231.391 111.102 231.539 110.539 231.539 109.93ZM256.992 93.6406V99.125H241.711V93.6406H256.992ZM244.922 87.3359H252.82V110.727C252.82 111.398 252.898 111.922 253.055 112.297C253.211 112.656 253.477 112.914 253.852 113.07C254.242 113.211 254.758 113.281 255.398 113.281C255.852 113.281 256.227 113.273 256.523 113.258C256.82 113.227 257.102 113.188 257.367 113.141V118.789C256.695 119.008 255.992 119.172 255.258 119.281C254.523 119.406 253.742 119.469 252.914 119.469C251.227 119.469 249.781 119.203 248.578 118.672C247.391 118.141 246.484 117.305 245.859 116.164C245.234 115.023 244.922 113.539 244.922 111.711V87.3359ZM273.305 112.625V102.172C273.305 101.453 273.203 100.836 273 100.32C272.797 99.8047 272.477 99.4062 272.039 99.125C271.602 98.8281 271.016 98.6797 270.281 98.6797C269.688 98.6797 269.18 98.7812 268.758 98.9844C268.336 99.1875 268.016 99.4922 267.797 99.8984C267.578 100.305 267.469 100.82 267.469 101.445H259.57C259.57 100.273 259.828 99.1875 260.344 98.1875C260.875 97.1719 261.625 96.2891 262.594 95.5391C263.578 94.7891 264.75 94.2109 266.109 93.8047C267.484 93.3828 269.016 93.1719 270.703 93.1719C272.719 93.1719 274.516 93.5078 276.094 94.1797C277.688 94.8516 278.945 95.8594 279.867 97.2031C280.789 98.5312 281.25 100.203 281.25 102.219V112.602C281.25 114.258 281.344 115.516 281.531 116.375C281.719 117.219 281.984 117.961 282.328 118.602V119H274.406C274.031 118.219 273.75 117.266 273.562 116.141C273.391 115 273.305 113.828 273.305 112.625ZM274.266 103.508L274.312 107.727H270.82C270.086 107.727 269.461 107.828 268.945 108.031C268.445 108.234 268.039 108.516 267.727 108.875C267.43 109.219 267.211 109.609 267.07 110.047C266.945 110.484 266.883 110.945 266.883 111.43C266.883 111.898 266.992 112.32 267.211 112.695C267.445 113.055 267.758 113.336 268.148 113.539C268.539 113.742 268.977 113.844 269.461 113.844C270.336 113.844 271.078 113.68 271.688 113.352C272.312 113.008 272.789 112.594 273.117 112.109C273.445 111.625 273.609 111.172 273.609 110.75L275.344 113.984C275.031 114.609 274.672 115.242 274.266 115.883C273.875 116.523 273.383 117.117 272.789 117.664C272.211 118.195 271.5 118.633 270.656 118.977C269.812 119.305 268.789 119.469 267.586 119.469C266.023 119.469 264.586 119.148 263.273 118.508C261.977 117.867 260.938 116.977 260.156 115.836C259.375 114.68 258.984 113.352 258.984 111.852C258.984 110.539 259.219 109.367 259.688 108.336C260.172 107.305 260.898 106.43 261.867 105.711C262.836 104.992 264.07 104.445 265.57 104.07C267.07 103.695 268.836 103.508 270.867 103.508H274.266ZM296.344 113.375C297.078 113.375 297.703 113.242 298.219 112.977C298.75 112.695 299.148 112.305 299.414 111.805C299.695 111.289 299.828 110.672 299.812 109.953H307.242C307.258 111.859 306.789 113.531 305.836 114.969C304.898 116.391 303.617 117.5 301.992 118.297C300.383 119.078 298.562 119.469 296.531 119.469C294.547 119.469 292.812 119.148 291.328 118.508C289.844 117.852 288.602 116.945 287.602 115.789C286.617 114.617 285.875 113.25 285.375 111.688C284.891 110.125 284.648 108.43 284.648 106.602V106.062C284.648 104.234 284.891 102.539 285.375 100.977C285.875 99.3984 286.617 98.0312 287.602 96.875C288.602 95.7031 289.836 94.7969 291.305 94.1562C292.789 93.5 294.516 93.1719 296.484 93.1719C298.594 93.1719 300.453 93.5703 302.062 94.3672C303.688 95.1641 304.961 96.3203 305.883 97.8359C306.805 99.3516 307.258 101.188 307.242 103.344H299.812C299.828 102.578 299.711 101.891 299.461 101.281C299.211 100.672 298.82 100.188 298.289 99.8281C297.773 99.4531 297.109 99.2656 296.297 99.2656C295.484 99.2656 294.828 99.4453 294.328 99.8047C293.828 100.164 293.445 100.664 293.18 101.305C292.93 101.93 292.758 102.648 292.664 103.461C292.586 104.273 292.547 105.141 292.547 106.062V106.602C292.547 107.539 292.586 108.422 292.664 109.25C292.758 110.062 292.938 110.781 293.203 111.406C293.469 112.016 293.852 112.5 294.352 112.859C294.852 113.203 295.516 113.375 296.344 113.375ZM318.586 82.9766V119H310.688V82.9766H318.586ZM334.805 93.6406L323.789 106.555L318.023 112.32L314.578 107.305L319.383 101.047L325.336 93.6406H334.805ZM326.344 119L319.57 107.445L325.406 103.297L335.391 119H326.344Z" fill="black"/>
<path d="M1134 0H1348C1356.28 0 1363 6.71573 1363 15V148C1363 156.284 1356.28 163 1348 163H1134V0Z" fill="#02BAFF"/>
<path fill-rule="evenodd" clip-rule="evenodd" d="M1218.75 53C1218.62 53 1218.49 53.0527 1218.4 53.1464C1218.3 53.2402 1218.25 53.3674 1218.25 53.5V109.5C1218.25 109.633 1218.3 109.76 1218.4 109.854C1218.49 109.947 1218.62 110 1218.75 110H1278.25C1278.38 110 1278.51 109.947 1278.6 109.854C1278.7 109.76 1278.75 109.633 1278.75 109.5V64C1278.75 63.8674 1278.7 63.7402 1278.6 63.6464C1278.51 63.5527 1278.38 63.5 1278.25 63.5H1248.5C1247.61 63.5 1246.77 63.1045 1246.2 62.4206L1238.34 53H1218.75ZM1214.15 48.9038C1215.37 47.6848 1217.03 47 1218.75 47H1239.75C1240.64 47 1241.48 47.3955 1242.05 48.0794L1249.91 57.5H1278.25C1279.97 57.5 1281.63 58.1848 1282.85 59.4038C1284.07 60.6228 1284.75 62.2761 1284.75 64V109.5C1284.75 111.224 1284.07 112.877 1282.85 114.096C1281.63 115.315 1279.97 116 1278.25 116H1218.75C1217.03 116 1215.37 115.315 1214.15 114.096C1212.93 112.877 1212.25 111.224 1212.25 109.5V53.5C1212.25 51.7761 1212.93 50.1228 1214.15 48.9038Z" fill="white"/>
<path fill-rule="evenodd" clip-rule="evenodd" d="M1243.97 75.5251C1245.34 76.892 1245.34 79.108 1243.97 80.4749L1237.7 86.75L1243.97 93.0251C1245.34 94.392 1245.34 96.608 1243.97 97.9749C1242.61 99.3417 1240.39 99.3417 1239.03 97.9749L1230.28 89.2249C1228.91 87.858 1228.91 85.642 1230.28 84.2751L1239.03 75.5251C1240.39 74.1583 1242.61 74.1583 1243.97 75.5251Z" fill="white"/>
<path fill-rule="evenodd" clip-rule="evenodd" d="M1252.28 97.9749C1250.91 96.608 1250.91 94.392 1252.28 93.0251L1258.55 86.75L1252.28 80.4749C1250.91 79.108 1250.91 76.892 1252.28 75.5251C1253.64 74.1583 1255.86 74.1583 1257.22 75.5251L1265.97 84.2751C1267.34 85.642 1267.34 87.858 1265.97 89.2249L1257.22 97.9749C1255.86 99.3417 1253.64 99.3417 1252.28 97.9749Z" fill="white"/>
</svg>
