<svg width="1363" height="163" viewBox="0 0 1363 163" fill="none" xmlns="http://www.w3.org/2000/svg">
<path d="M0 15C0 6.71573 6.71573 0 15 0H37V163H15C6.71573 163 0 156.284 0 148V15Z" fill="#424242"/>
<rect width="1097" height="163" transform="translate(37)" fill="#F0F0F0"/>
<path d="M104.414 55.3398H107.918C107.848 56.4883 107.531 57.5078 106.969 58.3984C106.414 59.2891 105.637 59.9844 104.637 60.4844C103.645 60.9844 102.449 61.2344 101.051 61.2344C99.957 61.2344 98.9766 61.0469 98.1094 60.6719C97.2422 60.2891 96.5 59.7422 95.8828 59.0312C95.2734 58.3203 94.8086 57.4609 94.4883 56.4531C94.168 55.4453 94.0078 54.3164 94.0078 53.0664V51.8828C94.0078 50.6328 94.1719 49.5039 94.5 48.4961C94.8359 47.4805 95.3125 46.6172 95.9297 45.9062C96.5547 45.1953 97.3008 44.6484 98.168 44.2656C99.0352 43.8828 100.004 43.6914 101.074 43.6914C102.496 43.6914 103.695 43.9492 104.672 44.4648C105.656 44.9805 106.418 45.6914 106.957 46.5977C107.504 47.5039 107.832 48.5352 107.941 49.6914H104.426C104.387 49.0039 104.25 48.4219 104.016 47.9453C103.781 47.4609 103.426 47.0977 102.949 46.8555C102.48 46.6055 101.855 46.4805 101.074 46.4805C100.488 46.4805 99.9766 46.5898 99.5391 46.8086C99.1016 47.0273 98.7344 47.3594 98.4375 47.8047C98.1406 48.25 97.918 48.8125 97.7695 49.4922C97.6289 50.1641 97.5586 50.9531 97.5586 51.8594V53.0664C97.5586 53.9492 97.625 54.7266 97.7578 55.3984C97.8906 56.0625 98.0938 56.625 98.3672 57.0859C98.6484 57.5391 99.0078 57.8828 99.4453 58.1172C99.8906 58.3438 100.426 58.457 101.051 58.457C101.785 58.457 102.391 58.3398 102.867 58.1055C103.344 57.8711 103.707 57.5234 103.957 57.0625C104.215 56.6016 104.367 56.0273 104.414 55.3398ZM116.859 58.1406V52.4922C116.859 52.0859 116.793 51.7383 116.66 51.4492C116.527 51.1523 116.32 50.9219 116.039 50.7578C115.766 50.5938 115.41 50.5117 114.973 50.5117C114.598 50.5117 114.273 50.5781 114 50.7109C113.727 50.8359 113.516 51.0195 113.367 51.2617C113.219 51.4961 113.145 51.7734 113.145 52.0938H109.77C109.77 51.5547 109.895 51.043 110.145 50.5586C110.395 50.0742 110.758 49.6484 111.234 49.2812C111.711 48.9062 112.277 48.6133 112.934 48.4023C113.598 48.1914 114.34 48.0859 115.16 48.0859C116.145 48.0859 117.02 48.25 117.785 48.5781C118.551 48.9062 119.152 49.3984 119.59 50.0547C120.035 50.7109 120.258 51.5312 120.258 52.5156V57.9414C120.258 58.6367 120.301 59.207 120.387 59.6523C120.473 60.0898 120.598 60.4727 120.762 60.8008V61H117.352C117.188 60.6562 117.062 60.2266 116.977 59.7109C116.898 59.1875 116.859 58.6641 116.859 58.1406ZM117.305 53.2773L117.328 55.1875H115.441C114.996 55.1875 114.609 55.2383 114.281 55.3398C113.953 55.4414 113.684 55.5859 113.473 55.7734C113.262 55.9531 113.105 56.1641 113.004 56.4062C112.91 56.6484 112.863 56.9141 112.863 57.2031C112.863 57.4922 112.93 57.7539 113.062 57.9883C113.195 58.2148 113.387 58.3945 113.637 58.5273C113.887 58.6523 114.18 58.7148 114.516 58.7148C115.023 58.7148 115.465 58.6133 115.84 58.4102C116.215 58.207 116.504 57.957 116.707 57.6602C116.918 57.3633 117.027 57.082 117.035 56.8164L117.926 58.2461C117.801 58.5664 117.629 58.8984 117.41 59.2422C117.199 59.5859 116.93 59.9102 116.602 60.2148C116.273 60.5117 115.879 60.7578 115.418 60.9531C114.957 61.1406 114.41 61.2344 113.777 61.2344C112.973 61.2344 112.242 61.0742 111.586 60.7539C110.938 60.4258 110.422 59.9766 110.039 59.4062C109.664 58.8281 109.477 58.1719 109.477 57.4375C109.477 56.7734 109.602 56.1836 109.852 55.668C110.102 55.1523 110.469 54.7188 110.953 54.3672C111.445 54.0078 112.059 53.7383 112.793 53.5586C113.527 53.3711 114.379 53.2773 115.348 53.2773H117.305ZM126.234 50.9453V61H122.848V48.3203H126.023L126.234 50.9453ZM125.766 54.2148H124.828C124.828 53.332 124.934 52.5195 125.145 51.7773C125.363 51.0273 125.68 50.3789 126.094 49.832C126.516 49.2773 127.035 48.8477 127.652 48.543C128.27 48.2383 128.984 48.0859 129.797 48.0859C130.359 48.0859 130.875 48.1719 131.344 48.3438C131.812 48.5078 132.215 48.7695 132.551 49.1289C132.895 49.4805 133.16 49.9414 133.348 50.5117C133.535 51.0742 133.629 51.75 133.629 52.5391V61H130.254V52.9141C130.254 52.3359 130.176 51.8906 130.02 51.5781C129.863 51.2656 129.641 51.0469 129.352 50.9219C129.07 50.7969 128.73 50.7344 128.332 50.7344C127.895 50.7344 127.512 50.8242 127.184 51.0039C126.863 51.1836 126.598 51.4336 126.387 51.7539C126.176 52.0664 126.02 52.4336 125.918 52.8555C125.816 53.2773 125.766 53.7305 125.766 54.2148ZM133.312 53.8281L132.105 53.9805C132.105 53.1523 132.207 52.3828 132.41 51.6719C132.621 50.9609 132.93 50.3359 133.336 49.7969C133.75 49.2578 134.262 48.8398 134.871 48.543C135.48 48.2383 136.184 48.0859 136.98 48.0859C137.59 48.0859 138.145 48.1758 138.645 48.3555C139.145 48.5273 139.57 48.8047 139.922 49.1875C140.281 49.5625 140.555 50.0547 140.742 50.6641C140.938 51.2734 141.035 52.0195 141.035 52.9023V61H137.648V52.9023C137.648 52.3164 137.57 51.8711 137.414 51.5664C137.266 51.2539 137.047 51.0391 136.758 50.9219C136.477 50.7969 136.141 50.7344 135.75 50.7344C135.344 50.7344 134.988 50.8164 134.684 50.9805C134.379 51.1367 134.125 51.3555 133.922 51.6367C133.719 51.918 133.566 52.2461 133.465 52.6211C133.363 52.9883 133.312 53.3906 133.312 53.8281ZM147.023 50.7578V65.875H143.648V48.3203H146.777L147.023 50.7578ZM155.051 54.5195V54.7656C155.051 55.6875 154.941 56.543 154.723 57.332C154.512 58.1211 154.199 58.8086 153.785 59.3945C153.371 59.9727 152.855 60.4258 152.238 60.7539C151.629 61.0742 150.926 61.2344 150.129 61.2344C149.355 61.2344 148.684 61.0781 148.113 60.7656C147.543 60.4531 147.062 60.0156 146.672 59.4531C146.289 58.8828 145.98 58.2227 145.746 57.4727C145.512 56.7227 145.332 55.918 145.207 55.0586V54.4141C145.332 53.4922 145.512 52.6484 145.746 51.8828C145.98 51.1094 146.289 50.4414 146.672 49.8789C147.062 49.3086 147.539 48.8672 148.102 48.5547C148.672 48.2422 149.34 48.0859 150.105 48.0859C150.91 48.0859 151.617 48.2383 152.227 48.543C152.844 48.8477 153.359 49.2852 153.773 49.8555C154.195 50.4258 154.512 51.1055 154.723 51.8945C154.941 52.6836 155.051 53.5586 155.051 54.5195ZM151.664 54.7656V54.5195C151.664 53.9805 151.617 53.4844 151.523 53.0312C151.438 52.5703 151.297 52.168 151.102 51.8242C150.914 51.4805 150.664 51.2148 150.352 51.0273C150.047 50.832 149.676 50.7344 149.238 50.7344C148.777 50.7344 148.383 50.8086 148.055 50.957C147.734 51.1055 147.473 51.3203 147.27 51.6016C147.066 51.8828 146.914 52.2188 146.812 52.6094C146.711 53 146.648 53.4414 146.625 53.9336V55.5625C146.664 56.1406 146.773 56.6602 146.953 57.1211C147.133 57.5742 147.41 57.9336 147.785 58.1992C148.16 58.4648 148.652 58.5977 149.262 58.5977C149.707 58.5977 150.082 58.5 150.387 58.3047C150.691 58.1016 150.938 57.8242 151.125 57.4727C151.32 57.1211 151.457 56.7148 151.535 56.2539C151.621 55.793 151.664 55.2969 151.664 54.7656ZM163.512 57.4375L167.531 43.9375H171.445L165.504 61H162.926L163.512 57.4375ZM159.809 43.9375L163.816 57.4375L164.426 61H161.824L155.918 43.9375H159.809ZM178.148 61.2344C177.164 61.2344 176.281 61.0781 175.5 60.7656C174.719 60.4453 174.055 60.0039 173.508 59.4414C172.969 58.8789 172.555 58.2266 172.266 57.4844C171.977 56.7344 171.832 55.9375 171.832 55.0938V54.625C171.832 53.6641 171.969 52.7852 172.242 51.9883C172.516 51.1914 172.906 50.5 173.414 49.9141C173.93 49.3281 174.555 48.8789 175.289 48.5664C176.023 48.2461 176.852 48.0859 177.773 48.0859C178.672 48.0859 179.469 48.2344 180.164 48.5312C180.859 48.8281 181.441 49.25 181.91 49.7969C182.387 50.3438 182.746 51 182.988 51.7656C183.23 52.5234 183.352 53.3672 183.352 54.2969V55.7031H173.273V53.4531H180.035V53.1953C180.035 52.7266 179.949 52.3086 179.777 51.9414C179.613 51.5664 179.363 51.2695 179.027 51.0508C178.691 50.832 178.262 50.7227 177.738 50.7227C177.293 50.7227 176.91 50.8203 176.59 51.0156C176.27 51.2109 176.008 51.4844 175.805 51.8359C175.609 52.1875 175.461 52.6016 175.359 53.0781C175.266 53.5469 175.219 54.0625 175.219 54.625V55.0938C175.219 55.6016 175.289 56.0703 175.43 56.5C175.578 56.9297 175.785 57.3008 176.051 57.6133C176.324 57.9258 176.652 58.168 177.035 58.3398C177.426 58.5117 177.867 58.5977 178.359 58.5977C178.969 58.5977 179.535 58.4805 180.059 58.2461C180.59 58.0039 181.047 57.6406 181.43 57.1562L183.07 58.9375C182.805 59.3203 182.441 59.6875 181.98 60.0391C181.527 60.3906 180.98 60.6797 180.34 60.9062C179.699 61.125 178.969 61.2344 178.148 61.2344ZM188.648 51.0859V61H185.273V48.3203H188.449L188.648 51.0859ZM192.469 48.2383L192.41 51.3672C192.246 51.3438 192.047 51.3242 191.812 51.3086C191.586 51.2852 191.379 51.2734 191.191 51.2734C190.715 51.2734 190.301 51.3359 189.949 51.4609C189.605 51.5781 189.316 51.7539 189.082 51.9883C188.855 52.2227 188.684 52.5078 188.566 52.8438C188.457 53.1797 188.395 53.5625 188.379 53.9922L187.699 53.7812C187.699 52.9609 187.781 52.207 187.945 51.5195C188.109 50.8242 188.348 50.2188 188.66 49.7031C188.98 49.1875 189.371 48.7891 189.832 48.5078C190.293 48.2266 190.82 48.0859 191.414 48.0859C191.602 48.0859 191.793 48.1016 191.988 48.1328C192.184 48.1562 192.344 48.1914 192.469 48.2383ZM200.918 57.4961C200.918 57.2539 200.848 57.0352 200.707 56.8398C200.566 56.6445 200.305 56.4648 199.922 56.3008C199.547 56.1289 199.004 55.9727 198.293 55.832C197.652 55.6914 197.055 55.5156 196.5 55.3047C195.953 55.0859 195.477 54.8242 195.07 54.5195C194.672 54.2148 194.359 53.8555 194.133 53.4414C193.906 53.0195 193.793 52.5391 193.793 52C193.793 51.4688 193.906 50.9688 194.133 50.5C194.367 50.0312 194.699 49.6172 195.129 49.2578C195.566 48.8906 196.098 48.6055 196.723 48.4023C197.355 48.1914 198.066 48.0859 198.855 48.0859C199.957 48.0859 200.902 48.2617 201.691 48.6133C202.488 48.9648 203.098 49.4492 203.52 50.0664C203.949 50.6758 204.164 51.3711 204.164 52.1523H200.789C200.789 51.8242 200.719 51.5312 200.578 51.2734C200.445 51.0078 200.234 50.8008 199.945 50.6523C199.664 50.4961 199.297 50.418 198.844 50.418C198.469 50.418 198.145 50.4844 197.871 50.6172C197.598 50.7422 197.387 50.9141 197.238 51.1328C197.098 51.3438 197.027 51.5781 197.027 51.8359C197.027 52.0312 197.066 52.207 197.145 52.3633C197.23 52.5117 197.367 52.6484 197.555 52.7734C197.742 52.8984 197.984 53.0156 198.281 53.125C198.586 53.2266 198.961 53.3203 199.406 53.4062C200.32 53.5938 201.137 53.8398 201.855 54.1445C202.574 54.4414 203.145 54.8477 203.566 55.3633C203.988 55.8711 204.199 56.5391 204.199 57.3672C204.199 57.9297 204.074 58.4453 203.824 58.9141C203.574 59.3828 203.215 59.793 202.746 60.1445C202.277 60.4883 201.715 60.7578 201.059 60.9531C200.41 61.1406 199.68 61.2344 198.867 61.2344C197.688 61.2344 196.688 61.0234 195.867 60.6016C195.055 60.1797 194.438 59.6445 194.016 58.9961C193.602 58.3398 193.395 57.668 193.395 56.9805H196.594C196.609 57.4414 196.727 57.8125 196.945 58.0938C197.172 58.375 197.457 58.5781 197.801 58.7031C198.152 58.8281 198.531 58.8906 198.938 58.8906C199.375 58.8906 199.738 58.832 200.027 58.7148C200.316 58.5898 200.535 58.4258 200.684 58.2227C200.84 58.0117 200.918 57.7695 200.918 57.4961ZM212.227 61.2344C211.242 61.2344 210.359 61.0781 209.578 60.7656C208.797 60.4453 208.133 60.0039 207.586 59.4414C207.047 58.8789 206.633 58.2266 206.344 57.4844C206.055 56.7344 205.91 55.9375 205.91 55.0938V54.625C205.91 53.6641 206.047 52.7852 206.32 51.9883C206.594 51.1914 206.984 50.5 207.492 49.9141C208.008 49.3281 208.633 48.8789 209.367 48.5664C210.102 48.2461 210.93 48.0859 211.852 48.0859C212.75 48.0859 213.547 48.2344 214.242 48.5312C214.938 48.8281 215.52 49.25 215.988 49.7969C216.465 50.3438 216.824 51 217.066 51.7656C217.309 52.5234 217.43 53.3672 217.43 54.2969V55.7031H207.352V53.4531H214.113V53.1953C214.113 52.7266 214.027 52.3086 213.855 51.9414C213.691 51.5664 213.441 51.2695 213.105 51.0508C212.77 50.832 212.34 50.7227 211.816 50.7227C211.371 50.7227 210.988 50.8203 210.668 51.0156C210.348 51.2109 210.086 51.4844 209.883 51.8359C209.688 52.1875 209.539 52.6016 209.438 53.0781C209.344 53.5469 209.297 54.0625 209.297 54.625V55.0938C209.297 55.6016 209.367 56.0703 209.508 56.5C209.656 56.9297 209.863 57.3008 210.129 57.6133C210.402 57.9258 210.73 58.168 211.113 58.3398C211.504 58.5117 211.945 58.5977 212.438 58.5977C213.047 58.5977 213.613 58.4805 214.137 58.2461C214.668 58.0039 215.125 57.6406 215.508 57.1562L217.148 58.9375C216.883 59.3203 216.52 59.6875 216.059 60.0391C215.605 60.3906 215.059 60.6797 214.418 60.9062C213.777 61.125 213.047 61.2344 212.227 61.2344Z" fill="#888888"/>
<path d="M118.594 98.4219V104.75H101.086V98.4219H118.594ZM103.828 84.875V119H95.6016V84.875H103.828ZM124.125 84.875V119H115.922V84.875H124.125ZM127.992 106.578V106.086C127.992 104.227 128.258 102.516 128.789 100.953C129.32 99.375 130.102 98.0078 131.133 96.8516C132.164 95.6953 133.438 94.7969 134.953 94.1562C136.469 93.5 138.219 93.1719 140.203 93.1719C142.203 93.1719 143.961 93.5 145.477 94.1562C147.008 94.7969 148.289 95.6953 149.32 96.8516C150.352 98.0078 151.133 99.375 151.664 100.953C152.195 102.516 152.461 104.227 152.461 106.086V106.578C152.461 108.422 152.195 110.133 151.664 111.711C151.133 113.273 150.352 114.641 149.32 115.812C148.289 116.969 147.016 117.867 145.5 118.508C143.984 119.148 142.234 119.469 140.25 119.469C138.266 119.469 136.508 119.148 134.977 118.508C133.445 117.867 132.164 116.969 131.133 115.812C130.102 114.641 129.32 113.273 128.789 111.711C128.258 110.133 127.992 108.422 127.992 106.578ZM135.891 106.086V106.578C135.891 107.531 135.961 108.422 136.102 109.25C136.242 110.078 136.477 110.805 136.805 111.43C137.133 112.039 137.578 112.516 138.141 112.859C138.703 113.203 139.406 113.375 140.25 113.375C141.078 113.375 141.766 113.203 142.312 112.859C142.875 112.516 143.32 112.039 143.648 111.43C143.977 110.805 144.211 110.078 144.352 109.25C144.492 108.422 144.562 107.531 144.562 106.578V106.086C144.562 105.164 144.492 104.297 144.352 103.484C144.211 102.656 143.977 101.93 143.648 101.305C143.32 100.664 142.875 100.164 142.312 99.8047C141.75 99.4453 141.047 99.2656 140.203 99.2656C139.375 99.2656 138.68 99.4453 138.117 99.8047C137.57 100.164 137.133 100.664 136.805 101.305C136.477 101.93 136.242 102.656 136.102 103.484C135.961 104.297 135.891 105.164 135.891 106.086ZM163.688 111.453L168.375 93.6406H173.32L171.562 102.57L166.922 119H162.961L163.688 111.453ZM161.836 93.6406L164.742 111.312L165.07 119H160.266L154.266 93.6406H161.836ZM177.492 110.938L180.422 93.6406H187.992L182.039 119H177.234L177.492 110.938ZM173.883 93.6406L178.617 111.406L179.344 119H175.336L170.789 102.617L169.102 93.6406H173.883ZM218.297 84.875V119H210.07V84.875H218.297ZM228.562 84.875V91.2266H200.039V84.875H228.562ZM225.773 106.578V106.086C225.773 104.227 226.039 102.516 226.57 100.953C227.102 99.375 227.883 98.0078 228.914 96.8516C229.945 95.6953 231.219 94.7969 232.734 94.1562C234.25 93.5 236 93.1719 237.984 93.1719C239.984 93.1719 241.742 93.5 243.258 94.1562C244.789 94.7969 246.07 95.6953 247.102 96.8516C248.133 98.0078 248.914 99.375 249.445 100.953C249.977 102.516 250.242 104.227 250.242 106.086V106.578C250.242 108.422 249.977 110.133 249.445 111.711C248.914 113.273 248.133 114.641 247.102 115.812C246.07 116.969 244.797 117.867 243.281 118.508C241.766 119.148 240.016 119.469 238.031 119.469C236.047 119.469 234.289 119.148 232.758 118.508C231.227 117.867 229.945 116.969 228.914 115.812C227.883 114.641 227.102 113.273 226.57 111.711C226.039 110.133 225.773 108.422 225.773 106.578ZM233.672 106.086V106.578C233.672 107.531 233.742 108.422 233.883 109.25C234.023 110.078 234.258 110.805 234.586 111.43C234.914 112.039 235.359 112.516 235.922 112.859C236.484 113.203 237.188 113.375 238.031 113.375C238.859 113.375 239.547 113.203 240.094 112.859C240.656 112.516 241.102 112.039 241.43 111.43C241.758 110.805 241.992 110.078 242.133 109.25C242.273 108.422 242.344 107.531 242.344 106.578V106.086C242.344 105.164 242.273 104.297 242.133 103.484C241.992 102.656 241.758 101.93 241.43 101.305C241.102 100.664 240.656 100.164 240.094 99.8047C239.531 99.4453 238.828 99.2656 237.984 99.2656C237.156 99.2656 236.461 99.4453 235.898 99.8047C235.352 100.164 234.914 100.664 234.586 101.305C234.258 101.93 234.023 102.656 233.883 103.484C233.742 104.297 233.672 105.164 233.672 106.086ZM266.086 84.875H279.516C282.141 84.875 284.422 85.2656 286.359 86.0469C288.297 86.8281 289.789 87.9844 290.836 89.5156C291.898 91.0469 292.43 92.9375 292.43 95.1875C292.43 97.1406 292.125 98.7734 291.516 100.086C290.906 101.398 290.055 102.484 288.961 103.344C287.883 104.188 286.625 104.883 285.188 105.43L282.492 106.953H271.219L271.172 100.602H279.516C280.562 100.602 281.43 100.414 282.117 100.039C282.805 99.6641 283.32 99.1328 283.664 98.4453C284.023 97.7422 284.203 96.9062 284.203 95.9375C284.203 94.9531 284.023 94.1094 283.664 93.4062C283.305 92.7031 282.773 92.1641 282.07 91.7891C281.383 91.4141 280.531 91.2266 279.516 91.2266H274.312V119H266.086V84.875ZM284.766 119L277.219 103.906L285.938 103.859L293.578 118.648V119H284.766ZM311.836 112.836V93.6406H319.758V119H312.352L311.836 112.836ZM312.586 107.68L314.648 107.633C314.648 109.336 314.445 110.914 314.039 112.367C313.633 113.805 313.031 115.055 312.234 116.117C311.453 117.18 310.484 118.008 309.328 118.602C308.188 119.18 306.867 119.469 305.367 119.469C304.117 119.469 302.969 119.297 301.922 118.953C300.891 118.594 300 118.039 299.25 117.289C298.5 116.523 297.914 115.547 297.492 114.359C297.086 113.156 296.883 111.719 296.883 110.047V93.6406H304.781V110.094C304.781 110.656 304.852 111.141 304.992 111.547C305.133 111.953 305.336 112.297 305.602 112.578C305.867 112.844 306.195 113.047 306.586 113.188C306.992 113.312 307.453 113.375 307.969 113.375C309.156 113.375 310.086 113.125 310.758 112.625C311.43 112.125 311.898 111.445 312.164 110.586C312.445 109.727 312.586 108.758 312.586 107.68ZM331.875 99.0547V119H323.977V93.6406H331.383L331.875 99.0547ZM330.938 105.453L329.086 105.5C329.086 103.562 329.32 101.836 329.789 100.32C330.258 98.7891 330.922 97.4922 331.781 96.4297C332.641 95.3672 333.664 94.5625 334.852 94.0156C336.055 93.4531 337.391 93.1719 338.859 93.1719C340.031 93.1719 341.102 93.3438 342.07 93.6875C343.055 94.0312 343.898 94.5859 344.602 95.3516C345.32 96.1172 345.867 97.1328 346.242 98.3984C346.633 99.6484 346.828 101.195 346.828 103.039V119H338.883V103.016C338.883 102 338.742 101.227 338.461 100.695C338.18 100.148 337.773 99.7734 337.242 99.5703C336.711 99.3672 336.062 99.2656 335.297 99.2656C334.484 99.2656 333.797 99.4219 333.234 99.7344C332.672 100.047 332.219 100.484 331.875 101.047C331.547 101.594 331.305 102.242 331.148 102.992C331.008 103.742 330.938 104.562 330.938 105.453ZM363.773 108.195H357.047C357.047 106.82 357.141 105.609 357.328 104.562C357.531 103.5 357.875 102.547 358.359 101.703C358.844 100.859 359.5 100.078 360.328 99.3594C361.062 98.75 361.695 98.1641 362.227 97.6016C362.758 97.0391 363.164 96.4688 363.445 95.8906C363.727 95.3125 363.867 94.6953 363.867 94.0391C363.867 93.2266 363.75 92.5625 363.516 92.0469C363.297 91.5312 362.961 91.1484 362.508 90.8984C362.07 90.6328 361.516 90.5 360.844 90.5C360.297 90.5 359.781 90.6328 359.297 90.8984C358.828 91.1641 358.445 91.5781 358.148 92.1406C357.852 92.6875 357.688 93.4141 357.656 94.3203H349.711C349.758 91.9922 350.273 90.1016 351.258 88.6484C352.258 87.1797 353.586 86.1094 355.242 85.4375C356.914 84.75 358.781 84.4062 360.844 84.4062C363.125 84.4062 365.086 84.7578 366.727 85.4609C368.367 86.1641 369.625 87.2109 370.5 88.6016C371.375 89.9766 371.812 91.6719 371.812 93.6875C371.812 95.0312 371.555 96.2031 371.039 97.2031C370.539 98.1875 369.859 99.1094 369 99.9688C368.156 100.812 367.211 101.719 366.164 102.688C365.258 103.484 364.641 104.297 364.312 105.125C363.984 105.938 363.805 106.961 363.773 108.195ZM356.086 115.32C356.086 114.195 356.492 113.258 357.305 112.508C358.117 111.742 359.172 111.359 360.469 111.359C361.766 111.359 362.82 111.742 363.633 112.508C364.445 113.258 364.852 114.195 364.852 115.32C364.852 116.445 364.445 117.391 363.633 118.156C362.82 118.906 361.766 119.281 360.469 119.281C359.172 119.281 358.117 118.906 357.305 118.156C356.492 117.391 356.086 116.445 356.086 115.32Z" fill="black"/>
<path d="M1134 0H1348C1356.28 0 1363 6.71573 1363 15V148C1363 156.284 1356.28 163 1348 163H1134V0Z" fill="#02BAFF"/>
<path d="M1260.62 78.8078C1263.81 78.8078 1266.93 79.7552 1269.59 81.5302C1272.25 83.3052 1274.32 85.8281 1275.54 88.7798C1276.76 91.7315 1277.08 94.9795 1276.46 98.1131C1275.84 101.247 1274.3 104.125 1272.04 106.384C1269.78 108.643 1266.9 110.182 1263.77 110.805C1260.63 111.428 1257.39 111.108 1254.43 109.886C1251.48 108.663 1248.96 106.593 1247.18 103.936C1245.41 101.28 1244.46 98.1565 1244.46 94.9616C1244.46 90.6774 1246.16 86.5686 1249.19 83.5392C1252.22 80.5097 1256.33 78.8078 1260.62 78.8078ZM1260.62 73.4232C1256.36 73.4232 1252.19 74.6864 1248.65 77.0531C1245.11 79.4198 1242.35 82.7836 1240.72 86.7192C1239.09 90.6549 1238.66 94.9855 1239.49 99.1636C1240.32 103.342 1242.37 107.179 1245.39 110.192C1248.4 113.204 1252.24 115.255 1256.41 116.086C1260.59 116.917 1264.92 116.491 1268.86 114.861C1272.79 113.23 1276.16 110.47 1278.52 106.928C1280.89 103.386 1282.15 99.2215 1282.15 94.9616C1282.15 89.2493 1279.88 83.7709 1275.85 79.7317C1271.81 75.6924 1266.33 73.4232 1260.62 73.4232Z" fill="white"/>
<path d="M1274.08 46.4999H1220.23C1218.8 46.4999 1217.43 47.0672 1216.42 48.0771C1215.41 49.0869 1214.85 50.4565 1214.85 51.8845V105.731C1214.85 107.159 1215.41 108.528 1216.42 109.538C1217.43 110.548 1218.8 111.115 1220.23 111.115H1231V105.731H1220.23V68.0383H1279.46V51.8845C1279.46 50.4565 1278.89 49.0869 1277.88 48.0771C1276.87 47.0672 1275.5 46.4999 1274.08 46.4999ZM1220.23 62.6537V51.8845H1274.08V62.6537H1220.23Z" fill="white"/>
<path d="M1255.23 86.8848V103.039L1268.69 94.9617L1255.23 86.8848Z" fill="white"/>
</svg>
